<svg width="528" height="528" viewBox="0 0 528 528" fill="none" xmlns="http://www.w3.org/2000/svg">
<path d="M266.775 256.998C261.575 254.998 258.421 259.503 258.275 261.999C257.775 270.498 265.681 269.783 267.775 268.998C271.774 267.498 273.275 259.498 266.775 256.998Z" stroke="black" stroke-width="0.5"/>
<path d="M284.752 204.5C280.352 206.9 276.585 211.333 275.752 213C276.752 202 273.252 193.5 266.252 193C258.752 193 255.252 204 254.752 211.5C248.752 207.5 244.752 200 241.252 200C237.752 207.5 238.752 212.5 239.252 218.5C230.752 212.5 225.752 211 220.752 212.5C209.752 216 218.752 229.5 221.752 233.5C216.752 233 208.252 235 204.252 237C208.752 245 212.752 249.5 216.252 252C205.752 252 197.252 257 197.252 262.5C197.752 273 210.752 272.5 217.252 272.5C209.752 277 204.752 285.5 202.752 288.5C208.252 290 215.752 290.5 222.752 291C219.252 294.5 215.252 301 215.252 307.5C216.752 319.5 231.252 309 236.252 305.5C235.252 309.5 236.752 321.5 236.752 327C242.752 323.5 247.752 318 255.252 312C254.252 325.5 262.252 333 266.752 333C271.252 333 275.252 323 275.752 316C278.752 320 286.752 324 290.752 326C292.752 322.5 293.252 313.5 292.752 307.5C293.752 308 302.752 314 311.752 312C320.752 310 308.752 295.5 306.752 292.5C318.752 292 322.752 288.5 326.252 287.5C325.252 284 316.252 276.5 310.752 273.5C319.752 272.5 323.252 271.5 329.752 266.5C337.252 257 321.252 253 314.252 252C319.752 249 325.752 240.5 327.252 238C324.752 237 315.752 235 308.752 234.5C314.252 227.5 317.252 221.5 316.252 217C312.252 205 299.752 214.5 294.752 217.5C296.252 212.5 293.252 201 292.252 199C291.252 200 290.252 201.5 284.752 204.5Z" fill="#99A2D9"/>
<path d="M286.752 204.5C282.352 206.9 278.585 211.333 277.752 213C278.752 202 275.252 193.5 268.252 193C260.752 193 257.252 204 256.752 211.5C250.752 207.5 246.752 200 243.252 200C239.752 207.5 240.752 212.5 241.252 218.5C232.752 212.5 227.752 211 222.752 212.5C211.752 216 220.752 229.5 223.752 233.5C218.752 233 210.252 235 206.252 237C210.752 245 214.752 249.5 218.252 252C207.752 252 199.252 257 199.252 262.5C199.752 273 212.752 272.5 219.252 272.5C211.752 277 206.752 285.5 204.752 288.5C210.252 290 217.752 290.5 224.752 291C221.252 294.5 217.252 301 217.252 307.5C218.752 319.5 233.252 309 238.252 305.5C237.252 309.5 238.752 321.5 238.752 327C244.752 323.5 249.752 318 257.252 312C256.252 325.5 264.252 333 268.752 333C273.252 333 277.252 323 277.752 316C280.752 320 288.752 324 292.752 326C294.752 322.5 295.252 313.5 294.752 307.5C295.752 308 304.752 314 313.752 312C322.752 310 310.752 295.5 308.752 292.5C320.752 292 324.752 288.5 328.252 287.5C327.252 284 318.252 276.5 312.752 273.5C321.752 272.5 325.252 271.5 331.752 266.5C339.252 257 323.252 253 316.252 252C321.752 249 327.752 240.5 329.252 238C326.752 237 317.752 235 310.752 234.5C316.252 227.5 319.252 221.5 318.252 217C314.252 205 301.752 214.5 296.752 217.5C298.252 212.5 295.252 201 294.252 199C293.252 200 292.252 201.5 286.752 204.5Z" fill="white"/>
<path d="M283.252 217.5C279.252 219.5 272.919 231.333 270.252 237C269.252 229 269.752 215.5 265.752 207.5C262.252 212 261.752 228 261.252 237C259.252 228.5 253.752 222 249.752 216V225C249.752 231.5 249.752 233.5 250.752 240C243.752 233 237.252 226.5 229.752 225C230.752 231 241.252 243 244.752 247C241.252 244.5 228.252 244.5 222.752 244C224.252 247 238.252 256 240.252 258C229.852 258 217.419 260.833 213.252 262.5C214.085 262.667 217.352 263.5 217.752 263.5C222.752 263.5 233.252 269 240.252 269.5C233.752 272.5 225.752 279.5 221.752 283C231.252 282.5 231.752 282 242.752 279C235.152 285 229.585 296.833 227.752 302C243.752 295 247.252 288 250.752 285C249.752 288.5 247.252 303 248.252 307.5C254.752 305 260.252 289.5 260.252 289C260.252 288.5 261.752 284.5 261.752 292C261.752 299.5 263.252 310.5 265.752 316.5C268.252 314 268.252 295.5 268.252 289.5C269.852 292.7 278.252 302.5 282.252 307C281.252 295.5 277.252 289.5 277.252 287.5C277.252 287 276.252 284 278.752 286.5C281.252 289 291.252 297.5 298.752 300C296.252 295.5 287.252 283 283.252 277.5C285.752 278.5 294.252 281 305.252 283C304.052 279.8 292.752 271.667 287.252 268C293.252 268 308.252 266 312.252 264.5C308.752 261.5 304.252 260.5 287.252 256.5C290.252 254.5 301.252 248.5 308.252 243C305.452 242.6 290.419 245.5 283.252 247C285.252 245 299.252 233 301.252 226.5C296.752 226.5 287.252 233.5 278.752 241C280.752 236.5 284.752 216 283.252 217.5Z" fill="#FAA759"/>
<path d="M264.775 256.998C259.575 254.998 256.421 259.503 256.275 261.999C255.775 270.498 263.681 269.783 265.775 268.998C269.774 267.498 271.275 259.498 264.775 256.998Z" fill="#99A2D9"/>
<path d="M265.775 255.998C260.575 253.998 257.421 258.503 257.275 260.999C256.775 269.498 264.681 268.783 266.775 267.998C270.774 266.498 272.275 258.498 265.775 255.998Z" fill="white"/>
<path d="M237.252 180.5C239.252 183.5 242.252 187.5 245.752 191C240.952 189.8 233.752 194.5 230.752 197C230.597 197.128 230.252 197.5 230.252 197C230.252 196.5 229.752 195.5 229.752 194C229.752 192.5 226.752 184.5 226.252 183C225.752 181.5 225.752 180 226.252 180.5C226.652 180.9 229.419 189.333 230.752 193.5C231.252 194 231.752 193 232.752 192.5C233.646 192.052 231.123 186.036 228.752 177.5C226.252 168.5 229.252 173.5 230.252 175.5C231.252 177.5 236.752 189 237.252 189.5C237.752 190 238.252 189 239.752 188.5C237.752 186.5 234.752 178 233.752 175.5C232.752 173 235.252 177.5 237.252 180.5Z" fill="#99A2D9"/>
<path d="M237.252 179.5C239.252 182.5 242.252 186.5 245.752 190C240.952 188.8 233.752 193.5 230.752 196C230.597 196.128 230.252 196.5 230.252 196C230.252 195.5 229.752 194.5 229.752 193C229.752 191.5 226.752 183.5 226.252 182C225.752 180.5 225.752 179 226.252 179.5C226.652 179.9 229.419 188.333 230.752 192.5C231.252 193 231.752 192 232.752 191.5C233.646 191.052 231.123 185.036 228.752 176.5C226.252 167.5 229.252 172.5 230.252 174.5C231.252 176.5 236.752 188 237.252 188.5C237.752 189 238.252 188 239.752 187.5C237.752 185.5 234.752 177 233.752 174.5C232.752 172 235.252 176.5 237.252 179.5Z" fill="white"/>
<path d="M303.252 184.5C302.239 187.96 301.818 191.5 301.818 196.744C299.652 192.295 291.424 189.801 287.58 189.11C287.382 189.073 286.369 188.821 286.752 188.5C287.135 188.179 288.086 187.379 289.235 186.415C290.385 185.451 294.424 178.935 295.252 177.588C296.08 176.24 297.565 175.297 297.503 176.001C297.454 176.565 293.587 183.3 291.252 187C291.19 187.704 291.287 187.304 292.313 187.749C293.23 188.147 295.682 183.805 299.877 176C305.252 166 303.141 174.448 302.252 176.5C301.363 178.551 297.565 188.564 297.504 189.268C297.442 189.972 298.529 189.713 299.877 190.54C300.123 187.723 303.98 178.374 305.252 176.001C306.524 173.628 304.264 181.04 303.252 184.5Z" fill="#99A2D9"/>
<path d="M303.252 183.5C302.239 186.96 301.818 190.5 301.818 195.744C299.652 191.295 291.424 188.801 287.58 188.11C287.382 188.073 286.369 187.821 286.752 187.5C287.135 187.179 288.086 186.379 289.235 185.415C290.385 184.451 294.424 177.935 295.252 176.588C296.08 175.24 297.565 174.297 297.503 175.001C297.454 175.565 293.587 182.3 291.252 186C291.19 186.704 291.287 186.304 292.313 186.749C293.23 187.147 295.682 182.805 299.877 175C305.252 165 303.141 173.448 302.252 175.5C301.363 177.551 297.565 187.564 297.504 188.268C297.442 188.972 298.529 188.713 299.877 189.54C300.123 186.723 303.98 177.374 305.252 175.001C306.524 172.628 304.264 180.04 303.252 183.5Z" fill="white"/>
<path d="M343.752 237C340.752 239 338.622 239.483 335.252 243.5C336.452 238.7 332.188 231.673 329.688 228.673C329.56 228.518 328.945 227.674 329.445 227.674C329.945 227.674 328.752 227.674 330.252 227.674C331.752 227.674 343.598 224.001 345.098 223.501C346.598 223.001 350.778 223.231 350.278 223.731C349.878 224.131 338.023 228.084 333.857 229.417C333.357 229.917 333.688 229.673 334.188 230.673C334.635 231.567 338.022 230.956 346.252 227.674C356.798 223.468 351.033 227.444 349.033 228.444C347.033 229.444 337.688 234.673 337.188 235.173C336.688 235.673 337.688 236.173 338.188 237.673C340.188 235.673 348.252 233 350.752 232C353.252 231 346.752 235 343.752 237Z" fill="#99A2D9"/>
<path d="M343.752 236C340.752 238 338.622 238.483 335.252 242.5C336.452 237.7 332.188 230.673 329.688 227.673C329.56 227.518 328.945 226.674 329.445 226.674C329.945 226.674 328.752 226.674 330.252 226.674C331.752 226.674 343.598 223.001 345.098 222.501C346.598 222.001 350.778 222.231 350.278 222.731C349.878 223.131 338.023 227.084 333.857 228.417C333.357 228.917 333.688 228.673 334.188 229.673C334.635 230.567 338.022 229.956 346.252 226.674C356.798 222.468 351.033 226.444 349.033 227.444C347.033 228.444 337.688 233.673 337.188 234.173C336.688 234.673 337.688 235.173 338.188 236.673C340.188 234.673 348.252 232 350.752 231C353.252 230 346.752 234 343.752 236Z" fill="white"/>
<path d="M336.751 302.5C333.29 301.487 331.251 300.5 326.251 299.5C330.699 297.334 334.198 289.182 334.889 285.338C334.926 285.141 335.177 284.127 335.499 284.51C335.82 284.893 335.053 283.979 336.017 285.128C336.981 286.277 347.409 292.991 348.757 293.818C350.104 294.646 352.614 297.997 351.91 297.935C351.346 297.886 340.45 292.835 336.751 290.5C336.046 290.438 336.461 290.975 336.017 292C335.619 292.918 337.447 293.74 345.251 297.935C355.251 303.31 347.932 301.39 345.88 300.5C343.828 299.611 335.593 296.562 334.889 296.5C334.184 296.438 332.078 297.153 331.251 298.5C334.068 298.747 346.384 303.728 348.757 305.001C351.13 306.273 340.211 303.513 336.751 302.5Z" fill="#99A2D9"/>
<path d="M336.751 301.5C333.29 300.487 331.251 299.5 326.251 298.5C330.699 296.334 334.198 288.182 334.889 284.338C334.926 284.141 335.177 283.127 335.499 283.51C335.82 283.893 335.053 282.979 336.017 284.128C336.981 285.277 347.409 291.991 348.757 292.818C350.104 293.646 352.614 296.997 351.91 296.935C351.346 296.886 340.45 291.835 336.751 289.5C336.046 289.438 336.461 289.975 336.017 291C335.619 291.918 337.447 292.74 345.251 296.935C355.251 302.31 347.932 300.39 345.88 299.5C343.828 298.611 335.593 295.562 334.889 295.5C334.184 295.438 332.078 296.153 331.251 297.5C334.068 297.747 346.384 302.728 348.757 304.001C351.13 305.273 340.211 302.513 336.751 301.5Z" fill="white"/>
<path d="M290.753 342.499C289.022 339.336 288.543 337.196 284.919 333.21C289.596 334.823 296.547 332.229 299.753 330C299.919 329.886 301.915 328.535 301.872 329.033C301.828 329.531 301.198 330.39 301.068 331.884C300.937 333.378 304.886 342.462 305.253 344C305.621 345.537 305.708 346.542 305.253 346C304.889 345.567 300.718 338.267 299.753 334C299.253 333.21 297.753 334.5 297.127 334.812C296.232 335.258 299.57 339.756 302.123 348.241C305.393 359.113 301.575 352.58 300.753 350.5C299.931 348.421 293.708 337.542 293.253 337C292.799 336.459 290.699 335.67 289.161 336.038C290.979 338.204 295.475 345.922 296.253 348.5C297.031 351.078 293.216 347 290.753 342.499Z" fill="#99A2D9"/>
<path d="M291.753 342.499C290.022 339.336 289.543 337.196 285.919 333.21C290.596 334.823 297.547 332.229 300.753 330C300.919 329.886 302.915 328.535 302.872 329.033C302.828 329.531 302.198 330.39 302.068 331.884C301.937 333.378 305.886 342.462 306.253 344C306.621 345.537 306.708 346.542 306.253 346C305.889 345.567 301.718 338.267 300.753 334C300.253 333.21 298.753 334.5 298.127 334.812C297.232 335.258 300.57 339.756 303.123 348.241C306.393 359.113 302.575 352.58 301.753 350.5C300.931 348.421 294.708 337.542 294.253 337C293.799 336.459 291.699 335.67 290.161 336.038C291.979 338.204 296.475 345.922 297.253 348.5C298.031 351.078 294.216 347 291.753 342.499Z" fill="white"/>
<path d="M185.971 290.123C188.971 288.123 190.096 286.958 193.752 283.001C192.552 287.801 196.707 294.999 199.207 297.999C199.335 298.154 200.855 300.025 200.355 300.025C199.855 300.025 198.945 299.473 197.445 299.473C195.945 299.473 188.252 302 186.752 302.5C185.252 303 179.752 304 180.252 303.5C180.652 303.1 191.056 299.681 195.222 298.347C195.966 297.78 194.55 296.399 194.184 295.802C193.662 294.95 192.847 296.852 184.252 299.001C174.252 301.501 176.751 299.347 178.751 298.347C180.751 297.347 191.167 292.634 191.667 292.134C192.167 291.634 192.769 289.473 192.269 287.973C190.269 289.973 183.252 293.501 180.752 294.501C178.252 295.501 181.702 292.969 185.971 290.123Z" fill="#99A2D9"/>
<path d="M186.971 290.123C189.971 288.123 191.096 286.958 194.752 283.001C193.552 287.801 197.707 294.999 200.207 297.999C200.335 298.154 201.855 300.025 201.355 300.025C200.855 300.025 199.945 299.473 198.445 299.473C196.945 299.473 189.252 302 187.752 302.5C186.252 303 180.752 304 181.252 303.5C181.652 303.1 192.056 299.681 196.222 298.347C196.966 297.78 195.55 296.399 195.184 295.802C194.662 294.95 193.847 296.852 185.252 299.001C175.252 301.501 177.751 299.347 179.751 298.347C181.751 297.347 192.167 292.634 192.667 292.134C193.167 291.634 193.769 289.473 193.269 287.973C191.269 289.973 184.252 293.501 181.752 294.501C179.252 295.501 182.702 292.969 186.971 290.123Z" fill="white"/>
<path d="M191.253 225C194.788 225.707 196.358 226.61 201.741 226.396C197.499 228.942 195.606 235.611 195.253 239.5C195.234 239.7 195.606 244.354 195.253 244C194.899 243.646 192.99 241.92 191.929 240.86C190.869 239.799 184.418 235.942 183.004 235.235C181.589 234.528 176.993 231.346 177.7 231.346C178.266 231.346 188.04 236.285 191.929 238.288C192.856 238.413 192.832 236.435 192.995 235.755C193.229 234.782 191.308 235.551 183.71 230.993C174.871 225.689 175.579 224.793 177.7 225.5C179.822 226.207 193.102 231.381 193.809 231.381C194.516 231.381 196.47 230.279 197.177 228.864C194.348 228.864 182.728 225.061 180.253 224C177.779 222.94 186.222 223.994 191.253 225Z" fill="#99A2D9"/>
<path d="M192.253 225C195.788 225.707 197.358 226.61 202.741 226.396C198.499 228.942 196.606 235.611 196.253 239.5C196.234 239.7 196.606 244.354 196.253 244C195.899 243.646 193.99 241.92 192.929 240.86C191.869 239.799 185.418 235.942 184.004 235.235C182.589 234.528 177.993 231.346 178.7 231.346C179.266 231.346 189.04 236.285 192.929 238.288C193.856 238.413 193.832 236.435 193.995 235.755C194.229 234.782 192.308 235.551 184.71 230.993C175.871 225.689 176.579 224.793 178.7 225.5C180.822 226.207 194.102 231.381 194.809 231.381C195.516 231.381 197.47 230.279 198.177 228.864C195.348 228.864 183.728 225.061 181.253 224C178.779 222.94 187.222 223.994 192.253 225Z" fill="white"/>
<path d="M225.252 335.923C226.273 332.465 226.229 332.307 226.016 326.923C228.561 331.166 234.061 332.366 239.752 334C240.252 334.144 241.106 333.646 240.752 334C240.398 334.354 240.252 334.5 239.239 335.923C238.368 337.144 235.959 344.142 235.252 345.556C234.545 346.971 233.371 350.134 233.371 349.426C233.371 348.861 234.868 340.588 236.871 336.699C236.996 335.772 235.018 335.796 234.338 335.633C233.365 335.399 233.463 338.859 229.964 346.999C225.481 357.431 227.545 345.621 228.252 343.5C228.959 341.379 229.964 335.526 229.964 334.819C229.964 334.112 228.862 332.158 227.448 331.451C227.448 334.28 225.313 342.525 224.252 345C223.191 347.475 223.752 341 225.252 335.923Z" fill="#99A2D9"/>
<path d="M225.252 334.923C226.273 331.465 226.229 331.307 226.016 325.923C228.561 330.166 234.061 331.366 239.752 333C240.252 333.144 241.106 332.646 240.752 333C240.398 333.354 240.252 333.5 239.239 334.923C238.368 336.144 235.959 343.142 235.252 344.556C234.545 345.971 233.371 349.134 233.371 348.426C233.371 347.861 234.868 339.588 236.871 335.699C236.996 334.772 235.018 334.796 234.338 334.633C233.365 334.399 233.463 337.859 229.964 345.999C225.481 356.431 227.545 344.621 228.252 342.5C228.959 340.379 229.964 334.526 229.964 333.819C229.964 333.112 228.862 331.158 227.448 330.451C227.448 333.28 225.313 341.525 224.252 344C223.191 346.475 223.752 340 225.252 334.923Z" fill="white"/>
</svg>
