<svg width="528" height="528" viewBox="0 0 528 528" fill="none" xmlns="http://www.w3.org/2000/svg">
<path d="M285.5 234.5C284.7 236.5 280.167 241 278 243C279.833 240.334 283.6 234.7 284 233.5C284.5 232 285.5 228.5 288 226C290.5 223.5 290 226.5 289 228C288 229.5 286.5 232 285.5 234.5Z" fill="#D55994"/>
<path d="M261.5 218.5C260.7 219.7 261.167 223.334 261.5 225L263.5 233C263.333 231.167 263 226.8 263 224C263 220.5 262.5 217 261.5 218.5Z" fill="#D55994"/>
<path d="M257.499 249.5C258.299 251.5 258.499 255 258.499 256.5C257.999 258.5 254.999 256 254.499 255.5C253.999 255 251.999 251 244.999 249C237.999 247 233.499 241.5 230.999 240C228.499 238.5 225.999 234.5 224.999 236.5C223.999 238.5 230.999 242.5 233.499 244C236 245.5 240.499 248 244.499 250C248.499 252 251.999 255.5 252.999 257C253.999 258.5 253.499 259.5 251.999 260C250.499 260.5 249.999 259 245.999 258.5C241.999 258 237.499 252 233.499 250.5C229.5 249 225.999 249.5 220.999 249.5C215.999 249.5 216.999 250 218.999 251.5C220.999 253 226.499 251.5 230.999 251.5C235.499 251.5 238.499 255 240.499 256.5C242.499 258 245.999 261 248.999 261.5C251.999 262 252.499 264 252.499 265.5C252.499 267 244.999 265.5 242.499 267C240 268.5 237.499 271 233.499 274C229.5 277 226.999 276.5 224.499 277.5C221.999 278.5 220.499 277.5 217.999 279.5C215.499 281.5 220.499 280.5 222.499 279.5C224.499 278.5 230.499 277.5 233.499 275.5C236.499 273.5 240.999 270.5 243.499 268.5C245.999 266.5 249.999 268 252.499 268C254.999 268 254.499 268.5 252.5 270.499L252.499 270.5C250.5 272.5 240.999 277.5 242.499 277.5C243.999 277.5 244.999 277 247.499 274.5C249.999 272 254.499 271 254.499 272.5C254.499 274 250.999 277.5 249.999 279.5C248.999 281.5 247.499 283 245.999 286C244.499 289 241.999 292 237.499 296C232.999 300 234.499 300.5 236.499 300.5C238.499 300.5 241.499 294.5 242.999 292.5C244.499 290.5 249.499 283.5 250.999 279.5C252.499 275.5 256.499 274 258.499 272.5C260.499 271 258.999 277.5 258.499 279.5C257.999 281.5 256.499 285 254.499 287.5C252.499 290 248.499 295.5 248.499 297.5C248.499 299.5 246.499 309 248.499 307.5C250.499 306 250.499 297.5 250.999 294.5C251.499 291.5 254.499 289.5 256.499 287.5C258.499 285.5 259.499 282 260.499 277C261.499 272 262.999 274.5 262.999 276.5C262.999 278.5 263.999 283 266.999 288C269.999 293 272.999 295 273.499 299C273.999 303 274.999 306 275.499 307.5C275.999 309 276.499 304.5 276.499 302.5C276.499 300.5 275.499 295.5 273.499 292.5C271.499 289.5 266.999 286 265.999 283.5C264.999 281 264.999 276.5 264.999 274.5C264.999 272.5 265.499 273.5 266.999 273.5C268.499 273.5 272.999 279.5 274.499 283C275.999 286.5 276.499 287.5 278.999 291C281.499 294.5 281.999 297 283.999 299C285.999 301 286.499 301.5 287.999 301.5C289.499 301.5 287.499 297.5 282.999 293.5C278.499 289.5 277.499 287.5 276.499 286C275.499 284.5 276.499 284.5 274.999 281.5C273.499 278.5 271.499 274 270.499 273.5C269.499 273 268.499 271 270.499 271C272.499 271 272.499 272 276.499 274C280.499 276 283.499 277.5 281.999 276.5C280.499 275.5 280.499 274.5 277.499 272.5C274.499 270.5 273.499 269.5 271.499 268.5C269.499 267.5 270.499 267 273.499 267C276.499 267 280.499 268 284.499 269.5C288.499 271 292.999 276.5 295.499 277.5C297.999 278.5 305.499 279 305.499 278.5C305.499 278 304.499 277.5 300.999 277C297.499 276.5 296.499 275.5 293.999 274.5C291.499 273.5 287.499 269.5 284.999 268C282.499 266.5 278.999 265.5 275.499 265.5C271.999 265.5 271.499 264 271.499 263C271.499 262 276.499 261.5 278.999 261C281.499 260.5 288.499 256.5 288.499 254.5C288.499 252.5 292.999 252 293.999 251.5C294.999 251 298.999 252 300.999 252C302.999 252 305.999 250.5 305.499 250C304.999 249.5 301.499 250 299.499 250.5C297.499 251 294.999 249.5 292.499 251C289.999 252.5 287.999 254 287.499 255C286.999 256 285.499 256.5 282.999 257.5C280.499 258.5 278.999 258.5 277.499 259C275.999 259.5 272.499 260.5 270.499 259.5C269.499 258 272.499 256 275.499 253.5C278.499 251 279.999 250.5 283.999 248C287.999 245.5 289.499 244.5 292.999 242.5C296.499 240.5 298.999 238.5 298.999 237C298.999 235.5 294.999 238.5 292.999 239.5C290.999 240.5 287.499 244 283.999 246.5C280.499 249 279.999 248.5 276.499 250.5C272.999 252.5 270.999 255 268.999 256.5C266.999 258 266.999 256.5 266.999 255C266.999 253.5 268.499 252 268.499 250.5C268.499 249 269.999 245 268.999 244.5C267.999 245.5 267.999 248.5 266.499 250.5C264.999 252.5 264.999 253.5 263.999 254.5C262.999 255.5 263.999 252.5 263.999 251C263.999 249.5 263.999 240.5 262.999 239.5V245C262.999 247.5 262.499 248.5 261.999 251C261.499 253.5 261.499 254 260.499 254.5C259.499 255 259.499 251 258.499 249.5C257.699 248.3 256.833 245.333 256.499 244C256.499 245 256.699 247.5 257.499 249.5Z" fill="#D55994"/>
<path d="M249.5 220.5C249.5 221.7 250.167 225.667 250.5 227.5L251 229.5C251.5 232.5 257.5 237.5 258 238C258.5 238.5 256.5 235 254.5 233C252.5 231 252.5 227.5 252 226.5C251.5 225.5 251.5 220.5 250.5 219C249.5 217.5 249.5 219 249.5 220.5Z" fill="#D55994"/>
<path d="M296 287C294 284.6 286.167 281 282.5 279.5C285 281.5 290.3 285.7 291.5 286.5C293 287.5 297 291 298.5 291.5C300 292 298.5 290 296 287Z" fill="#D55994"/>
<path d="M241.863 281.086C241.909 281.057 241.955 281.028 242 281C241.955 281.029 241.91 281.057 241.863 281.086C238.068 283.459 230.456 288.588 229.298 290.802C227.832 293.602 224.412 290.802 226.855 289.401C229.298 288.001 229.298 286.601 233.695 284.734C237.957 282.924 240.383 281.991 241.863 281.086Z" fill="#D55994"/>
<path d="M238.499 226.5C237.299 224.9 236.332 225.833 235.999 226.5C235.499 227.499 238.499 231 239.999 233.5C241.499 236 247.499 242 248.499 243C249.499 244 244.999 237 243.999 236C242.999 235 239.999 228.5 238.499 226.5Z" fill="#D55994"/>
<path d="M303.5 263.5C301.5 264.3 295.667 264.167 293 264C293 264.5 301 265.5 303.5 265.5C306 265.5 311 264.5 310.5 263.5C310 262.5 306 262.5 303.5 263.5Z" fill="#D55994"/>
<path d="M263 305C263.8 301.8 262 292.667 261 288.5C261 290.667 260.8 295.9 260 299.5C259 304 260.5 307.5 261 308C261.5 308.5 262 309 263 305Z" fill="#D55994"/>
<path d="M275.5 228C274.7 231.6 271.5 235.5 270 237L271.5 234C272 233 274.5 227.5 274.5 226C274.5 224.5 273.5 222 275 219.5C276.5 217 276.5 220 276 221C275.5 222 276.5 223.5 275.5 228Z" fill="#D55994"/>
<path d="M225.44 261.522C228.236 261.375 233.297 261.777 235.478 261.997C232.482 262.154 230.537 263.257 227.541 263.414C224.546 263.571 222.101 264.701 217.529 263.438C212.957 262.176 221.944 261.705 225.44 261.522Z" fill="#D55994"/>
<path d="M284.5 234.5C283.7 236.5 279.167 241 277 243C278.833 240.334 282.6 234.7 283 233.5C283.5 232 284.5 228.5 287 226C289.5 223.5 289 226.5 288 228C287 229.5 285.5 232 284.5 234.5Z" fill="white"/>
<path d="M262.5 218.5C261.7 219.7 262.167 223.334 262.5 225L264.5 233C264.333 231.167 264 226.8 264 224C264 220.5 263.5 217 262.5 218.5Z" fill="white"/>
<path d="M258.499 248.5C259.299 250.5 259.499 254 259.499 255.5C258.999 257.5 255.999 255 255.499 254.5C254.999 254 252.999 250 245.999 248C238.999 246 234.499 240.5 231.999 239C229.499 237.5 226.999 233.5 225.999 235.5C224.999 237.5 231.999 241.5 234.499 243C237 244.5 241.499 247 245.499 249C249.499 251 252.999 254.5 253.999 256C254.999 257.5 254.499 258.5 252.999 259C251.499 259.5 250.999 258 246.999 257.5C242.999 257 238.499 251 234.499 249.5C230.5 248 226.999 248.5 221.999 248.5C216.999 248.5 217.999 249 219.999 250.5C221.999 252 227.499 250.5 231.999 250.5C236.499 250.5 239.499 254 241.499 255.5C243.499 257 246.999 260 249.999 260.5C252.999 261 253.499 263 253.499 264.5C253.499 266 245.999 264.5 243.499 266C241 267.5 238.499 270 234.499 273C230.5 276 227.999 275.5 225.499 276.5C222.999 277.5 221.499 276.5 218.999 278.5C216.499 280.5 221.499 279.5 223.499 278.5C225.499 277.5 231.499 276.5 234.499 274.5C237.499 272.5 241.999 269.5 244.499 267.5C246.999 265.5 250.999 267 253.499 267C255.999 267 255.499 267.5 253.5 269.499L253.499 269.5C251.5 271.5 241.999 276.5 243.499 276.5C244.999 276.5 245.999 276 248.499 273.5C250.999 271 255.499 270 255.499 271.5C255.499 273 251.999 276.5 250.999 278.5C249.999 280.5 248.499 282 246.999 285C245.499 288 242.999 291 238.499 295C233.999 299 235.499 299.5 237.499 299.5C239.499 299.5 242.499 293.5 243.999 291.5C245.499 289.5 250.499 282.5 251.999 278.5C253.499 274.5 257.499 273 259.499 271.5C261.499 270 259.999 276.5 259.499 278.5C258.999 280.5 257.499 284 255.499 286.5C253.499 289 249.499 294.5 249.499 296.5C249.499 298.5 247.499 308 249.499 306.5C251.499 305 251.499 296.5 251.999 293.5C252.499 290.5 255.499 288.5 257.499 286.5C259.499 284.5 260.499 281 261.499 276C262.499 271 263.999 273.5 263.999 275.5C263.999 277.5 264.999 282 267.999 287C270.999 292 273.999 294 274.499 298C274.999 302 275.999 305 276.499 306.5C276.999 308 277.499 303.5 277.499 301.5C277.499 299.5 276.499 294.5 274.499 291.5C272.499 288.5 267.999 285 266.999 282.5C265.999 280 265.999 275.5 265.999 273.5C265.999 271.5 266.499 272.5 267.999 272.5C269.499 272.5 273.999 278.5 275.499 282C276.999 285.5 277.499 286.5 279.999 290C282.499 293.5 282.999 296 284.999 298C286.999 300 287.499 300.5 288.999 300.5C290.499 300.5 288.499 296.5 283.999 292.5C279.499 288.5 278.499 286.5 277.499 285C276.499 283.5 277.499 283.5 275.999 280.5C274.499 277.5 272.499 273 271.499 272.5C270.499 272 269.499 270 271.499 270C273.499 270 273.499 271 277.499 273C281.499 275 284.499 276.5 282.999 275.5C281.499 274.5 281.499 273.5 278.499 271.5C275.499 269.5 274.499 268.5 272.499 267.5C270.499 266.5 271.499 266 274.499 266C277.499 266 281.499 267 285.499 268.5C289.499 270 293.999 275.5 296.499 276.5C298.999 277.5 306.499 278 306.499 277.5C306.499 277 305.499 276.5 301.999 276C298.499 275.5 297.499 274.5 294.999 273.5C292.499 272.5 288.499 268.5 285.999 267C283.499 265.5 279.999 264.5 276.499 264.5C272.999 264.5 272.499 263 272.499 262C272.499 261 277.499 260.5 279.999 260C282.499 259.5 289.499 255.5 289.499 253.5C289.499 251.5 293.999 251 294.999 250.5C295.999 250 299.999 251 301.999 251C303.999 251 306.999 249.5 306.499 249C305.999 248.5 302.499 249 300.499 249.5C298.499 250 295.999 248.5 293.499 250C290.999 251.5 288.999 253 288.499 254C287.999 255 286.499 255.5 283.999 256.5C281.499 257.5 279.999 257.5 278.499 258C276.999 258.5 273.499 259.5 271.499 258.5C270.499 257 273.499 255 276.499 252.5C279.499 250 280.999 249.5 284.999 247C288.999 244.5 290.499 243.5 293.999 241.5C297.499 239.5 299.999 237.5 299.999 236C299.999 234.5 295.999 237.5 293.999 238.5C291.999 239.5 288.499 243 284.999 245.5C281.499 248 280.999 247.5 277.499 249.5C273.999 251.5 271.999 254 269.999 255.5C267.999 257 267.999 255.5 267.999 254C267.999 252.5 269.499 251 269.499 249.5C269.499 248 270.999 244 269.999 243.5C268.999 244.5 268.999 247.5 267.499 249.5C265.999 251.5 265.999 252.5 264.999 253.5C263.999 254.5 264.999 251.5 264.999 250C264.999 248.5 264.999 239.5 263.999 238.5V244C263.999 246.5 263.499 247.5 262.999 250C262.499 252.5 262.499 253 261.499 253.5C260.499 254 260.499 250 259.499 248.5C258.699 247.3 257.833 244.333 257.499 243C257.499 244 257.699 246.5 258.499 248.5Z" fill="white"/>
<path d="M250.5 220.5C250.5 221.7 251.167 225.667 251.5 227.5L252 229.5C252.5 232.5 258.5 237.5 259 238C259.5 238.5 257.5 235 255.5 233C253.5 231 253.5 227.5 253 226.5C252.5 225.5 252.5 220.5 251.5 219C250.5 217.5 250.5 219 250.5 220.5Z" fill="white"/>
<path d="M297 287C295 284.6 287.167 281 283.5 279.5C286 281.5 291.3 285.7 292.5 286.5C294 287.5 298 291 299.5 291.5C301 292 299.5 290 297 287Z" fill="white"/>
<path d="M242.863 281.086C242.909 281.057 242.955 281.028 243 281C242.955 281.029 242.91 281.057 242.863 281.086C239.068 283.459 231.456 288.588 230.298 290.802C228.832 293.602 225.412 290.802 227.855 289.401C230.298 288.001 230.298 286.601 234.695 284.734C238.957 282.924 241.383 281.991 242.863 281.086Z" fill="white"/>
<path d="M239.499 226.5C238.299 224.9 237.332 225.833 236.999 226.5C236.499 227.499 239.499 231 240.999 233.5C242.499 236 248.499 242 249.499 243C250.499 244 245.999 237 244.999 236C243.999 235 240.999 228.5 239.499 226.5Z" fill="white"/>
<path d="M303.5 262.5C301.5 263.3 295.667 263.167 293 263C293 263.5 301 264.5 303.5 264.5C306 264.5 311 263.5 310.5 262.5C310 261.5 306 261.5 303.5 262.5Z" fill="white"/>
<path d="M264 305C264.8 301.8 263 292.667 262 288.5C262 290.667 261.8 295.9 261 299.5C260 304 261.5 307.5 262 308C262.5 308.5 263 309 264 305Z" fill="white"/>
<path d="M276.5 228C275.7 231.6 272.5 235.5 271 237L272.5 234C273 233 275.5 227.5 275.5 226C275.5 224.5 274.5 222 276 219.5C277.5 217 277.5 220 277 221C276.5 222 277.5 223.5 276.5 228Z" fill="white"/>
<path d="M225.499 260.5C228.299 260.5 233.332 261.167 235.499 261.5C232.499 261.5 230.499 262.5 227.499 262.5C224.499 262.5 221.999 263.5 217.499 262C212.999 260.5 221.999 260.5 225.499 260.5Z" fill="white"/>
<path d="M302.5 192C293.7 196.8 286.167 210 283.5 216C283.5 216.5 286 220 291 221.5C301 210 303 197.5 302.5 192Z" fill="#D55994"/>
<path d="M261.455 183.035C256.234 191.592 256.309 207.47 257 214C257.25 214.433 261.42 215.701 266.5 214.5C269.41 199.541 264.638 187.548 261.455 183.035Z" fill="#D55994"/>
<path d="M326.5 212.184C311.3 214.584 302.167 223.333 299.5 227C300.5 231.5 303 234.184 305.5 235.684C314 230.684 324 218.184 326.5 212.184Z" fill="#D55994"/>
<path d="M344.5 247C329.71 242.751 314.967 246.804 311.001 249C310.5 251 310 255.5 311.501 258.5C327.001 259 339.699 251.381 344.5 247Z" fill="#D55994"/>
<path d="M346.499 277.5C335.815 266.425 317.532 263.582 312.999 263.5C311.566 264.982 310.499 272.5 310.999 273C325.997 278.998 340.15 278.893 346.499 277.5Z" fill="#D55994"/>
<path d="M326.999 314C321.996 299.448 309.573 291.989 305.499 290C303.573 290.737 298.999 295.865 298.999 297C310.057 308.774 320.656 312.58 326.999 314Z" fill="#D55994"/>
<path d="M302.5 331.5C302.776 316.114 293.246 306.177 290.5 302.5C288.438 302.534 283.14 305.611 282.752 306.677C289.116 321.524 297.026 327.996 302.5 331.5Z" fill="#D55994"/>
<path d="M263.588 342.876C271.52 329.689 268.235 316.319 267.695 311.761C265.892 310.76 259.765 310.776 258.896 311.505C256.985 327.544 260.598 337.104 263.588 342.876Z" fill="#D55994"/>
<path d="M224 334C236.374 326.619 242.189 313.217 244 309C242.94 307.232 236.865 303.67 235.748 303.867C226.073 316.802 224.297 327.507 224 334Z" fill="#D55994"/>
<path d="M199.999 314.297C214.152 311.593 224.199 300.988 227.344 297.645C226.952 295.621 222.462 290.197 221.344 290C207.829 298.845 202.499 308.297 199.999 314.297Z" fill="#D55994"/>
<path d="M180.5 281C194.724 283.3 210.902 280.066 215 278C215.324 275.964 213.982 268.068 213 267.5C195 268 184.901 276.217 180.5 281Z" fill="#D55994"/>
<path d="M180.5 249.499C192 259.5 208.887 261.754 213.445 261.214C214.446 259.412 215.729 251.869 215 251C200.5 247 189 245 180.5 249.499Z" fill="#D55994"/>
<path d="M199 214C204 227.5 215.162 235.485 219 238.001C220.926 237.264 225 231.134 225 230C218.029 221.023 209.5 216.5 199 214Z" fill="#D55994"/>
<path d="M221.528 193.224C221.609 207.621 229.754 218.323 232.5 222C234.562 221.966 240.099 218.218 240.487 217.152C237.008 206.333 230.5 198 221.528 193.224Z" fill="#D55994"/>
<path d="M304.5 192C295.7 196.8 288.167 210 285.5 216C285.5 216.5 288 220 293 221.5C303 210 305 197.5 304.5 192Z" fill="white"/>
<path d="M263.455 182.035C258.234 190.592 258.309 206.47 259 213C259.25 213.433 263.42 214.701 268.5 213.5C271.41 198.541 266.638 186.548 263.455 182.035Z" fill="white"/>
<path d="M328.5 212.184C313.3 214.584 304.167 223.333 301.5 227C302.5 231.5 305 234.184 307.5 235.684C316 230.684 326 218.184 328.5 212.184Z" fill="white"/>
<path d="M346.5 248C331.71 243.751 316.967 247.804 313.001 250C312.5 252 312 256.5 313.501 259.5C329.001 260 341.699 252.381 346.5 248Z" fill="white"/>
<path d="M347.499 279.5C336.815 268.425 318.532 265.582 313.999 265.5C312.566 266.982 311.499 274.5 311.999 275C326.997 280.998 341.15 280.893 347.499 279.5Z" fill="white"/>
<path d="M327.999 313C322.996 298.448 310.573 290.989 306.499 289C304.573 289.737 299.999 294.865 299.999 296C311.057 307.774 321.656 311.58 327.999 313Z" fill="white"/>
<path d="M304.5 331.5C304.776 316.114 295.246 306.177 292.5 302.5C290.438 302.534 285.14 305.611 284.752 306.677C291.116 321.524 299.026 327.996 304.5 331.5Z" fill="white"/>
<path d="M265.588 342.876C273.52 329.689 270.235 316.319 269.695 311.761C267.892 310.76 261.765 310.776 260.896 311.505C258.985 327.544 262.598 337.104 265.588 342.876Z" fill="white"/>
<path d="M223 332C235.374 324.619 241.189 311.217 243 307C241.94 305.232 235.865 301.67 234.748 301.867C225.073 314.802 223.297 325.507 223 332Z" fill="white"/>
<path d="M199.999 312.297C214.152 309.593 224.199 298.988 227.344 295.645C226.952 293.621 222.462 288.197 221.344 288C207.829 296.845 202.499 306.297 199.999 312.297Z" fill="white"/>
<path d="M180.5 279C194.724 281.3 210.902 278.066 215 276C215.324 273.964 213.982 266.068 213 265.5C195 266 184.901 274.217 180.5 279Z" fill="white"/>
<path d="M180.5 247.499C192 257.5 208.887 259.754 213.445 259.214C214.446 257.412 215.729 249.869 215 249C200.5 245 189 243 180.5 247.499Z" fill="white"/>
<path d="M200 212C205 225.5 216.162 233.485 220 236.001C221.926 235.264 226 229.134 226 228C219.029 219.023 210.5 214.5 200 212Z" fill="white"/>
<path d="M223.528 192.224C223.609 206.621 231.754 217.323 234.5 221C236.562 220.966 242.099 217.218 242.487 216.152C239.008 205.333 232.5 197 223.528 192.224Z" fill="white"/>
<path d="M249 317C245.8 329.8 229 340.667 221.5 344C224.5 343 225 344 232.5 339.5C230.5 348.5 233.5 366.5 238 366.5C249.5 359.5 252.5 350.5 255 344C248 330 249 321.5 249 317Z" fill="#D55994"/>
<path d="M251 317C247.8 329.8 231 340.667 223.5 344C226.5 343 227 344 234.5 339.5C232.5 348.5 235.5 366.5 240 366.5C251.5 359.5 254.5 350.5 257 344C250 330 251 321.5 251 317Z" fill="white"/>
<path d="M219.002 313.001C211.501 319.501 197.689 320.933 189.501 321.5C192.662 321.587 198.001 322 202.001 321.501C197.044 329.274 192.319 329.519 193.501 351.001C206.66 348.364 212.245 341.947 216.81 336.703L216.853 336.653C215.064 321.103 217.463 317.23 219.002 313.001Z" fill="#D55994"/>
<path d="M221.002 314.001C213.501 320.501 199.689 321.933 191.501 322.5C194.662 322.587 200.001 323 204.001 322.501C199.044 330.274 194.319 330.519 195.501 352.001C208.66 349.364 214.245 342.947 218.81 337.703L218.853 337.653C217.064 322.103 219.463 318.23 221.002 314.001Z" fill="white"/>
<path d="M207.502 289.502C197.349 290.895 175.007 288.357 167 284C169.948 285.957 174.987 287.575 179.004 289.504C170.655 293.556 164.469 303.467 163 310.044C176.724 315.509 185.571 312.055 192.368 310.044C198.003 294.979 204.055 292.394 207.502 289.502Z" fill="#D55994"/>
<path d="M208.502 291.502C198.349 292.895 176.007 290.357 168 286C170.948 287.957 175.987 289.575 180.004 291.504C171.655 295.556 165.469 305.467 164 312.044C177.724 317.509 186.571 314.055 193.368 312.044C199.003 296.979 205.055 294.394 208.502 291.502Z" fill="white"/>
<path d="M343.162 240.567C329.501 238.5 322.001 239.964 318.501 239.964C319.026 239.155 325.614 233.639 328.501 229.5C330.852 226.13 333.271 222.767 334.501 218.5C340.501 216.5 341.525 215.959 347.501 215.499C354.002 214.999 361.921 216.657 364.501 217.5C364.001 220.5 361.501 227 357.501 231C353.741 234.758 346.976 238.921 343.162 240.567Z" fill="#D55994"/>
<path d="M343.162 238.567C329.501 236.5 322.001 237.964 318.501 237.964C319.026 237.155 325.614 231.639 328.501 227.5C330.852 224.13 333.271 220.767 334.501 216.5C340.501 214.5 341.525 213.959 347.501 213.499C354.002 212.999 361.921 214.657 364.501 215.5C364.001 218.5 361.501 225 357.501 229C353.741 232.758 346.976 236.921 343.162 238.567Z" fill="white"/>
<path d="M324.5 206C313.265 210.556 310.653 210.439 308 212C308 212 309.57 206.369 310 202C310.35 198.443 310.88 192.414 310 188.689C313.699 184.524 314.165 184.008 318.5 181C323.215 177.728 328.686 176.524 331 176C331.895 178.456 333.87 183.741 331.634 191.689C330 197.5 327.5 202 324.5 206Z" fill="#D55994"/>
<path d="M326.5 204C315.265 208.556 312.653 208.439 310 210C310 210 311.57 204.369 312 200C312.35 196.443 312.88 190.414 312 186.689C315.699 182.524 316.165 182.008 320.5 179C325.215 175.728 330.686 174.524 333 174C333.895 176.456 335.87 181.741 333.634 189.689C332 195.5 329.5 200 326.5 204Z" fill="white"/>
<path d="M295.499 189.5C289.499 195.12 280.499 204.5 278.392 210.5C278.392 210.5 278.677 199.372 277.587 195.12C276.7 191.658 275.136 185.811 273.035 182.612C275.086 177.433 275.347 176.788 278.392 172.479C281.704 167.792 289.004 161.784 290.999 160.5C292.68 162.502 294.881 167.767 295.499 176C295.911 181.5 295.999 187.5 295.499 189.5Z" fill="#D55994"/>
<path d="M297.499 189.5C291.499 195.12 282.499 204.5 280.392 210.5C280.392 210.5 280.677 199.372 279.587 195.12C278.7 191.658 277.136 185.811 275.035 182.612C277.086 177.433 277.347 176.788 280.392 172.479C283.704 167.792 291.004 161.784 292.999 160.5C294.68 162.502 296.881 167.767 297.499 176C297.911 181.5 297.999 187.5 297.499 189.5Z" fill="white"/>
<path d="M253.499 184.5C247.633 193.635 247.323 204.251 248.499 210.5C248.499 210.5 244.069 201.138 240.999 198C238.499 195.445 235.418 191.72 231.999 190C231.186 184.489 230.557 181.932 231.04 176.678C231.564 170.962 234.913 161.109 235.999 159C238.456 159.893 242.963 164.352 247.615 171.174C250.722 175.73 252.932 182.518 253.499 184.5Z" fill="#D55994"/>
<path d="M255.499 183.5C249.633 192.635 249.323 203.251 250.499 209.5C250.499 209.5 246.069 200.138 242.999 197C240.499 194.445 237.418 190.72 233.999 189C233.186 183.489 232.557 180.932 233.04 175.678C233.564 169.962 236.913 160.109 237.999 158C240.456 158.893 244.963 163.352 249.615 170.174C252.722 174.73 254.932 181.518 255.499 183.5Z" fill="white"/>
<path d="M213.999 187C213.499 197.5 213.257 206.53 216.499 212C216.499 212 216.457 212.399 212.499 210.5C209.277 208.954 206.999 208.5 203.499 207C199 203.13 193.844 197.103 192.5 192C191.038 186.45 191.2 176.854 191.499 174.5C194.113 174.499 200.799 175.58 207.503 180.4C211.982 183.619 212.788 185.332 213.999 187Z" fill="#D55994"/>
<path d="M215.999 185C215.499 195.5 215.257 204.53 218.499 210C218.499 210 218.457 210.399 214.499 208.5C211.277 206.954 208.999 206.5 205.499 205C201 201.13 195.844 195.103 194.5 190C193.038 184.45 193.2 174.854 193.499 172.5C196.113 172.499 202.799 173.58 209.503 178.4C213.982 181.619 214.788 183.332 215.999 185Z" fill="white"/>
<path d="M192.5 219C197.317 228.343 202.957 237.883 208.5 241C208.5 241 198.88 240 194.5 240C190 240 187.281 240.549 183.5 241C178.5 239.2 174.854 235.647 173 234C170.591 231.86 164.676 221.31 163.758 219.122C166.021 217.814 172.352 215.408 180.568 216.229C186.056 216.778 190.617 218.16 192.5 219Z" fill="#D55994"/>
<path d="M192.5 216C197.317 225.343 202.957 234.883 208.5 238C208.5 238 198.88 237 194.5 237C190 237 187.281 237.549 183.5 238C178.5 236.2 174.854 232.647 173 231C170.591 228.86 164.676 218.31 163.758 216.122C166.021 214.814 172.352 212.408 180.568 213.229C186.056 213.778 190.617 215.16 192.5 216Z" fill="white"/>
<path d="M176 254.5C180 257.5 182 260 190.5 264C190.5 264 184.755 266.693 181.5 268.5C178.156 270.355 178.613 270.617 176 272.5C171.5 273.269 165.001 271.5 160.001 269.499C157.473 268.488 151.636 264.192 150.001 263C151.112 261.127 154.037 259.298 160.501 256.5C167.501 253.47 174 254 176 254.5Z" fill="#D55994"/>
<path d="M176 252.5C180 255.5 182 258 190.5 262C190.5 262 184.755 264.693 181.5 266.5C178.156 268.355 178.613 268.617 176 270.5C171.5 271.269 165.001 269.5 160.001 267.499C157.473 266.488 151.636 262.192 150.001 261C151.112 259.127 154.037 257.298 160.501 254.5C167.501 251.47 174 252 176 252.5Z" fill="white"/>
<path d="M313.446 286.219C312.516 285.969 311.695 285.725 311 285.5C311.849 285.723 312.663 285.964 313.446 286.219C320.766 288.193 334.868 290.629 348 288.5C358.5 297 362 301 364 310.5C360 313.5 349.5 318 335.5 310.5C332.156 304.29 330.182 291.692 313.446 286.219Z" fill="#D55994"/>
<path d="M315.446 284.219C314.516 283.969 313.695 283.725 313 283.5C313.849 283.723 314.663 283.964 315.446 284.219C322.766 286.193 336.868 288.629 350 286.5C360.5 295 364 299 366 308.5C362 311.5 351.5 316 337.5 308.5C334.156 302.29 332.182 289.692 315.446 284.219Z" fill="white"/>
<path d="M289 366.5C280.2 363.3 274 350.833 272 345C274.5 341 278 327.5 276.5 314.5C278.99 329.44 297.847 339.915 306.891 344.939L307 345C301 343 301 342.5 294 340C296 345 292.5 361.5 289 366.5Z" fill="#D55994"/>
<path d="M292 366.5C283.2 363.3 277 350.833 275 345C277.5 341 281 327.5 279.5 314.5C281.99 329.44 300.847 339.915 309.891 344.939L310 345C304 343 304 342.5 297 340C299 345 295.5 361.5 292 366.5Z" fill="white"/>
<path d="M353.295 253C351.192 255.8 341.556 261.5 337 264C341.205 264 346.987 270.5 347.513 271.5C348.038 272.5 352.244 273 358.551 273C364.859 273 369.59 270 378 264C368.013 254.5 361.705 254 353.295 253Z" fill="#D55994"/>
<path d="M353.295 251C351.192 253.8 341.556 259.5 337 262C341.205 262 346.987 268.5 347.513 269.5C348.038 270.5 352.244 271 358.551 271C364.859 271 369.59 268 378 262C368.013 252.5 361.705 252 353.295 251Z" fill="white"/>
<path d="M330 328.5C326.096 321.309 312.38 315.499 307.5 314.5C311.404 318.495 311.5 333.009 311.5 340C315.404 346.991 329.008 351.452 333.887 350.953C334.375 345.46 334.88 337.489 330 328.5Z" fill="#D55994"/>
<path d="M333 328.5C329.096 321.309 315.38 315.499 310.5 314.5C314.404 318.495 314.5 333.009 314.5 340C318.404 346.991 332.008 351.452 336.887 350.953C337.375 345.46 337.88 337.489 333 328.5Z" fill="white"/>
<path d="M265 410C267.8 406.8 265.5 394.333 264 388.5C264 389.5 261.5 396 261.5 401C261.5 406 261.5 414 265 410Z" fill="#D55994"/>
<path d="M266 410C268.8 406.8 266.5 394.333 265 388.5C265 389.5 262.5 396 262.5 401C262.5 406 262.5 414 266 410Z" fill="white"/>
<path d="M245 389C241.4 389.4 237.833 386.5 236.5 385C236.667 386 237.4 387.9 239 389.5C241 391.5 245 390 245 389Z" fill="#D55994"/>
<path d="M246 389C242.4 389.4 238.833 386.5 237.5 385C237.667 386 238.4 387.9 240 389.5C242 391.5 246 390 246 389Z" fill="white"/>
<path d="M290.083 385.064C287.582 387.685 282.986 387.756 281 387.464C281.77 388.123 283.554 389.107 285.808 389.304C288.625 389.551 290.725 385.83 290.083 385.064Z" fill="#D55994"/>
<path d="M289.083 385.064C286.582 387.685 281.986 387.756 280 387.464C280.77 388.123 282.554 389.107 284.808 389.304C287.625 389.551 289.725 385.83 289.083 385.064Z" fill="white"/>
<path d="M246.501 396.5C245.501 393.5 249.167 389.5 251.501 388C251.168 389.167 250.401 391.9 250.001 393.5C249.501 395.5 247.423 399.266 246.501 396.5Z" fill="#D55994"/>
<path d="M247.501 396.5C246.501 393.5 250.167 389.5 252.501 388C252.168 389.167 251.401 391.9 251.001 393.5C250.501 395.5 248.423 399.266 247.501 396.5Z" fill="white"/>
<path d="M280.837 396.07C281.804 393.222 278.257 389.424 276 388C276.322 389.108 277.064 391.703 277.451 393.222C277.934 395.121 279.945 398.696 280.837 396.07Z" fill="#D55994"/>
<path d="M279.837 396.07C280.804 393.222 277.257 389.424 275 388C275.322 389.108 276.064 391.703 276.451 393.222C276.934 395.121 278.945 398.696 279.837 396.07Z" fill="white"/>
<path d="M245.5 139.5C241.5 138.7 239.167 141.5 238.5 143C238.167 143 237.8 142.3 239 139.5C240.5 136 250.5 140.5 245.5 139.5Z" fill="#D55994"/>
<path d="M245.5 138.5C241.5 137.7 239.167 140.5 238.5 142C238.167 142 237.8 141.3 239 138.5C240.5 135 250.5 139.5 245.5 138.5Z" fill="white"/>
<path d="M290.862 142.501C288.312 139.317 284.725 139.209 283.25 139.93C282.995 139.715 283.163 139.696 285.883 138.322C289.281 136.606 294.049 146.481 290.862 142.501Z" fill="#D55994"/>
<path d="M290.862 141.501C288.312 138.317 284.725 138.209 283.25 138.93C282.995 138.715 283.163 138.696 285.883 137.322C289.281 135.606 294.049 145.481 290.862 141.501Z" fill="white"/>
<path d="M388.5 237.5C388.5 238.7 386.833 240 386 240.5C387 239.5 386 234 386.5 234.5C387 235 388.5 236 388.5 237.5Z" fill="#D55994"/>
<path d="M389.5 237.5C389.5 238.7 387.833 240 387 240.5C388 239.5 387 234 387.5 234.5C388 235 389.5 236 389.5 237.5Z" fill="white"/>
<path d="M389 288.519C389 289.911 387 291.42 386 292C387.2 290.84 386 284.457 386.6 285.037C387.2 285.617 389 286.778 389 288.519Z" fill="#D55994"/>
<path d="M390 288.519C390 289.911 388 291.42 387 292C388.2 290.84 387 284.457 387.6 285.037C388.2 285.617 390 286.778 390 288.519Z" fill="white"/>
<path d="M264.5 139C262.666 135 259.9 125.2 263.5 118C267.5 128.5 266.999 136 264.5 139Z" fill="#D55994"/>
<path d="M265.5 139C263.666 135 260.9 125.2 264.5 118C268.5 128.5 267.999 136 265.5 139Z" fill="white"/>
<path d="M142.001 234.5C143.001 234.5 142.501 234.5 142.501 236C142.501 237.457 142.965 242.919 142.442 242.43C142.426 242.416 142.41 242.396 142.393 242.372C141.232 240.955 139.675 237.602 142.001 234.5Z" fill="#D55994"/>
<path d="M141.001 234.5C142.001 234.5 141.501 234.5 141.501 236C141.501 237.457 141.965 242.919 141.442 242.43C141.426 242.416 141.41 242.396 141.393 242.372C140.232 240.955 138.675 237.602 141.001 234.5Z" fill="white"/>
<path d="M394.983 249.311C395.402 248.406 387.835 249.688 384 250.442C384 250.82 384.941 251.649 388.707 251.951C393.414 252.328 394.46 250.442 394.983 249.311Z" fill="#D55994"/>
<path d="M394.983 248.311C395.402 247.406 387.835 248.688 384 249.442C384 249.82 384.941 250.649 388.707 250.951C393.414 251.328 394.46 249.442 394.983 248.311Z" fill="white"/>
<path d="M394.983 280.585C395.402 281.792 387.835 280.082 384 279.077C384 278.574 384.941 277.468 388.707 277.065C393.414 276.563 394.46 279.077 394.983 280.585Z" fill="#D55994"/>
<path d="M394.983 279.585C395.402 280.792 387.835 279.082 384 278.077C384 277.574 384.941 276.468 388.707 276.065C393.414 275.563 394.46 278.077 394.983 279.585Z" fill="white"/>
<path d="M248.001 132.5C247.201 134.1 250.667 138.5 252.501 140.5C252.334 139.833 252.501 138.5 252.001 136.5C251.516 134.56 249.001 130.5 248.001 132.5Z" fill="#D55994"/>
<path d="M249.001 132.5C248.201 134.1 251.667 138.5 253.501 140.5C253.334 139.833 253.501 138.5 253.001 136.5C252.516 134.56 250.001 130.5 249.001 132.5Z" fill="white"/>
<path d="M133.001 248.5C133.416 250.24 139.001 252.5 145.5 251C144.944 250.596 140.169 249.211 138.5 248C136.882 246.825 132.481 246.326 133.001 248.5Z" fill="#D55994"/>
<path d="M133.001 247.5C133.416 249.24 139.001 251.5 145.5 250C144.944 249.596 140.169 248.211 138.5 247C136.882 245.825 132.481 245.326 133.001 247.5Z" fill="white"/>
<path d="M132.633 281.968C134.233 282.768 138.5 281.969 143 277.433C142.334 277.599 138.5 277.5 136.5 278C134.56 278.485 130.633 280.968 132.633 281.968Z" fill="#D55994"/>
<path d="M132.633 280.968C134.233 281.768 138.5 280.969 143 276.433C142.334 276.599 138.5 276.5 136.5 277C134.56 277.485 130.633 279.968 132.633 280.968Z" fill="white"/>
<path d="M279.999 132C278.213 132.107 277.313 138.411 276.498 140.999C276.992 140.522 278.039 139.269 279.521 137.836C280.959 136.446 282.231 131.866 279.999 132Z" fill="#D55994"/>
<path d="M278.999 132C277.213 132.107 276.313 138.411 275.498 140.999C275.992 140.522 277.039 139.269 278.521 137.836C279.959 136.446 281.231 131.866 278.999 132Z" fill="white"/>
<path d="M141.5 284.5C137.9 288.5 140.334 291.833 142 293H142.5C143 293 142 291 141.5 289.5C141 288 142 284 141.5 284.5Z" fill="#D55994"/>
<path d="M140.5 284.5C136.9 288.5 139.334 291.833 141 293H141.5C142 293 141 291 140.5 289.5C140 288 141 284 140.5 284.5Z" fill="white"/>
<path d="M347.068 157.215C342.517 144.932 328.269 139.628 321.5 138.5C323.5 137.167 330.1 137.1 338.5 143.5C347.961 150.708 346.12 153.451 347.068 157.215C347.224 157.635 347.368 158.063 347.5 158.5C347.31 158.055 347.172 157.629 347.068 157.215Z" fill="#D55994"/>
<path d="M347.068 156.215C342.517 143.932 328.269 138.628 321.5 137.5C323.5 136.167 330.1 136.1 338.5 142.5C347.961 149.708 346.12 152.451 347.068 156.215C347.224 156.635 347.368 157.063 347.5 157.5C347.31 157.055 347.172 156.629 347.068 156.215Z" fill="white"/>
<path d="M208.009 139.053C194.91 139.129 185.052 150.704 181.677 156.678C181.108 154.343 183.303 148.118 192.19 142.413C202.2 135.988 204.147 138.657 208.009 139.053C208.457 139.051 208.908 139.061 209.363 139.086C208.88 139.113 208.433 139.097 208.009 139.053Z" fill="#D55994"/>
<path d="M209.009 139.053C195.91 139.129 186.052 150.704 182.677 156.678C182.108 154.343 184.303 148.118 193.19 142.413C203.2 135.988 205.147 138.657 209.009 139.053C209.457 139.051 209.908 139.061 210.363 139.086C209.88 139.113 209.433 139.097 209.009 139.053Z" fill="white"/>
<path d="M157.436 181.432C145.153 185.983 139.849 200.231 138.721 207C137.387 205 137.321 198.4 143.721 190C150.929 180.539 153.672 182.38 157.436 181.432C157.856 181.276 158.284 181.132 158.721 181C158.275 181.19 157.85 181.328 157.436 181.432Z" fill="#D55994"/>
<path d="M158.436 181.432C146.153 185.983 140.849 200.231 139.721 207C138.387 205 138.321 198.4 144.721 190C151.929 180.539 154.672 182.38 158.436 181.432C158.856 181.276 159.284 181.132 159.721 181C159.275 181.19 158.85 181.328 158.436 181.432Z" fill="white"/>
<path d="M137.469 318.579C137.679 331.698 149.345 343.134 157.999 346.5C155.663 347.069 147.117 345.06 141.412 336.173C135.074 326.299 137.122 322.69 137.469 318.579C137.46 318.055 137.47 317.529 137.499 317C137.529 317.543 137.512 318.065 137.469 318.579Z" fill="#D34578"/>
<path d="M137.469 317.579C137.679 330.698 149.345 342.134 157.999 345.5C155.663 346.069 147.117 344.06 141.412 335.173C135.074 325.299 137.122 321.69 137.469 317.579C137.46 317.055 137.47 316.529 137.499 316C137.529 316.543 137.512 317.065 137.469 317.579Z" fill="white"/>
<path d="M178.434 365.796C183.069 378.418 198.664 388.796 208 389C206 390.333 196.4 389.9 188 383.5C178.469 376.238 179.584 370.212 178.434 365.796C178.277 365.366 178.132 364.934 178 364.499C178.177 364.915 178.318 365.347 178.434 365.796Z" fill="#D55994"/>
<path d="M178.434 364.796C183.069 377.418 198.664 387.796 208 388C206 389.333 196.4 388.9 188 382.5C178.469 375.238 179.584 369.212 178.434 364.796C178.277 364.366 178.132 363.934 178 363.499C178.177 363.915 178.318 364.347 178.434 364.796Z" fill="white"/>
<path d="M388.433 206.608C387.921 193.734 375.992 183.893 369.829 180.47C372.235 179.938 379.502 183.926 383.573 189.972C390.156 199.746 388.681 202.754 388.433 206.608C388.457 207.187 388.456 207.773 388.432 208.364C388.388 207.745 388.398 207.168 388.433 206.608Z" fill="#D55994"/>
<path d="M389.433 206.608C388.921 193.734 376.992 183.893 370.829 180.47C373.235 179.938 380.502 183.926 384.573 189.972C391.156 199.746 389.681 202.754 389.433 206.608C389.457 207.187 389.456 207.773 389.432 208.364C389.388 207.745 389.398 207.168 389.433 206.608Z" fill="white"/>
<path d="M374 229.5C384.8 210.3 363 190.667 351.5 184C367 186 371.5 191.5 378.5 201C384.1 208.6 381.5 221.667 379.5 227C385 227 391 226.5 399.5 228C425.5 231.2 433.167 254.667 432.5 266C432.5 279.5 419.5 291.5 410.5 295C401.18 298.624 384.333 298.833 377 297C377.5 297.5 378 298 379.5 300C382.5 304.5 383.882 307 383 314.5C382.412 319.5 382 323 374 332.5C366 342 359 340.5 353 340.5C358 339 368 334 374 321C380 308 378.5 303 371.5 293C376 294.5 384.5 295.516 389 294.5C404.5 291 404.5 278.5 404.5 273C407 273 409 273.5 411 270C413 266.5 415.5 266.5 420 264C418.5 262 417 262 412.5 260C410 257 412 256 406 253C403 229.5 389 230 374 229.5Z" fill="#D55994"/>
<path d="M377 229.5C387.8 210.3 366 190.667 354.5 184C370 186 374.5 191.5 381.5 201C387.1 208.6 384.5 221.667 382.5 227C388 227 394 226.5 402.5 228C428.5 231.2 436.167 254.667 435.5 266C435.5 279.5 422.5 291.5 413.5 295C404.18 298.624 387.333 298.833 380 297C380.5 297.5 381 298 382.5 300C385.5 304.5 386.882 307 386 314.5C385.412 319.5 385 323 377 332.5C369 342 362 340.5 356 340.5C361 339 371 334 377 321C383 308 381.5 303 374.5 293C379 294.5 387.5 295.516 392 294.5C407.5 291 407.5 278.5 407.5 273C410 273 412 273.5 414 270C416 266.5 418.5 266.5 423 264C421.5 262 420 262 415.5 260C413 257 415 256 409 253C406 229.5 392 230 377 229.5Z" fill="white"/>
<path d="M153.039 297.086C142.239 316.286 164.039 335.919 175.539 342.586C160.039 340.586 155.539 335.086 148.539 325.586C142.939 317.986 145.539 304.919 147.539 299.586C142.039 299.586 136.039 300.086 127.539 298.586C101.539 295.386 93.8724 271.919 94.5391 260.586C94.5391 247.086 107.539 235.086 116.539 231.586C125.859 227.961 142.706 227.753 150.039 229.586C149.539 229.086 149.039 228.586 147.539 226.586C144.539 222.086 143.157 219.586 144.039 212.086C144.627 207.086 145.039 203.586 153.039 194.086C161.039 184.586 168.039 186.086 174.039 186.086C169.039 187.586 159.039 192.586 153.039 205.586C147.039 218.586 148.539 223.586 155.539 233.586C151.039 232.086 142.539 231.07 138.039 232.086C122.539 235.586 122.539 248.086 122.539 253.586C120.039 253.586 118.039 253.086 116.039 256.586C114.039 260.086 111.539 260.086 107.039 262.586C108.539 264.586 110.039 264.586 114.539 266.586C117.039 269.586 115.039 270.586 121.039 273.586C124.039 297.086 138.039 296.586 153.039 297.086Z" fill="#D55994"/>
<path d="M156.039 297.086C145.239 316.286 167.039 335.919 178.539 342.586C163.039 340.586 158.539 335.086 151.539 325.586C145.939 317.986 148.539 304.919 150.539 299.586C145.039 299.586 139.039 300.086 130.539 298.586C104.539 295.386 96.8724 271.919 97.5391 260.586C97.5391 247.086 110.539 235.086 119.539 231.586C128.859 227.961 145.706 227.753 153.039 229.586C152.539 229.086 152.039 228.586 150.539 226.586C147.539 222.086 146.157 219.586 147.039 212.086C147.627 207.086 148.039 203.586 156.039 194.086C164.039 184.586 171.039 186.086 177.039 186.086C172.039 187.586 162.039 192.586 156.039 205.586C150.039 218.586 151.539 223.586 158.539 233.586C154.039 232.086 145.539 231.07 141.039 232.086C125.539 235.586 125.539 248.086 125.539 253.586C123.039 253.586 121.039 253.086 119.039 256.586C117.039 260.086 114.539 260.086 110.039 262.586C111.539 264.586 113.039 264.586 117.539 266.586C120.039 269.586 118.039 270.586 124.039 273.586C127.039 297.086 141.039 296.586 156.039 297.086Z" fill="white"/>
<path d="M376 297.5C388.333 302.833 419.5 309.5 439.5 289.5C432.5 305 428 310 412.5 316C416.5 317.833 424.8 324.1 426 334.5C421.5 336.5 410.5 335.5 407.5 333.5C412.5 341 413 359.5 398 369C384.5 376 373.5 373.5 358.5 357.5C363 366.5 380.5 383.5 364 401C356.941 408.487 346.5 414 332.5 409.5C333.5 415 333 425 331.5 427.5C330.019 427.5 319.762 421.162 315.653 411.855C317.108 415.946 313.417 430.822 295 441C293.501 440 314.985 413.019 296.02 383.531C296.404 385.569 301.704 438 263 438C221.5 438 225.001 387 228.001 382.5C221.001 392.667 213.201 418.6 230 441C223.5 441 207.5 430 207.5 414C196.5 427.5 197.5 425 192.5 427.5C190.5 425 190 419 190.5 409.5C180.5 413.5 131 408 164.5 358.5C162.5 358.5 155 373.5 135.5 372C116 370.5 111 352.5 115 333.5C105.499 335.5 97.4994 333 97.4994 331.5C97.1661 329.333 99.4994 323.2 111.499 316C104 315 92.5 312 86.5 292.5C103 303 111.5 307.5 144 300C128 315 112.5 325.5 119.5 344.5C124.5 355.5 135.5 359 144 354C147 357 151 365 171.5 351.5C167 360 159 372.5 170.5 376C168.5 382 163.5 392.5 176.5 399.5C189.5 406.5 201 402 207.5 397.5C214 393 221.5 388 226.5 380C207.5 382.5 197 380.5 189.5 369.5C184.045 361.5 182 359 183.5 351.5C185.5 355 193.5 374 212.5 375.5C222.5 376.289 231 373.5 232 372C230.167 379 228.3 394.7 235.5 401.5C238 405.5 241 407 248.5 408C248.667 410.333 250.2 415.6 255 418C261 421 261.5 426 261.5 427C264 422 265.5 420 269.5 416.5C273.5 413 274 411 274 408.5C280 408 283 407.5 287.5 401.5C290.266 397.812 292.5 397.5 293 390.5C293.5 385.833 293.8 375.5 291 371.5C299.5 375 304.5 380 320 373C326 371 336.5 362.5 340 351.5C340.167 358 336.6 372.7 321 379.5C308 384.5 301 380.922 297 379.5C297.993 381.486 299.973 389.883 319.59 398.325C322.227 399.883 329.4 402.9 337 402.5C346.5 402 353.5 394.5 354.5 391.5C354.833 390.5 358 382.5 353 376.5C355 375.667 358.9 372.7 358.5 367.5C358 361 354.5 355 352 351C360 354.5 367 361.5 374 359C376.5 358.5 378.5 356.5 378.5 354.5C380.5 356.5 386.3 359.5 393.5 355.5C402.5 350.5 406 342.5 405.5 337C405 331.5 400.5 322.5 396 316C392.4 310.8 380.333 301.333 376 297.5Z" fill="#D55994"/>
<path d="M379 296.5C391.333 301.833 422.5 308.5 442.5 288.5C435.5 304 431 309 415.5 315C419.5 316.833 427.8 323.1 429 333.5C424.5 335.5 413.5 334.5 410.5 332.5C415.5 340 416 358.5 401 368C387.5 375 376.5 372.5 361.5 356.5C366 365.5 383.5 382.5 367 400C359.941 407.487 349.5 413 335.5 408.5C336.5 414 336 424 334.5 426.5C333.019 426.5 322.762 420.162 318.653 410.855C320.108 414.946 316.417 429.822 298 440C296.501 439 317.985 412.019 299.02 382.531C299.404 384.569 304.704 437 266 437C224.5 437 228.001 386 231.001 381.5C224.001 391.667 216.201 417.6 233 440C226.5 440 210.5 429 210.5 413C199.5 426.5 200.5 424 195.5 426.5C193.5 424 193 418 193.5 408.5C183.5 412.5 134 407 167.5 357.5C165.5 357.5 158 372.5 138.5 371C119 369.5 114 351.5 118 332.5C108.499 334.5 100.499 332 100.499 330.5C100.166 328.333 102.499 322.2 114.499 315C107 314 95.5 311 89.5 291.5C106 302 114.5 306.5 147 299C131 314 115.5 324.5 122.5 343.5C127.5 354.5 138.5 358 147 353C150 356 154 364 174.5 350.5C170 359 162 371.5 173.5 375C171.5 381 166.5 391.5 179.5 398.5C192.5 405.5 204 401 210.5 396.5C217 392 224.5 387 229.5 379C210.5 381.5 200 379.5 192.5 368.5C187.045 360.5 185 358 186.5 350.5C188.5 354 196.5 373 215.5 374.5C225.5 375.289 234 372.5 235 371C233.167 378 231.3 393.7 238.5 400.5C241 404.5 244 406 251.5 407C251.667 409.333 253.2 414.6 258 417C264 420 264.5 425 264.5 426C267 421 268.5 419 272.5 415.5C276.5 412 277 410 277 407.5C283 407 286 406.5 290.5 400.5C293.266 396.812 295.5 396.5 296 389.5C296.5 384.833 296.8 374.5 294 370.5C302.5 374 307.5 379 323 372C329 370 339.5 361.5 343 350.5C343.167 357 339.6 371.7 324 378.5C311 383.5 304 379.922 300 378.5C300.993 380.486 302.973 388.883 322.59 397.325C325.227 398.883 332.4 401.9 340 401.5C349.5 401 356.5 393.5 357.5 390.5C357.833 389.5 361 381.5 356 375.5C358 374.667 361.9 371.7 361.5 366.5C361 360 357.5 354 355 350C363 353.5 370 360.5 377 358C379.5 357.5 381.5 355.5 381.5 353.5C383.5 355.5 389.3 358.5 396.5 354.5C405.5 349.5 409 341.5 408.5 336C408 330.5 403.5 321.5 399 315C395.4 309.8 383.333 300.333 379 296.5Z" fill="white"/>
<path d="M149.5 227.5C137.167 222.167 106 215.5 86 235.5C93 220 97.5 215 113 209C109 207.167 101.7 201.9 100.5 191.5C105 189.5 115 189.5 118 191.5C113 184 112.5 165.5 127.5 156C141 149 152 151.5 167 167.5C162.5 158.5 145 141.5 161.5 124C168.559 116.513 179 112 193 116.5C192 111 191.5 102.5 193 100C194.482 100 205.722 103.903 209.851 113.156C208.385 109.081 212.066 94.1871 230.5 84C231.999 84.9996 210.517 111.979 229.477 141.465C229.076 139.402 223.869 89.5 262.5 89.5C304 89.5 300.499 138 297.499 142.5C304.499 132.333 311.799 108.4 295 86C301.5 86 316.5 99.5 316.5 115.5C327.5 102 328.5 102.5 333.5 100C335.5 102.5 335 108.5 334.5 118C342 111.5 397 118 359.5 166C361.5 166 368 150.5 387.5 152C407 153.5 414.5 172.5 410.5 191.5C420.001 189.5 425.999 191.5 427 193.5C427.333 195.667 424.5 201.3 412.5 208.5C419.999 209.5 432.5 215 438.5 234.5C422 224 414 217.5 381.5 225C397.5 210 413 199.5 406 180.5C401 169.5 387.5 165.5 379 170.5C376 167.5 372 161 351.5 174.5C356 166 365.5 153 354 149.5C356 143.5 362 132.5 349 125.5C336 118.5 324.5 123 318 127.5C311.5 132 304 137 299 145C318 142.5 328.5 144.5 336 155.5C341.455 163.5 343.5 166 342 173.5C340 170 332 151 313 149.5C303 148.711 294.5 151.5 293.5 153C295.333 146 297.2 130.3 290 123.5C287.5 119.5 284.5 118 277 117C276.833 114.667 275.3 109.4 270.5 107C264.5 104 264 99 264 98C261.5 103 260 105 256 108.5C252 112 251.5 114 251.5 116.5C245.5 117 242.5 117.5 238 123.5C235.234 127.188 233 127.5 232.5 134.5C232 139.167 231.7 149.5 234.5 153.5C226 150 221 145 205.5 152C199.5 154 189 162.5 185.5 173.5C185.333 167 188.9 152.3 204.5 145.5C217.5 140.5 224.5 144.078 228.5 145.5C227.507 143.514 225.527 135.117 205.91 126.675C203.273 125.117 196.1 122.1 188.5 122.5C179 123 172 130.5 171 133.5C170.667 134.5 167.5 142.5 172.5 148.5C170.5 149.333 166.6 152.3 167 157.5C167.5 164 171 170 173.5 174C165.5 170.5 158.5 163.5 151.5 166C149 166.5 147 168.5 147 170.5C145 168.5 139.2 165.5 132 169.5C123 174.5 119.5 182.5 120 188C120.5 193.5 125 202.5 129.5 209C133.1 214.2 145.167 223.667 149.5 227.5Z" fill="#D55994"/>
<path d="M152.5 228.5C140.167 223.167 109 216.5 89 236.5C96 221 100.5 216 116 210C112 208.167 104.7 202.9 103.5 192.5C108 190.5 118 190.5 121 192.5C116 185 115.5 166.5 130.5 157C144 150 155 152.5 170 168.5C165.5 159.5 148 142.5 164.5 125C171.559 117.513 182 113 196 117.5C195 112 194.5 103.5 196 101C197.482 101 208.722 104.903 212.851 114.156C211.385 110.081 215.066 95.1871 233.5 85C234.999 85.9996 213.517 112.979 232.477 142.465C232.076 140.402 226.869 90.5 265.5 90.5C307 90.5 303.499 139 300.499 143.5C307.499 133.333 314.799 109.4 298 87C304.5 87 319.5 100.5 319.5 116.5C330.5 103 331.5 103.5 336.5 101C338.5 103.5 338 109.5 337.5 119C345 112.5 400 119 362.5 167C364.5 167 371 151.5 390.5 153C410 154.5 417.5 173.5 413.5 192.5C423.001 190.5 428.999 192.5 430 194.5C430.333 196.667 427.5 202.3 415.5 209.5C422.999 210.5 435.5 216 441.5 235.5C425 225 417 218.5 384.5 226C400.5 211 416 200.5 409 181.5C404 170.5 390.5 166.5 382 171.5C379 168.5 375 162 354.5 175.5C359 167 368.5 154 357 150.5C359 144.5 365 133.5 352 126.5C339 119.5 327.5 124 321 128.5C314.5 133 307 138 302 146C321 143.5 331.5 145.5 339 156.5C344.455 164.5 346.5 167 345 174.5C343 171 335 152 316 150.5C306 149.711 297.5 152.5 296.5 154C298.333 147 300.2 131.3 293 124.5C290.5 120.5 287.5 119 280 118C279.833 115.667 278.3 110.4 273.5 108C267.5 105 267 100 267 99C264.5 104 263 106 259 109.5C255 113 254.5 115 254.5 117.5C248.5 118 245.5 118.5 241 124.5C238.234 128.188 236 128.5 235.5 135.5C235 140.167 234.7 150.5 237.5 154.5C229 151 224 146 208.5 153C202.5 155 192 163.5 188.5 174.5C188.333 168 191.9 153.3 207.5 146.5C220.5 141.5 227.5 145.078 231.5 146.5C230.507 144.514 228.527 136.117 208.91 127.675C206.273 126.117 199.1 123.1 191.5 123.5C182 124 175 131.5 174 134.5C173.667 135.5 170.5 143.5 175.5 149.5C173.5 150.333 169.6 153.3 170 158.5C170.5 165 174 171 176.5 175C168.5 171.5 161.5 164.5 154.5 167C152 167.5 150 169.5 150 171.5C148 169.5 142.2 166.5 135 170.5C126 175.5 122.5 183.5 123 189C123.5 194.5 128 203.5 132.5 210C136.1 215.2 148.167 224.667 152.5 228.5Z" fill="white"/>
<path d="M185.5 76.5C187.667 79 192.2 85.8 193 93C189.5 90.5 185.5 79.5 185.5 76.5Z" fill="#D55994"/>
<path d="M158.5 64C147.874 83.0158 146.833 108.167 147 119.5C156.999 102.5 175.501 93 184.501 92C183.001 91 179.5 88.5 178 84.5C175.857 78.7853 178.501 61.5 178.501 59.5C180.001 64 187.001 66.5 192.501 70.5C198.001 74.5 198.501 83 199.501 86.5C214.001 73 223.501 79 238.501 77.5C223.501 59.5 215 57 196.5 50.5C178 44 175.501 35.5 166.501 26C166 31 168 47 158.5 64Z" fill="#D55994"/>
<path d="M187.5 75.5C189.667 78 194.2 84.8 195 92C191.5 89.5 187.5 78.5 187.5 75.5Z" fill="white"/>
<path d="M161.5 63C150.874 82.0158 149.833 107.167 150 118.5C159.999 101.5 178.501 92 187.501 91C186.001 90 182.5 87.5 181 83.5C178.857 77.7853 181.501 60.5 181.501 58.5C183.001 63 190.001 65.5 195.501 69.5C201.001 73.5 201.501 82 202.501 85.5C217.001 72 226.501 78 241.501 76.5C226.501 58.5 218 56 199.5 49.5C181 43 178.501 34.5 169.501 25C169 30 171 46 161.5 63Z" fill="white"/>
<path d="M339.453 77.6357C339.217 80.9356 337.615 88.9495 333.089 94.6063C332.382 90.3637 337.332 79.7571 339.453 77.6357Z" fill="#D55994"/>
<path d="M327.2 49.7045C306.24 55.6369 290.395 68.8683 282.499 77C304.499 74 317.928 80.8431 324.999 86.5C324.645 84.7322 325.432 79.3891 327.2 75.5C329.725 69.9438 344.085 60.9142 345.499 59.5C343.378 63.7426 345.585 70.2825 346.645 77C348.145 86.5 342.267 88.818 340.499 92C361.499 97 366.999 108 374.223 115.819C376.344 92.4847 372.985 82.6786 364.5 65.001C356.015 47.3233 356.646 39.0825 357 26.001C353.11 29.1825 345.938 44.4009 327.2 49.7045Z" fill="#D55994"/>
<path d="M340.453 78.6357C340.217 81.9356 338.615 89.9495 334.089 95.6063C333.382 91.3637 338.332 80.7571 340.453 78.6357Z" fill="white"/>
<path d="M330.2 50.7045C309.24 56.6369 293.395 69.8683 285.499 78C307.499 75 320.928 81.8431 327.999 87.5C327.645 85.7322 328.432 80.3891 330.2 76.5C332.725 70.9438 347.085 61.9142 348.499 60.5C346.378 64.7426 348.585 71.2825 349.645 78C351.145 87.5 345.267 89.818 343.499 93C364.499 98 369.999 109 377.223 116.819C379.344 93.4847 375.985 83.6786 367.5 66.001C359.015 48.3233 359.646 40.0825 360 27.001C356.11 30.1825 348.938 45.4009 330.2 50.7045Z" fill="white"/>
<path d="M450.41 192.317C447.91 194.484 441.201 197.7 434.001 198.5C436.501 195 447.41 192.317 450.41 192.317Z" fill="#D34578"/>
<path d="M462.5 164.5C443.484 153.874 426.5 150.5 412.5 152.5C430.178 165.935 435.335 177.5 435.335 189.779C436.335 188.279 440.5 184.5 444.5 183C450.215 180.857 469.5 186.5 471.5 186.5C467 188 461.359 192.868 457.359 198.368C451.702 206.146 443.5 205.5 440 206.5C452.5 224.5 447.921 237.363 447.5 248C465.5 233 470 222.5 476.5 204C483 185.5 492 179 501.5 170C496.5 169.499 479.5 174 462.5 164.5Z" fill="#D55994"/>
<path d="M452.41 190.317C449.91 192.484 443.201 195.7 436.001 196.5C438.501 193 449.41 190.317 452.41 190.317Z" fill="white"/>
<path d="M464.5 161.5C445.484 150.874 428.5 147.5 414.5 149.5C432.178 162.935 437.335 174.5 437.335 186.779C438.335 185.279 442.5 181.5 446.5 180C452.215 177.857 471.5 183.5 473.5 183.5C469 185 463.359 189.868 459.359 195.368C453.702 203.146 445.5 202.5 442 203.5C454.5 221.5 449.921 234.363 449.5 245C467.5 230 472 219.5 478.5 201C485 182.5 494 176 503.5 167C498.5 166.499 481.5 171 464.5 161.5Z" fill="white"/>
<path d="M451.541 340.548C448.233 340.601 441.026 338.752 434.997 334.736C439.162 333.662 449.243 338.619 451.541 340.548Z" fill="#D55994"/>
<path d="M474.998 328.356C465.826 304.211 459.008 290.966 446.998 283.499C451.904 305.154 446.391 318.949 438.498 328.355C440.228 327.849 446.228 328.656 450.498 330.5C456.101 332.918 467.197 347.106 468.729 348.391C464.318 346.648 461.597 347.858 454.998 349.5C445.665 351.822 438.918 348.391 435.998 344C434.003 365.823 417.973 372.198 410.813 380.076C434.244 380.155 441.498 375.643 461.498 366.5C481.498 357.357 487.498 361.5 500.498 361.5C496.99 357.902 484.171 352.5 474.998 328.356Z" fill="#D55994"/>
<path d="M451.541 339.548C448.233 339.601 441.026 337.752 434.997 333.736C439.162 332.662 449.243 337.619 451.541 339.548Z" fill="white"/>
<path d="M474.998 325.356C465.826 301.211 459.008 287.966 446.998 280.499C451.904 302.154 446.391 315.949 438.498 325.355C440.228 324.849 446.228 325.656 450.498 327.5C456.101 329.918 467.197 344.106 468.729 345.391C464.318 343.648 461.597 344.858 454.998 346.5C445.665 348.822 438.918 345.391 435.998 341C434.003 362.823 417.973 369.198 410.813 377.076C434.244 377.155 441.498 372.643 461.498 363.5C481.498 354.357 487.498 358.5 500.498 358.5C496.99 354.902 484.171 349.5 474.998 325.356Z" fill="white"/>
<path d="M342.461 449.151C340.294 446.651 337.078 439.942 336.278 432.742C339.778 435.242 342.461 446.151 342.461 449.151Z" fill="#D55994"/>
<path d="M370 459.5C381.5 436 380 422 378.001 408C366.501 423 356.501 430 344.501 431.5C346.001 432.5 349.168 436.044 350.501 440.5C352.25 446.347 347.654 460 349.487 465.5C347.987 461 343.325 461.553 337.825 457.553C330.047 451.896 327.513 443.559 329.001 438.5C311.001 451 298.637 447.421 288 447C303 465 312.141 463.556 332.001 473C351.861 482.444 353.644 487.041 362 497C362.501 492 358.5 483 370 459.5Z" fill="#D55994"/>
<path d="M344.461 451.151C342.294 448.651 339.078 441.942 338.278 434.742C341.778 437.242 344.461 448.151 344.461 451.151Z" fill="white"/>
<path d="M373 461.5C384.5 438 383 424 381.001 410C369.501 425 359.501 432 347.501 433.5C349.001 434.5 352.168 438.044 353.501 442.5C355.25 448.347 350.654 462 352.487 467.5C350.987 463 346.5 462.5 341 458.5C333.222 452.843 330.513 445.559 332.001 440.5C314.001 453 301.637 449.421 291 449C306 467 315.141 465.556 335.001 475C354.861 484.444 355.144 489.041 363.5 499C364.001 494 361.5 485 373 461.5Z" fill="white"/>
<path d="M185.475 451.53C185.422 448.222 187.271 441.016 191.286 434.986C192.36 439.151 187.403 449.232 185.475 451.53Z" fill="#D55994"/>
<path d="M192.999 477.5C210.999 471 232.531 462.082 239.998 450.072C219.499 450.072 209.156 447.564 198.999 441C199.505 442.73 199.037 445.801 197.194 450.071C194.775 455.675 181.63 464.108 179.499 469.5C181.242 465.088 179.141 459.099 177.499 452.5C175.176 443.167 178.499 439 182.01 434.719C163.999 429.5 156.876 417.66 148.999 410.5C145.499 431 150.355 441 159.499 461C168.642 481 167.498 483.999 167.498 496.999C171.096 493.491 174.998 483.999 192.999 477.5Z" fill="#D55994"/>
<path d="M185.475 448.53C185.422 445.222 187.271 438.016 191.286 431.986C192.36 436.151 187.403 446.232 185.475 448.53Z" fill="white"/>
<path d="M192.999 474.5C210.999 468 232.531 459.082 239.998 447.072C219.499 447.072 209.156 444.564 198.999 438C199.505 439.73 199.037 442.801 197.194 447.071C194.775 452.675 181.63 461.108 179.499 466.5C181.242 462.088 179.141 456.099 177.499 449.5C175.176 440.167 178.499 436 182.01 431.719C163.999 426.5 156.876 414.66 148.999 407.5C145.499 428 150.355 438 159.499 458C168.642 478 167.498 480.999 167.498 493.999C171.096 490.491 174.998 480.999 192.999 474.5Z" fill="white"/>
<path d="M76.041 339.76C78.541 337.593 85.2502 334.377 92.4502 333.577C89.9502 337.077 79.041 339.76 76.041 339.76Z" fill="#D55994"/>
<path d="M60.9842 363.216C77.5 369.999 102.5 380.5 116.5 378.5C102.5 369 93 354.501 91.5 342.501C90.5 344.001 88.9558 347.168 84.5 348.501C78.6527 350.25 61.5 343.667 56 345.5C60.5 344 64.5 339.001 68.5 333.501C74.1569 325.723 81.9642 326.063 87.5 326.001C76.8076 310.702 78 294.5 80 283.001C62.0463 293.497 61.9436 308.14 52.5 328C43.0564 347.86 37.9588 351.145 28 359.501C33 360.002 44.4684 356.434 60.9842 363.216Z" fill="#D55994"/>
<path d="M76.041 337.76C78.541 335.593 85.2502 332.377 92.4502 331.577C89.9502 335.077 79.041 337.76 76.041 337.76Z" fill="white"/>
<path d="M60.9842 360.216C77.5 366.999 102.5 377.5 116.5 375.5C102.5 366 93 351.501 91.5 339.501C90.5 341.001 88.9558 344.168 84.5 345.501C78.6527 347.25 61.5 340.667 56 342.5C60.5 341 64.5 336.001 68.5 330.501C74.1569 322.723 81.9642 323.063 87.5 323.001C76.8076 307.702 78 291.5 80 280.001C62.0463 290.497 61.9436 305.14 52.5 325C43.0564 344.86 37.9588 348.145 28 356.501C33 357.002 44.4684 353.434 60.9842 360.216Z" fill="white"/>
<path d="M75.8613 188.36C79.1691 188.308 86.3758 190.157 92.4056 194.172C88.2407 195.246 78.1595 190.289 75.8613 188.36Z" fill="#D55994"/>
<path d="M52.4991 196C58.499 215 69.9436 237.576 81.9537 245.044C77.3356 228.767 78.9987 214 87.4987 202.5C85.7685 203.006 80.7688 201.343 76.4987 199.5C70.8951 197.081 62.2117 183.006 56.82 180.875C61.2314 182.619 70.8995 181.642 77.499 180C86.8321 177.678 89.2037 182.675 93.4844 186.186C95.1272 167.594 105.498 157.5 116.998 149.5C96.4982 147 90.4983 150.856 70.4983 160C50.4983 169.143 40.4989 166.5 28.4983 165.22C32.0067 168.817 46.4992 177.001 52.4991 196Z" fill="#D55994"/>
<path d="M76.8613 187.36C80.1691 187.308 87.3758 189.157 93.4056 193.172C89.2407 194.246 79.1595 189.289 76.8613 187.36Z" fill="white"/>
<path d="M53.4991 193C59.499 212 70.9436 234.576 82.9537 242.044C78.3356 225.767 79.9987 211 88.4987 199.5C86.7685 200.006 81.7688 198.343 77.4987 196.5C71.8951 194.081 63.2117 180.006 57.82 177.875C62.2314 179.619 71.8995 178.642 78.499 177C87.8321 174.678 90.2037 179.675 94.4844 183.186C96.1272 164.594 106.498 154.5 117.998 146.5C97.4982 144 91.4983 147.856 71.4983 157C51.4983 166.143 41.4989 163.5 29.4983 162.22C33.0067 165.817 47.4992 174.001 53.4991 193Z" fill="white"/>
<path d="M321.481 386.278C334.739 383.913 348.521 371.383 350.337 362.254C351.303 364.455 349.761 372.339 342 379.5C333.25 387.573 326.264 385.874 321.481 386.278C320.987 386.366 320.493 386.44 320 386.5C320.467 386.391 320.961 386.322 321.481 386.278Z" fill="#D55994"/>
<path d="M321.481 387.278C334.739 384.913 348.521 372.383 350.337 363.254C351.303 365.455 349.761 373.339 342 380.5C333.25 388.573 326.264 386.874 321.481 387.278C320.987 387.366 320.493 387.44 320 387.5C320.467 387.391 320.961 387.322 321.481 387.278Z" fill="white"/>
<path d="M369.787 346.067C382.762 343.251 393.316 328.313 393.499 316.5C394.465 318.701 395.76 330.838 387.998 337.999C379.782 345.579 374.199 345.573 369.787 346.067C369.032 346.231 368.269 346.354 367.499 346.432C368.229 346.262 368.989 346.156 369.787 346.067Z" fill="#D55994"/>
<path d="M370.787 346.067C383.762 343.251 394.316 328.313 394.499 316.5C395.465 318.701 396.76 330.838 388.998 337.999C380.782 345.579 375.199 345.573 370.787 346.067C370.032 346.231 369.269 346.354 368.499 346.432C369.229 346.262 369.989 346.156 370.787 346.067Z" fill="white"/>
</svg>
