<svg width="528" height="528" viewBox="0 0 528 528" fill="none" xmlns="http://www.w3.org/2000/svg">
<path d="M266.773 257.998C261.573 255.998 258.42 260.503 258.273 262.999C257.773 271.498 265.679 270.783 267.773 269.998C271.772 268.498 273.273 260.498 266.773 257.998Z" stroke="black" stroke-width="0.5"/>
<path d="M380 358C375 355.5 372.167 349.333 371.5 346.5C372.167 346.5 374 347.1 374 347.5C374 348 375.263 350.851 376.5 352.5C378 354.5 380 356 381.5 357.5C383 359 384.817 360.408 380 358Z" fill="white" fill-opacity="0.3"/>
<path d="M395 355.5C392.172 354.369 388.667 350 387.5 348C388.167 347.667 389.5 347.5 389.5 347.5C389.5 347.5 394.5 353 396.5 354.5C398.5 356 397.5 356.5 395 355.5Z" fill="white" fill-opacity="0.3"/>
<path d="M409 349C406.6 348.6 403 345.833 401.5 344.5L401 344C401.833 343.667 403.5 343.1 403.5 343.5C403.5 344 407 347 409 347.5C411 348 412 349.5 409 349Z" fill="white" fill-opacity="0.3"/>
<path d="M420 342.5C418.8 342.1 416.5 340 415.5 339L417.5 338C417.5 338.5 417.8 339.7 419 340.5C420.5 341.5 421.5 343 420 342.5Z" fill="white" fill-opacity="0.3"/>
<path d="M427.5 335C421 329 423.5 324.5 407 295.5C393.982 272.619 357.971 269.64 341 271C351.699 273.941 358.5 287 368.5 300C378.5 313 400.5 320 407 326.5C388 317 373 312 360.5 315.5C348 319 341.199 321.5 321.5 315.5C331.5 328 360.5 343.5 375 347.5C389.5 351.5 405 341 427.5 335Z" fill="white" fill-opacity="0.3"/>
<path d="M412.5 280.5C408.5 279 400 280.833 396 282.5L395 283L397.5 284.5L398 284C400.5 282.5 402 282 409 282C413.528 282 417.211 282.267 412.5 280.5Z" fill="white" fill-opacity="0.3"/>
<path d="M416.5 293.5C413.3 292.7 408.833 294.166 407 295L407.5 297C407.833 297 408 296.75 409 296.5C411 296 413 296 416 296C419 296 422 296.5 422.5 296C423 295.5 420.5 294.5 416.5 293.5Z" fill="white" fill-opacity="0.3"/>
<path d="M423.999 307.499C420.986 306.156 415.297 306.202 413.347 306.704L413.999 308.499C414.327 308.557 414.028 308.602 415.056 308.529C417.112 308.384 419.045 308.479 421.999 309C424.953 309.521 427.858 310.787 428.438 310.381C429.017 309.975 427.765 309.179 423.999 307.499Z" fill="white" fill-opacity="0.3"/>
<path d="M427.501 322C424.488 320.656 421.951 319.998 420.001 320.5L420.501 322.5C420.829 322.558 420.029 322.602 421.058 322.53C423.114 322.384 422.546 322.479 425.501 323C428.455 323.521 429.501 324.5 430.501 324.5C431.208 324.5 431.266 323.679 427.501 322Z" fill="white" fill-opacity="0.3"/>
<path d="M354.879 146.681C352.379 151.681 346.212 154.514 343.379 155.181C343.379 154.514 343.979 152.681 344.379 152.681C344.879 152.681 347.73 151.418 349.379 150.181C351.379 148.681 352.879 146.681 354.379 145.181C355.879 143.681 357.287 141.864 354.879 146.681Z" fill="white" fill-opacity="0.3"/>
<path d="M352.379 131.681C351.248 134.509 346.879 138.014 344.879 139.181C344.545 138.514 344.379 137.181 344.379 137.181C344.379 137.181 349.879 132.181 351.379 130.181C352.879 128.181 353.379 129.181 352.379 131.681Z" fill="white" fill-opacity="0.3"/>
<path d="M345.88 117.681C345.48 120.081 342.713 123.681 341.38 125.181L340.88 125.681C340.546 124.847 339.98 123.181 340.38 123.181C340.88 123.181 343.88 119.681 344.38 117.681C344.88 115.681 346.38 114.681 345.88 117.681Z" fill="white" fill-opacity="0.3"/>
<path d="M339.379 106.681C338.979 107.881 336.879 110.181 335.879 111.181L334.879 109.181C335.379 109.181 336.579 108.881 337.379 107.681C338.379 106.181 339.879 105.181 339.379 106.681Z" fill="white" fill-opacity="0.3"/>
<path d="M292.303 119.536C321.198 103.007 325.682 105.511 331.66 99C337.638 121.539 348.1 137.066 344.115 151.591C340.129 166.117 328.289 189.977 311.351 203C318.325 182.965 317.827 177.956 314.34 165.435C310.853 152.913 315.834 136.384 325.3 117.351C318.824 123.863 311.351 147.904 296.787 158.103C283.377 167.493 274.924 174.251 271.994 184.969C271.873 183.449 271.754 181.783 271.653 179.999C270.628 161.821 271.542 131.411 292.303 119.536Z" fill="white" fill-opacity="0.3"/>
<path d="M277.38 114.181C275.88 118.181 277.713 126.681 279.38 130.681L279.88 131.681L281.38 129.181L280.88 128.681C279.38 126.181 278.88 124.681 278.88 117.681C278.88 113.153 279.147 109.47 277.38 114.181Z" fill="white" fill-opacity="0.3"/>
<path d="M290.38 110.181C289.58 113.381 291.046 117.847 291.88 119.681L293.88 119.181C293.88 118.847 293.63 118.681 293.38 117.681C292.88 115.681 292.88 113.681 292.88 110.681C292.88 107.681 293.38 104.681 292.88 104.181C292.38 103.681 291.38 106.181 290.38 110.181Z" fill="white" fill-opacity="0.3"/>
<path d="M304.379 102.681C303.036 105.693 303.082 111.383 303.584 113.333L305.379 112.681C305.437 112.352 305.482 112.652 305.409 111.624C305.264 109.567 305.359 107.635 305.88 104.681C306.401 101.726 307.666 98.8213 307.261 98.2421C306.855 97.6629 306.059 98.9151 304.379 102.681Z" fill="white" fill-opacity="0.3"/>
<path d="M318.881 99.1808C317.537 102.193 316.879 104.73 317.381 106.681L319.381 106.181C319.439 105.853 319.483 106.652 319.41 105.624C319.265 103.568 319.36 104.135 319.881 101.181C320.402 98.2265 321.381 97.1807 321.381 96.1808C321.381 95.4737 320.56 95.4153 318.881 99.1808Z" fill="white" fill-opacity="0.3"/>
<path d="M249.836 118.104C252.059 123.233 250.266 129.778 248.955 132.377C248.444 131.948 247.426 130.31 247.683 130.004C248.004 129.621 248.869 126.625 248.982 124.567C249.118 122.07 248.55 119.636 248.365 117.523C248.18 115.409 247.694 113.163 249.836 118.104Z" fill="white" fill-opacity="0.3"/>
<path d="M238.739 112.377C240.178 115.062 240.055 120.661 239.663 122.943C238.938 122.77 237.81 122.041 237.81 122.041C237.81 122.041 237.515 114.614 236.947 112.179C236.379 109.744 237.466 110.004 238.739 112.377Z" fill="white" fill-opacity="0.3"/>
<path d="M220.871 99.5C222.452 101.349 224.396 112.64 224.688 114.626L224.75 115.33C223.897 115.05 222.256 114.412 222.513 114.106C222.835 113.723 222.082 106.169 220.871 104.5C219.66 102.831 218.894 97.1886 220.871 99.5Z" fill="white" fill-opacity="0.3"/>
<path d="M207.977 99.9786C209.363 101.787 210.878 106.861 211.502 109.001L208.003 107.501C208.401 107.027 208.873 105.254 207.806 103.066C206.472 100.331 206.245 97.7176 207.977 99.9786Z" fill="white" fill-opacity="0.3"/>
<path d="M197.665 103.19C198.788 111.964 189.975 113.32 187.979 146.626C186.45 172.142 207.95 191.142 219.448 202.643C213.143 193.514 216.949 179.643 218.448 162.644C219.889 146.306 208.707 132.036 207.906 122.879C216.354 142.369 224.038 153.202 236.449 161.642C248.949 170.142 249.216 168.383 260.449 185.641C260.823 169.638 257.486 144.526 248.949 132.142C240.413 119.757 218.758 113.057 197.665 103.19Z" fill="white" fill-opacity="0.3"/>
<path d="M179.416 147.052C181.353 149.722 185.718 151.47 187.658 152.01L188.56 150.156C188.305 149.942 188.017 150.026 187.09 149.575C185.236 148.672 183.704 147.387 181.406 145.458C179.108 143.53 177.131 141.219 176.427 141.28C175.723 141.342 176.995 143.715 179.416 147.052Z" fill="white" fill-opacity="0.3"/>
<path d="M180.668 131.507C182.112 134.473 186.5 138.094 188.317 138.963L188.971 137.169C188.757 136.913 189.015 137.072 188.181 136.467C186.512 135.256 185.093 133.941 183.165 131.643C181.236 129.345 179.825 126.508 179.12 126.446C178.416 126.385 178.863 127.8 180.668 131.507Z" fill="white" fill-opacity="0.3"/>
<path d="M187.504 116C187.504 117.999 189.504 121.667 191.004 123.501C191.337 123.334 191.904 122.801 191.504 122.001L191.5 121.993C191.001 120.995 190.501 119.996 189.504 118.501C188.004 116.001 187.504 113.938 187.504 116Z" fill="white" fill-opacity="0.3"/>
<path d="M193.504 106.5C193.504 108.9 194.504 110.833 195.004 111.5L195.503 112.5C196.17 111.667 197.303 110 196.503 110C195.503 110 193.504 103.5 193.504 106.5Z" fill="white" fill-opacity="0.3"/>
<path d="M411.146 245.338C405.843 247.106 399.479 244.749 397.004 243.217C397.475 242.745 399.196 241.873 399.479 242.156C399.832 242.51 402.741 243.632 404.782 243.924C407.257 244.277 409.732 243.924 411.853 243.924C413.974 243.924 416.255 243.635 411.146 245.338Z" fill="white" fill-opacity="0.3"/>
<path d="M419.416 232.926C416.41 233.92 410.048 232.514 407.444 231.561C407.619 230.793 408.414 229.702 408.414 229.702C408.414 229.702 416.84 231.057 419.588 230.976C422.336 230.895 422.073 232.047 419.416 232.926Z" fill="white" fill-opacity="0.3"/>
<path d="M426.503 218C424.449 219.34 419.219 218.897 416.97 218.769L414.004 218.769C414.296 217.883 414.646 215.643 415.003 216C415.448 216.445 422.643 217.968 424.503 217C426.363 216.032 429.07 216.324 426.503 218Z" fill="white" fill-opacity="0.3"/>
<path d="M429.004 203.799C427.146 204.849 421.226 205.798 419.004 206L420.504 202.5C421.009 203.005 423.509 203.637 425.772 202.99C428.6 202.183 431.327 202.486 429.004 203.799Z" fill="white" fill-opacity="0.3"/>
<path d="M426.002 189C417.163 189.354 420.175 187.839 388.002 179C362.617 172.026 333.104 197.463 322.065 210.424C333.502 204.5 349.739 205.379 366.002 207.5C382.266 209.621 394.31 199.5 403.502 199.5C387.502 207.5 375.502 216.5 368.002 225.5C359.692 235.472 357.915 245.993 339.743 255.68C355.653 257.447 382.502 256.5 400.201 240.477C411.351 230.382 415.502 212 426.002 189Z" fill="white" fill-opacity="0.3"/>
<path d="M385.503 164.5C381.614 166.268 374.653 171.993 373.003 176L371.502 178.499L376.003 178L376.003 177C376.71 174.172 378.053 172.95 383.003 168C386.204 164.798 390.083 162.418 385.503 164.5Z" fill="white" fill-opacity="0.3"/>
<path d="M397.002 170.999C394.174 172.696 390.21 177.486 389.503 179.372L392.003 180C392.238 179.764 391.65 180.256 392.18 179.372C393.241 177.605 393.881 175.621 396.002 173.5C398.124 171.378 403.013 169.232 403.013 168.524C403.013 167.817 400.538 168.878 397.002 170.999Z" fill="white" fill-opacity="0.3"/>
<path d="M418.002 178.501C418.502 176.502 409.169 181.334 406.502 184.001L406.002 184.5L408.502 185L409.502 183.5C410.502 182 417.502 180.5 418.002 178.501Z" fill="white" fill-opacity="0.3"/>
<path d="M112.998 281.5C119.33 279.34 129.629 281.261 133.125 283.198C132.634 283.783 130.649 284.857 130.224 284.501C129.694 284.056 125.658 282.883 122.998 282.5C119.773 282.036 117.693 282.519 114.998 282.5C112.303 282.481 106.898 283.581 112.998 281.5Z" fill="white" fill-opacity="0.3"/>
<path d="M103 294.491C105.685 293.052 120.411 294.099 122.693 294.491C122.52 295.216 121.791 296.345 121.791 296.345C121.791 296.345 113.935 295.432 111.5 296C109.065 296.568 100.627 295.764 103 294.491Z" fill="white" fill-opacity="0.3"/>
<path d="M100.998 308.5C102.847 306.918 113.388 305.757 115.374 305.465L116.998 304.999C116.718 305.852 115.68 308.071 115.374 307.814C114.991 307.493 107.167 307.289 105.498 308.5C103.829 309.71 98.6867 310.476 100.998 308.5Z" fill="white" fill-opacity="0.3"/>
<path d="M97.9766 323.59C99.7854 322.205 108.359 320.624 110.499 320L108.999 323C108.499 322.5 103.252 322.694 101.064 323.761C98.3291 325.096 95.7156 325.322 97.9766 323.59Z" fill="white" fill-opacity="0.3"/>
<path d="M103.939 334.489C112.714 333.366 114.07 342.179 147.375 344.175C172.891 345.704 194.998 325.998 206.5 314.499C197.37 320.805 179.39 317.498 162.391 315.999C146.053 314.558 129.656 323.699 120.499 324.5C139.989 316.052 153.952 308.116 162.391 295.705C170.891 283.205 170.741 280.733 187.999 269.5C171.996 269.125 145.276 274.668 132.891 283.205C120.506 291.741 113.806 313.396 103.939 334.489Z" fill="white" fill-opacity="0.3"/>
<path d="M147.801 353.738C150.471 351.801 152.959 346.534 153.499 344.594L150.905 344.593C150.691 344.849 150.775 345.137 150.324 346.064C149.421 347.917 148.136 349.45 146.207 351.748C144.279 354.046 141.967 356.023 142.029 356.727C142.091 357.431 144.464 356.159 147.801 353.738Z" fill="white" fill-opacity="0.3"/>
<path d="M133.256 352.486C136.221 351.042 140.63 345.818 141.499 344.001L138.999 343.5C138.743 343.715 138.821 344.139 138.215 344.973C137.005 346.642 135.69 348.061 133.392 349.989C131.094 351.917 128.257 353.329 128.195 354.034C128.134 354.738 129.549 354.291 133.256 352.486Z" fill="white" fill-opacity="0.3"/>
<path d="M112.749 347.65C114.748 347.65 121.166 342.499 122.999 340.999C123 339.5 121.05 339.599 120.25 339.999C119.25 340.499 115.998 343.5 114.499 344.5C111.999 346 110.688 347.65 112.749 347.65Z" fill="white" fill-opacity="0.3"/>
<path d="M103.791 338.274C106.191 338.275 108.124 337.275 108.791 336.774L110.5 335.5C109.667 334.833 107.291 334.475 107.291 335.275C107.291 336.275 100.791 338.274 103.791 338.274Z" fill="white" fill-opacity="0.3"/>
<path d="M174.999 381C178.248 375.152 181.98 374.347 185.822 373.244C185.889 374.005 185.244 376.168 184.692 376.216L184.685 376.217C183.993 376.278 182.643 376.396 180.499 378C177.89 379.952 177.419 381.108 175.499 383C173.58 384.892 172.499 385.5 174.999 381Z" fill="white" fill-opacity="0.3"/>
<path d="M177.499 401.5C177.93 398.484 184.109 392.337 185.999 391C186.39 391.635 186.499 393.5 186.499 393.5C186.499 393.5 184.819 394.377 183.499 396.5C182.179 398.623 176.999 405 177.499 401.5Z" fill="white" fill-opacity="0.3"/>
<path d="M183.501 413.5C183.69 411.074 187.803 406.11 189.001 404.5C189.406 405.301 189.899 406.465 189.501 406.5C189.003 406.544 186.825 408.464 186.501 410.5C186.177 412.536 183.264 416.532 183.501 413.5Z" fill="white" fill-opacity="0.3"/>
<path d="M188.531 422.66C188.83 420.401 190.929 416.954 192 415L192.5 417.5C191.793 417.5 191.293 418.198 190.5 420.5C189.509 423.377 188.157 425.483 188.531 422.66Z" fill="white" fill-opacity="0.3"/>
<path d="M195.5 426C200.911 419.002 213.538 425.639 238.5 403.5C257.624 386.539 258.498 350.263 258.5 334C256.503 344.914 243.08 355.04 230 366C217.429 376.534 210.909 398.458 205 405.5C210.4 384.123 218.169 370.137 215.361 355.394C212.532 340.545 210.678 338.903 214.939 318.756C203.358 329.808 188.383 352.621 185.662 367.415C182.941 382.208 187 402.5 195.5 426Z" fill="white" fill-opacity="0.3"/>
<path d="M247.5 405.499C247.5 402.5 246.536 396.753 245.546 395L244.437 396.999C244.466 397.332 244.664 397.525 245 398.499C245.673 400.448 245.739 401.011 246 403.999C246.262 406.988 246.458 408.545 246.999 409C247.541 409.454 247.5 409.622 247.5 405.499Z" fill="white" fill-opacity="0.3"/>
<path d="M236.001 418.5C237.076 415.382 237.171 407.399 236.501 405.5L234.616 406.73C234.587 407.062 234.942 407.307 235.104 408.325C235.427 410.361 235.501 412.295 235.24 415.283C234.978 418.272 234.425 421.818 234.425 421.818C234.425 421.818 234.656 422.398 236.001 418.5Z" fill="white" fill-opacity="0.3"/>
<path d="M219 428.5C221.135 426.365 222.299 417.632 222.535 415.275C222 415.5 221.283 415.39 221 416.238C220.646 417.299 220.49 421.739 219.5 423.5C216.971 428 217.542 429.958 219 428.5Z" fill="white" fill-opacity="0.3"/>
<path d="M206.024 426.932C207.721 425.235 208.381 423.161 208.499 422.336L208.806 420.226C207.746 420.344 205.813 421.771 206.378 422.336C207.085 423.044 203.903 429.053 206.024 426.932Z" fill="white" fill-opacity="0.3"/>
<path d="M140.5 168C142.9 169.6 148.5 174.333 151 176.5H149C148.167 175.5 145.7 173 142.5 171C138.5 168.5 134 164.5 132 162C130 159.5 133 161.5 133.5 162C134 162.5 137.5 166 140.5 168Z" fill="white" fill-opacity="0.3"/>
<path d="M119.963 169.897C122.363 170.297 131.109 177.697 132.609 179.03L133.109 179.53C132.276 179.864 130.609 180.43 130.609 180.03C130.609 179.53 125.177 174.227 123.177 173.727C121.177 173.227 116.963 169.397 119.963 169.897Z" fill="white" fill-opacity="0.3"/>
<path d="M109.391 177.553C111.615 178.048 116.037 180.961 117.891 182.198L114.246 183.299C114.246 182.68 113.468 181.018 111.244 180.028C108.464 178.791 106.611 176.934 109.391 177.553Z" fill="white" fill-opacity="0.3"/>
<path d="M102 187C108.5 193 103.178 201.345 123.058 228.141C138.287 248.671 173.299 253.08 189.5 254.5C181 250 173.278 237.986 163.5 224C154.102 210.558 128 202 121.5 195.5C140.5 205 152.568 208.513 167.5 207C182.539 205.477 188.301 201 208 207C198 194.5 174.953 181.855 160.453 177.855C145.953 173.855 124.5 181 102 187Z" fill="white" fill-opacity="0.3"/>
<path d="M113 231.5C116.2 232.3 122.667 230.833 124.5 230L122.771 228.472C122.438 228.472 122.271 228.722 121.271 228.972C119.271 229.472 117.271 229.472 114.271 229.472C111.271 229.472 108.271 228.972 107.771 229.472C107.271 229.972 109 230.5 113 231.5Z" fill="white" fill-opacity="0.3"/>
<path d="M106.739 214.258C109.752 215.602 115.441 215.556 117.392 215.053L116.739 213.258C116.411 213.2 116.711 213.156 115.682 213.229C113.626 213.374 111.694 213.279 108.739 212.758C105.785 212.237 102.88 210.971 102.301 211.377C101.721 211.782 102.974 212.579 106.739 214.258Z" fill="white" fill-opacity="0.3"/>
<path d="M98.9986 198.499C100.874 200.735 105.089 201.862 106.153 202.028L108.499 202.5C108.571 201.116 107.476 198.537 106.608 199.265C105.523 200.176 96.6543 195.705 98.9986 198.499Z" fill="white" fill-opacity="0.3"/>
<path d="M289.152 413.797C288.2 410.903 289.294 405.41 290.076 403.23C290.76 403.527 291.745 404.441 291.745 404.441C291.745 404.441 290.745 411.807 290.882 414.303C291.018 416.799 289.992 416.355 289.152 413.797Z" fill="white" fill-opacity="0.3"/>
<path d="M304.13 421.343C302.894 419.247 302.699 414.711 302.757 412.705L302.818 412.001C303.609 412.425 305.115 413.337 304.808 413.594C304.425 413.916 304.377 418.525 305.279 420.379C306.182 422.232 305.676 423.962 304.13 421.343Z" fill="white" fill-opacity="0.3"/>
<path d="M332.246 425.016C332.664 416.18 331.888 417.78 343.497 386.5C352.657 361.819 325.497 327 310.997 316.5C315.622 326.586 317.786 335.668 314.997 352C311.497 372.5 324.298 394.843 323.497 404C318.562 383.339 309.997 375 299.497 364.5C290.319 355.321 278.063 351.447 269.998 332.5C266.85 348.195 274.468 377.72 280.497 391.5C287.497 407.5 309.497 416 332.246 425.016Z" fill="white" fill-opacity="0.3"/>
<path d="M357.854 382.994C356.432 378.965 349.564 373.632 345.716 371.639L344.691 371.194L345.149 374.074L345.853 374.135C348.609 375.086 349.956 375.914 354.456 381.276C357.366 384.745 359.529 387.738 357.854 382.994Z" fill="white" fill-opacity="0.3"/>
<path d="M343.998 408C342.361 405.137 340.136 401.171 338.498 400L337.498 402C337.665 402.289 338.282 403.259 338.998 404C340.431 405.482 341.236 406.838 341.498 407.5C342.603 410.289 344.815 412.317 345.498 412.5C346.181 412.683 345.998 411.5 343.998 408Z" fill="white" fill-opacity="0.3"/>
<path d="M336.496 420.5C335.696 419.7 334.163 416.5 333.496 415C333.329 415.5 332.996 416.6 332.996 417C332.996 417.5 334.996 420.5 336.496 422C337.996 423.5 337.496 421.5 336.496 420.5Z" fill="white" fill-opacity="0.3"/>
<path d="M316.218 425.752C314.982 423.656 314.787 419.12 314.844 417.114L314.906 416.41C315.697 416.834 317.203 417.746 316.896 418.004C316.513 418.325 316.465 422.934 317.367 424.788C318.27 426.641 317.764 428.372 316.218 425.752Z" fill="white" fill-opacity="0.3"/>
<path d="M286.5 204C282.1 206.4 278.333 210.833 277.5 212.5C278.5 201.5 275 193 268 192.5C260.5 192.5 257 203.5 256.5 211C250.5 207 246.5 199.5 243 199.5C239.5 207 240.5 212 241 218C232.5 212 227.5 210.5 222.5 212C211.5 215.5 220.5 229 223.5 233C218.5 232.5 210 234.5 206 236.5C210.5 244.5 214.5 249 218 251.5C207.5 251.5 199 256.5 199 262C199.5 272.5 212.5 272 219 272C211.5 276.5 206.5 285 204.5 288C210 289.5 217.5 290 224.5 290.5C221 294 217 300.5 217 307C218.5 319 233 308.5 238 305C237 309 238.5 321 238.5 326.5C244.5 323 249.5 317.5 257 311.5C256 325 264 332.5 268.5 332.5C273 332.5 277 322.5 277.5 315.5C280.5 319.5 288.5 323.5 292.5 325.5C294.5 322 295 313 294.5 307C295.5 307.5 304.5 313.5 313.5 311.5C322.5 309.5 310.5 295 308.5 292C320.5 291.5 324.5 288 328 287C327 283.5 318 276 312.5 273C321.5 272 325 271 331.5 266C339 256.5 323 252.5 316 251.5C321.5 248.5 327.5 240 329 237.5C326.5 236.5 317.5 234.5 310.5 234C316 227 319 221 318 216.5C314 204.5 301.5 214 296.5 217C298 212 295 200.5 294 198.5C293 199.5 292 201 286.5 204Z" fill="white" fill-opacity="0.3"/>
<path d="M283 217C279 219 272.667 230.833 270 236.5C269 228.5 269.5 215 265.5 207C262 211.5 261.5 227.5 261 236.5C259 228 253.5 221.5 249.5 215.5V224.5C249.5 231 249.5 233 250.5 239.5C243.501 232.5 237 226 229.5 224.5C230.5 230.5 241 242.5 244.5 246.5C241 244 228 244 222.5 243.5C224 246.5 238 255.5 240 257.5C229.6 257.5 217.167 260.333 213 262C213.833 262.167 217.1 263 217.5 263C222.5 263 233 268.5 240 269C233.5 272 225.5 279 221.5 282.5C231 282 231.5 281.5 242.5 278.5C234.9 284.5 229.333 296.333 227.5 301.5C243.5 294.5 247 287.5 250.5 284.5C249.5 288 247 302.5 248 307C254.5 304.5 260 289 260 288.5C260 288 261.5 284 261.5 291.5C261.5 299 263 310 265.5 316C268 313.5 268 295 268 289C269.6 292.2 278 302 282 306.5C281 295 277 289 277 287C277 286.5 276 283.5 278.5 286C281 288.5 291 297 298.5 299.5C296 295 287 282.5 283 277C285.5 278 294 280.5 305 282.5C303.8 279.3 292.5 271.167 287 267.5C293 267.5 308 265.5 312 264C308.5 261 304 260 287 256C290 254 301 248 308 242.5C305.2 242.1 290.167 245 283 246.5C285 244.5 299 232.5 301 226C296.5 226 287 233 278.5 240.5C280.5 236 284.5 215.5 283 217Z" fill="#FAA759"/>
<path d="M265.523 255.498C260.323 253.498 257.17 258.003 257.023 260.499C256.523 268.998 264.429 268.283 266.523 267.498C270.522 265.998 272.023 257.998 265.523 255.498Z" fill="white" fill-opacity="0.3"/>
<path d="M237 179C239 182 242 186 245.5 189.5C240.7 188.3 233.5 193 230.5 195.5C230.345 195.628 230 196 230 195.5C230 195 229.5 194 229.5 192.5C229.5 191 226.5 183 226 181.5C225.5 180 225.5 178.5 226 179C226.4 179.4 229.167 187.833 230.5 192C231 192.5 231.5 191.5 232.5 191C233.394 190.552 230.871 184.536 228.5 176C226 167 229 172 230 174C231 176 236.5 187.5 237 188C237.5 188.5 238 187.5 239.5 187C237.5 185 234.5 176.5 233.5 174C232.5 171.5 235 176 237 179Z" fill="white" fill-opacity="0.3"/>
<path d="M343.498 235.5C340.498 237.5 338.368 237.983 334.998 242C336.198 237.2 331.934 230.173 329.434 227.173C329.306 227.018 328.691 226.174 329.191 226.174C329.691 226.174 328.498 226.174 329.998 226.174C331.498 226.174 343.344 222.501 344.844 222.001C346.344 221.501 350.524 221.731 350.024 222.231C349.624 222.631 337.769 226.584 333.603 227.917C333.103 228.417 333.434 228.173 333.934 229.173C334.381 230.067 337.768 229.456 345.998 226.174C356.544 221.968 350.779 225.944 348.779 226.944C346.779 227.944 337.434 233.173 336.934 233.673C336.434 234.173 337.434 234.673 337.934 236.173C339.934 234.173 347.998 231.5 350.498 230.5C352.998 229.5 346.498 233.5 343.498 235.5Z" fill="white" fill-opacity="0.3"/>
<path d="M186.719 289.623C189.719 287.623 190.844 286.458 194.5 282.501C193.3 287.301 197.455 294.499 199.955 297.499C200.083 297.654 201.603 299.525 201.103 299.525C200.603 299.525 199.693 298.973 198.193 298.973C196.693 298.973 189 301.5 187.5 302C186 302.5 180.5 303.5 181 303C181.4 302.6 191.804 299.181 195.97 297.847C196.714 297.28 195.298 295.899 194.932 295.302C194.41 294.45 193.595 296.352 185 298.501C175 301.001 177.499 298.847 179.499 297.847C181.499 296.847 191.915 292.134 192.415 291.634C192.915 291.134 193.517 288.973 193.017 287.473C191.017 289.473 184 293.001 181.5 294.001C179 295.001 182.45 292.469 186.719 289.623Z" fill="white" fill-opacity="0.3"/>
<path d="M192.001 224.5C195.536 225.207 197.106 226.11 202.49 225.896C198.247 228.442 196.355 235.111 196.001 239C195.982 239.2 196.355 243.854 196.001 243.5C195.647 243.146 193.738 241.42 192.677 240.36C191.617 239.299 185.166 235.442 183.752 234.735C182.337 234.028 177.741 230.846 178.448 230.846C179.014 230.846 188.788 235.785 192.677 237.788C193.604 237.913 193.58 235.935 193.743 235.255C193.977 234.282 192.056 235.051 184.458 230.493C175.62 225.189 176.327 224.293 178.448 225C180.57 225.707 193.85 230.881 194.557 230.881C195.264 230.881 197.218 229.779 197.925 228.364C195.096 228.364 183.476 224.561 181.001 223.5C178.527 222.44 186.97 223.494 192.001 224.5Z" fill="white" fill-opacity="0.3"/>
<path d="M306 183C304.987 186.46 304.566 190 304.566 195.244C302.4 190.795 294.172 188.301 290.328 187.61C290.131 187.573 289.117 187.321 289.5 187C289.883 186.679 290.834 185.879 291.984 184.915C293.133 183.951 297.172 177.435 298 176.088C298.828 174.74 300.313 173.797 300.251 174.501C300.202 175.065 296.335 181.8 294 185.5C293.938 186.204 294.035 185.804 295.061 186.249C295.978 186.647 298.43 182.305 302.625 174.5C308 164.5 305.889 172.948 305 175C304.111 177.051 300.313 187.064 300.252 187.768C300.19 188.472 301.277 188.213 302.625 189.04C302.871 186.223 306.728 176.874 308 174.501C309.272 172.128 307.013 179.54 306 183Z" fill="white" fill-opacity="0.3"/>
<path d="M339.495 301C336.034 299.987 333.995 299 328.995 298C333.443 295.834 336.942 287.682 337.633 283.838C337.67 283.641 337.921 282.627 338.243 283.01C338.564 283.393 337.797 282.479 338.761 283.628C339.725 284.777 350.154 291.491 351.501 292.318C352.848 293.146 355.358 296.497 354.654 296.435C354.09 296.386 343.195 291.335 339.495 289C338.79 288.938 339.206 289.475 338.761 290.5C338.363 291.418 340.191 292.24 347.995 296.435C357.995 301.81 350.676 299.89 348.624 299C346.573 298.111 338.337 295.062 337.633 295C336.929 294.938 334.822 295.653 333.995 297C336.812 297.247 349.128 302.228 351.501 303.501C353.874 304.773 342.955 302.013 339.495 301Z" fill="white" fill-opacity="0.3"/>
<path d="M294.501 341.999C292.77 338.836 292.291 336.696 288.667 332.71C293.344 334.323 300.295 331.729 303.501 329.5C303.667 329.386 305.663 328.035 305.62 328.533C305.576 329.031 304.946 329.89 304.816 331.384C304.685 332.878 308.634 341.962 309.001 343.5C309.369 345.037 309.456 346.042 309.001 345.5C308.637 345.067 304.466 337.767 303.501 333.5C303.001 332.71 301.501 334 300.875 334.312C299.98 334.758 303.319 339.256 305.871 347.741C309.141 358.613 305.323 352.08 304.501 350C303.68 347.921 297.456 337.042 297.001 336.5C296.547 335.959 294.447 335.17 292.909 335.538C294.727 337.704 299.223 345.422 300.001 348C300.779 350.578 296.964 346.5 294.501 341.999Z" fill="white" fill-opacity="0.3"/>
<path d="M228.002 334.423C229.023 330.965 228.979 330.807 228.766 325.423C231.311 329.666 236.811 330.866 242.502 332.5C243.002 332.644 243.856 332.146 243.502 332.5C243.148 332.854 243.002 333 241.989 334.423C241.118 335.644 238.709 342.642 238.002 344.056C237.295 345.471 236.121 348.634 236.121 347.926C236.121 347.361 237.618 339.088 239.621 335.199C239.746 334.272 237.768 334.296 237.088 334.133C236.115 333.899 236.213 337.359 232.714 345.499C228.231 355.931 230.295 344.121 231.002 342C231.709 339.879 232.714 334.026 232.714 333.319C232.714 332.612 231.612 330.658 230.198 329.951C230.198 332.78 228.063 341.025 227.002 343.5C225.941 345.975 226.502 339.5 228.002 334.423Z" fill="white" fill-opacity="0.3"/>
<path fill-rule="evenodd" clip-rule="evenodd" d="M155.873 393.764C169.072 447.264 220.224 448.709 244.5 426C250.999 435.5 249.924 441 248.076 445.676C246.692 449.177 234.074 466.367 215.285 468.42C211.203 468.867 207.672 469.287 204.632 469.649L204.632 469.649C193.296 470.999 188.788 471.536 188 469.564C189.867 466.561 191.454 464.916 201.003 462.001C210.237 459.182 212.056 452.793 213.476 447.808C213.81 446.635 214.122 445.54 214.503 444.587C211.502 444.087 208.5 444.676 205 447.5C201.519 450.308 198 452.732 194.5 454.5C191.609 455.96 190.807 456.205 190.042 456.437C189.627 456.564 189.223 456.687 188.5 457C185.5 453.644 181.233 448.186 179 440C178.753 439.092 178.541 438.253 178.346 437.476L178.346 437.476C177.356 433.546 176.776 431.24 174 430.001C171.541 428.903 171.499 432.5 171.499 438C171.499 444.671 176 451.644 177.5 453.644C184.952 463.58 187.185 469.89 185.5 469.564C133.5 445.73 133.07 397.373 155.873 393.764ZM217 455.5C219.213 452.597 219.655 449.603 220.064 446.828C220.29 445.302 220.505 443.841 221.001 442.499C222.501 441.499 228.469 439.269 229.05 440.739C229.002 445.349 226.052 453.188 219.457 456.839C215.555 458.999 215.32 457.704 217 455.5ZM165.381 436.703C165.307 437.243 165.247 437.687 165.192 437.999C165.078 438.645 165.092 439.687 165.105 440.736C165.15 444.107 165.194 447.535 160.999 437.999C158.131 431.481 161.193 425.044 165.192 420.477C165.896 420.416 169.178 423.399 168.774 425.692C166.523 428.28 165.77 433.836 165.381 436.703Z" fill="white" fill-opacity="0.3"/>
<path fill-rule="evenodd" clip-rule="evenodd" d="M274.906 429.998C319.406 462.498 358.406 428.997 362.406 395.997C372.651 396.539 376.407 402.999 378.906 410.499C380.096 414.07 381.479 435.349 368.406 449C354.975 463.024 337.279 474.773 334.906 473.5C334.406 470 339.822 461.343 345.264 452.972C350.62 444.731 348.329 439.331 346.416 434.822C346.007 433.86 345.616 432.938 345.32 432.037C343.675 433.008 343.393 434.602 343.067 436.449C342.873 437.544 342.664 438.727 342.146 439.922C341.238 442.016 340.283 443.946 339.366 445.799L339.366 445.799L339.366 445.799C338.486 447.577 337.641 449.284 336.906 450.998C335.629 453.977 334.046 456.414 332.818 458.305C332.151 459.331 331.589 460.197 331.237 460.9C328.962 459.659 327.309 459.177 325.661 458.696C323.324 458.014 320.994 457.334 316.906 454.498C315.41 453.461 313.951 452.168 312.545 450.921C309.548 448.264 306.788 445.818 304.406 446.498C301.817 447.238 305.871 454.187 309.406 458.4C313.694 463.51 318.471 465.43 320.906 465.998C333 468.819 333.905 474.665 332.405 475.498C279.906 473.998 259.757 447.421 274.906 429.998ZM354.529 445.093C354.312 440.449 352.924 436.819 351.68 433.567L351.68 433.566L351.68 433.565C351.41 432.861 351.148 432.174 350.905 431.498C351.31 429.2 353.515 424.746 354.906 425.498C357.831 429.061 360.611 436.962 357.906 443.999C354.511 452.828 354.528 449.55 354.544 446.634L354.544 446.634C354.547 446.078 354.55 445.536 354.529 445.093ZM297.501 446.191C297.429 450.265 298.408 454.77 299.405 456.498C299.589 456.816 299.821 457.189 300.068 457.586L300.068 457.586L300.068 457.586C301.68 460.176 303.932 463.795 297.577 459.976C291.473 456.307 291.277 450.567 291.405 444.498C291.905 443.998 296.337 444.175 297.501 446.191ZM282.903 442.679C282.488 440.939 283.232 438.922 283.656 438.131C283.891 437.633 282.63 437.687 281.864 438.33C281.098 438.972 281.358 440.06 282.903 442.679ZM360.462 412.004C361.239 412.27 363.641 414.504 364.498 416.035C363.788 413.086 362.367 410.013 361.469 410.092C360.571 410.17 359.993 411.813 360.462 412.004Z" fill="white" fill-opacity="0.3"/>
<path d="M98.0001 402C107.54 401.52 121.719 398.062 128 395.5C128.059 397.072 126.5 403.254 126.5 411.501C126.5 417.501 126.592 421.5 128 429.5C120.092 436.479 116.044 438.413 106 442C93.5 446.464 94 447.5 89.9998 450.5C90.9592 446 90.5225 434.315 90.9592 425.97C91.4174 417.217 94.0001 408 98.0001 402Z" fill="white" fill-opacity="0.3"/>
<path d="M136.221 389.163C135.021 386.763 133.554 388.663 133.221 389.663C133.054 389.996 132.821 390.863 133.221 391.663C133.721 392.663 137.721 392.163 136.221 389.163Z" fill="white" fill-opacity="0.3"/>
<path fill-rule="evenodd" clip-rule="evenodd" d="M241.499 97.0005C189.999 60.5 158.499 100.5 159.999 130.5C147.162 130.5 145.538 125.624 143.093 118.28L142.999 118C140.736 111.208 142.499 89.5 153.999 74.5C163.883 61.608 174.875 56.1028 179.991 53.5404C180.828 53.1214 181.508 52.7811 181.999 52.5C182.387 55.2153 181.571 56.4259 178.151 61.5015L178.151 61.5015C177.163 62.9684 175.957 64.758 174.499 67C168.468 76.2788 170.186 82.5442 172.062 89.3912L172.062 89.3913C172.208 89.9234 172.355 90.4591 172.499 91C172.561 90.9694 172.623 90.9389 172.688 90.9077C173.677 90.4277 174.999 89.7861 174.999 86.5C174.999 83.296 175.837 82.187 178.281 78.9539L178.281 78.9538C178.506 78.6551 178.746 78.3383 178.999 78C181.999 74 185.999 68 186.999 66C188.929 67.0526 190.797 67.6744 192.669 68.2972C196.131 69.4494 199.605 70.6053 203.499 74.5C209.023 80.0237 211.433 81.1887 212.45 81.68C212.722 81.8113 212.894 81.8946 212.999 82C213.499 82.5 214.499 79.5 210.999 71.5C207.514 63.5345 197.585 60.0302 189.109 57.0388L188.999 57C182.199 54.6 183.499 52.3333 184.999 51.5C252.499 51.5 251.999 88 241.499 97.0005ZM217.001 68.5009C217.998 70.2292 221.073 78.4259 221.001 82.5C222.165 84.5162 226.501 85 227.001 84.5C228.686 80.0705 228.057 74 223 69.0004C210.974 57.1098 215.618 66.1062 217.001 68.5009ZM167 97.9997C165 94.4997 161.5 87 161.5 85C161.5 82.2287 159.999 79.4997 159.5 86.4997C159 93.5 160 97.9997 163.5 101C165 101.5 167 100.333 167 97.9997Z" fill="white" fill-opacity="0.3"/>
<path d="M299.074 69.1038C297.789 70.636 295.649 78.6306 294.931 82.5973C293.431 84.3848 291.149 83.9932 290.322 82.646C289.569 78.098 291.696 74.0082 296.578 68.9668C301.46 63.9256 300.856 66.9808 299.074 69.1038Z" fill="white" fill-opacity="0.3"/>
<path fill-rule="evenodd" clip-rule="evenodd" d="M277.501 95.4999C303.001 77.9999 351.501 73.9999 362 133C385.001 125.5 390 86.5002 335.001 53.9997C333.316 53.6739 332.001 57.4995 340 66.9993C345.806 73.8944 347.501 76.3286 347.501 82.9995C347.501 88.4995 345.501 91.9995 344.501 91.9995C343.794 91.9995 341.001 89.9995 339.501 84.4995C338.162 79.5884 336.372 76.5509 334.661 73.647C333.52 71.7104 332.414 69.8333 331.5 67.4995C331.101 67.6726 330.681 67.868 330.229 68.0787L330.228 68.079L330.228 68.0792C328.357 68.9506 325.921 70.085 322.001 70.9995C318.501 71.8159 314.751 74.3187 312.501 76.9999C310.251 79.681 307.001 82.4995 304 81.9993C304.414 80.9652 304.746 79.6736 305.114 78.2444L305.114 78.2444C306.523 72.764 308.453 65.2615 317.501 62.4995C327.051 59.5842 329.633 57.0024 331.5 53.9999C330.501 51.4995 317.952 51.9014 299.501 56C281.05 60.0987 273.884 72.9998 272.5 76.5001C269.594 83.852 270.001 88.4999 277.501 95.4999ZM350.5 95.9996C353.174 92.9251 354.653 90.343 354.999 88.3778C355.48 85.6548 358.532 73.6221 360 87.5004C360.75 94.5825 359 97.4338 355 102C354.296 102.062 350.095 98.2924 350.5 95.9996ZM364.5 111C363.7 112.6 361.834 113.667 361 114C360.5 114.23 361.5 115 362.5 115C363.5 115 364 114 364.5 111ZM282.232 89.1749C281.748 88.5107 280.825 86.7457 281 84.9996C279.891 87.823 279.781 88.9143 280.561 89.3649C281.342 89.8156 282.507 89.5997 282.232 89.1749Z" fill="white" fill-opacity="0.3"/>
<path fill-rule="evenodd" clip-rule="evenodd" d="M95.4766 274.5C62.9766 319 96.9766 364.501 129.977 368.5C129.977 380.5 121.247 383.411 116.477 385C112.906 386.19 96.9762 388.999 82.9772 377C68.2341 364.363 62.2038 350.872 63.477 348.5C65.6727 348.186 67.2399 349.011 70.3629 350.654C72.2179 351.63 74.6218 352.895 78.0324 354.382C85.0388 357.437 88.4342 355.574 91.809 353.722C92.9836 353.077 94.1557 352.434 95.4766 352C93.9308 349.379 93.8892 349.366 89.4766 348.5C85.9194 347.801 83.2697 346.622 80.4739 345.377L80.4737 345.377L80.4736 345.377L80.4734 345.377C79.8202 345.087 79.1591 344.792 78.4766 344.5C76.7355 343.754 76.0051 343.2 75.3074 342.671L75.3074 342.671C74.8033 342.289 74.3162 341.919 73.4772 341.5C74.1194 337.045 75.151 333.481 78.0324 325.5C78.4882 324.237 79.0064 323.054 79.4843 321.963C80.5208 319.596 81.3676 317.663 80.9766 316.294C80.2368 313.705 78.9559 312.964 74.7427 316.5C69.6325 320.788 67.4767 328 67.4767 331C67.4767 343.419 62.0036 347 61.1703 345.5C41.477 288.5 78.0539 259.351 95.4766 274.5ZM71.4772 309C71.8285 308.797 72.191 308.549 72.5798 308.282C74.104 307.238 76.033 305.917 79.279 305.974C81.2952 304.81 81.4773 299.5 80.9773 299C74.9086 298.872 72.431 299.902 69.281 306.289C65.9215 313.101 67.6947 311.762 69.7726 310.194C70.352 309.757 70.9551 309.301 71.4772 309ZM99.1409 360.608C97.4129 361.748 95.7858 362.822 91.9762 363C89.208 363.129 86.0265 365.222 90.477 365.5C98.4762 366.001 101.415 365.426 104.977 362.5C105.73 361.109 103.707 359.507 101.976 359C100.836 359.489 99.9764 360.056 99.1409 360.608ZM117.003 371.5C117.403 370.3 115.836 371 115.003 371.5C114.336 372.667 112.803 375.3 112.003 376.5C111.003 378 116.503 373 117.003 371.5ZM78.2684 283.573C80.4898 283.317 84.3325 284.128 83.4369 285.454C82.8669 286.298 82.7348 286.652 82.5205 286.712C82.301 286.773 81.9953 286.526 81.0443 286.18C79.5408 285.632 78.5673 284.214 78.2684 283.573Z" fill="white" fill-opacity="0.3"/>
<path fill-rule="evenodd" clip-rule="evenodd" d="M135.498 152C87.4972 155.5 69.9972 211.5 97.9972 243.5C90.4975 250.623 87.4232 250.009 82.4971 249C78.8096 248.245 66.4938 243.335 60.3697 225.944C53.6989 207 57.8375 176.025 60.3697 178C62.9554 180.017 63.8732 183.934 64.9083 188.351C65.9259 192.693 67.0569 197.519 69.9972 201.5C76.1178 209.789 79.4977 209.5 82.4971 208.5C82.4784 206.511 82.061 205.85 81.212 204.505C80.7628 203.794 80.1928 202.892 79.4972 201.5C77.9705 198.446 77.5167 196.389 77.081 194.413C76.8033 193.155 76.533 191.929 75.9972 190.5C75.3271 188.713 74.8481 186.8 74.4132 185.063L74.4132 185.063L74.4132 185.063C73.8746 182.912 73.4038 181.032 72.7221 179.999C73.6233 179.724 74.5416 179.487 75.5555 179.225C78.2262 178.535 81.5609 177.674 86.9972 175.499C90.9457 173.92 94.9925 171.45 95.4977 169.432C96.1516 166.82 90.4136 166.045 84.9972 167C78.4277 168.159 76.1185 169.379 73.9972 171.5C70.4972 175 60.3417 175.216 60.37 173.5C73.9966 131.5 129.498 115 135.498 152ZM87.6479 158.342C89.6435 158.342 99.504 159.401 102.996 161.501C105.324 161.501 109.679 156.683 109.496 156.001C104.305 152.855 93.5698 150.044 87.6482 154C80.6895 158.649 83.6695 158.51 86.3961 158.383C86.834 158.362 87.2653 158.342 87.6479 158.342ZM82.0307 216.052C78.2497 215.601 75.5226 215.096 70.4959 212.499C69.8475 212.164 69.1964 211.704 68.6066 211.287C66.9565 210.12 65.786 209.292 66.4966 212.499C69.0446 223.999 77.4836 222.752 82.0316 221.999C83.3788 221.172 83.276 217.356 82.0307 216.052ZM85.1268 233.992C86.0657 233.465 83.9318 232.857 82.7475 232.618C81.5043 232.94 78.6644 233.646 77.2497 233.898C75.4813 234.214 83.9533 234.651 85.1268 233.992ZM117.447 144.406C119.184 145.461 121.865 148.094 120.849 148.459C120.255 148.673 120.045 148.822 119.878 148.784C119.677 148.738 119.537 148.42 118.862 147.615C117.872 146.436 117.507 144.985 117.447 144.406Z" fill="white" fill-opacity="0.3"/>
<path d="M382.001 136.501C381.501 134.5 378.5 134.5 378.5 137C378.27 137.119 378.419 139 380 139C381.499 139 382.384 138.035 382.001 136.501Z" fill="white" fill-opacity="0.3"/>
<path d="M414.498 120C405.981 118.919 394.033 124.901 387.998 128C387.803 126.439 389.255 116.195 389.123 109.63C388.962 101.582 387.657 97.0057 386.498 93.1422C388.934 88.7439 401.324 82.3706 406.498 80.5C411.672 78.6294 419.975 75.6868 424.285 73.211C423.428 76.2736 423.206 83.149 423.498 91.5C423.805 100.26 419.947 112.218 414.498 120Z" fill="white" fill-opacity="0.3"/>
<path d="M437 261.5C436 259 433.501 259.66 433.5 261.5C433.5 261.999 433.5 262 433.996 262.992L434 263C434.447 263.895 437.651 263.127 437 261.5Z" fill="white" fill-opacity="0.3"/>
<path d="M467 281C463 273.403 450 264.418 444 261.252C445.167 260.197 449.772 258.058 454.5 253.5C459 249.162 461 246.665 463.5 243.5C472 241.5 488 247.834 492.5 251C497 254.165 501 259.142 505.5 261.253C502.5 262.308 499.173 267.471 492.5 272.5C485.5 277.776 476.5 281 467 281Z" fill="white" fill-opacity="0.3"/>
<path d="M50.502 238.5C56.3671 246.04 68.8004 255.824 74.5017 259.5C73.2475 260.45 70.2569 262.77 63.502 267.5C58.002 271.351 55.502 274 51.502 280C41.249 277.525 37.2016 275.67 28.5018 269.5C17.6751 261.821 17.5017 259.5 13.5017 256.5C18.5017 253.5 21.4157 250.929 28.5018 246.5C35.9349 241.855 43.2927 238.665 50.502 238.5Z" fill="white" fill-opacity="0.3"/>
<path d="M84.2227 259.163C83.0227 256.763 81.556 258.663 81.2227 259.663C81.056 259.996 80.8229 260.863 81.2229 261.663C81.7229 262.663 85.7227 262.163 84.2227 259.163Z" fill="white" fill-opacity="0.3"/>
<path d="M134 88.9995C131.994 98.3391 134.292 117.268 135.141 123.998C133.607 123.648 128.965 121.134 121 119C114.514 117.262 112.166 117.207 104.999 118C100.305 108.555 98.2291 103.165 98.2291 92.4995C98.2291 79.4995 98.5019 77.4607 98.2291 72.468C103.741 74.3699 107.584 74.9493 115.531 77.5309C123.868 80.239 129.239 83.5829 134 88.9995Z" fill="white" fill-opacity="0.3"/>
<path d="M143.221 134.163C142.021 131.763 140.554 133.663 140.221 134.663C140.054 134.996 139.821 135.863 140.221 136.663C140.721 137.663 144.721 137.163 143.221 134.163Z" fill="white" fill-opacity="0.3"/>
<path d="M279.001 53C271.801 57 264.001 70 261.001 76C260.001 74.8333 257.172 69.803 253.501 64.5C249.001 58 245.5 55 242.5 52.5C242 47.5 249.501 34.5 252.501 30C255.501 25.5 259.001 19 261.001 14.5C262.001 17.5 265.734 24.8269 270.501 31.5C275.501 38.5 279.001 43.5 279.001 53Z" fill="white" fill-opacity="0.3"/>
<path d="M262.221 85.1629C261.021 82.7629 259.554 84.6631 259.221 85.6631C259.054 85.9964 258.821 86.8627 259.221 87.6627C259.721 88.6627 263.721 88.1629 262.221 85.1629Z" fill="white" fill-opacity="0.3"/>
<path d="M244 474C251 467.5 258.335 457 261.5 451C262.556 452.167 264.157 456.326 269 463C272.671 468.059 275.335 469.5 278.5 472C276.928 482.43 276.407 484.287 272 494C269.727 499.01 263.611 507 261.5 511.5C260.445 508.5 255.426 501.886 250.397 495.213C245.121 488.213 244.234 480.723 244 474Z" fill="white" fill-opacity="0.3"/>
<path d="M262.221 440.163C261.021 437.763 259.554 439.663 259.221 440.663C259.054 440.996 258.821 441.863 259.221 442.663C259.721 443.663 263.721 443.163 262.221 440.163Z" fill="white" fill-opacity="0.3"/>
<path fill-rule="evenodd" clip-rule="evenodd" d="M395.001 377.371C454.001 366.872 452.61 312.675 431.611 284.675C438.564 277.225 446.155 280.227 453.461 283.116L453.611 283.175C457.111 284.559 469.947 296.083 472.001 314.872C474.111 334.175 471.111 353.873 468.611 354.872C466.647 353.651 465.933 350.542 464.858 345.866C464.289 343.392 463.62 340.479 462.611 337.175C459.741 327.775 454.131 326.059 449.448 324.626C448.448 324.32 447.49 324.027 446.61 323.675C446.296 325.559 447.337 326.8 448.542 328.238C449.256 329.089 450.028 330.01 450.61 331.175C452.61 335.175 454.294 338.676 455.11 342.176C455.627 344.393 455.904 346.238 456.136 347.785C456.413 349.635 456.626 351.058 457.11 352.175C453.927 353.422 451.296 353.834 448.232 354.314H448.232L448.231 354.314C445.68 354.714 442.829 355.161 439.11 356.175C433.61 357.675 431.61 361.468 431.61 362.175C431.61 363.175 440.11 365.175 445.61 365.175C451.474 365.175 454.37 362.857 456.343 361.278L456.343 361.277L456.344 361.276C456.615 361.059 456.869 360.856 457.11 360.675C467.046 353.224 467.937 356.49 467.611 358.175C438.11 413.675 398.61 400.175 395.001 377.371ZM460.111 321.675C456.279 318.754 452.651 317.468 449.322 316.289C448.743 316.084 448.172 315.882 447.611 315.675C446.112 313.887 447.099 310.29 448.57 309.709C453.179 309.757 457.118 312.368 460.955 318.245C466.471 326.695 463.193 324.105 460.866 322.266L460.866 322.266L460.865 322.265L460.865 322.265C460.596 322.052 460.339 321.85 460.111 321.675ZM436.329 371.032L436.329 371.032L436.33 371.032C436.666 371.082 436.97 371.127 437.234 371.174C437.555 371.231 437.995 371.291 438.499 371.36L438.5 371.36C442.264 371.874 449.632 372.882 438.611 376.674C431.877 378.992 426.568 376.372 422.001 372.372C421.94 371.668 425.709 367.467 428.002 367.871C430.663 370.186 434.162 370.708 436.329 371.032ZM416 383.869C414.4 383.069 413.333 381.203 413 380.369C412.77 379.869 412 380.869 412 381.869C412 382.869 413 383.369 416 383.869ZM445.927 298.673C446.631 298.249 449.886 297.846 451.61 298.173C448.894 296.821 445.626 295.935 445.109 296.673C444.592 297.411 445.48 298.91 445.927 298.673Z" fill="white" fill-opacity="0.3"/>
<path fill-rule="evenodd" clip-rule="evenodd" d="M427.296 243.569C456.083 204.569 432.601 155.085 390.583 148.57C391.749 138.293 399.161 133.964 403.583 131.57C406.893 129.778 421.213 128.184 437.083 137.57C454.37 147.794 464.793 173.455 461.583 173.57C458.311 173.686 455.671 171.687 452.617 169.375C449.606 167.094 446.192 164.509 441.373 163.347C431.357 160.932 428.953 163.326 427.298 166.02C427.922 166.749 428.317 167.442 428.695 168.105L428.695 168.105C429.516 169.545 430.257 170.845 433.082 172.069C438.21 174.293 440.316 175.008 443.582 176.069C447.644 177.39 450.94 178.432 453.083 179.069C452.869 179.925 452.669 180.89 452.45 181.947C451.646 185.833 450.582 190.973 447.582 196.569C447.383 196.939 447.171 197.33 446.951 197.736C444.943 201.439 442.261 206.383 443.082 208.069C444.26 210.49 448.546 206.282 452.082 202.069C456.37 196.959 457.322 194.058 457.583 191.069C458.015 186.138 462.081 172.569 464.582 174.569C475.58 216.069 453.107 263.57 427.296 243.569ZM430.624 157.371L430.624 157.371C427.407 157.979 425.133 158.409 422.8 159.935C421.008 159.737 415.083 156.569 415.583 155.069C418.583 151.569 430.239 146.897 439.583 154.069C442.118 156.015 439.839 156.143 437.35 156.284C436.366 156.34 435.348 156.397 434.582 156.569C433.104 156.902 431.801 157.148 430.624 157.371ZM443.619 215.225C446.771 214.593 453.348 210.605 454.583 209.569C454.904 209.3 455.263 208.945 455.619 208.594C457.164 207.066 458.652 205.597 456.659 211.473C454.861 216.774 446.583 221.069 441.583 221.069C441.147 220.78 442.178 216.434 443.619 215.225ZM436.583 231.569C435.579 233.713 444.083 232.569 447.583 229.569C447.187 229.046 445.545 228.989 443.756 228.927L443.756 228.927C442.594 228.887 441.37 228.844 440.385 228.671C437.911 228.235 437.781 228.573 437.195 230.101C437.041 230.504 436.854 230.991 436.583 231.569ZM406.083 150.569C405.023 151.148 402.203 150.309 402.583 149.302C403.058 148.043 410.623 142.931 409.471 144.309C408.976 144.901 408.213 146.451 407.505 147.89C406.941 149.033 406.413 150.106 406.083 150.569Z" fill="white" fill-opacity="0.3"/>
<path d="M395.889 441.226C395.889 432.226 394.948 413.514 393.516 406.883C395.075 407.098 399.39 409.225 407.39 411.225C413.454 412.741 419.358 413.845 423.39 413.725C428.89 422.726 430.422 429.745 430.889 435.227C431.357 440.708 431.27 454.923 432.546 459.726C429.81 458.106 422.031 454.605 413.889 452.726C405.348 450.754 400.389 446.226 395.889 441.226Z" fill="white" fill-opacity="0.3"/>
<path d="M388.393 401.225C387.193 398.825 385.726 400.726 385.393 401.726C385.226 402.059 384.993 402.925 385.393 403.725C385.893 404.725 389.893 404.225 388.393 401.225Z" fill="white" fill-opacity="0.3"/>
</svg>
