<svg width="528" height="528" viewBox="0 0 528 528" fill="none" xmlns="http://www.w3.org/2000/svg">
<path d="M285.5 234.5C284.7 236.5 280.167 241 278 243C279.833 240.334 283.6 234.7 284 233.5C284.5 232 285.5 228.5 288 226C290.5 223.5 290 226.5 289 228C288 229.5 286.5 232 285.5 234.5Z" fill="#D55994"/>
<path d="M261.5 218.5C260.7 219.7 261.167 223.334 261.5 225L263.5 233C263.333 231.167 263 226.8 263 224C263 220.5 262.5 217 261.5 218.5Z" fill="#D55994"/>
<path d="M257.501 249.5C258.301 251.5 258.501 255 258.501 256.5C258.001 258.5 255.001 256 254.501 255.5C254.001 255 252.001 251 245.001 249C238.001 247 233.501 241.5 231.001 240C228.501 238.5 226.001 234.5 225.001 236.5C224.001 238.5 231.001 242.5 233.501 244C236.002 245.5 240.501 248 244.501 250C248.501 252 252.001 255.5 253.001 257C254.001 258.5 253.501 259.5 252.001 260C250.501 260.5 250.001 259 246.001 258.5C242.001 258 237.501 252 233.501 250.5C229.502 249 226.001 249.5 221.001 249.5C216.001 249.5 217.001 250 219.001 251.5C221.001 253 226.501 251.5 231.001 251.5C235.501 251.5 238.501 255 240.501 256.5C242.501 258 246.001 261 249.001 261.5C252.001 262 252.501 264 252.501 265.5C252.501 267 245.001 265.5 242.501 267C240.002 268.5 237.501 271 233.501 274C229.502 277 227.001 276.5 224.501 277.5C222.001 278.5 220.501 277.5 218.001 279.5C215.501 281.5 220.501 280.5 222.501 279.5C224.501 278.5 230.501 277.5 233.501 275.5C236.501 273.5 241.001 270.5 243.501 268.5C246.001 266.5 250.001 268 252.501 268C255.001 268 254.501 268.5 252.502 270.499L252.501 270.5C250.502 272.5 241.001 277.5 242.501 277.5C244.001 277.5 245.001 277 247.501 274.5C250.001 272 254.501 271 254.501 272.5C254.501 274 251.001 277.5 250.001 279.5C249.001 281.5 247.501 283 246.001 286C244.501 289 242.001 292 237.501 296C233.001 300 234.501 300.5 236.501 300.5C238.501 300.5 241.501 294.5 243.001 292.5C244.501 290.5 249.501 283.5 251.001 279.5C252.501 275.5 256.501 274 258.501 272.5C260.501 271 259.001 277.5 258.501 279.5C258.001 281.5 256.501 285 254.501 287.5C252.501 290 248.501 295.5 248.501 297.5C248.501 299.5 246.501 309 248.501 307.5C250.501 306 250.501 297.5 251.001 294.5C251.501 291.5 254.501 289.5 256.501 287.5C258.501 285.5 259.501 282 260.501 277C261.501 272 263.001 274.5 263.001 276.5C263.001 278.5 264.001 283 267.001 288C270.001 293 273.001 295 273.501 299C274.001 303 275.001 306 275.501 307.5C276.001 309 276.501 304.5 276.501 302.5C276.501 300.5 275.501 295.5 273.501 292.5C271.501 289.5 267.001 286 266.001 283.5C265.001 281 265.001 276.5 265.001 274.5C265.001 272.5 265.501 273.5 267.001 273.5C268.501 273.5 273.001 279.5 274.501 283C276.001 286.5 276.501 287.5 279.001 291C281.501 294.5 282.001 297 284.001 299C286.001 301 286.501 301.5 288.001 301.5C289.501 301.5 287.501 297.5 283.001 293.5C278.501 289.5 277.501 287.5 276.501 286C275.501 284.5 276.501 284.5 275.001 281.5C273.501 278.5 271.501 274 270.501 273.5C269.501 273 268.501 271 270.501 271C272.501 271 272.501 272 276.501 274C280.501 276 283.501 277.5 282.001 276.5C280.501 275.5 280.501 274.5 277.501 272.5C274.501 270.5 273.501 269.5 271.501 268.5C269.501 267.5 270.501 267 273.501 267C276.501 267 280.501 268 284.501 269.5C288.501 271 293.001 276.5 295.501 277.5C298.001 278.5 305.501 279 305.501 278.5C305.501 278 304.501 277.5 301.001 277C297.501 276.5 296.501 275.5 294.001 274.5C291.501 273.5 287.501 269.5 285.001 268C282.501 266.5 279.001 265.5 275.501 265.5C272.001 265.5 271.501 264 271.501 263C271.501 262 276.501 261.5 279.001 261C281.501 260.5 288.501 256.5 288.501 254.5C288.501 252.5 293.001 252 294.001 251.5C295.001 251 299.001 252 301.001 252C303.001 252 306.001 250.5 305.501 250C305.001 249.5 301.501 250 299.501 250.5C297.501 251 295.001 249.5 292.501 251C290.001 252.5 288.001 254 287.501 255C287.001 256 285.501 256.5 283.001 257.5C280.501 258.5 279.001 258.5 277.501 259C276.001 259.5 272.501 260.5 270.501 259.5C269.501 258 272.501 256 275.501 253.5C278.501 251 280.001 250.5 284.001 248C288.001 245.5 289.501 244.5 293.001 242.5C296.501 240.5 299.001 238.5 299.001 237C299.001 235.5 295.001 238.5 293.001 239.5C291.001 240.5 287.501 244 284.001 246.5C280.501 249 280.001 248.5 276.501 250.5C273.001 252.5 271.001 255 269.001 256.5C267.001 258 267.001 256.5 267.001 255C267.001 253.5 268.501 252 268.501 250.5C268.501 249 270.001 245 269.001 244.5C268.001 245.5 268.001 248.5 266.501 250.5C265.001 252.5 265.001 253.5 264.001 254.5C263.001 255.5 264.001 252.5 264.001 251C264.001 249.5 264.001 240.5 263.001 239.5V245C263.001 247.5 262.501 248.5 262.001 251C261.501 253.5 261.501 254 260.501 254.5C259.501 255 259.501 251 258.501 249.5C257.701 248.3 256.834 245.333 256.501 244C256.501 245 256.701 247.5 257.501 249.5Z" fill="#D55994"/>
<path d="M249.5 220.5C249.5 221.7 250.167 225.667 250.5 227.5L251 229.5C251.5 232.5 257.5 237.5 258 238C258.5 238.5 256.5 235 254.5 233C252.5 231 252.5 227.5 252 226.5C251.5 225.5 251.5 220.5 250.5 219C249.5 217.5 249.5 219 249.5 220.5Z" fill="#D55994"/>
<path d="M296 287C294 284.6 286.167 281 282.5 279.5C285 281.5 290.3 285.7 291.5 286.5C293 287.5 297 291 298.5 291.5C300 292 298.5 290 296 287Z" fill="#D55994"/>
<path d="M241.863 281.086C241.909 281.057 241.955 281.028 242 281C241.955 281.029 241.91 281.057 241.863 281.086C238.068 283.459 230.456 288.588 229.298 290.802C227.832 293.602 224.412 290.802 226.855 289.401C229.298 288.001 229.298 286.601 233.695 284.734C237.957 282.924 240.383 281.991 241.863 281.086Z" fill="#D55994"/>
<path d="M238.501 226.5C237.301 224.9 236.334 225.833 236.001 226.5C235.501 227.499 238.501 231 240.001 233.5C241.501 236 247.501 242 248.501 243C249.501 244 245.001 237 244.001 236C243.001 235 240.001 228.5 238.501 226.5Z" fill="#D55994"/>
<path d="M303.5 263.5C301.5 264.3 295.667 264.167 293 264C293 264.5 301 265.5 303.5 265.5C306 265.5 311 264.5 310.5 263.5C310 262.5 306 262.5 303.5 263.5Z" fill="#D55994"/>
<path d="M263 305C263.8 301.8 262 292.667 261 288.5C261 290.667 260.8 295.9 260 299.5C259 304 260.5 307.5 261 308C261.5 308.5 262 309 263 305Z" fill="#D55994"/>
<path d="M275.5 228C274.7 231.6 271.5 235.5 270 237L271.5 234C272 233 274.5 227.5 274.5 226C274.5 224.5 273.5 222 275 219.5C276.5 217 276.5 220 276 221C275.5 222 276.5 223.5 275.5 228Z" fill="#D55994"/>
<path d="M225.44 261.522C228.236 261.375 233.297 261.777 235.478 261.997C232.482 262.154 230.537 263.257 227.541 263.414C224.546 263.571 222.101 264.701 217.529 263.438C212.957 262.176 221.944 261.705 225.44 261.522Z" fill="#D55994"/>
<path d="M284.5 234.5C283.7 236.5 279.167 241 277 243C278.833 240.334 282.6 234.7 283 233.5C283.5 232 284.5 228.5 287 226C289.5 223.5 289 226.5 288 228C287 229.5 285.5 232 284.5 234.5Z" fill="white"/>
<path d="M262.5 218.5C261.7 219.7 262.167 223.334 262.5 225L264.5 233C264.333 231.167 264 226.8 264 224C264 220.5 263.5 217 262.5 218.5Z" fill="white"/>
<path d="M258.497 248.5C259.297 250.5 259.497 254 259.497 255.5C258.997 257.5 255.997 255 255.497 254.5C254.997 254 252.997 250 245.997 248C238.997 246 234.497 240.5 231.997 239C229.497 237.5 226.997 233.5 225.997 235.5C224.997 237.5 231.997 241.5 234.497 243C236.998 244.5 241.497 247 245.497 249C249.497 251 252.997 254.5 253.997 256C254.997 257.5 254.497 258.5 252.997 259C251.497 259.5 250.997 258 246.997 257.5C242.997 257 238.497 251 234.497 249.5C230.498 248 226.997 248.5 221.997 248.5C216.997 248.5 217.997 249 219.997 250.5C221.997 252 227.497 250.5 231.997 250.5C236.497 250.5 239.497 254 241.497 255.5C243.497 257 246.997 260 249.997 260.5C252.997 261 253.497 263 253.497 264.5C253.497 266 245.997 264.5 243.497 266C240.998 267.5 238.497 270 234.497 273C230.498 276 227.997 275.5 225.497 276.5C222.997 277.5 221.497 276.5 218.997 278.5C216.497 280.5 221.497 279.5 223.497 278.5C225.497 277.5 231.497 276.5 234.497 274.5C237.497 272.5 241.997 269.5 244.497 267.5C246.997 265.5 250.997 267 253.497 267C255.997 267 255.497 267.5 253.498 269.499L253.497 269.5C251.498 271.5 241.997 276.5 243.497 276.5C244.997 276.5 245.997 276 248.497 273.5C250.997 271 255.497 270 255.497 271.5C255.497 273 251.997 276.5 250.997 278.5C249.998 280.5 248.497 282 246.997 285C245.497 288 242.997 291 238.497 295C233.997 299 235.497 299.5 237.497 299.5C239.497 299.5 242.497 293.5 243.997 291.5C245.497 289.5 250.497 282.5 251.997 278.5C253.497 274.5 257.497 273 259.497 271.5C261.497 270 259.997 276.5 259.497 278.5C258.997 280.5 257.497 284 255.497 286.5C253.497 289 249.497 294.5 249.497 296.5C249.497 298.5 247.497 308 249.497 306.5C251.497 305 251.497 296.5 251.997 293.5C252.497 290.5 255.497 288.5 257.497 286.5C259.497 284.5 260.497 281 261.497 276C262.497 271 263.997 273.5 263.997 275.5C263.997 277.5 264.997 282 267.997 287C270.997 292 273.997 294 274.497 298C274.997 302 275.997 305 276.497 306.5C276.997 308 277.497 303.5 277.497 301.5C277.497 299.5 276.497 294.5 274.497 291.5C272.497 288.5 267.997 285 266.997 282.5C265.997 280 265.997 275.5 265.997 273.5C265.997 271.5 266.497 272.5 267.997 272.5C269.497 272.5 273.997 278.5 275.497 282C276.997 285.5 277.497 286.5 279.997 290C282.497 293.5 282.997 296 284.997 298C286.997 300 287.497 300.5 288.997 300.5C290.497 300.5 288.497 296.5 283.997 292.5C279.497 288.5 278.497 286.5 277.497 285C276.497 283.5 277.497 283.5 275.997 280.5C274.497 277.5 272.497 273 271.497 272.5C270.497 272 269.497 270 271.497 270C273.497 270 273.497 271 277.497 273C281.497 275 284.497 276.5 282.997 275.5C281.497 274.5 281.497 273.5 278.497 271.5C275.497 269.5 274.497 268.5 272.497 267.5C270.497 266.5 271.497 266 274.497 266C277.497 266 281.497 267 285.497 268.5C289.497 270 293.997 275.5 296.497 276.5C298.997 277.5 306.497 278 306.497 277.5C306.497 277 305.497 276.5 301.997 276C298.497 275.5 297.497 274.5 294.997 273.5C292.497 272.5 288.497 268.5 285.997 267C283.497 265.5 279.997 264.5 276.497 264.5C272.997 264.5 272.497 263 272.497 262C272.497 261 277.497 260.5 279.997 260C282.497 259.5 289.497 255.5 289.497 253.5C289.497 251.5 293.997 251 294.997 250.5C295.997 250 299.997 251 301.997 251C303.997 251 306.997 249.5 306.497 249C305.997 248.5 302.497 249 300.497 249.5C298.497 250 295.997 248.5 293.497 250C290.997 251.5 288.997 253 288.497 254C287.997 255 286.497 255.5 283.997 256.5C281.497 257.5 279.997 257.5 278.497 258C276.997 258.5 273.497 259.5 271.497 258.5C270.497 257 273.497 255 276.497 252.5C279.497 250 280.997 249.5 284.997 247C288.997 244.5 290.497 243.5 293.997 241.5C297.497 239.5 299.997 237.5 299.997 236C299.997 234.5 295.997 237.5 293.997 238.5C291.997 239.5 288.497 243 284.997 245.5C281.497 248 280.997 247.5 277.497 249.5C273.997 251.5 271.997 254 269.997 255.5C267.997 257 267.997 255.5 267.997 254C267.997 252.5 269.497 251 269.497 249.5C269.497 248 270.997 244 269.997 243.5C268.997 244.5 268.997 247.5 267.497 249.5C265.997 251.5 265.997 252.5 264.997 253.5C263.997 254.5 264.997 251.5 264.997 250C264.997 248.5 264.997 239.5 263.997 238.5V244C263.997 246.5 263.497 247.5 262.997 250C262.497 252.5 262.497 253 261.497 253.5C260.497 254 260.497 250 259.497 248.5C258.697 247.3 257.831 244.333 257.497 243C257.497 244 257.697 246.5 258.497 248.5Z" fill="white"/>
<path d="M250.5 220.5C250.5 221.7 251.167 225.667 251.5 227.5L252 229.5C252.5 232.5 258.5 237.5 259 238C259.5 238.5 257.5 235 255.5 233C253.5 231 253.5 227.5 253 226.5C252.5 225.5 252.5 220.5 251.5 219C250.5 217.5 250.5 219 250.5 220.5Z" fill="white"/>
<path d="M297 287C295 284.6 287.167 281 283.5 279.5C286 281.5 291.3 285.7 292.5 286.5C294 287.5 298 291 299.5 291.5C301 292 299.5 290 297 287Z" fill="white"/>
<path d="M242.863 281.086C242.909 281.057 242.955 281.028 243 281C242.955 281.029 242.91 281.057 242.863 281.086C239.068 283.459 231.456 288.588 230.298 290.802C228.832 293.602 225.412 290.802 227.855 289.401C230.298 288.001 230.298 286.601 234.695 284.734C238.957 282.924 241.383 281.991 242.863 281.086Z" fill="white"/>
<path d="M239.501 226.5C238.301 224.9 237.334 225.833 237.001 226.5C236.501 227.499 239.501 231 241.001 233.5C242.501 236 248.501 242 249.501 243C250.501 244 246.001 237 245.001 236C244.001 235 241.001 228.5 239.501 226.5Z" fill="white"/>
<path d="M303.5 262.5C301.5 263.3 295.667 263.167 293 263C293 263.5 301 264.5 303.5 264.5C306 264.5 311 263.5 310.5 262.5C310 261.5 306 261.5 303.5 262.5Z" fill="white"/>
<path d="M264 305C264.8 301.8 263 292.667 262 288.5C262 290.667 261.8 295.9 261 299.5C260 304 261.5 307.5 262 308C262.5 308.5 263 309 264 305Z" fill="white"/>
<path d="M276.5 228C275.7 231.6 272.5 235.5 271 237L272.5 234C273 233 275.5 227.5 275.5 226C275.5 224.5 274.5 222 276 219.5C277.5 217 277.5 220 277 221C276.5 222 277.5 223.5 276.5 228Z" fill="white"/>
<path d="M225.499 260.5C228.299 260.5 233.332 261.167 235.499 261.5C232.499 261.5 230.499 262.5 227.499 262.5C224.499 262.5 221.999 263.5 217.499 262C212.999 260.5 221.999 260.5 225.499 260.5Z" fill="white"/>
<path d="M302.5 192C293.7 196.8 286.167 210 283.5 216C283.5 216.5 286 220 291 221.5C301 210 303 197.5 302.5 192Z" fill="#D55994"/>
<path d="M261.453 183.035C256.232 191.592 256.307 207.47 256.998 214C257.248 214.433 261.418 215.701 266.498 214.5C269.408 199.541 264.636 187.548 261.453 183.035Z" fill="#D55994"/>
<path d="M326.5 212.184C311.3 214.584 302.167 223.333 299.5 227C300.5 231.5 303 234.184 305.5 235.684C314 230.684 324 218.184 326.5 212.184Z" fill="#D55994"/>
<path d="M344.5 247C329.71 242.751 314.967 246.804 311.001 249C310.5 251 310 255.5 311.501 258.5C327.001 259 339.699 251.381 344.5 247Z" fill="#D55994"/>
<path d="M346.497 277.5C335.813 266.425 317.53 263.582 312.997 263.5C311.564 264.982 310.497 272.5 310.997 273C325.995 278.998 340.148 278.893 346.497 277.5Z" fill="#D55994"/>
<path d="M326.999 314C321.996 299.448 309.573 291.989 305.499 290C303.573 290.737 298.999 295.865 298.999 297C310.057 308.774 320.656 312.58 326.999 314Z" fill="#D55994"/>
<path d="M302.5 331.5C302.776 316.114 293.246 306.177 290.5 302.5C288.438 302.534 283.14 305.611 282.752 306.677C289.116 321.524 297.026 327.996 302.5 331.5Z" fill="#D55994"/>
<path d="M263.588 342.876C271.52 329.689 268.235 316.319 267.695 311.761C265.892 310.76 259.765 310.776 258.896 311.505C256.985 327.544 260.598 337.104 263.588 342.876Z" fill="#D55994"/>
<path d="M224 334C236.374 326.619 242.189 313.217 244 309C242.94 307.232 236.865 303.67 235.748 303.867C226.073 316.802 224.297 327.507 224 334Z" fill="#D55994"/>
<path d="M199.999 314.297C214.152 311.593 224.199 300.988 227.344 297.645C226.952 295.621 222.462 290.197 221.344 290C207.829 298.845 202.499 308.297 199.999 314.297Z" fill="#D55994"/>
<path d="M180.5 281C194.724 283.3 210.902 280.066 215 278C215.324 275.964 213.982 268.068 213 267.5C195 268 184.901 276.217 180.5 281Z" fill="#D55994"/>
<path d="M180.5 249.499C192 259.5 208.887 261.754 213.445 261.214C214.446 259.412 215.729 251.869 215 251C200.5 247 189 245 180.5 249.499Z" fill="#D55994"/>
<path d="M199 214C204 227.5 215.162 235.485 219 238.001C220.926 237.264 225 231.134 225 230C218.029 221.023 209.5 216.5 199 214Z" fill="#D55994"/>
<path d="M221.528 193.224C221.609 207.621 229.754 218.323 232.5 222C234.562 221.966 240.099 218.218 240.487 217.152C237.008 206.333 230.5 198 221.528 193.224Z" fill="#D55994"/>
<path d="M304.5 192C295.7 196.8 288.167 210 285.5 216C285.5 216.5 288 220 293 221.5C303 210 305 197.5 304.5 192Z" fill="white"/>
<path d="M263.453 182.035C258.232 190.592 258.307 206.47 258.998 213C259.248 213.433 263.418 214.701 268.498 213.5C271.408 198.541 266.636 186.548 263.453 182.035Z" fill="white"/>
<path d="M328.5 212.184C313.3 214.584 304.167 223.333 301.5 227C302.5 231.5 305 234.184 307.5 235.684C316 230.684 326 218.184 328.5 212.184Z" fill="white"/>
<path d="M346.5 248C331.71 243.751 316.967 247.804 313.001 250C312.5 252 312 256.5 313.501 259.5C329.001 260 341.699 252.381 346.5 248Z" fill="white"/>
<path d="M347.501 279.5C336.817 268.425 318.534 265.582 314.001 265.5C312.567 266.982 311.501 274.5 312.001 275C326.999 280.998 341.152 280.893 347.501 279.5Z" fill="white"/>
<path d="M327.999 313C322.996 298.448 310.573 290.989 306.499 289C304.573 289.737 299.999 294.865 299.999 296C311.057 307.774 321.656 311.58 327.999 313Z" fill="white"/>
<path d="M304.5 331.5C304.776 316.114 295.246 306.177 292.5 302.5C290.438 302.534 285.14 305.611 284.752 306.677C291.116 321.524 299.026 327.996 304.5 331.5Z" fill="white"/>
<path d="M265.588 342.876C273.52 329.689 270.235 316.319 269.695 311.761C267.892 310.76 261.765 310.776 260.896 311.505C258.985 327.544 262.598 337.104 265.588 342.876Z" fill="white"/>
<path d="M223 332C235.374 324.619 241.189 311.217 243 307C241.94 305.232 235.865 301.67 234.748 301.867C225.073 314.802 223.297 325.507 223 332Z" fill="white"/>
<path d="M199.999 312.297C214.152 309.593 224.199 298.988 227.344 295.645C226.952 293.621 222.462 288.197 221.344 288C207.829 296.845 202.499 306.297 199.999 312.297Z" fill="white"/>
<path d="M180.5 279C194.724 281.3 210.902 278.066 215 276C215.324 273.964 213.982 266.068 213 265.5C195 266 184.901 274.217 180.5 279Z" fill="white"/>
<path d="M180.5 247.499C192 257.5 208.887 259.754 213.445 259.214C214.446 257.412 215.729 249.869 215 249C200.5 245 189 243 180.5 247.499Z" fill="white"/>
<path d="M200 212C205 225.5 216.162 233.485 220 236.001C221.926 235.264 226 229.134 226 228C219.029 219.023 210.5 214.5 200 212Z" fill="white"/>
<path d="M223.528 192.224C223.609 206.621 231.754 217.323 234.5 221C236.562 220.966 242.099 217.218 242.487 216.152C239.008 205.333 232.5 197 223.528 192.224Z" fill="white"/>
<path d="M249 317C245.8 329.8 229 340.667 221.5 344C224.5 343 225 344 232.5 339.5C230.5 348.5 233.5 366.5 238 366.5C249.5 359.5 252.5 350.5 255 344C248 330 249 321.5 249 317Z" fill="#D55994"/>
<path d="M251 317C247.8 329.8 231 340.667 223.5 344C226.5 343 227 344 234.5 339.5C232.5 348.5 235.5 366.5 240 366.5C251.5 359.5 254.5 350.5 257 344C250 330 251 321.5 251 317Z" fill="white"/>
<path d="M219.002 313.001C211.501 319.501 197.689 320.933 189.501 321.5C192.662 321.587 198.001 322 202.001 321.501C197.044 329.274 192.319 329.519 193.501 351.001C206.66 348.364 212.245 341.947 216.81 336.703L216.853 336.653C215.064 321.103 217.463 317.23 219.002 313.001Z" fill="#D55994"/>
<path d="M221.002 314.001C213.501 320.501 199.689 321.933 191.501 322.5C194.662 322.587 200.001 323 204.001 322.501C199.044 330.274 194.319 330.519 195.501 352.001C208.66 349.364 214.245 342.947 218.81 337.703L218.853 337.653C217.064 322.103 219.463 318.23 221.002 314.001Z" fill="white"/>
<path d="M207.502 289.502C197.349 290.895 175.007 288.357 167 284C169.948 285.957 174.987 287.575 179.004 289.504C170.655 293.556 164.469 303.467 163 310.044C176.724 315.509 185.571 312.055 192.368 310.044C198.003 294.979 204.055 292.394 207.502 289.502Z" fill="#D55994"/>
<path d="M208.502 291.502C198.349 292.895 176.007 290.357 168 286C170.948 287.957 175.987 289.575 180.004 291.504C171.655 295.556 165.469 305.467 164 312.044C177.724 317.509 186.571 314.055 193.368 312.044C199.003 296.979 205.055 294.394 208.502 291.502Z" fill="white"/>
<path d="M343.162 240.567C329.501 238.5 322.001 239.964 318.501 239.964C319.026 239.155 325.614 233.639 328.501 229.5C330.852 226.13 333.271 222.767 334.501 218.5C340.501 216.5 341.525 215.959 347.501 215.499C354.002 214.999 361.921 216.657 364.501 217.5C364.001 220.5 361.501 227 357.501 231C353.741 234.758 346.976 238.921 343.162 240.567Z" fill="#D55994"/>
<path d="M343.162 238.567C329.501 236.5 322.001 237.964 318.501 237.964C319.026 237.155 325.614 231.639 328.501 227.5C330.852 224.13 333.271 220.767 334.501 216.5C340.501 214.5 341.525 213.959 347.501 213.499C354.002 212.999 361.921 214.657 364.501 215.5C364.001 218.5 361.501 225 357.501 229C353.741 232.758 346.976 236.921 343.162 238.567Z" fill="white"/>
<path d="M324.5 206C313.265 210.556 310.653 210.439 308 212C308 212 309.57 206.369 310 202C310.35 198.443 310.88 192.414 310 188.689C313.699 184.524 314.165 184.008 318.5 181C323.215 177.728 328.686 176.524 331 176C331.895 178.456 333.87 183.741 331.634 191.689C330 197.5 327.5 202 324.5 206Z" fill="#D55994"/>
<path d="M326.5 204C315.265 208.556 312.653 208.439 310 210C310 210 311.57 204.369 312 200C312.35 196.443 312.88 190.414 312 186.689C315.699 182.524 316.165 182.008 320.5 179C325.215 175.728 330.686 174.524 333 174C333.895 176.456 335.87 181.741 333.634 189.689C332 195.5 329.5 200 326.5 204Z" fill="white"/>
<path d="M295.499 189.5C289.499 195.12 280.499 204.5 278.392 210.5C278.392 210.5 278.677 199.372 277.587 195.12C276.7 191.658 275.136 185.811 273.035 182.612C275.086 177.433 275.347 176.788 278.392 172.479C281.704 167.792 289.004 161.784 290.999 160.5C292.68 162.502 294.881 167.767 295.499 176C295.911 181.5 295.999 187.5 295.499 189.5Z" fill="#D55994"/>
<path d="M297.499 189.5C291.499 195.12 282.499 204.5 280.392 210.5C280.392 210.5 280.677 199.372 279.587 195.12C278.7 191.658 277.136 185.811 275.035 182.612C277.086 177.433 277.347 176.788 280.392 172.479C283.704 167.792 291.004 161.784 292.999 160.5C294.68 162.502 296.881 167.767 297.499 176C297.911 181.5 297.999 187.5 297.499 189.5Z" fill="white"/>
<path d="M253.499 184.5C247.633 193.635 247.323 204.251 248.499 210.5C248.499 210.5 244.069 201.138 240.999 198C238.499 195.445 235.418 191.72 231.999 190C231.186 184.489 230.557 181.932 231.04 176.678C231.564 170.962 234.913 161.109 235.999 159C238.456 159.893 242.963 164.352 247.615 171.174C250.722 175.73 252.932 182.518 253.499 184.5Z" fill="#D55994"/>
<path d="M255.499 183.5C249.633 192.635 249.323 203.251 250.499 209.5C250.499 209.5 246.069 200.138 242.999 197C240.499 194.445 237.418 190.72 233.999 189C233.186 183.489 232.557 180.932 233.04 175.678C233.564 169.962 236.913 160.109 237.999 158C240.456 158.893 244.963 163.352 249.615 170.174C252.722 174.73 254.932 181.518 255.499 183.5Z" fill="white"/>
<path d="M213.999 187C213.499 197.5 213.257 206.53 216.499 212C216.499 212 216.457 212.399 212.499 210.5C209.277 208.954 206.999 208.5 203.499 207C199 203.13 193.844 197.103 192.5 192C191.038 186.45 191.2 176.854 191.499 174.5C194.113 174.499 200.799 175.58 207.503 180.4C211.982 183.619 212.788 185.332 213.999 187Z" fill="#D55994"/>
<path d="M215.999 185C215.499 195.5 215.257 204.53 218.499 210C218.499 210 218.457 210.399 214.499 208.5C211.277 206.954 208.999 206.5 205.499 205C201 201.13 195.844 195.103 194.5 190C193.038 184.45 193.2 174.854 193.499 172.5C196.113 172.499 202.799 173.58 209.503 178.4C213.982 181.619 214.788 183.332 215.999 185Z" fill="white"/>
<path d="M192.5 219C197.317 228.343 202.957 237.883 208.5 241C208.5 241 198.88 240 194.5 240C190 240 187.281 240.549 183.5 241C178.5 239.2 174.854 235.647 173 234C170.591 231.86 164.676 221.31 163.758 219.122C166.021 217.814 172.352 215.408 180.568 216.229C186.056 216.778 190.617 218.16 192.5 219Z" fill="#D55994"/>
<path d="M192.5 216C197.317 225.343 202.957 234.883 208.5 238C208.5 238 198.88 237 194.5 237C190 237 187.281 237.549 183.5 238C178.5 236.2 174.854 232.647 173 231C170.591 228.86 164.676 218.31 163.758 216.122C166.021 214.814 172.352 212.408 180.568 213.229C186.056 213.778 190.617 215.16 192.5 216Z" fill="white"/>
<path d="M176 254.5C180 257.5 182 260 190.5 264C190.5 264 184.755 266.693 181.5 268.5C178.156 270.355 178.613 270.617 176 272.5C171.5 273.269 165.001 271.5 160.001 269.499C157.473 268.488 151.636 264.192 150.001 263C151.112 261.127 154.037 259.298 160.501 256.5C167.501 253.47 174 254 176 254.5Z" fill="#D55994"/>
<path d="M176 252.5C180 255.5 182 258 190.5 262C190.5 262 184.755 264.693 181.5 266.5C178.156 268.355 178.613 268.617 176 270.5C171.5 271.269 165.001 269.5 160.001 267.499C157.473 266.488 151.636 262.192 150.001 261C151.112 259.127 154.037 257.298 160.501 254.5C167.501 251.47 174 252 176 252.5Z" fill="white"/>
<path d="M313.446 286.219C312.516 285.969 311.695 285.725 311 285.5C311.849 285.723 312.663 285.964 313.446 286.219C320.766 288.193 334.868 290.629 348 288.5C358.5 297 362 301 364 310.5C360 313.5 349.5 318 335.5 310.5C332.156 304.29 330.182 291.692 313.446 286.219Z" fill="#D55994"/>
<path d="M315.446 284.219C314.516 283.969 313.695 283.725 313 283.5C313.849 283.723 314.663 283.964 315.446 284.219C322.766 286.193 336.868 288.629 350 286.5C360.5 295 364 299 366 308.5C362 311.5 351.5 316 337.5 308.5C334.156 302.29 332.182 289.692 315.446 284.219Z" fill="white"/>
<path d="M289 366.5C280.2 363.3 274 350.833 272 345C274.5 341 278 327.5 276.5 314.5C278.99 329.44 297.847 339.915 306.891 344.939L307 345C301 343 301 342.5 294 340C296 345 292.5 361.5 289 366.5Z" fill="#D55994"/>
<path d="M292 366.5C283.2 363.3 277 350.833 275 345C277.5 341 281 327.5 279.5 314.5C281.99 329.44 300.847 339.915 309.891 344.939L310 345C304 343 304 342.5 297 340C299 345 295.5 361.5 292 366.5Z" fill="white"/>
<path d="M353.295 253C351.192 255.8 341.556 261.5 337 264C341.205 264 346.987 270.5 347.513 271.5C348.038 272.5 352.244 273 358.551 273C364.859 273 369.59 270 378 264C368.013 254.5 361.705 254 353.295 253Z" fill="#D55994"/>
<path d="M353.295 251C351.192 253.8 341.556 259.5 337 262C341.205 262 346.987 268.5 347.513 269.5C348.038 270.5 352.244 271 358.551 271C364.859 271 369.59 268 378 262C368.013 252.5 361.705 252 353.295 251Z" fill="white"/>
<path d="M330 328.5C326.096 321.309 312.38 315.499 307.5 314.5C311.404 318.495 311.5 333.009 311.5 340C315.404 346.991 329.008 351.452 333.887 350.953C334.375 345.46 334.88 337.489 330 328.5Z" fill="#D55994"/>
<path d="M333 328.5C329.096 321.309 315.38 315.499 310.5 314.5C314.404 318.495 314.5 333.009 314.5 340C318.404 346.991 332.008 351.452 336.887 350.953C337.375 345.46 337.88 337.489 333 328.5Z" fill="white"/>
<path d="M265 410C267.8 406.8 265.5 394.333 264 388.5C264 389.5 261.5 396 261.5 401C261.5 406 261.5 414 265 410Z" fill="#D55994"/>
<path d="M266 410C268.8 406.8 266.5 394.333 265 388.5C265 389.5 262.5 396 262.5 401C262.5 406 262.5 414 266 410Z" fill="white"/>
<path d="M245 389C241.4 389.4 237.833 386.5 236.5 385C236.667 386 237.4 387.9 239 389.5C241 391.5 245 390 245 389Z" fill="#D55994"/>
<path d="M246 389C242.4 389.4 238.833 386.5 237.5 385C237.667 386 238.4 387.9 240 389.5C242 391.5 246 390 246 389Z" fill="white"/>
<path d="M290.083 385.064C287.582 387.685 282.986 387.756 281 387.464C281.77 388.123 283.554 389.107 285.808 389.304C288.625 389.551 290.725 385.83 290.083 385.064Z" fill="#D55994"/>
<path d="M289.083 385.064C286.582 387.685 281.986 387.756 280 387.464C280.77 388.123 282.554 389.107 284.808 389.304C287.625 389.551 289.725 385.83 289.083 385.064Z" fill="white"/>
<path d="M246.501 396.5C245.501 393.5 249.167 389.5 251.501 388C251.168 389.167 250.401 391.9 250.001 393.5C249.501 395.5 247.423 399.266 246.501 396.5Z" fill="#D55994"/>
<path d="M247.501 396.5C246.501 393.5 250.167 389.5 252.501 388C252.168 389.167 251.401 391.9 251.001 393.5C250.501 395.5 248.423 399.266 247.501 396.5Z" fill="white"/>
<path d="M280.837 396.07C281.804 393.222 278.257 389.424 276 388C276.322 389.108 277.064 391.703 277.451 393.222C277.934 395.121 279.945 398.696 280.837 396.07Z" fill="#D55994"/>
<path d="M279.837 396.07C280.804 393.222 277.257 389.424 275 388C275.322 389.108 276.064 391.703 276.451 393.222C276.934 395.121 278.945 398.696 279.837 396.07Z" fill="white"/>
<path d="M245.498 139.5C241.498 138.7 239.165 141.5 238.498 143C238.165 143 237.798 142.3 238.998 139.5C240.498 136 250.498 140.5 245.498 139.5Z" fill="#D55994"/>
<path d="M245.498 138.5C241.498 137.7 239.165 140.5 238.498 142C238.165 142 237.798 141.3 238.998 138.5C240.498 135 250.498 139.5 245.498 138.5Z" fill="white"/>
<path d="M290.86 142.501C288.31 139.317 284.723 139.209 283.248 139.93C282.993 139.715 283.162 139.696 285.881 138.322C289.279 136.606 294.047 146.481 290.86 142.501Z" fill="#D55994"/>
<path d="M290.86 141.501C288.31 138.317 284.723 138.209 283.248 138.93C282.993 138.715 283.162 138.696 285.881 137.322C289.279 135.606 294.047 145.481 290.86 141.501Z" fill="white"/>
<path d="M388.5 237.5C388.5 238.7 386.833 240 386 240.5C387 239.5 386 234 386.5 234.5C387 235 388.5 236 388.5 237.5Z" fill="#D55994"/>
<path d="M389.5 237.5C389.5 238.7 387.833 240 387 240.5C388 239.5 387 234 387.5 234.5C388 235 389.5 236 389.5 237.5Z" fill="white"/>
<path d="M389 288.519C389 289.911 387 291.42 386 292C387.2 290.84 386 284.457 386.6 285.037C387.2 285.617 389 286.778 389 288.519Z" fill="#D55994"/>
<path d="M390 288.519C390 289.911 388 291.42 387 292C388.2 290.84 387 284.457 387.6 285.037C388.2 285.617 390 286.778 390 288.519Z" fill="white"/>
<path d="M264.5 139C262.666 135 259.9 125.2 263.5 118C267.5 128.5 266.999 136 264.5 139Z" fill="#D55994"/>
<path d="M265.5 139C263.666 135 260.9 125.2 264.5 118C268.5 128.5 267.999 136 265.5 139Z" fill="white"/>
<path d="M142.001 234.5C143.001 234.5 142.501 234.5 142.501 236C142.501 237.457 142.965 242.919 142.442 242.43C142.426 242.416 142.41 242.396 142.393 242.372C141.232 240.955 139.675 237.602 142.001 234.5Z" fill="#D55994"/>
<path d="M141.001 234.5C142.001 234.5 141.501 234.5 141.501 236C141.501 237.457 141.965 242.919 141.442 242.43C141.426 242.416 141.41 242.396 141.393 242.372C140.232 240.955 138.675 237.602 141.001 234.5Z" fill="white"/>
<path d="M394.983 249.311C395.402 248.406 387.835 249.688 384 250.442C384 250.82 384.941 251.649 388.707 251.951C393.414 252.328 394.46 250.442 394.983 249.311Z" fill="#D55994"/>
<path d="M394.983 248.311C395.402 247.406 387.835 248.688 384 249.442C384 249.82 384.941 250.649 388.707 250.951C393.414 251.328 394.46 249.442 394.983 248.311Z" fill="white"/>
<path d="M394.983 280.585C395.402 281.792 387.835 280.082 384 279.077C384 278.574 384.941 277.468 388.707 277.065C393.414 276.563 394.46 279.077 394.983 280.585Z" fill="#D55994"/>
<path d="M394.983 279.585C395.402 280.792 387.835 279.082 384 278.077C384 277.574 384.941 276.468 388.707 276.065C393.414 275.563 394.46 278.077 394.983 279.585Z" fill="white"/>
<path d="M248.001 132.5C247.201 134.1 250.667 138.5 252.501 140.5C252.334 139.833 252.501 138.5 252.001 136.5C251.516 134.56 249.001 130.5 248.001 132.5Z" fill="#D55994"/>
<path d="M249.001 132.5C248.201 134.1 251.667 138.5 253.501 140.5C253.334 139.833 253.501 138.5 253.001 136.5C252.516 134.56 250.001 130.5 249.001 132.5Z" fill="white"/>
<path d="M133.001 248.5C133.416 250.24 139.001 252.5 145.5 251C144.944 250.596 140.169 249.211 138.5 248C136.882 246.825 132.481 246.326 133.001 248.5Z" fill="#D55994"/>
<path d="M133.001 247.5C133.416 249.24 139.001 251.5 145.5 250C144.944 249.596 140.169 248.211 138.5 247C136.882 245.825 132.481 245.326 133.001 247.5Z" fill="white"/>
<path d="M132.633 281.968C134.233 282.768 138.5 281.969 143 277.433C142.334 277.599 138.5 277.5 136.5 278C134.56 278.485 130.633 280.968 132.633 281.968Z" fill="#D55994"/>
<path d="M132.633 280.968C134.233 281.768 138.5 280.969 143 276.433C142.334 276.599 138.5 276.5 136.5 277C134.56 277.485 130.633 279.968 132.633 280.968Z" fill="white"/>
<path d="M279.999 132C278.213 132.107 277.313 138.411 276.498 140.999C276.992 140.522 278.039 139.269 279.521 137.836C280.959 136.446 282.231 131.866 279.999 132Z" fill="#D55994"/>
<path d="M278.999 132C277.213 132.107 276.313 138.411 275.498 140.999C275.992 140.522 277.039 139.269 278.521 137.836C279.959 136.446 281.231 131.866 278.999 132Z" fill="white"/>
<path d="M141.5 284.5C137.9 288.5 140.334 291.833 142 293H142.5C143 293 142 291 141.5 289.5C141 288 142 284 141.5 284.5Z" fill="#D55994"/>
<path d="M140.5 284.5C136.9 288.5 139.334 291.833 141 293H141.5C142 293 141 291 140.5 289.5C140 288 141 284 140.5 284.5Z" fill="white"/>
<path d="M347.068 157.215C342.517 144.932 328.269 139.628 321.5 138.5C323.5 137.167 330.1 137.1 338.5 143.5C347.961 150.708 346.12 153.451 347.068 157.215C347.224 157.635 347.368 158.063 347.5 158.5C347.31 158.055 347.172 157.629 347.068 157.215Z" fill="#D55994"/>
<path d="M347.068 156.215C342.517 143.932 328.269 138.628 321.5 137.5C323.5 136.167 330.1 136.1 338.5 142.5C347.961 149.708 346.12 152.451 347.068 156.215C347.224 156.635 347.368 157.063 347.5 157.5C347.31 157.055 347.172 156.629 347.068 156.215Z" fill="white"/>
<path d="M208.009 139.053C194.91 139.129 185.052 150.704 181.677 156.678C181.108 154.343 183.303 148.118 192.19 142.413C202.2 135.988 204.147 138.657 208.009 139.053C208.457 139.051 208.908 139.061 209.363 139.086C208.88 139.113 208.433 139.097 208.009 139.053Z" fill="#D55994"/>
<path d="M209.009 139.053C195.91 139.129 186.052 150.704 182.677 156.678C182.108 154.343 184.303 148.118 193.19 142.413C203.2 135.988 205.147 138.657 209.009 139.053C209.457 139.051 209.908 139.061 210.363 139.086C209.88 139.113 209.433 139.097 209.009 139.053Z" fill="white"/>
<path d="M157.436 181.432C145.153 185.983 139.849 200.231 138.721 207C137.387 205 137.321 198.4 143.721 190C150.929 180.539 153.672 182.38 157.436 181.432C157.856 181.276 158.284 181.132 158.721 181C158.275 181.19 157.85 181.328 157.436 181.432Z" fill="#D55994"/>
<path d="M158.436 181.432C146.153 185.983 140.849 200.231 139.721 207C138.387 205 138.321 198.4 144.721 190C151.929 180.539 154.672 182.38 158.436 181.432C158.856 181.276 159.284 181.132 159.721 181C159.275 181.19 158.85 181.328 158.436 181.432Z" fill="white"/>
<path d="M137.469 318.579C137.679 331.698 149.345 343.134 157.999 346.5C155.663 347.069 147.117 345.06 141.412 336.173C135.074 326.299 137.122 322.69 137.469 318.579C137.46 318.055 137.47 317.529 137.499 317C137.529 317.543 137.512 318.065 137.469 318.579Z" fill="#D34578"/>
<path d="M137.469 317.579C137.679 330.698 149.345 342.134 157.999 345.5C155.663 346.069 147.117 344.06 141.412 335.173C135.074 325.299 137.122 321.69 137.469 317.579C137.46 317.055 137.47 316.529 137.499 316C137.529 316.543 137.512 317.065 137.469 317.579Z" fill="white"/>
<path d="M178.434 365.796C183.069 378.418 198.664 388.796 208 389C206 390.333 196.4 389.9 188 383.5C178.469 376.238 179.584 370.212 178.434 365.796C178.277 365.366 178.132 364.934 178 364.499C178.177 364.915 178.318 365.347 178.434 365.796Z" fill="#D55994"/>
<path d="M178.434 364.796C183.069 377.418 198.664 387.796 208 388C206 389.333 196.4 388.9 188 382.5C178.469 375.238 179.584 369.212 178.434 364.796C178.277 364.366 178.132 363.934 178 363.499C178.177 363.915 178.318 364.347 178.434 364.796Z" fill="white"/>
<path d="M388.433 206.608C387.921 193.734 375.992 183.893 369.829 180.47C372.235 179.938 379.502 183.926 383.573 189.972C390.156 199.746 388.681 202.754 388.433 206.608C388.457 207.187 388.456 207.773 388.432 208.364C388.388 207.745 388.398 207.168 388.433 206.608Z" fill="#D55994"/>
<path d="M389.433 206.608C388.921 193.734 376.992 183.893 370.829 180.47C373.235 179.938 380.502 183.926 384.573 189.972C391.156 199.746 389.681 202.754 389.433 206.608C389.457 207.187 389.456 207.773 389.432 208.364C389.388 207.745 389.398 207.168 389.433 206.608Z" fill="white"/>
<path d="M321.483 386.278C334.741 383.913 348.523 371.383 350.339 362.254C351.305 364.455 349.763 372.339 342.002 379.5C333.252 387.573 326.266 385.874 321.483 386.278C320.989 386.366 320.495 386.44 320.002 386.5C320.469 386.391 320.963 386.322 321.483 386.278Z" fill="#D55994"/>
<path d="M321.483 387.278C334.741 384.913 348.523 372.383 350.339 363.254C351.305 365.455 349.763 373.339 342.002 380.5C333.252 388.573 326.266 386.874 321.483 387.278C320.989 387.366 320.495 387.44 320.002 387.5C320.469 387.391 320.963 387.322 321.483 387.278Z" fill="white"/>
<path d="M369.787 346.067C382.762 343.251 393.316 328.313 393.499 316.5C394.465 318.701 395.76 330.838 387.998 337.999C379.782 345.579 374.199 345.573 369.787 346.067C369.032 346.231 368.269 346.354 367.499 346.432C368.229 346.262 368.989 346.156 369.787 346.067Z" fill="#D55994"/>
<path d="M370.787 346.067C383.762 343.251 394.316 328.313 394.499 316.5C395.465 318.701 396.76 330.838 388.998 337.999C380.782 345.579 375.199 345.573 370.787 346.067C370.032 346.231 369.269 346.354 368.499 346.432C369.229 346.262 369.989 346.156 370.787 346.067Z" fill="white"/>
</svg>
