<svg width="372" height="363" viewBox="0 0 372 363" fill="none" xmlns="http://www.w3.org/2000/svg">
<path d="M206.203 118.5C201.818 120.9 198.065 125.333 197.234 127C198.231 116 194.743 107.5 187.766 107C180.292 107 176.804 118 176.305 125.5C170.326 121.5 166.339 114 162.851 114C159.363 121.5 160.359 126.5 160.858 132.5C152.387 126.5 147.403 125 142.42 126.5C131.458 130 140.427 143.5 143.417 147.5C138.434 147 129.963 149 125.976 151C130.461 159 134.448 163.5 137.936 166C127.471 166 119 171 119 176.5C119.498 187 132.454 186.5 138.932 186.5C131.458 191 126.475 199.5 124.481 202.5C129.963 204 137.437 204.5 144.414 205C140.925 208.5 136.939 215 136.939 221.5C138.434 233.5 152.885 223 157.868 219.5C156.871 223.5 158.366 235.5 158.366 241C164.346 237.5 169.329 232 176.803 226C175.807 239.5 183.78 247 188.264 247C192.749 247 196.736 237 197.234 230C200.224 234 208.197 238 212.183 240C214.176 236.5 214.675 227.5 214.176 221.5C215.173 222 224.142 228 233.112 226C242.081 224 230.122 209.5 228.129 206.5C240.088 206 244.075 202.5 247.563 201.5C246.566 198 237.597 190.5 232.115 187.5C241.085 186.5 244.573 185.5 251.051 180.5C258.526 171 242.58 167 235.603 166C241.085 163 247.064 154.5 248.559 152C246.068 151 237.098 149 230.122 148.5C235.603 141.5 238.593 135.5 237.597 131C233.61 119 221.153 128.5 216.169 131.5C217.664 126.5 214.675 115 213.678 113C212.681 114 211.685 115.5 206.203 118.5Z" fill="white"/>
<path d="M204.709 131.5C200.723 133.5 194.411 145.333 191.753 151C190.756 143 191.254 129.5 187.268 121.5C183.78 126 183.282 142 182.783 151C180.79 142.5 175.309 136 171.322 130V139C171.322 145.5 171.322 147.5 172.319 154C165.343 147 158.865 140.5 151.39 139C152.387 145 162.851 157 166.339 161C162.851 158.5 149.895 158.5 144.414 158C145.909 161 159.861 170 161.854 172C151.49 172 139.098 174.833 134.946 176.5C135.776 176.667 139.032 177.5 139.431 177.5C144.414 177.5 154.878 183 161.854 183.5C155.376 186.5 147.403 193.5 143.417 197C152.885 196.5 153.383 196 164.346 193C156.772 199 151.224 210.833 149.397 216C165.343 209 168.831 202 172.319 199C171.322 202.5 168.831 217 169.828 221.5C176.306 219 181.787 203.5 181.787 203C181.787 202.5 183.282 198.5 183.282 206C183.282 213.5 184.777 224.5 187.268 230.5C189.76 228 189.76 209.5 189.76 203.5C191.354 206.7 199.726 216.5 203.712 221C202.716 209.5 198.729 203.5 198.729 201.5C198.729 201 197.733 198 200.224 200.5C202.716 203 212.682 211.5 220.156 214C217.665 209.5 208.695 197 204.709 191.5C207.201 192.5 215.672 195 226.634 197C225.439 193.8 214.177 185.667 208.695 182C214.675 182 229.624 180 233.611 178.5C230.123 175.5 225.638 174.5 208.695 170.5C211.685 168.5 222.648 162.5 229.624 157C226.834 156.6 211.851 159.5 204.709 161C206.702 159 220.655 147 222.648 140.5C218.163 140.5 208.695 147.5 200.224 155C202.217 150.5 206.204 130 204.709 131.5Z" fill="#FAA759"/>
<path d="M187.291 168.998C182.108 166.998 178.966 171.503 178.819 173.999C178.321 182.498 186.201 181.783 188.287 180.998C192.274 179.498 193.769 171.498 187.291 168.998Z" fill="white"/>
<path d="M302 274C297 271.5 294.167 265.333 293.5 262.5C294.167 262.5 296 263.1 296 263.5C296 264 297.263 266.851 298.5 268.5C300 270.5 302 272 303.5 273.5C305 275 306.817 276.408 302 274Z" fill="white"/>
<path d="M317 271.5C314.172 270.369 310.667 266 309.5 264C310.167 263.667 311.5 263.5 311.5 263.5C311.5 263.5 316.5 269 318.5 270.5C320.5 272 319.5 272.5 317 271.5Z" fill="white"/>
<path d="M331 265C328.6 264.6 325 261.833 323.5 260.5L323 260C323.833 259.667 325.5 259.1 325.5 259.5C325.5 260 329 263 331 263.5C333 264 334 265.5 331 265Z" fill="white"/>
<path d="M342 258.5C340.8 258.1 338.5 256 337.5 255L339.5 254C339.5 254.5 339.8 255.7 341 256.5C342.5 257.5 343.5 259 342 258.5Z" fill="white"/>
<path d="M349.5 251C343 245 345.5 240.5 329 211.5C315.982 188.619 279.971 185.64 263 187C273.699 189.941 280.5 203 290.5 216C300.5 229 322.5 236 329 242.5C310 233 295 228 282.5 231.5C270 235 263.199 237.5 243.5 231.5C253.5 244 282.5 259.5 297 263.5C311.5 267.5 327 257 349.5 251Z" fill="white"/>
<path d="M334.5 196.5C330.5 195 322 196.833 318 198.5L317 199L319.5 200.5L320 200C322.5 198.5 324 198 331 198C335.528 198 339.211 198.267 334.5 196.5Z" fill="white"/>
<path d="M338.5 209.5C335.3 208.7 330.833 210.166 329 211L329.5 213C329.833 213 330 212.75 331 212.5C333 212 335 212 338 212C341 212 344 212.5 344.5 212C345 211.5 342.5 210.5 338.5 209.5Z" fill="white"/>
<path d="M346 223.499C342.987 222.156 337.298 222.202 335.348 222.704L336 224.499C336.328 224.557 336.029 224.602 337.057 224.529C339.113 224.384 341.046 224.479 344 225C346.954 225.521 349.859 226.787 350.439 226.381C351.018 225.975 349.766 225.179 346 223.499Z" fill="white"/>
<path d="M349.5 238C346.487 236.656 343.95 235.998 342 236.5L342.5 238.5C342.828 238.558 342.028 238.602 343.057 238.53C345.113 238.384 344.545 238.479 347.5 239C350.454 239.521 351.5 240.5 352.5 240.5C353.207 240.5 353.265 239.679 349.5 238Z" fill="white"/>
<path d="M276.882 64.6807C274.382 69.6807 268.215 72.514 265.382 73.1807C265.382 72.514 265.982 70.6807 266.382 70.6807C266.882 70.6807 269.733 69.4176 271.382 68.1807C273.382 66.6807 274.882 64.6807 276.382 63.1807C277.882 61.6807 279.29 59.864 276.882 64.6807Z" fill="white"/>
<path d="M274.382 49.6807C273.251 52.5091 268.882 56.014 266.882 57.1807C266.549 56.514 266.382 55.1807 266.382 55.1807C266.382 55.1807 271.882 50.1807 273.382 48.1807C274.882 46.1807 275.382 47.1807 274.382 49.6807Z" fill="white"/>
<path d="M267.882 35.6807C267.482 38.0807 264.715 41.6807 263.382 43.1807L262.882 43.6807C262.549 42.8473 261.982 41.1807 262.382 41.1807C262.882 41.1807 265.882 37.6807 266.382 35.6807C266.882 33.6807 268.382 32.6807 267.882 35.6807Z" fill="white"/>
<path d="M261.382 24.6807C260.982 25.8807 258.882 28.1807 257.882 29.1807L256.882 27.1807C257.382 27.1807 258.582 26.8807 259.382 25.6807C260.382 24.1807 261.882 23.1807 261.382 24.6807Z" fill="white"/>
<path d="M214.305 37.5357C243.2 21.007 247.684 23.5113 253.662 17C259.64 39.5392 270.102 55.0661 266.117 69.5914C262.131 84.1166 250.291 107.977 233.353 121C240.327 100.965 239.829 95.9565 236.342 83.4347C232.854 70.913 237.836 54.3843 247.302 35.3512C240.826 41.8625 233.353 65.9043 218.789 76.1027C205.379 85.4928 196.926 92.2513 193.996 102.969C193.875 101.449 193.756 99.7833 193.655 97.9994C192.63 79.8212 193.544 49.4114 214.305 37.5357Z" fill="white"/>
<path d="M199.382 32.1807C197.882 36.1807 199.715 44.6807 201.382 48.6807L201.882 49.6807L203.382 47.1807L202.882 46.6807C201.382 44.1807 200.882 42.6807 200.882 35.6807C200.882 31.153 201.149 27.4701 199.382 32.1807Z" fill="white"/>
<path d="M212.382 28.1807C211.582 31.3807 213.049 35.8473 213.882 37.6807L215.882 37.1807C215.882 36.8473 215.632 36.6807 215.382 35.6807C214.882 33.6807 214.882 31.6807 214.882 28.6807C214.882 25.6807 215.382 22.6807 214.882 22.1807C214.382 21.6807 213.382 24.1807 212.382 28.1807Z" fill="white"/>
<path d="M226.381 20.6807C225.038 23.6932 225.084 29.3827 225.586 31.3329L227.382 30.6807C227.439 30.3525 227.484 30.652 227.411 29.6238C227.266 27.5674 227.361 25.6351 227.882 22.6807C228.403 19.7262 229.669 16.8213 229.263 16.2421C228.857 15.6629 228.061 16.9151 226.381 20.6807Z" fill="white"/>
<path d="M240.882 17.1808C239.539 20.1933 238.88 22.7305 239.382 24.6807L241.382 24.1808C241.44 23.8525 241.484 24.6523 241.412 23.6241C241.267 21.5676 241.362 22.1353 241.883 19.1809C242.403 16.2265 243.382 15.1807 243.382 14.1808C243.382 13.4737 242.561 13.4153 240.882 17.1808Z" fill="white"/>
<path d="M169.835 34.1037C172.058 39.2328 170.265 45.778 168.954 48.377C168.443 47.9484 167.425 46.3104 167.682 46.0039C168.003 45.6209 168.868 42.6252 168.981 40.5667C169.117 38.0705 168.549 35.6358 168.364 33.5226C168.179 31.4093 167.693 29.1628 169.835 34.1037Z" fill="white"/>
<path d="M158.737 28.3769C160.176 31.0617 160.053 36.6612 159.661 38.9432C158.936 38.7701 157.808 38.0406 157.808 38.0406C157.808 38.0406 157.513 30.6135 156.945 28.1789C156.377 25.7442 157.464 26.0039 158.737 28.3769Z" fill="white"/>
<path d="M140.87 15.5C142.451 17.3491 144.395 28.64 144.687 30.6255L144.749 31.3299C143.896 31.0496 142.255 30.4124 142.512 30.106C142.834 29.723 142.081 22.1686 140.87 20.5C139.659 18.8314 138.893 13.1886 140.87 15.5Z" fill="white"/>
<path d="M127.975 15.9781C129.361 17.7869 130.876 22.8609 131.501 25.0003L128.001 23.5005C128.399 23.0264 128.871 21.2537 127.804 19.0657C126.47 16.3306 126.244 13.7171 127.975 15.9781Z" fill="white"/>
<path d="M117.663 19.1901C118.786 27.9644 109.974 29.3204 107.977 62.626C106.448 88.1419 127.948 107.142 139.446 118.643C133.141 109.514 136.947 95.6426 138.446 78.6436C139.887 62.3058 128.705 48.0361 127.904 38.8787C136.352 58.3691 144.036 69.2023 156.447 77.6416C168.947 86.1416 169.214 84.3831 180.447 101.641C180.822 85.6381 177.484 60.5262 168.947 48.1416C160.411 35.757 138.756 29.0565 117.663 19.1901Z" fill="white"/>
<path d="M99.4142 63.0523C101.351 65.7221 105.716 67.4697 107.656 68.0097L108.558 66.1561C108.303 65.9418 108.015 66.0262 107.088 65.5749C105.235 64.6724 103.702 63.3868 101.404 61.4584C99.1062 59.5301 97.1294 57.2187 96.425 57.2803C95.7206 57.342 96.9928 59.7151 99.4142 63.0523Z" fill="white"/>
<path d="M100.667 47.507C102.111 50.4726 106.499 54.0943 108.316 54.9631L108.97 53.1688C108.756 52.9134 109.014 53.072 108.18 52.4667C106.511 51.256 105.092 49.9411 103.164 47.643C101.235 45.3449 99.8236 42.5081 99.1192 42.4465C98.4148 42.3849 98.8621 43.8 100.667 47.507Z" fill="white"/>
<path d="M107.501 31.9995C107.501 33.9987 109.501 37.667 111.001 39.5003C111.334 39.3337 111.901 38.8003 111.501 38.0003L111.497 37.9923C110.998 36.995 110.499 35.9955 109.501 34.5003C108.001 32.0003 107.501 29.938 107.501 31.9995Z" fill="white"/>
<path d="M113.501 22.5004C113.501 24.9003 114.501 26.8337 115.001 27.5004L115.5 28.5005C116.167 27.6671 117.3 26.0004 116.5 26.0004C115.5 26.0004 113.502 19.5006 113.501 22.5004Z" fill="white"/>
<path d="M333.142 164.338C327.839 166.106 321.475 163.749 319 162.217C319.471 161.745 321.192 160.873 321.475 161.156C321.828 161.51 324.737 162.632 326.778 162.924C329.253 163.277 331.728 162.924 333.849 162.924C335.971 162.924 338.251 162.635 333.142 164.338Z" fill="white"/>
<path d="M341.416 151.926C338.41 152.92 332.048 151.514 329.444 150.561C329.619 149.793 330.414 148.702 330.414 148.702C330.414 148.702 338.84 150.057 341.588 149.976C344.336 149.895 344.073 151.047 341.416 151.926Z" fill="white"/>
<path d="M348.5 137C346.446 138.34 341.216 137.897 338.967 137.769L336.001 137.769C336.293 136.883 336.643 134.643 337 135C337.445 135.445 344.64 136.968 346.5 136C348.36 135.032 351.067 135.324 348.5 137Z" fill="white"/>
<path d="M351 122.799C349.142 123.849 343.222 124.798 341 125L342.5 121.5C343.005 122.005 345.505 122.637 347.768 121.99C350.596 121.183 353.323 121.486 351 122.799Z" fill="white"/>
<path d="M348 108C339.161 108.354 342.173 106.839 310 98C284.615 91.0262 255.102 116.463 244.063 129.424C255.5 123.5 271.737 124.379 288 126.5C304.264 128.621 316.308 118.5 325.5 118.5C309.5 126.5 297.5 135.5 290 144.5C281.69 154.472 279.913 164.993 261.741 174.68C277.651 176.447 304.5 175.5 322.199 159.477C333.349 149.382 337.5 131 348 108Z" fill="white"/>
<path d="M307.5 83.5006C303.611 85.2683 296.65 90.9935 295 95.0005L293.5 97.4998L298 97.0005L298 96.0005C298.707 93.1721 300.051 91.9502 305 87.0005C308.202 83.7989 312.08 81.4189 307.5 83.5006Z" fill="white"/>
<path d="M319 89.9996C316.171 91.6967 312.207 96.4867 311.5 98.3723L314 99.0004C314.236 98.7647 313.647 99.2567 314.178 98.3728C315.238 96.605 315.879 94.6214 318 92.5001C320.121 90.3787 325.01 88.232 325.01 87.5249C325.01 86.8178 322.535 87.8783 319 89.9996Z" fill="white"/>
<path d="M340 97.5004C340.5 95.5013 331.166 100.334 328.5 103L327.999 103.5L330.499 104L331.499 102.5C332.499 101 339.5 99.4995 340 97.5004Z" fill="white"/>
<path d="M35.001 198.5C41.3328 196.34 51.6318 198.261 55.1279 200.198C54.6373 200.783 52.6515 201.857 52.2272 201.501C51.6968 201.056 47.6608 199.883 45.001 199.5C41.7755 199.036 39.6961 199.519 37.001 199.5C34.3059 199.481 28.9014 200.581 35.001 198.5Z" fill="white"/>
<path d="M25.001 211.491C27.6857 210.052 42.4122 211.099 44.6942 211.491C44.521 212.216 43.7916 213.345 43.7916 213.345C43.7916 213.345 35.9356 212.432 33.501 213C31.0663 213.568 22.628 212.764 25.001 211.491Z" fill="white"/>
<path d="M23.001 225.5C24.8501 223.919 35.391 222.757 37.3765 222.465L39.0008 222C38.7205 222.852 37.6832 225.072 37.3768 224.815C36.9937 224.493 29.1696 224.289 27.501 225.5C25.8324 226.711 20.6896 227.477 23.001 225.5Z" fill="white"/>
<path d="M19.9786 240.59C21.7874 239.205 30.3613 237.624 32.5007 237L31.001 240C30.5007 239.5 25.2541 239.694 23.0661 240.761C20.331 242.096 17.7176 242.322 19.9786 240.59Z" fill="white"/>
<path d="M25.9413 251.489C34.7157 250.366 36.0717 259.179 69.3773 261.175C94.8931 262.704 117 242.998 128.502 231.499C119.372 237.805 101.392 234.498 84.3929 232.999C68.0551 231.558 51.6584 240.699 42.501 241.5C61.9914 233.052 75.9535 225.116 84.3929 212.705C92.8929 200.205 92.7428 197.733 110.001 186.5C93.9978 186.125 67.2775 191.668 54.8929 200.205C42.5083 208.741 35.8078 230.396 25.9413 251.489Z" fill="white"/>
<path d="M69.8033 270.738C72.4731 268.801 74.9611 263.534 75.5012 261.594L72.9071 261.594C72.6928 261.849 72.7772 262.138 72.3259 263.064C71.4234 264.918 70.1378 266.45 68.2094 268.748C66.2811 271.046 63.9697 273.023 64.0313 273.727C64.0929 274.432 66.4661 273.16 69.8033 270.738Z" fill="white"/>
<path d="M55.2579 269.485C58.2235 268.041 62.6326 262.817 63.5014 261L61.0009 260.5C60.7456 260.714 60.823 261.138 60.2176 261.972C59.0069 263.641 57.6921 265.06 55.3939 266.989C53.0958 268.917 50.259 270.329 50.1974 271.033C50.1358 271.738 51.5509 271.29 55.2579 269.485Z" fill="white"/>
<path d="M34.7512 264.65C36.7504 264.65 43.1679 259.5 45.0012 258C45.0016 256.5 43.0517 256.6 42.2517 257C41.2517 257.5 38.0002 260.5 36.501 261.5C34.001 263 32.6897 264.651 34.7512 264.65Z" fill="white"/>
<path d="M25.7919 255.274C28.1918 255.275 30.1252 254.275 30.7919 253.774L32.501 252.5C31.6676 251.833 29.2919 251.475 29.2919 252.275C29.2919 253.275 22.7921 255.274 25.7919 255.274Z" fill="white"/>
<path d="M97 299C100.249 293.152 103.981 292.347 107.823 291.244C107.89 292.005 107.245 294.168 106.693 294.216L106.686 294.217C105.994 294.278 104.644 294.396 102.5 296C99.8908 297.952 99.4195 299.108 97.5 301C95.5805 302.892 94.5 303.5 97 299Z" fill="white"/>
<path d="M99.5 319.5C99.9308 316.484 106.11 310.337 108 309C108.391 309.635 108.5 311.5 108.5 311.5C108.5 311.5 106.82 312.377 105.5 314.5C104.18 316.623 99 323 99.5 319.5Z" fill="white"/>
<path d="M105.5 331.5C105.69 329.074 109.803 324.11 111 322.5C111.405 323.301 111.899 324.465 111.5 324.5C111.002 324.543 108.824 326.464 108.5 328.5C108.177 330.536 105.264 334.532 105.5 331.5Z" fill="white"/>
<path d="M110.531 340.659C110.83 338.4 112.929 334.954 114 333L114.5 335.499C113.793 335.5 113.293 336.198 112.5 338.5C111.509 341.377 110.157 343.482 110.531 340.659Z" fill="white"/>
<path d="M117.5 344C122.911 337.002 135.538 343.639 160.5 321.5C179.624 304.539 180.498 268.263 180.5 252C178.503 262.914 165.08 273.04 152 284C139.429 294.534 132.909 316.458 127 323.5C132.4 302.123 140.169 288.137 137.361 273.394C134.532 258.545 132.678 256.903 136.939 236.756C125.358 247.808 110.383 270.621 107.662 285.415C104.941 300.208 109 320.5 117.5 344Z" fill="white"/>
<path d="M169.5 323.5C169.5 320.5 168.536 314.754 167.546 313L166.437 315C166.466 315.332 166.664 315.526 167.001 316.5C167.673 318.449 167.739 319.011 168.001 322C168.262 324.988 168.458 326.546 169 327C169.541 327.455 169.5 327.623 169.5 323.5Z" fill="white"/>
<path d="M158 336.5C159.076 333.382 159.171 325.399 158.5 323.5L156.616 324.731C156.587 325.063 156.942 325.308 157.103 326.326C157.427 328.362 157.501 330.295 157.239 333.284C156.978 336.272 156.425 339.818 156.425 339.818C156.425 339.818 156.656 340.398 158 336.5Z" fill="white"/>
<path d="M141 346.5C143.135 344.365 144.299 335.633 144.535 333.276C144 333.5 143.283 333.39 143 334.239C142.646 335.3 142.49 339.739 141.5 341.5C138.97 346 139.542 347.958 141 346.5Z" fill="white"/>
<path d="M128.024 344.932C129.721 343.235 130.381 341.161 130.499 340.336L130.806 338.226C129.746 338.344 127.813 339.771 128.378 340.336C129.085 341.044 125.903 347.053 128.024 344.932Z" fill="white"/>
<path d="M62.5 89C64.9 90.6 70.5 95.3333 73 97.5H71C70.1667 96.5 67.7 94 64.5 92C60.5 89.5 56 85.5 54 83C52 80.5 55 82.5 55.5 83C56 83.5 59.5 87 62.5 89Z" fill="white"/>
<path d="M41.9629 90.8971C44.3629 91.2971 53.1094 98.6971 54.6094 100.03L55.1094 100.53C54.276 100.864 52.6094 101.43 52.6094 101.03C52.6094 100.53 47.1768 95.2273 45.1768 94.7273C43.1768 94.2273 38.9629 90.3971 41.9629 90.8971Z" fill="white"/>
<path d="M31.3919 98.5529C33.6159 99.048 38.0383 101.961 39.8916 103.198L36.2469 104.299C36.2469 103.68 35.4692 102.018 33.2452 101.028C30.4652 99.7906 28.6119 97.9341 31.3919 98.5529Z" fill="white"/>
<path d="M24 108C30.5 114 25.1784 122.345 45.0575 149.141C60.2872 169.671 95.2988 174.08 111.5 175.5C103 171 95.2784 158.986 85.5 145C76.102 131.558 50 123 43.5 116.5C62.5 126 74.5681 129.513 89.5 128C104.539 126.477 110.301 122 130 128C120 115.5 96.9529 102.855 82.4529 98.8548C67.9529 94.8548 46.5 102 24 108Z" fill="white"/>
<path d="M35 152.5C38.2 153.3 44.6667 151.833 46.5 151L44.7715 149.472C44.4382 149.472 44.2715 149.722 43.2715 149.972C41.2715 150.472 39.2715 150.472 36.2715 150.472C33.2715 150.472 30.2715 149.972 29.7715 150.472C29.2715 150.972 31 151.5 35 152.5Z" fill="white"/>
<path d="M28.7393 135.258C31.7518 136.602 37.4413 136.556 39.3915 136.053L38.7393 134.258C38.4111 134.2 38.7106 134.156 37.6824 134.229C35.626 134.374 33.6937 134.279 30.7393 133.758C27.7848 133.237 24.8799 131.971 24.3007 132.377C23.7215 132.782 24.9737 133.579 28.7393 135.258Z" fill="white"/>
<path d="M20.9996 119.5C22.875 121.735 27.0904 122.863 28.1544 123.028L30.5001 123.5C30.5723 122.117 29.4773 119.537 28.609 120.266C27.5236 121.177 18.6553 116.705 20.9996 119.5Z" fill="white"/>
<path d="M211.156 332.797C210.205 329.903 211.298 324.41 212.08 322.23C212.764 322.527 213.749 323.441 213.749 323.441C213.749 323.441 212.75 330.807 212.886 333.303C213.023 335.799 211.997 335.355 211.156 332.797Z" fill="white"/>
<path d="M226.134 340.343C224.897 338.247 224.703 333.711 224.76 331.705L224.822 331.001C225.613 331.425 227.118 332.337 226.812 332.594C226.429 332.916 226.38 337.525 227.283 339.379C228.185 341.232 227.679 342.962 226.134 340.343Z" fill="white"/>
<path d="M254.25 344.016C254.668 335.18 253.892 336.78 265.502 305.5C274.661 280.819 247.501 246 233.002 235.5C237.626 245.586 239.79 254.668 237.002 271C233.501 291.5 246.303 313.843 245.501 323C240.566 302.339 232.001 294 221.502 283.5C212.323 274.321 200.068 270.447 192.002 251.5C188.854 267.195 196.473 296.72 202.502 310.5C209.502 326.5 231.502 335 254.25 344.016Z" fill="white"/>
<path d="M279.858 301.994C278.436 297.965 271.568 292.632 267.72 290.639L266.694 290.194L267.152 293.074L267.856 293.135C270.612 294.086 271.96 294.914 276.459 300.276C279.37 303.745 281.532 306.738 279.858 301.994Z" fill="white"/>
<path d="M272.471 313.414C271.027 310.449 267.032 307.97 265.215 307.101L264.004 308.77C264.219 309.025 264.517 308.992 265.352 309.598C267.02 310.808 268.306 312.34 270.234 314.638C272.163 316.937 273.708 319.556 274.412 319.618C275.117 319.679 274.276 317.121 272.471 313.414Z" fill="white"/>
<path d="M266.002 327C264.365 324.137 262.14 320.171 260.502 319L259.502 321C259.669 321.289 260.285 322.259 261.002 323C262.435 324.482 263.24 325.838 263.502 326.5C264.607 329.289 266.818 331.317 267.501 331.5C268.184 331.683 268.002 330.5 266.002 327Z" fill="white"/>
<path d="M258.501 339.5C257.701 338.7 256.168 335.5 255.501 334C255.335 334.5 255.001 335.6 255.001 336C255.001 336.5 257.001 339.5 258.501 341C260.001 342.5 259.501 340.5 258.501 339.5Z" fill="white"/>
<path d="M239.22 345.752C237.984 343.656 237.789 339.12 237.846 337.114L237.908 336.41C238.699 336.834 240.204 337.746 239.898 338.004C239.515 338.325 239.466 342.934 240.369 344.788C241.272 346.641 240.765 348.372 239.22 345.752Z" fill="white"/>
<path d="M159 95.9997C161 98.9997 164 103 167.5 106.5C162.7 105.3 155.5 110 152.5 112.5C152.345 112.628 152 113 152 112.5C152 112 151.5 111 151.5 109.5C151.5 108 148.5 99.9997 148 98.4997C147.5 96.9997 147.5 95.4997 148 95.9997C148.4 96.3997 151.167 104.833 152.5 109C153 109.5 153.5 108.5 154.5 108C155.394 107.552 152.871 101.536 150.5 92.9997C148 84 151 88.9999 152 90.9998C153 92.9997 158.5 104.5 159 105C159.5 105.5 160 104.5 161.5 104C159.5 102 156.5 93.4998 155.5 90.9998C154.5 88.4998 157 92.9997 159 95.9997Z" fill="white"/>
<path d="M225 100C223.987 103.46 223.566 107 223.566 112.244C221.4 107.795 213.172 105.301 209.328 104.61C209.131 104.573 208.117 104.321 208.5 104C208.883 103.679 209.834 102.879 210.984 101.915C212.133 100.951 216.172 94.4347 217 93.0875C217.828 91.7403 219.313 90.7966 219.251 91.501C219.202 92.0645 215.335 98.8003 213 102.5C212.938 103.204 213.035 102.804 214.061 103.249C214.978 103.647 217.43 99.3046 221.625 91.5005C227 81.4998 224.889 89.948 224 91.9995C223.111 94.0511 219.313 104.064 219.252 104.768C219.19 105.472 220.277 105.213 221.625 106.04C221.871 103.223 225.728 93.874 227 91.501C228.272 89.128 226.013 96.5395 225 100Z" fill="white"/>
<path d="M265.5 152.5C262.5 154.5 260.37 154.983 257 159C258.2 154.2 253.936 147.173 251.436 144.173C251.308 144.018 250.693 143.174 251.193 143.174C251.693 143.174 250.5 143.174 252 143.174C253.5 143.174 265.346 139.501 266.846 139.001C268.346 138.501 272.526 138.731 272.026 139.231C271.626 139.631 259.771 143.584 255.605 144.917C255.105 145.417 255.436 145.173 255.936 146.173C256.383 147.067 259.77 146.456 268 143.174C278.546 138.968 272.781 142.944 270.781 143.944C268.781 144.944 259.436 150.173 258.936 150.673C258.436 151.173 259.436 151.673 259.936 153.173C261.936 151.173 270 148.5 272.5 147.5C275 146.5 268.5 150.5 265.5 152.5Z" fill="white"/>
<path d="M258.499 218C255.038 216.987 252.999 216 247.999 215C252.447 212.834 255.946 204.682 256.637 200.838C256.674 200.641 256.925 199.627 257.247 200.01C257.568 200.393 256.801 199.479 257.765 200.628C258.729 201.777 269.157 208.491 270.505 209.318C271.852 210.146 274.362 213.497 273.658 213.435C273.094 213.386 262.198 208.335 258.499 206C257.794 205.938 258.21 206.475 257.765 207.5C257.367 208.418 259.195 209.24 266.999 213.435C276.999 218.81 269.68 216.89 267.628 216C265.577 215.111 257.341 212.062 256.637 212C255.932 211.938 253.826 212.653 252.999 214C255.816 214.247 268.132 219.228 270.505 220.501C272.878 221.773 261.959 219.013 258.499 218Z" fill="white"/>
<path d="M212.501 257.999C210.77 254.836 210.291 252.696 206.667 248.71C211.344 250.323 218.295 247.729 221.501 245.5C221.667 245.386 223.663 244.035 223.62 244.533C223.576 245.031 222.946 245.89 222.816 247.384C222.685 248.878 226.634 257.962 227.001 259.5C227.369 261.037 227.456 262.042 227.001 261.5C226.637 261.067 222.466 253.767 221.501 249.5C221.001 248.71 219.501 250 218.875 250.312C217.98 250.758 221.319 255.256 223.871 263.741C227.141 274.613 223.323 268.08 222.501 266C221.68 263.921 215.456 253.042 215.001 252.5C214.547 251.959 212.447 251.17 210.909 251.538C212.727 253.704 217.223 261.422 218.001 264C218.779 266.578 214.964 262.5 212.501 257.999Z" fill="white"/>
<path d="M107.719 206.623C110.719 204.623 111.844 203.458 115.5 199.501C114.3 204.301 118.455 211.499 120.955 214.499C121.083 214.654 122.603 216.525 122.103 216.525C121.603 216.525 120.693 215.973 119.193 215.973C117.693 215.973 110 218.5 108.5 219C107 219.5 101.5 220.5 102 220C102.4 219.6 112.804 216.181 116.97 214.847C117.714 214.28 116.298 212.899 115.932 212.302C115.41 211.45 114.595 213.352 106 215.501C95.9999 218.001 98.4995 215.847 100.499 214.847C102.499 213.847 112.915 209.134 113.415 208.634C113.915 208.134 114.517 205.973 114.017 204.473C112.017 206.473 105 210.001 102.5 211.001C99.9998 212.001 103.45 209.469 107.719 206.623Z" fill="white"/>
<path d="M113.001 140.5C116.536 141.207 118.106 142.11 123.49 141.896C119.247 144.442 117.355 151.111 117.001 155C116.982 155.2 117.355 159.854 117.001 159.5C116.647 159.146 114.738 157.42 113.677 156.36C112.617 155.299 106.166 151.442 104.752 150.735C103.337 150.028 98.741 146.846 99.4481 146.846C100.014 146.846 109.788 151.785 113.677 153.788C114.604 153.913 114.58 151.935 114.743 151.255C114.977 150.282 113.056 151.051 105.458 146.493C96.6195 141.189 97.327 140.293 99.4483 141C101.57 141.707 114.85 146.881 115.557 146.881C116.264 146.881 118.218 145.779 118.925 144.364C116.096 144.364 104.476 140.561 102.001 139.5C99.5266 138.44 107.97 139.494 113.001 140.5Z" fill="white"/>
<path d="M147 251.423C148.022 247.965 147.977 247.807 147.764 242.423C150.309 246.666 155.809 247.866 161.5 249.5C162 249.644 162.854 249.146 162.5 249.5C162.146 249.854 162 250 160.987 251.423C160.116 252.644 157.707 259.642 157 261.056C156.293 262.471 155.119 265.634 155.119 264.926C155.119 264.361 156.616 256.088 158.619 252.199C158.744 251.272 156.766 251.296 156.086 251.133C155.113 250.899 155.211 254.359 151.712 262.499C147.229 272.931 149.293 261.121 150 259C150.707 256.879 151.712 251.026 151.712 250.319C151.712 249.612 150.61 247.658 149.196 246.951C149.196 249.78 147.061 258.025 146 260.5C144.939 262.975 145.5 256.5 147 251.423Z" fill="white"/>
</svg>
