<svg width="528" height="528" viewBox="0 0 528 528" fill="none" xmlns="http://www.w3.org/2000/svg">
<path d="M285.5 234.5C284.7 236.5 280.167 241 278 243C279.833 240.334 283.6 234.7 284 233.5C284.5 232 285.5 228.5 288 226C290.5 223.5 290 226.5 289 228C288 229.5 286.5 232 285.5 234.5Z" fill="#D55994"/>
<path d="M261.5 218.5C260.7 219.7 261.167 223.334 261.5 225L263.5 233C263.333 231.167 263 226.8 263 224C263 220.5 262.5 217 261.5 218.5Z" fill="#D55994"/>
<path d="M257.501 249.5C258.301 251.5 258.501 255 258.501 256.5C258.001 258.5 255.001 256 254.501 255.5C254.001 255 252.001 251 245.001 249C238.001 247 233.501 241.5 231.001 240C228.501 238.5 226.001 234.5 225.001 236.5C224.001 238.5 231.001 242.5 233.501 244C236.002 245.5 240.501 248 244.501 250C248.501 252 252.001 255.5 253.001 257C254.001 258.5 253.501 259.5 252.001 260C250.501 260.5 250.001 259 246.001 258.5C242.001 258 237.501 252 233.501 250.5C229.502 249 226.001 249.5 221.001 249.5C216.001 249.5 217.001 250 219.001 251.5C221.001 253 226.501 251.5 231.001 251.5C235.501 251.5 238.501 255 240.501 256.5C242.501 258 246.001 261 249.001 261.5C252.001 262 252.501 264 252.501 265.5C252.501 267 245.001 265.5 242.501 267C240.002 268.5 237.501 271 233.501 274C229.502 277 227.001 276.5 224.501 277.5C222.001 278.5 220.501 277.5 218.001 279.5C215.501 281.5 220.501 280.5 222.501 279.5C224.501 278.5 230.501 277.5 233.501 275.5C236.501 273.5 241.001 270.5 243.501 268.5C246.001 266.5 250.001 268 252.501 268C255.001 268 254.501 268.5 252.502 270.499L252.501 270.5C250.502 272.5 241.001 277.5 242.501 277.5C244.001 277.5 245.001 277 247.501 274.5C250.001 272 254.501 271 254.501 272.5C254.501 274 251.001 277.5 250.001 279.5C249.001 281.5 247.501 283 246.001 286C244.501 289 242.001 292 237.501 296C233.001 300 234.501 300.5 236.501 300.5C238.501 300.5 241.501 294.5 243.001 292.5C244.501 290.5 249.501 283.5 251.001 279.5C252.501 275.5 256.501 274 258.501 272.5C260.501 271 259.001 277.5 258.501 279.5C258.001 281.5 256.501 285 254.501 287.5C252.501 290 248.501 295.5 248.501 297.5C248.501 299.5 246.501 309 248.501 307.5C250.501 306 250.501 297.5 251.001 294.5C251.501 291.5 254.501 289.5 256.501 287.5C258.501 285.5 259.501 282 260.501 277C261.501 272 263.001 274.5 263.001 276.5C263.001 278.5 264.001 283 267.001 288C270.001 293 273.001 295 273.501 299C274.001 303 275.001 306 275.501 307.5C276.001 309 276.501 304.5 276.501 302.5C276.501 300.5 275.501 295.5 273.501 292.5C271.501 289.5 267.001 286 266.001 283.5C265.001 281 265.001 276.5 265.001 274.5C265.001 272.5 265.501 273.5 267.001 273.5C268.501 273.5 273.001 279.5 274.501 283C276.001 286.5 276.501 287.5 279.001 291C281.501 294.5 282.001 297 284.001 299C286.001 301 286.501 301.5 288.001 301.5C289.501 301.5 287.501 297.5 283.001 293.5C278.501 289.5 277.501 287.5 276.501 286C275.501 284.5 276.501 284.5 275.001 281.5C273.501 278.5 271.501 274 270.501 273.5C269.501 273 268.501 271 270.501 271C272.501 271 272.501 272 276.501 274C280.501 276 283.501 277.5 282.001 276.5C280.501 275.5 280.501 274.5 277.501 272.5C274.501 270.5 273.501 269.5 271.501 268.5C269.501 267.5 270.501 267 273.501 267C276.501 267 280.501 268 284.501 269.5C288.501 271 293.001 276.5 295.501 277.5C298.001 278.5 305.501 279 305.501 278.5C305.501 278 304.501 277.5 301.001 277C297.501 276.5 296.501 275.5 294.001 274.5C291.501 273.5 287.501 269.5 285.001 268C282.501 266.5 279.001 265.5 275.501 265.5C272.001 265.5 271.501 264 271.501 263C271.501 262 276.501 261.5 279.001 261C281.501 260.5 288.501 256.5 288.501 254.5C288.501 252.5 293.001 252 294.001 251.5C295.001 251 299.001 252 301.001 252C303.001 252 306.001 250.5 305.501 250C305.001 249.5 301.501 250 299.501 250.5C297.501 251 295.001 249.5 292.501 251C290.001 252.5 288.001 254 287.501 255C287.001 256 285.501 256.5 283.001 257.5C280.501 258.5 279.001 258.5 277.501 259C276.001 259.5 272.501 260.5 270.501 259.5C269.501 258 272.501 256 275.501 253.5C278.501 251 280.001 250.5 284.001 248C288.001 245.5 289.501 244.5 293.001 242.5C296.501 240.5 299.001 238.5 299.001 237C299.001 235.5 295.001 238.5 293.001 239.5C291.001 240.5 287.501 244 284.001 246.5C280.501 249 280.001 248.5 276.501 250.5C273.001 252.5 271.001 255 269.001 256.5C267.001 258 267.001 256.5 267.001 255C267.001 253.5 268.501 252 268.501 250.5C268.501 249 270.001 245 269.001 244.5C268.001 245.5 268.001 248.5 266.501 250.5C265.001 252.5 265.001 253.5 264.001 254.5C263.001 255.5 264.001 252.5 264.001 251C264.001 249.5 264.001 240.5 263.001 239.5V245C263.001 247.5 262.501 248.5 262.001 251C261.501 253.5 261.501 254 260.501 254.5C259.501 255 259.501 251 258.501 249.5C257.701 248.3 256.834 245.333 256.501 244C256.501 245 256.701 247.5 257.501 249.5Z" fill="#D55994"/>
<path d="M249.5 220.5C249.5 221.7 250.167 225.667 250.5 227.5L251 229.5C251.5 232.5 257.5 237.5 258 238C258.5 238.5 256.5 235 254.5 233C252.5 231 252.5 227.5 252 226.5C251.5 225.5 251.5 220.5 250.5 219C249.5 217.5 249.5 219 249.5 220.5Z" fill="#D55994"/>
<path d="M296 287C294 284.6 286.167 281 282.5 279.5C285 281.5 290.3 285.7 291.5 286.5C293 287.5 297 291 298.5 291.5C300 292 298.5 290 296 287Z" fill="#D55994"/>
<path d="M241.863 281.086C241.909 281.057 241.955 281.028 242 281C241.955 281.029 241.91 281.057 241.863 281.086C238.068 283.459 230.456 288.588 229.298 290.802C227.832 293.602 224.412 290.802 226.855 289.401C229.298 288.001 229.298 286.601 233.695 284.734C237.957 282.924 240.383 281.991 241.863 281.086Z" fill="#D55994"/>
<path d="M238.501 226.5C237.301 224.9 236.334 225.833 236.001 226.5C235.501 227.499 238.501 231 240.001 233.5C241.501 236 247.501 242 248.501 243C249.501 244 245.001 237 244.001 236C243.001 235 240.001 228.5 238.501 226.5Z" fill="#D55994"/>
<path d="M303.5 263.5C301.5 264.3 295.667 264.167 293 264C293 264.5 301 265.5 303.5 265.5C306 265.5 311 264.5 310.5 263.5C310 262.5 306 262.5 303.5 263.5Z" fill="#D55994"/>
<path d="M263 305C263.8 301.8 262 292.667 261 288.5C261 290.667 260.8 295.9 260 299.5C259 304 260.5 307.5 261 308C261.5 308.5 262 309 263 305Z" fill="#D55994"/>
<path d="M275.5 228C274.7 231.6 271.5 235.5 270 237L271.5 234C272 233 274.5 227.5 274.5 226C274.5 224.5 273.5 222 275 219.5C276.5 217 276.5 220 276 221C275.5 222 276.5 223.5 275.5 228Z" fill="#D55994"/>
<path d="M225.44 261.522C228.236 261.375 233.297 261.777 235.478 261.997C232.482 262.154 230.537 263.257 227.541 263.414C224.546 263.571 222.101 264.701 217.529 263.438C212.957 262.176 221.944 261.705 225.44 261.522Z" fill="#D55994"/>
<path d="M284.5 234.5C283.7 236.5 279.167 241 277 243C278.833 240.334 282.6 234.7 283 233.5C283.5 232 284.5 228.5 287 226C289.5 223.5 289 226.5 288 228C287 229.5 285.5 232 284.5 234.5Z" fill="white"/>
<path d="M262.5 218.5C261.7 219.7 262.167 223.334 262.5 225L264.5 233C264.333 231.167 264 226.8 264 224C264 220.5 263.5 217 262.5 218.5Z" fill="white"/>
<path d="M258.497 248.5C259.297 250.5 259.497 254 259.497 255.5C258.997 257.5 255.997 255 255.497 254.5C254.997 254 252.997 250 245.997 248C238.997 246 234.497 240.5 231.997 239C229.497 237.5 226.997 233.5 225.997 235.5C224.997 237.5 231.997 241.5 234.497 243C236.998 244.5 241.497 247 245.497 249C249.497 251 252.997 254.5 253.997 256C254.997 257.5 254.497 258.5 252.997 259C251.497 259.5 250.997 258 246.997 257.5C242.997 257 238.497 251 234.497 249.5C230.498 248 226.997 248.5 221.997 248.5C216.997 248.5 217.997 249 219.997 250.5C221.997 252 227.497 250.5 231.997 250.5C236.497 250.5 239.497 254 241.497 255.5C243.497 257 246.997 260 249.997 260.5C252.997 261 253.497 263 253.497 264.5C253.497 266 245.997 264.5 243.497 266C240.998 267.5 238.497 270 234.497 273C230.498 276 227.997 275.5 225.497 276.5C222.997 277.5 221.497 276.5 218.997 278.5C216.497 280.5 221.497 279.5 223.497 278.5C225.497 277.5 231.497 276.5 234.497 274.5C237.497 272.5 241.997 269.5 244.497 267.5C246.997 265.5 250.997 267 253.497 267C255.997 267 255.497 267.5 253.498 269.499L253.497 269.5C251.498 271.5 241.997 276.5 243.497 276.5C244.997 276.5 245.997 276 248.497 273.5C250.997 271 255.497 270 255.497 271.5C255.497 273 251.997 276.5 250.997 278.5C249.998 280.5 248.497 282 246.997 285C245.497 288 242.997 291 238.497 295C233.997 299 235.497 299.5 237.497 299.5C239.497 299.5 242.497 293.5 243.997 291.5C245.497 289.5 250.497 282.5 251.997 278.5C253.497 274.5 257.497 273 259.497 271.5C261.497 270 259.997 276.5 259.497 278.5C258.997 280.5 257.497 284 255.497 286.5C253.497 289 249.497 294.5 249.497 296.5C249.497 298.5 247.497 308 249.497 306.5C251.497 305 251.497 296.5 251.997 293.5C252.497 290.5 255.497 288.5 257.497 286.5C259.497 284.5 260.497 281 261.497 276C262.497 271 263.997 273.5 263.997 275.5C263.997 277.5 264.997 282 267.997 287C270.997 292 273.997 294 274.497 298C274.997 302 275.997 305 276.497 306.5C276.997 308 277.497 303.5 277.497 301.5C277.497 299.5 276.497 294.5 274.497 291.5C272.497 288.5 267.997 285 266.997 282.5C265.997 280 265.997 275.5 265.997 273.5C265.997 271.5 266.497 272.5 267.997 272.5C269.497 272.5 273.997 278.5 275.497 282C276.997 285.5 277.497 286.5 279.997 290C282.497 293.5 282.997 296 284.997 298C286.997 300 287.497 300.5 288.997 300.5C290.497 300.5 288.497 296.5 283.997 292.5C279.497 288.5 278.497 286.5 277.497 285C276.497 283.5 277.497 283.5 275.997 280.5C274.497 277.5 272.497 273 271.497 272.5C270.497 272 269.497 270 271.497 270C273.497 270 273.497 271 277.497 273C281.497 275 284.497 276.5 282.997 275.5C281.497 274.5 281.497 273.5 278.497 271.5C275.497 269.5 274.497 268.5 272.497 267.5C270.497 266.5 271.497 266 274.497 266C277.497 266 281.497 267 285.497 268.5C289.497 270 293.997 275.5 296.497 276.5C298.997 277.5 306.497 278 306.497 277.5C306.497 277 305.497 276.5 301.997 276C298.497 275.5 297.497 274.5 294.997 273.5C292.497 272.5 288.497 268.5 285.997 267C283.497 265.5 279.997 264.5 276.497 264.5C272.997 264.5 272.497 263 272.497 262C272.497 261 277.497 260.5 279.997 260C282.497 259.5 289.497 255.5 289.497 253.5C289.497 251.5 293.997 251 294.997 250.5C295.997 250 299.997 251 301.997 251C303.997 251 306.997 249.5 306.497 249C305.997 248.5 302.497 249 300.497 249.5C298.497 250 295.997 248.5 293.497 250C290.997 251.5 288.997 253 288.497 254C287.997 255 286.497 255.5 283.997 256.5C281.497 257.5 279.997 257.5 278.497 258C276.997 258.5 273.497 259.5 271.497 258.5C270.497 257 273.497 255 276.497 252.5C279.497 250 280.997 249.5 284.997 247C288.997 244.5 290.497 243.5 293.997 241.5C297.497 239.5 299.997 237.5 299.997 236C299.997 234.5 295.997 237.5 293.997 238.5C291.997 239.5 288.497 243 284.997 245.5C281.497 248 280.997 247.5 277.497 249.5C273.997 251.5 271.997 254 269.997 255.5C267.997 257 267.997 255.5 267.997 254C267.997 252.5 269.497 251 269.497 249.5C269.497 248 270.997 244 269.997 243.5C268.997 244.5 268.997 247.5 267.497 249.5C265.997 251.5 265.997 252.5 264.997 253.5C263.997 254.5 264.997 251.5 264.997 250C264.997 248.5 264.997 239.5 263.997 238.5V244C263.997 246.5 263.497 247.5 262.997 250C262.497 252.5 262.497 253 261.497 253.5C260.497 254 260.497 250 259.497 248.5C258.697 247.3 257.831 244.333 257.497 243C257.497 244 257.697 246.5 258.497 248.5Z" fill="white"/>
<path d="M250.5 220.5C250.5 221.7 251.167 225.667 251.5 227.5L252 229.5C252.5 232.5 258.5 237.5 259 238C259.5 238.5 257.5 235 255.5 233C253.5 231 253.5 227.5 253 226.5C252.5 225.5 252.5 220.5 251.5 219C250.5 217.5 250.5 219 250.5 220.5Z" fill="white"/>
<path d="M297 287C295 284.6 287.167 281 283.5 279.5C286 281.5 291.3 285.7 292.5 286.5C294 287.5 298 291 299.5 291.5C301 292 299.5 290 297 287Z" fill="white"/>
<path d="M242.863 281.086C242.909 281.057 242.955 281.028 243 281C242.955 281.029 242.91 281.057 242.863 281.086C239.068 283.459 231.456 288.588 230.298 290.802C228.832 293.602 225.412 290.802 227.855 289.401C230.298 288.001 230.298 286.601 234.695 284.734C238.957 282.924 241.383 281.991 242.863 281.086Z" fill="white"/>
<path d="M239.501 226.5C238.301 224.9 237.334 225.833 237.001 226.5C236.501 227.499 239.501 231 241.001 233.5C242.501 236 248.501 242 249.501 243C250.501 244 246.001 237 245.001 236C244.001 235 241.001 228.5 239.501 226.5Z" fill="white"/>
<path d="M303.5 262.5C301.5 263.3 295.667 263.167 293 263C293 263.5 301 264.5 303.5 264.5C306 264.5 311 263.5 310.5 262.5C310 261.5 306 261.5 303.5 262.5Z" fill="white"/>
<path d="M264 305C264.8 301.8 263 292.667 262 288.5C262 290.667 261.8 295.9 261 299.5C260 304 261.5 307.5 262 308C262.5 308.5 263 309 264 305Z" fill="white"/>
<path d="M276.5 228C275.7 231.6 272.5 235.5 271 237L272.5 234C273 233 275.5 227.5 275.5 226C275.5 224.5 274.5 222 276 219.5C277.5 217 277.5 220 277 221C276.5 222 277.5 223.5 276.5 228Z" fill="white"/>
<path d="M225.499 260.5C228.299 260.5 233.332 261.167 235.499 261.5C232.499 261.5 230.499 262.5 227.499 262.5C224.499 262.5 221.999 263.5 217.499 262C212.999 260.5 221.999 260.5 225.499 260.5Z" fill="white"/>
<path d="M302.5 192C293.7 196.8 286.167 210 283.5 216C283.5 216.5 286 220 291 221.5C301 210 303 197.5 302.5 192Z" fill="#D55994"/>
<path d="M261.453 183.035C256.232 191.592 256.307 207.47 256.998 214C257.248 214.433 261.418 215.701 266.498 214.5C269.408 199.541 264.636 187.548 261.453 183.035Z" fill="#D55994"/>
<path d="M326.5 212.184C311.3 214.584 302.167 223.333 299.5 227C300.5 231.5 303 234.184 305.5 235.684C314 230.684 324 218.184 326.5 212.184Z" fill="#D55994"/>
<path d="M344.5 247C329.71 242.751 314.967 246.804 311.001 249C310.5 251 310 255.5 311.501 258.5C327.001 259 339.699 251.381 344.5 247Z" fill="#D55994"/>
<path d="M346.497 277.5C335.813 266.425 317.53 263.582 312.997 263.5C311.564 264.982 310.497 272.5 310.997 273C325.995 278.998 340.148 278.893 346.497 277.5Z" fill="#D55994"/>
<path d="M326.999 314C321.996 299.448 309.573 291.989 305.499 290C303.573 290.737 298.999 295.865 298.999 297C310.057 308.774 320.656 312.58 326.999 314Z" fill="#D55994"/>
<path d="M302.5 331.5C302.776 316.114 293.246 306.177 290.5 302.5C288.438 302.534 283.14 305.611 282.752 306.677C289.116 321.524 297.026 327.996 302.5 331.5Z" fill="#D55994"/>
<path d="M263.588 342.876C271.52 329.689 268.235 316.319 267.695 311.761C265.892 310.76 259.765 310.776 258.896 311.505C256.985 327.544 260.598 337.104 263.588 342.876Z" fill="#D55994"/>
<path d="M224 334C236.374 326.619 242.189 313.217 244 309C242.94 307.232 236.865 303.67 235.748 303.867C226.073 316.802 224.297 327.507 224 334Z" fill="#D55994"/>
<path d="M199.999 314.297C214.152 311.593 224.199 300.988 227.344 297.645C226.952 295.621 222.462 290.197 221.344 290C207.829 298.845 202.499 308.297 199.999 314.297Z" fill="#D55994"/>
<path d="M180.5 281C194.724 283.3 210.902 280.066 215 278C215.324 275.964 213.982 268.068 213 267.5C195 268 184.901 276.217 180.5 281Z" fill="#D55994"/>
<path d="M180.5 249.499C192 259.5 208.887 261.754 213.445 261.214C214.446 259.412 215.729 251.869 215 251C200.5 247 189 245 180.5 249.499Z" fill="#D55994"/>
<path d="M199 214C204 227.5 215.162 235.485 219 238.001C220.926 237.264 225 231.134 225 230C218.029 221.023 209.5 216.5 199 214Z" fill="#D55994"/>
<path d="M221.528 193.224C221.609 207.621 229.754 218.323 232.5 222C234.562 221.966 240.099 218.218 240.487 217.152C237.008 206.333 230.5 198 221.528 193.224Z" fill="#D55994"/>
<path d="M304.5 192C295.7 196.8 288.167 210 285.5 216C285.5 216.5 288 220 293 221.5C303 210 305 197.5 304.5 192Z" fill="white"/>
<path d="M263.453 182.035C258.232 190.592 258.307 206.47 258.998 213C259.248 213.433 263.418 214.701 268.498 213.5C271.408 198.541 266.636 186.548 263.453 182.035Z" fill="white"/>
<path d="M328.5 212.184C313.3 214.584 304.167 223.333 301.5 227C302.5 231.5 305 234.184 307.5 235.684C316 230.684 326 218.184 328.5 212.184Z" fill="white"/>
<path d="M346.5 248C331.71 243.751 316.967 247.804 313.001 250C312.5 252 312 256.5 313.501 259.5C329.001 260 341.699 252.381 346.5 248Z" fill="white"/>
<path d="M347.501 279.5C336.817 268.425 318.534 265.582 314.001 265.5C312.567 266.982 311.501 274.5 312.001 275C326.999 280.998 341.152 280.893 347.501 279.5Z" fill="white"/>
<path d="M327.999 313C322.996 298.448 310.573 290.989 306.499 289C304.573 289.737 299.999 294.865 299.999 296C311.057 307.774 321.656 311.58 327.999 313Z" fill="white"/>
<path d="M304.5 331.5C304.776 316.114 295.246 306.177 292.5 302.5C290.438 302.534 285.14 305.611 284.752 306.677C291.116 321.524 299.026 327.996 304.5 331.5Z" fill="white"/>
<path d="M265.588 342.876C273.52 329.689 270.235 316.319 269.695 311.761C267.892 310.76 261.765 310.776 260.896 311.505C258.985 327.544 262.598 337.104 265.588 342.876Z" fill="white"/>
<path d="M223 332C235.374 324.619 241.189 311.217 243 307C241.94 305.232 235.865 301.67 234.748 301.867C225.073 314.802 223.297 325.507 223 332Z" fill="white"/>
<path d="M199.999 312.297C214.152 309.593 224.199 298.988 227.344 295.645C226.952 293.621 222.462 288.197 221.344 288C207.829 296.845 202.499 306.297 199.999 312.297Z" fill="white"/>
<path d="M180.5 279C194.724 281.3 210.902 278.066 215 276C215.324 273.964 213.982 266.068 213 265.5C195 266 184.901 274.217 180.5 279Z" fill="white"/>
<path d="M180.5 247.499C192 257.5 208.887 259.754 213.445 259.214C214.446 257.412 215.729 249.869 215 249C200.5 245 189 243 180.5 247.499Z" fill="white"/>
<path d="M200 212C205 225.5 216.162 233.485 220 236.001C221.926 235.264 226 229.134 226 228C219.029 219.023 210.5 214.5 200 212Z" fill="white"/>
<path d="M223.528 192.224C223.609 206.621 231.754 217.323 234.5 221C236.562 220.966 242.099 217.218 242.487 216.152C239.008 205.333 232.5 197 223.528 192.224Z" fill="white"/>
<path d="M249 317C245.8 329.8 229 340.667 221.5 344C224.5 343 225 344 232.5 339.5C230.5 348.5 233.5 366.5 238 366.5C249.5 359.5 252.5 350.5 255 344C248 330 249 321.5 249 317Z" fill="#D55994"/>
<path d="M251 317C247.8 329.8 231 340.667 223.5 344C226.5 343 227 344 234.5 339.5C232.5 348.5 235.5 366.5 240 366.5C251.5 359.5 254.5 350.5 257 344C250 330 251 321.5 251 317Z" fill="white"/>
<path d="M219.006 313.001C211.505 319.501 197.693 320.933 189.505 321.5C192.666 321.587 198.005 322 202.005 321.501C197.047 329.274 192.323 329.519 193.505 351.001C206.664 348.364 212.249 341.947 216.814 336.703L216.857 336.653C215.068 321.103 217.467 317.23 219.006 313.001Z" fill="#D55994"/>
<path d="M221.006 314.001C213.505 320.501 199.693 321.933 191.505 322.5C194.666 322.587 200.005 323 204.005 322.501C199.047 330.274 194.323 330.519 195.505 352.001C208.664 349.364 214.249 342.947 218.814 337.703L218.857 337.653C217.068 322.103 219.467 318.23 221.006 314.001Z" fill="white"/>
<path d="M207.506 289.502C197.353 290.895 175.011 288.357 167.004 284C169.951 285.957 174.991 287.575 179.007 289.504C170.659 293.556 164.473 303.467 163.004 310.044C176.728 315.509 185.575 312.055 192.372 310.044C198.007 294.979 204.059 292.394 207.506 289.502Z" fill="#D55994"/>
<path d="M208.506 291.502C198.353 292.895 176.011 290.357 168.004 286C170.951 287.957 175.991 289.575 180.007 291.504C171.659 295.556 165.473 305.467 164.004 312.044C177.728 317.509 186.575 314.055 193.372 312.044C199.007 296.979 205.059 294.394 208.506 291.502Z" fill="white"/>
<path d="M343.162 240.567C329.501 238.5 322.001 239.964 318.501 239.964C319.026 239.155 325.614 233.639 328.501 229.5C330.852 226.13 333.271 222.767 334.501 218.5C340.501 216.5 341.525 215.959 347.501 215.499C354.002 214.999 361.921 216.657 364.501 217.5C364.001 220.5 361.501 227 357.501 231C353.741 234.758 346.976 238.921 343.162 240.567Z" fill="#D55994"/>
<path d="M343.166 238.567C329.505 236.5 322.005 237.964 318.505 237.964C319.03 237.155 325.618 231.639 328.505 227.5C330.856 224.13 333.275 220.767 334.505 216.5C340.505 214.5 341.529 213.959 347.505 213.499C354.005 212.999 361.925 214.657 364.505 215.5C364.005 218.5 361.505 225 357.505 229C353.745 232.758 346.98 236.921 343.166 238.567Z" fill="white"/>
<path d="M324.504 206C313.269 210.556 310.657 210.439 308.004 212C308.004 212 309.574 206.369 310.004 202C310.354 198.443 310.884 192.414 310.004 188.689C313.703 184.524 314.169 184.008 318.504 181C323.219 177.728 328.69 176.524 331.004 176C331.899 178.456 333.874 183.741 331.638 191.689C330.004 197.5 327.504 202 324.504 206Z" fill="#D55994"/>
<path d="M326.504 204C315.269 208.556 312.657 208.439 310.004 210C310.004 210 311.574 204.369 312.004 200C312.354 196.443 312.884 190.414 312.004 186.689C315.703 182.524 316.169 182.008 320.504 179C325.219 175.728 330.69 174.524 333.004 174C333.899 176.456 335.874 181.741 333.638 189.689C332.004 195.5 329.504 200 326.504 204Z" fill="white"/>
<path d="M295.502 189.5C289.503 195.12 280.502 204.5 278.396 210.5C278.396 210.5 278.681 199.372 277.591 195.12C276.704 191.658 275.14 185.811 273.038 182.612C275.089 177.433 275.351 176.788 278.396 172.479C281.708 167.792 289.008 161.784 291.003 160.5C292.684 162.502 294.885 167.767 295.502 176C295.915 181.5 296.002 187.5 295.502 189.5Z" fill="#D55994"/>
<path d="M297.502 189.5C291.503 195.12 282.502 204.5 280.396 210.5C280.396 210.5 280.681 199.372 279.591 195.12C278.704 191.658 277.14 185.811 275.038 182.612C277.089 177.433 277.351 176.788 280.396 172.479C283.708 167.792 291.008 161.784 293.003 160.5C294.684 162.502 296.885 167.767 297.502 176C297.915 181.5 298.002 187.5 297.502 189.5Z" fill="white"/>
<path d="M253.503 184.5C247.637 193.635 247.327 204.251 248.503 210.5C248.503 210.5 244.072 201.138 241.003 198C238.503 195.445 235.422 191.72 232.003 190C231.189 184.489 230.561 181.932 231.043 176.678C231.568 170.962 234.917 161.109 236.003 159C238.46 159.893 242.967 164.352 247.618 171.174C250.726 175.73 252.936 182.518 253.503 184.5Z" fill="#D55994"/>
<path d="M255.503 183.5C249.637 192.635 249.327 203.251 250.503 209.5C250.503 209.5 246.072 200.138 243.003 197C240.503 194.445 237.422 190.72 234.003 189C233.189 183.489 232.561 180.932 233.043 175.678C233.568 169.962 236.917 160.109 238.003 158C240.46 158.893 244.967 163.352 249.618 170.174C252.726 174.73 254.936 181.518 255.503 183.5Z" fill="white"/>
<path d="M214.003 187C213.503 197.5 213.261 206.53 216.503 212C216.503 212 216.461 212.399 212.503 210.5C209.28 208.954 207.003 208.5 203.503 207C199.003 203.13 193.847 197.103 192.504 192C191.042 186.45 191.204 176.854 191.503 174.5C194.117 174.499 200.803 175.58 207.507 180.4C211.985 183.619 212.792 185.332 214.003 187Z" fill="#D55994"/>
<path d="M216.003 185C215.503 195.5 215.261 204.53 218.503 210C218.503 210 218.461 210.399 214.503 208.5C211.28 206.954 209.003 206.5 205.503 205C201.003 201.13 195.847 195.103 194.504 190C193.042 184.45 193.204 174.854 193.503 172.5C196.117 172.499 202.803 173.58 209.507 178.4C213.985 181.619 214.792 183.332 216.003 185Z" fill="white"/>
<path d="M192.5 219C197.317 228.343 202.957 237.883 208.5 241C208.5 241 198.88 240 194.5 240C190 240 187.281 240.549 183.5 241C178.5 239.2 174.854 235.647 173 234C170.591 231.86 164.676 221.31 163.758 219.122C166.021 217.814 172.352 215.408 180.568 216.229C186.056 216.778 190.617 218.16 192.5 219Z" fill="#D55994"/>
<path d="M192.5 216C197.317 225.343 202.957 234.883 208.5 238C208.5 238 198.88 237 194.5 237C190 237 187.281 237.549 183.5 238C178.5 236.2 174.854 232.647 173 231C170.591 228.86 164.676 218.31 163.758 216.122C166.021 214.814 172.352 212.408 180.568 213.229C186.056 213.778 190.617 215.16 192.5 216Z" fill="white"/>
<path d="M176.002 254.5C180.002 257.5 182.002 260 190.502 264C190.502 264 184.757 266.693 181.502 268.5C178.158 270.355 178.615 270.617 176.002 272.5C171.502 273.269 165.003 271.5 160.002 269.499C157.475 268.488 151.638 264.192 150.003 263C151.114 261.127 154.039 259.298 160.503 256.5C167.503 253.47 174.002 254 176.002 254.5Z" fill="#D55994"/>
<path d="M176.002 252.5C180.002 255.5 182.002 258 190.502 262C190.502 262 184.757 264.693 181.502 266.5C178.158 268.355 178.615 268.617 176.002 270.5C171.502 271.269 165.003 269.5 160.002 267.499C157.475 266.488 151.638 262.192 150.003 261C151.114 259.127 154.039 257.298 160.503 254.5C167.503 251.47 174.002 252 176.002 252.5Z" fill="white"/>
<path d="M313.446 286.219C312.516 285.969 311.695 285.725 311 285.5C311.849 285.723 312.663 285.964 313.446 286.219C320.766 288.193 334.868 290.629 348 288.5C358.5 297 362 301 364 310.5C360 313.5 349.5 318 335.5 310.5C332.156 304.29 330.182 291.692 313.446 286.219Z" fill="#D55994"/>
<path d="M315.446 284.219C314.516 283.969 313.695 283.725 313 283.5C313.849 283.723 314.663 283.964 315.446 284.219C322.766 286.193 336.868 288.629 350 286.5C360.5 295 364 299 366 308.5C362 311.5 351.5 316 337.5 308.5C334.156 302.29 332.182 289.692 315.446 284.219Z" fill="white"/>
<path d="M289 366.5C280.2 363.3 274 350.833 272 345C274.5 341 278 327.5 276.5 314.5C278.99 329.44 297.847 339.915 306.891 344.939L307 345C301 343 301 342.5 294 340C296 345 292.5 361.5 289 366.5Z" fill="#D55994"/>
<path d="M292 366.5C283.2 363.3 277 350.833 275 345C277.5 341 281 327.5 279.5 314.5C281.99 329.44 300.847 339.915 309.891 344.939L310 345C304 343 304 342.5 297 340C299 345 295.5 361.5 292 366.5Z" fill="white"/>
<path d="M353.295 253C351.192 255.8 341.556 261.5 337 264C341.205 264 346.987 270.5 347.513 271.5C348.038 272.5 352.244 273 358.551 273C364.859 273 369.59 270 378 264C368.013 254.5 361.705 254 353.295 253Z" fill="#D55994"/>
<path d="M353.295 251C351.192 253.8 341.556 259.5 337 262C341.205 262 346.987 268.5 347.513 269.5C348.038 270.5 352.244 271 358.551 271C364.859 271 369.59 268 378 262C368.013 252.5 361.705 252 353.295 251Z" fill="white"/>
<path d="M330 328.5C326.096 321.309 312.38 315.499 307.5 314.5C311.404 318.495 311.5 333.009 311.5 340C315.404 346.991 329.008 351.452 333.887 350.953C334.375 345.46 334.88 337.489 330 328.5Z" fill="#D55994"/>
<path d="M333 328.5C329.096 321.309 315.38 315.499 310.5 314.5C314.404 318.495 314.5 333.009 314.5 340C318.404 346.991 332.008 351.452 336.887 350.953C337.375 345.46 337.88 337.489 333 328.5Z" fill="white"/>
</svg>
