<svg width="528" height="528" viewBox="0 0 528 528" fill="none" xmlns="http://www.w3.org/2000/svg">
<path d="M266.775 256.998C261.575 254.998 258.421 259.503 258.275 261.999C257.775 270.498 265.681 269.783 267.775 268.998C271.774 267.498 273.275 259.498 266.775 256.998Z" stroke="black" stroke-width="0.5"/>
<path d="M378.252 359.5C373.252 357 370.419 350.833 369.752 348C370.419 348 372.252 348.6 372.252 349C372.252 349.5 373.515 352.351 374.752 354C376.252 356 378.252 357.5 379.752 359C381.252 360.5 383.069 361.908 378.252 359.5Z" fill="#99A2D9"/>
<path d="M393.252 357C390.424 355.869 386.919 351.5 385.752 349.5C386.419 349.167 387.752 349 387.752 349C387.752 349 392.752 354.5 394.752 356C396.752 357.5 395.752 358 393.252 357Z" fill="#99A2D9"/>
<path d="M407.252 350.5C404.852 350.1 401.252 347.333 399.752 346L399.252 345.5C400.085 345.167 401.752 344.6 401.752 345C401.752 345.5 405.252 348.5 407.252 349C409.252 349.5 410.252 351 407.252 350.5Z" fill="#99A2D9"/>
<path d="M418.252 344C417.052 343.6 414.752 341.5 413.752 340.5L415.752 339.5C415.752 340 416.052 341.2 417.252 342C418.752 343 419.752 344.5 418.252 344Z" fill="#99A2D9"/>
<path d="M425.752 336.5C419.252 330.5 421.752 326 405.252 297C392.233 274.119 356.223 271.14 339.252 272.5C349.951 275.441 356.752 288.5 366.752 301.5C376.752 314.5 398.752 321.5 405.252 328C386.252 318.5 371.252 313.5 358.752 317C346.252 320.5 339.451 323 319.752 317C329.752 329.5 358.752 345 373.252 349C387.752 353 403.252 342.5 425.752 336.5Z" fill="#99A2D9"/>
<path d="M410.752 282C406.752 280.5 398.252 282.333 394.252 284L393.252 284.5L395.752 286L396.252 285.5C398.752 284 400.252 283.5 407.252 283.5C411.78 283.5 415.463 283.767 410.752 282Z" fill="#99A2D9"/>
<path d="M414.752 295C411.552 294.2 407.085 295.666 405.252 296.5L405.752 298.5C406.085 298.5 406.252 298.25 407.252 298C409.252 297.5 411.252 297.5 414.252 297.5C417.252 297.5 420.252 298 420.752 297.5C421.252 297 418.752 296 414.752 295Z" fill="#99A2D9"/>
<path d="M422.253 308.999C419.24 307.656 413.551 307.702 411.601 308.204L412.253 309.999C412.581 310.057 412.282 310.102 413.31 310.029C415.366 309.884 417.299 309.979 420.253 310.5C423.207 311.021 426.112 312.287 426.692 311.881C427.271 311.475 426.018 310.679 422.253 308.999Z" fill="#99A2D9"/>
<path d="M425.751 323.5C422.738 322.156 420.201 321.498 418.251 322L418.751 324C419.079 324.058 418.279 324.102 419.308 324.03C421.364 323.884 420.796 323.979 423.751 324.5C426.705 325.021 427.751 326 428.751 326C429.458 326 429.516 325.179 425.751 323.5Z" fill="#99A2D9"/>
<path d="M380.252 358.5C375.252 356 372.419 349.833 371.752 347C372.419 347 374.252 347.6 374.252 348C374.252 348.5 375.515 351.351 376.752 353C378.252 355 380.252 356.5 381.752 358C383.252 359.5 385.069 360.908 380.252 358.5Z" fill="white"/>
<path d="M395.252 356C392.424 354.869 388.919 350.5 387.752 348.5C388.419 348.167 389.752 348 389.752 348C389.752 348 394.752 353.5 396.752 355C398.752 356.5 397.752 357 395.252 356Z" fill="white"/>
<path d="M409.252 349.5C406.852 349.1 403.252 346.333 401.752 345L401.252 344.5C402.085 344.167 403.752 343.6 403.752 344C403.752 344.5 407.252 347.5 409.252 348C411.252 348.5 412.252 350 409.252 349.5Z" fill="white"/>
<path d="M420.252 343C419.052 342.6 416.752 340.5 415.752 339.5L417.752 338.5C417.752 339 418.052 340.2 419.252 341C420.752 342 421.752 343.5 420.252 343Z" fill="white"/>
<path d="M427.752 335.5C421.252 329.5 423.752 325 407.252 296C394.233 273.119 358.223 270.14 341.252 271.5C351.951 274.441 358.752 287.5 368.752 300.5C378.752 313.5 400.752 320.5 407.252 327C388.252 317.5 373.252 312.5 360.752 316C348.252 319.5 341.451 322 321.752 316C331.752 328.5 360.752 344 375.252 348C389.752 352 405.252 341.5 427.752 335.5Z" fill="white"/>
<path d="M412.752 281C408.752 279.5 400.252 281.333 396.252 283L395.252 283.5L397.752 285L398.252 284.5C400.752 283 402.252 282.5 409.252 282.5C413.78 282.5 417.463 282.767 412.752 281Z" fill="white"/>
<path d="M416.752 294C413.552 293.2 409.085 294.666 407.252 295.5L407.752 297.5C408.085 297.5 408.252 297.25 409.252 297C411.252 296.5 413.252 296.5 416.252 296.5C419.252 296.5 422.252 297 422.752 296.5C423.252 296 420.752 295 416.752 294Z" fill="white"/>
<path d="M424.253 307.999C421.24 306.656 415.551 306.702 413.601 307.204L414.253 308.999C414.581 309.057 414.282 309.102 415.31 309.029C417.366 308.884 419.299 308.979 422.253 309.5C425.207 310.021 428.112 311.287 428.692 310.881C429.271 310.475 428.018 309.679 424.253 307.999Z" fill="white"/>
<path d="M427.751 322.5C424.738 321.156 422.201 320.498 420.251 321L420.751 323C421.079 323.058 420.279 323.102 421.308 323.03C423.364 322.884 422.796 322.979 425.751 323.5C428.705 324.021 429.751 325 430.751 325C431.458 325 431.516 324.179 427.751 322.5Z" fill="white"/>
<path d="M353.135 149.181C350.635 154.181 344.468 157.014 341.635 157.681C341.635 157.014 342.235 155.181 342.635 155.181C343.135 155.181 345.986 153.918 347.635 152.681C349.635 151.181 351.135 149.181 352.635 147.681C354.135 146.181 355.543 144.364 353.135 149.181Z" fill="#99A2D9"/>
<path d="M350.635 134.181C349.503 137.009 345.135 140.514 343.135 141.681C342.801 141.014 342.635 139.681 342.635 139.681C342.635 139.681 348.135 134.681 349.635 132.681C351.135 130.681 351.635 131.681 350.635 134.181Z" fill="#99A2D9"/>
<path d="M344.134 120.181C343.734 122.581 340.967 126.181 339.634 127.681L339.134 128.181C338.8 127.347 338.234 125.681 338.634 125.681C339.134 125.681 342.134 122.181 342.634 120.181C343.134 118.181 344.634 117.181 344.134 120.181Z" fill="#99A2D9"/>
<path d="M337.635 109.181C337.235 110.381 335.135 112.681 334.135 113.681L333.135 111.681C333.635 111.681 334.835 111.381 335.635 110.181C336.635 108.681 338.135 107.681 337.635 109.181Z" fill="#99A2D9"/>
<path d="M290.557 122.036C319.452 105.507 323.936 108.011 329.914 101.5C335.892 124.039 346.354 139.566 342.369 154.091C338.383 168.617 326.543 192.477 309.605 205.5C316.579 185.465 316.081 180.456 312.594 167.935C309.106 155.413 314.088 138.884 323.554 119.851C317.077 126.363 309.605 150.404 295.041 160.603C281.631 169.993 273.178 176.751 270.248 187.469C270.127 185.949 270.008 184.283 269.907 182.499C268.882 164.321 269.796 133.911 290.557 122.036Z" fill="#99A2D9"/>
<path d="M275.634 116.681C274.134 120.681 275.967 129.181 277.634 133.181L278.134 134.181L279.634 131.681L279.134 131.181C277.634 128.681 277.134 127.181 277.134 120.181C277.134 115.653 277.401 111.97 275.634 116.681Z" fill="#99A2D9"/>
<path d="M288.634 112.681C287.834 115.881 289.3 120.347 290.134 122.181L292.134 121.681C292.134 121.347 291.884 121.181 291.634 120.181C291.134 118.181 291.134 116.181 291.134 113.181C291.134 110.181 291.634 107.181 291.134 106.681C290.634 106.181 289.634 108.681 288.634 112.681Z" fill="#99A2D9"/>
<path d="M302.633 105.181C301.29 108.193 301.336 113.883 301.838 115.833L303.633 115.181C303.691 114.852 303.735 115.152 303.663 114.124C303.518 112.067 303.613 110.135 304.134 107.181C304.655 104.226 305.92 101.321 305.515 100.742C305.109 100.163 304.313 101.415 302.633 105.181Z" fill="#99A2D9"/>
<path d="M317.135 101.681C315.791 104.693 315.132 107.23 315.635 109.181L317.635 108.681C317.693 108.353 317.737 109.152 317.664 108.124C317.519 106.068 317.614 106.635 318.135 103.681C318.656 100.726 319.635 99.6807 319.635 98.6808C319.635 97.9737 318.814 97.9153 317.135 101.681Z" fill="#99A2D9"/>
<path d="M355.135 147.181C352.635 152.181 346.468 155.014 343.635 155.681C343.635 155.014 344.235 153.181 344.635 153.181C345.135 153.181 347.986 151.918 349.635 150.681C351.635 149.181 353.135 147.181 354.635 145.681C356.135 144.181 357.543 142.364 355.135 147.181Z" fill="white"/>
<path d="M352.635 132.181C351.503 135.009 347.135 138.514 345.135 139.681C344.801 139.014 344.635 137.681 344.635 137.681C344.635 137.681 350.135 132.681 351.635 130.681C353.135 128.681 353.635 129.681 352.635 132.181Z" fill="white"/>
<path d="M346.134 118.181C345.734 120.581 342.967 124.181 341.634 125.681L341.134 126.181C340.8 125.347 340.234 123.681 340.634 123.681C341.134 123.681 344.134 120.181 344.634 118.181C345.134 116.181 346.634 115.181 346.134 118.181Z" fill="white"/>
<path d="M339.635 107.181C339.235 108.381 337.135 110.681 336.135 111.681L335.135 109.681C335.635 109.681 336.835 109.381 337.635 108.181C338.635 106.681 340.135 105.681 339.635 107.181Z" fill="white"/>
<path d="M292.557 120.036C321.452 103.507 325.936 106.011 331.914 99.5C337.892 122.039 348.354 137.566 344.369 152.091C340.383 166.617 328.543 190.477 311.605 203.5C318.579 183.465 318.081 178.456 314.594 165.935C311.106 153.413 316.088 136.884 325.554 117.851C319.077 124.363 311.605 148.404 297.041 158.603C283.631 167.993 275.178 174.751 272.248 185.469C272.127 183.949 272.008 182.283 271.907 180.499C270.882 162.321 271.796 131.911 292.557 120.036Z" fill="white"/>
<path d="M277.634 114.681C276.134 118.681 277.967 127.181 279.634 131.181L280.134 132.181L281.634 129.681L281.134 129.181C279.634 126.681 279.134 125.181 279.134 118.181C279.134 113.653 279.401 109.97 277.634 114.681Z" fill="white"/>
<path d="M290.634 110.681C289.834 113.881 291.3 118.347 292.134 120.181L294.134 119.681C294.134 119.347 293.884 119.181 293.634 118.181C293.134 116.181 293.134 114.181 293.134 111.181C293.134 108.181 293.634 105.181 293.134 104.681C292.634 104.181 291.634 106.681 290.634 110.681Z" fill="white"/>
<path d="M304.633 103.181C303.29 106.193 303.336 111.883 303.838 113.833L305.633 113.181C305.691 112.852 305.735 113.152 305.663 112.124C305.518 110.067 305.613 108.135 306.134 105.181C306.655 102.226 307.92 99.3213 307.515 98.7421C307.109 98.1629 306.313 99.4151 304.633 103.181Z" fill="white"/>
<path d="M319.135 99.6808C317.791 102.693 317.132 105.23 317.635 107.181L319.635 106.681C319.693 106.353 319.737 107.152 319.664 106.124C319.519 104.068 319.614 104.635 320.135 101.681C320.656 98.7265 321.635 97.6807 321.635 96.6808C321.635 95.9737 320.814 95.9153 319.135 99.6808Z" fill="white"/>
<path d="M248.086 118.604C250.309 123.733 248.516 130.278 247.205 132.877C246.694 132.448 245.676 130.81 245.933 130.504C246.254 130.121 247.119 127.125 247.232 125.067C247.368 122.57 246.8 120.136 246.615 118.023C246.43 115.909 245.944 113.663 248.086 118.604Z" fill="#99A2D9"/>
<path d="M236.989 112.877C238.428 115.562 238.305 121.161 237.913 123.443C237.188 123.27 236.06 122.541 236.06 122.541C236.06 122.541 235.765 115.114 235.197 112.679C234.629 110.244 235.716 110.504 236.989 112.877Z" fill="#99A2D9"/>
<path d="M219.121 100C220.702 101.849 222.646 113.14 222.938 115.126L223 115.83C222.147 115.55 220.506 114.912 220.763 114.606C221.085 114.223 220.332 106.669 219.121 105C217.91 103.331 217.144 97.6886 219.121 100Z" fill="#99A2D9"/>
<path d="M206.227 100.479C207.613 102.287 209.128 107.361 209.752 109.501L206.253 108.001C206.651 107.527 207.123 105.754 206.056 103.566C204.722 100.831 204.495 98.2176 206.227 100.479Z" fill="#99A2D9"/>
<path d="M195.915 103.69C197.038 112.464 188.225 113.82 186.229 147.126C184.7 172.642 206.2 191.642 217.698 203.143C211.393 194.014 215.199 180.143 216.698 163.144C218.139 146.806 206.957 132.536 206.156 123.379C214.604 142.869 222.288 153.702 234.699 162.142C247.199 170.642 247.466 168.883 258.699 186.141C259.073 170.138 255.736 145.026 247.199 132.642C238.663 120.257 217.008 113.557 195.915 103.69Z" fill="#99A2D9"/>
<path d="M177.666 147.552C179.603 150.222 183.968 151.97 185.908 152.51L186.81 150.656C186.555 150.442 186.267 150.526 185.34 150.075C183.486 149.172 181.954 147.887 179.656 145.958C177.358 144.03 175.381 141.719 174.677 141.78C173.973 141.842 175.245 144.215 177.666 147.552Z" fill="#99A2D9"/>
<path d="M178.918 132.007C180.362 134.973 184.75 138.594 186.567 139.463L187.221 137.669C187.007 137.413 187.265 137.572 186.431 136.967C184.762 135.756 183.343 134.441 181.415 132.143C179.486 129.845 178.075 127.008 177.37 126.946C176.666 126.885 177.113 128.3 178.918 132.007Z" fill="#99A2D9"/>
<path d="M185.754 116.5C185.754 118.499 187.754 122.167 189.254 124.001C189.587 123.834 190.154 123.301 189.754 122.501L189.75 122.493C189.251 121.495 188.751 120.496 187.754 119.001C186.254 116.501 185.754 114.438 185.754 116.5Z" fill="#99A2D9"/>
<path d="M191.754 107C191.754 109.4 192.754 111.333 193.254 112L193.753 113C194.42 112.167 195.553 110.5 194.753 110.5C193.753 110.5 191.754 104 191.754 107Z" fill="#99A2D9"/>
<path d="M250.086 118.604C252.309 123.733 250.516 130.278 249.205 132.877C248.694 132.448 247.676 130.81 247.933 130.504C248.254 130.121 249.119 127.125 249.232 125.067C249.368 122.57 248.8 120.136 248.615 118.023C248.43 115.909 247.944 113.663 250.086 118.604Z" fill="white"/>
<path d="M238.989 112.877C240.428 115.562 240.305 121.161 239.913 123.443C239.188 123.27 238.06 122.541 238.06 122.541C238.06 122.541 237.765 115.114 237.197 112.679C236.629 110.244 237.716 110.504 238.989 112.877Z" fill="white"/>
<path d="M221.121 100C222.702 101.849 224.646 113.14 224.938 115.126L225 115.83C224.147 115.55 222.506 114.912 222.763 114.606C223.085 114.223 222.332 106.669 221.121 105C219.91 103.331 219.144 97.6886 221.121 100Z" fill="white"/>
<path d="M208.227 100.479C209.613 102.287 211.128 107.361 211.752 109.501L208.253 108.001C208.651 107.527 209.123 105.754 208.056 103.566C206.722 100.831 206.495 98.2176 208.227 100.479Z" fill="white"/>
<path d="M197.915 103.69C199.038 112.464 190.225 113.82 188.229 147.126C186.7 172.642 208.2 191.642 219.698 203.143C213.393 194.014 217.199 180.143 218.698 163.144C220.139 146.806 208.957 132.536 208.156 123.379C216.604 142.869 224.288 153.702 236.699 162.142C249.199 170.642 249.466 168.883 260.699 186.141C261.073 170.138 257.736 145.026 249.199 132.642C240.663 120.257 219.008 113.557 197.915 103.69Z" fill="white"/>
<path d="M179.666 147.552C181.603 150.222 185.968 151.97 187.908 152.51L188.81 150.656C188.555 150.442 188.267 150.526 187.34 150.075C185.486 149.172 183.954 147.887 181.656 145.958C179.358 144.03 177.381 141.719 176.677 141.78C175.973 141.842 177.245 144.215 179.666 147.552Z" fill="white"/>
<path d="M180.918 132.007C182.362 134.973 186.75 138.594 188.567 139.463L189.221 137.669C189.007 137.413 189.265 137.572 188.431 136.967C186.762 135.756 185.343 134.441 183.415 132.143C181.486 129.845 180.075 127.008 179.37 126.946C178.666 126.885 179.113 128.3 180.918 132.007Z" fill="white"/>
<path d="M187.754 116.5C187.754 118.499 189.754 122.167 191.254 124.001C191.587 123.834 192.154 123.301 191.754 122.501L191.75 122.493C191.251 121.495 190.751 120.496 189.754 119.001C188.254 116.501 187.754 114.438 187.754 116.5Z" fill="white"/>
<path d="M193.754 107C193.754 109.4 194.754 111.333 195.254 112L195.753 113C196.42 112.167 197.553 110.5 196.753 110.5C195.753 110.5 193.754 104 193.754 107Z" fill="white"/>
<path d="M407.394 246.838C402.091 248.606 395.727 246.249 393.252 244.717C393.723 244.245 395.444 243.373 395.727 243.656C396.08 244.01 398.989 245.132 401.03 245.424C403.505 245.777 405.98 245.424 408.101 245.424C410.223 245.424 412.503 245.135 407.394 246.838Z" fill="#99A2D9"/>
<path d="M415.668 234.426C412.662 235.42 406.3 234.014 403.696 233.061C403.871 232.293 404.666 231.202 404.666 231.202C404.666 231.202 413.092 232.557 415.84 232.476C418.588 232.395 418.325 233.547 415.668 234.426Z" fill="#99A2D9"/>
<path d="M422.753 219.5C420.699 220.84 415.469 220.397 413.22 220.269L410.254 220.269C410.546 219.383 410.896 217.143 411.253 217.5C411.698 217.945 418.893 219.468 420.753 218.5C422.613 217.532 425.32 217.824 422.753 219.5Z" fill="#99A2D9"/>
<path d="M425.252 205.299C423.394 206.349 417.474 207.298 415.252 207.5L416.752 204C417.257 204.505 419.757 205.137 422.02 204.49C424.848 203.683 427.575 203.986 425.252 205.299Z" fill="#99A2D9"/>
<path d="M422.252 190.5C413.413 190.854 416.425 189.339 384.252 180.5C358.867 173.526 329.354 198.963 318.315 211.924C329.752 206 345.989 206.879 362.252 209C378.516 211.121 390.56 201 399.752 201C383.752 209 371.752 218 364.252 227C355.942 236.972 354.165 247.493 335.993 257.18C351.903 258.947 378.752 258 396.451 241.977C407.601 231.882 411.752 213.5 422.252 190.5Z" fill="#99A2D9"/>
<path d="M381.753 166C377.864 167.768 370.903 173.493 369.253 177.5L367.752 179.999L372.253 179.5L372.253 178.5C372.96 175.672 374.303 174.45 379.253 169.5C382.454 166.298 386.333 163.918 381.753 166Z" fill="#99A2D9"/>
<path d="M393.252 172.499C390.424 174.196 386.46 178.986 385.753 180.872L388.253 181.5C388.488 181.264 387.9 181.756 388.43 180.872C389.491 179.105 390.131 177.121 392.252 175C394.374 172.878 399.263 170.732 399.263 170.024C399.263 169.317 396.788 170.378 393.252 172.499Z" fill="#99A2D9"/>
<path d="M414.252 180.001C414.752 178.002 405.419 182.834 402.752 185.501L402.252 186L404.752 186.5L405.752 185C406.752 183.5 413.752 182 414.252 180.001Z" fill="#99A2D9"/>
<path d="M411.394 245.838C406.091 247.606 399.727 245.249 397.252 243.717C397.723 243.245 399.444 242.373 399.727 242.656C400.08 243.01 402.989 244.132 405.03 244.424C407.505 244.777 409.98 244.424 412.101 244.424C414.223 244.424 416.503 244.135 411.394 245.838Z" fill="white"/>
<path d="M419.668 233.426C416.662 234.42 410.3 233.014 407.696 232.061C407.871 231.293 408.666 230.202 408.666 230.202C408.666 230.202 417.092 231.557 419.84 231.476C422.588 231.395 422.325 232.547 419.668 233.426Z" fill="white"/>
<path d="M426.753 218.5C424.699 219.84 419.469 219.397 417.22 219.269L414.254 219.269C414.546 218.383 414.896 216.143 415.253 216.5C415.698 216.945 422.893 218.468 424.753 217.5C426.613 216.532 429.32 216.824 426.753 218.5Z" fill="white"/>
<path d="M429.252 204.299C427.394 205.349 421.474 206.298 419.252 206.5L420.752 203C421.257 203.505 423.757 204.137 426.02 203.49C428.848 202.683 431.575 202.986 429.252 204.299Z" fill="white"/>
<path d="M426.252 189.5C417.413 189.854 420.425 188.339 388.252 179.5C362.867 172.526 333.354 197.963 322.315 210.924C333.752 205 349.989 205.879 366.252 208C382.516 210.121 394.56 200 403.752 200C387.752 208 375.752 217 368.252 226C359.942 235.972 358.165 246.493 339.993 256.18C355.903 257.947 382.752 257 400.451 240.977C411.601 230.882 415.752 212.5 426.252 189.5Z" fill="white"/>
<path d="M385.753 165C381.864 166.768 374.903 172.493 373.253 176.5L371.752 178.999L376.253 178.5L376.253 177.5C376.96 174.672 378.303 173.45 383.253 168.5C386.454 165.298 390.333 162.918 385.753 165Z" fill="white"/>
<path d="M397.252 171.499C394.424 173.196 390.46 177.986 389.753 179.872L392.253 180.5C392.488 180.264 391.9 180.756 392.43 179.872C393.491 178.105 394.131 176.121 396.252 174C398.374 171.878 403.263 169.732 403.263 169.024C403.263 168.317 400.788 169.378 397.252 171.499Z" fill="white"/>
<path d="M418.252 179.001C418.752 177.002 409.419 181.834 406.752 184.501L406.252 185L408.752 185.5L409.752 184C410.752 182.5 417.752 181 418.252 179.001Z" fill="white"/>
<path d="M113.252 284C119.584 281.84 129.883 283.761 133.379 285.698C132.888 286.283 130.902 287.357 130.478 287.001C129.948 286.556 125.912 285.383 123.252 285C120.026 284.536 117.947 285.019 115.252 285C112.557 284.981 107.152 286.081 113.252 284Z" fill="#99A2D9"/>
<path d="M103.254 296.991C105.939 295.552 120.665 296.599 122.947 296.991C122.774 297.716 122.045 298.845 122.045 298.845C122.045 298.845 114.189 297.932 111.754 298.5C109.319 299.068 100.881 298.264 103.254 296.991Z" fill="#99A2D9"/>
<path d="M101.252 311C103.101 309.418 113.642 308.257 115.628 307.965L117.252 307.499C116.971 308.352 115.934 310.571 115.628 310.314C115.245 309.993 107.421 309.789 105.752 311C104.083 312.21 98.9406 312.976 101.252 311Z" fill="#99A2D9"/>
<path d="M98.2305 326.09C100.039 324.705 108.613 323.124 110.753 322.5L109.253 325.5C108.753 325 103.506 325.194 101.318 326.261C98.583 327.596 95.9695 327.822 98.2305 326.09Z" fill="#99A2D9"/>
<path d="M104.193 336.989C112.968 335.866 114.324 344.679 147.629 346.675C173.145 348.204 195.252 328.498 206.754 316.999C197.624 323.305 179.644 319.998 162.645 318.499C146.307 317.058 129.91 326.199 120.753 327C140.243 318.552 154.205 310.616 162.645 298.205C171.145 285.705 170.995 283.233 188.253 272C172.25 271.625 145.529 277.168 133.145 285.705C120.76 294.241 114.06 315.896 104.193 336.989Z" fill="#99A2D9"/>
<path d="M148.055 356.238C150.725 354.301 153.213 349.034 153.753 347.094L151.159 347.093C150.945 347.349 151.029 347.637 150.578 348.564C149.675 350.417 148.39 351.95 146.461 354.248C144.533 356.546 142.221 358.523 142.283 359.227C142.345 359.931 144.718 358.659 148.055 356.238Z" fill="#99A2D9"/>
<path d="M133.51 354.986C136.475 353.542 140.884 348.318 141.753 346.501L139.253 346C138.997 346.215 139.075 346.639 138.469 347.473C137.259 349.142 135.944 350.561 133.646 352.489C131.347 354.417 128.511 355.829 128.449 356.534C128.387 357.238 129.803 356.791 133.51 354.986Z" fill="#99A2D9"/>
<path d="M113.003 350.15C115.002 350.15 121.42 344.999 123.253 343.499C123.254 342 121.304 342.099 120.504 342.499C119.504 342.999 116.252 346 114.753 347C112.253 348.5 110.942 350.15 113.003 350.15Z" fill="#99A2D9"/>
<path d="M104.045 340.774C106.445 340.775 108.378 339.775 109.045 339.274L110.754 338C109.921 337.333 107.545 336.975 107.545 337.775C107.545 338.775 101.045 340.774 104.045 340.774Z" fill="#99A2D9"/>
<path d="M113.252 282C119.584 279.84 129.883 281.761 133.379 283.698C132.888 284.283 130.902 285.357 130.478 285.001C129.948 284.556 125.912 283.383 123.252 283C120.026 282.536 117.947 283.019 115.252 283C112.557 282.981 107.152 284.081 113.252 282Z" fill="white"/>
<path d="M103.254 294.991C105.939 293.552 120.665 294.599 122.947 294.991C122.774 295.716 122.045 296.845 122.045 296.845C122.045 296.845 114.189 295.932 111.754 296.5C109.319 297.068 100.881 296.264 103.254 294.991Z" fill="white"/>
<path d="M101.252 309C103.101 307.418 113.642 306.257 115.628 305.965L117.252 305.499C116.971 306.352 115.934 308.571 115.628 308.314C115.245 307.993 107.421 307.789 105.752 309C104.083 310.21 98.9406 310.976 101.252 309Z" fill="white"/>
<path d="M98.2305 324.09C100.039 322.705 108.613 321.124 110.753 320.5L109.253 323.5C108.753 323 103.506 323.194 101.318 324.261C98.583 325.596 95.9695 325.822 98.2305 324.09Z" fill="white"/>
<path d="M104.193 334.989C112.968 333.866 114.324 342.679 147.629 344.675C173.145 346.204 195.252 326.498 206.754 314.999C197.624 321.305 179.644 317.998 162.645 316.499C146.307 315.058 129.91 324.199 120.753 325C140.243 316.552 154.205 308.616 162.645 296.205C171.145 283.705 170.995 281.233 188.253 270C172.25 269.625 145.529 275.168 133.145 283.705C120.76 292.241 114.06 313.896 104.193 334.989Z" fill="white"/>
<path d="M148.055 354.238C150.725 352.301 153.213 347.034 153.753 345.094L151.159 345.093C150.945 345.349 151.029 345.637 150.578 346.564C149.675 348.417 148.39 349.95 146.461 352.248C144.533 354.546 142.221 356.523 142.283 357.227C142.345 357.931 144.718 356.659 148.055 354.238Z" fill="white"/>
<path d="M133.51 352.986C136.475 351.542 140.884 346.318 141.753 344.501L139.253 344C138.997 344.215 139.075 344.639 138.469 345.473C137.259 347.142 135.944 348.561 133.646 350.489C131.347 352.417 128.511 353.829 128.449 354.534C128.387 355.238 129.803 354.791 133.51 352.986Z" fill="white"/>
<path d="M113.003 348.15C115.002 348.15 121.42 342.999 123.253 341.499C123.254 340 121.304 340.099 120.504 340.499C119.504 340.999 116.252 344 114.753 345C112.253 346.5 110.942 348.15 113.003 348.15Z" fill="white"/>
<path d="M104.045 338.774C106.445 338.775 108.378 337.775 109.045 337.274L110.754 336C109.921 335.333 107.545 334.975 107.545 335.775C107.545 336.775 101.045 338.774 104.045 338.774Z" fill="white"/>
<path d="M174.251 383.5C177.5 377.652 181.232 376.847 185.074 375.744C185.141 376.505 184.496 378.668 183.944 378.716L183.937 378.717C183.245 378.778 181.895 378.896 179.751 380.5C177.142 382.452 176.67 383.608 174.751 385.5C172.831 387.392 171.751 388 174.251 383.5Z" fill="#99A2D9"/>
<path d="M176.751 404C177.182 400.984 183.361 394.837 185.251 393.5C185.642 394.135 185.751 396 185.751 396C185.751 396 184.071 396.877 182.751 399C181.431 401.123 176.251 407.5 176.751 404Z" fill="#99A2D9"/>
<path d="M182.753 416C182.942 413.574 187.055 408.61 188.253 407C188.658 407.801 189.151 408.965 188.753 409C188.255 409.044 186.077 410.964 185.753 413C185.429 415.036 182.516 419.032 182.753 416Z" fill="#99A2D9"/>
<path d="M187.783 425.16C188.082 422.901 190.181 419.454 191.252 417.5L191.752 420C191.045 420 190.544 420.698 189.752 423C188.761 425.877 187.409 427.983 187.783 425.16Z" fill="#99A2D9"/>
<path d="M193.752 428.5C199.163 421.502 211.79 428.139 236.752 406C255.876 389.039 256.75 352.763 256.752 336.5C254.755 347.414 241.332 357.54 228.252 368.5C215.681 379.034 209.161 400.958 203.252 408C208.652 386.623 216.421 372.637 213.613 357.894C210.784 343.045 208.93 341.403 213.191 321.256C201.61 332.308 186.635 355.121 183.914 369.915C181.193 384.708 185.252 405 193.752 428.5Z" fill="#99A2D9"/>
<path d="M246.752 407.999C246.752 405 245.788 399.253 244.798 397.5L243.689 399.499C243.718 399.832 243.916 400.025 244.252 400.999C244.925 402.948 244.991 403.511 245.252 406.499C245.514 409.488 245.71 411.045 246.251 411.5C246.793 411.954 246.752 412.122 246.752 407.999Z" fill="#99A2D9"/>
<path d="M235.253 421C236.328 417.882 236.423 409.899 235.753 408L233.868 409.23C233.839 409.562 234.194 409.807 234.356 410.825C234.679 412.861 234.753 414.795 234.492 417.783C234.23 420.772 233.677 424.318 233.677 424.318C233.677 424.318 233.908 424.898 235.253 421Z" fill="#99A2D9"/>
<path d="M218.252 431C220.387 428.865 221.551 420.132 221.787 417.775C221.252 418 220.535 417.89 220.252 418.738C219.898 419.799 219.742 424.239 218.752 426C216.223 430.5 216.794 432.458 218.252 431Z" fill="#99A2D9"/>
<path d="M205.276 429.432C206.973 427.735 207.633 425.661 207.751 424.836L208.058 422.726C206.998 422.844 205.065 424.271 205.63 424.836C206.337 425.544 203.155 431.553 205.276 429.432Z" fill="#99A2D9"/>
<path d="M175.251 381.5C178.5 375.652 182.232 374.847 186.074 373.744C186.141 374.505 185.496 376.668 184.944 376.716L184.937 376.717C184.245 376.778 182.895 376.896 180.751 378.5C178.142 380.452 177.67 381.608 175.751 383.5C173.831 385.392 172.751 386 175.251 381.5Z" fill="white"/>
<path d="M177.751 402C178.182 398.984 184.361 392.837 186.251 391.5C186.642 392.135 186.751 394 186.751 394C186.751 394 185.071 394.877 183.751 397C182.431 399.123 177.251 405.5 177.751 402Z" fill="white"/>
<path d="M183.753 414C183.942 411.574 188.055 406.61 189.253 405C189.658 405.801 190.151 406.965 189.753 407C189.255 407.044 187.077 408.964 186.753 411C186.429 413.036 183.516 417.032 183.753 414Z" fill="white"/>
<path d="M188.783 423.16C189.082 420.901 191.181 417.454 192.252 415.5L192.752 418C192.045 418 191.544 418.698 190.752 421C189.761 423.877 188.409 425.983 188.783 423.16Z" fill="white"/>
<path d="M195.752 426.5C201.163 419.502 213.79 426.139 238.752 404C257.876 387.039 258.75 350.763 258.752 334.5C256.755 345.414 243.332 355.54 230.252 366.5C217.681 377.034 211.161 398.958 205.252 406C210.652 384.623 218.421 370.637 215.613 355.894C212.784 341.045 210.93 339.403 215.191 319.256C203.61 330.308 188.635 353.121 185.914 367.915C183.193 382.708 187.252 403 195.752 426.5Z" fill="white"/>
<path d="M247.752 405.999C247.752 403 246.788 397.253 245.798 395.5L244.689 397.499C244.718 397.832 244.916 398.025 245.252 398.999C245.925 400.948 245.991 401.511 246.252 404.499C246.514 407.488 246.71 409.045 247.251 409.5C247.793 409.954 247.752 410.122 247.752 405.999Z" fill="white"/>
<path d="M236.253 419C237.328 415.882 237.423 407.899 236.753 406L234.868 407.23C234.839 407.562 235.194 407.807 235.356 408.825C235.679 410.861 235.753 412.795 235.492 415.783C235.23 418.772 234.677 422.318 234.677 422.318C234.677 422.318 234.908 422.898 236.253 419Z" fill="white"/>
<path d="M219.252 429C221.387 426.865 222.551 418.132 222.787 415.775C222.252 416 221.535 415.89 221.252 416.738C220.898 417.799 220.742 422.239 219.752 424C217.223 428.5 217.794 430.458 219.252 429Z" fill="white"/>
<path d="M206.276 427.432C207.973 425.735 208.633 423.661 208.751 422.836L209.058 420.726C207.998 420.844 206.065 422.271 206.63 422.836C207.337 423.544 204.155 429.553 206.276 427.432Z" fill="white"/>
<path d="M139.752 170.5C142.152 172.1 147.752 176.833 150.252 179H148.252C147.419 178 144.952 175.5 141.752 173.5C137.752 171 133.252 167 131.252 164.5C129.252 162 132.252 164 132.752 164.5C133.252 165 136.752 168.5 139.752 170.5Z" fill="#99A2D9"/>
<path d="M119.215 172.397C121.615 172.797 130.361 180.197 131.861 181.53L132.361 182.03C131.528 182.364 129.861 182.93 129.861 182.53C129.861 182.03 124.429 176.727 122.429 176.227C120.429 175.727 116.215 171.897 119.215 172.397Z" fill="#99A2D9"/>
<path d="M108.645 180.053C110.869 180.548 115.291 183.461 117.145 184.698L113.5 185.799C113.5 185.18 112.722 183.518 110.498 182.528C107.718 181.291 105.865 179.434 108.645 180.053Z" fill="#99A2D9"/>
<path d="M101.252 189.5C107.752 195.5 102.43 203.845 122.309 230.641C137.539 251.171 172.551 255.58 188.752 257C180.252 252.5 172.53 240.486 162.752 226.5C153.354 213.058 127.252 204.5 120.752 198C139.752 207.5 151.82 211.013 166.752 209.5C181.791 207.977 187.553 203.5 207.252 209.5C197.252 197 174.205 184.355 159.705 180.355C145.205 176.355 123.752 183.5 101.252 189.5Z" fill="#99A2D9"/>
<path d="M113.252 234C116.452 234.8 122.919 233.333 124.752 232.5L123.023 230.972C122.69 230.972 122.523 231.222 121.523 231.472C119.523 231.972 117.523 231.972 114.523 231.972C111.523 231.972 108.523 231.472 108.023 231.972C107.523 232.472 109.252 233 113.252 234Z" fill="#99A2D9"/>
<path d="M105.991 216.758C109.004 218.102 114.693 218.056 116.643 217.553L115.991 215.758C115.663 215.7 115.963 215.656 114.934 215.729C112.878 215.874 110.946 215.779 107.991 215.258C105.037 214.737 102.132 213.471 101.553 213.877C100.973 214.282 102.226 215.079 105.991 216.758Z" fill="#99A2D9"/>
<path d="M98.2506 200.999C100.126 203.235 104.341 204.362 105.405 204.528L107.751 205C107.823 203.616 106.728 201.037 105.86 201.765C104.775 202.676 95.9062 198.205 98.2506 200.999Z" fill="#99A2D9"/>
<path d="M140.752 168.5C143.152 170.1 148.752 174.833 151.252 177H149.252C148.419 176 145.952 173.5 142.752 171.5C138.752 169 134.252 165 132.252 162.5C130.252 160 133.252 162 133.752 162.5C134.252 163 137.752 166.5 140.752 168.5Z" fill="white"/>
<path d="M120.215 170.397C122.615 170.797 131.361 178.197 132.861 179.53L133.361 180.03C132.528 180.364 130.861 180.93 130.861 180.53C130.861 180.03 125.429 174.727 123.429 174.227C121.429 173.727 117.215 169.897 120.215 170.397Z" fill="white"/>
<path d="M109.645 178.053C111.869 178.548 116.291 181.461 118.145 182.698L114.5 183.799C114.5 183.18 113.722 181.518 111.498 180.528C108.718 179.291 106.865 177.434 109.645 178.053Z" fill="white"/>
<path d="M102.252 187.5C108.752 193.5 103.43 201.845 123.309 228.641C138.539 249.171 173.551 253.58 189.752 255C181.252 250.5 173.53 238.486 163.752 224.5C154.354 211.058 128.252 202.5 121.752 196C140.752 205.5 152.82 209.013 167.752 207.5C182.791 205.977 188.553 201.5 208.252 207.5C198.252 195 175.205 182.355 160.705 178.355C146.205 174.355 124.752 181.5 102.252 187.5Z" fill="white"/>
<path d="M113.252 232C116.452 232.8 122.919 231.333 124.752 230.5L123.023 228.972C122.69 228.972 122.523 229.222 121.523 229.472C119.523 229.972 117.523 229.972 114.523 229.972C111.523 229.972 108.523 229.472 108.023 229.972C107.523 230.472 109.252 231 113.252 232Z" fill="white"/>
<path d="M106.991 214.758C110.004 216.102 115.693 216.056 117.643 215.553L116.991 213.758C116.663 213.7 116.963 213.656 115.934 213.729C113.878 213.874 111.946 213.779 108.991 213.258C106.037 212.737 103.132 211.471 102.553 211.877C101.973 212.282 103.226 213.079 106.991 214.758Z" fill="white"/>
<path d="M99.2506 198.999C101.126 201.235 105.341 202.362 106.405 202.528L108.751 203C108.823 201.616 107.728 199.037 106.86 199.765C105.775 200.676 96.9062 196.205 99.2506 198.999Z" fill="white"/>
<path d="M289.405 417.297C288.454 414.403 289.548 408.91 290.33 406.73C291.014 407.027 291.998 407.941 291.998 407.941C291.998 407.941 290.999 415.307 291.136 417.803C291.272 420.299 290.246 419.855 289.405 417.297Z" fill="#99A2D9"/>
<path d="M304.384 424.843C303.148 422.747 302.953 418.211 303.011 416.205L303.072 415.501C303.863 415.925 305.369 416.837 305.062 417.094C304.679 417.416 304.631 422.025 305.533 423.879C306.436 425.732 305.93 427.462 304.384 424.843Z" fill="#99A2D9"/>
<path d="M332.499 428.516C332.918 419.68 332.142 421.28 343.751 390C352.911 365.319 325.751 330.5 311.251 320C315.876 330.086 318.04 339.168 315.251 355.5C311.751 376 324.552 398.343 323.751 407.5C318.815 386.839 310.251 378.5 299.751 368C290.573 358.821 278.317 354.947 270.251 336C267.104 351.695 274.722 381.22 280.751 395C287.751 411 309.751 419.5 332.499 428.516Z" fill="#99A2D9"/>
<path d="M358.108 386.494C356.686 382.465 349.818 377.132 345.97 375.139L344.945 374.694L345.402 377.574L346.107 377.635C348.863 378.586 350.21 379.414 354.71 384.776C357.62 388.245 359.783 391.238 358.108 386.494Z" fill="#99A2D9"/>
<path d="M350.72 397.914C349.276 394.949 345.282 392.47 343.465 391.601L342.254 393.27C342.468 393.525 342.767 393.492 343.601 394.098C345.27 395.308 346.555 396.84 348.484 399.138C350.412 401.437 351.957 404.056 352.662 404.118C353.366 404.179 352.525 401.621 350.72 397.914Z" fill="#99A2D9"/>
<path d="M344.252 411.5C342.615 408.637 340.39 404.671 338.752 403.5L337.752 405.5C337.919 405.789 338.535 406.759 339.252 407.5C340.685 408.982 341.49 410.338 341.752 411C342.857 413.789 345.068 415.817 345.751 416C346.434 416.183 346.252 415 344.252 411.5Z" fill="#99A2D9"/>
<path d="M336.752 424C335.952 423.2 334.419 420 333.752 418.5C333.585 419 333.252 420.1 333.252 420.5C333.252 421 335.252 424 336.752 425.5C338.252 427 337.752 425 336.752 424Z" fill="#99A2D9"/>
<path d="M289.403 414.297C288.452 411.403 289.546 405.91 290.328 403.73C291.012 404.027 291.997 404.941 291.997 404.941C291.997 404.941 290.997 412.307 291.134 414.803C291.27 417.299 290.244 416.855 289.403 414.297Z" fill="white"/>
<path d="M304.382 421.843C303.146 419.747 302.951 415.211 303.009 413.205L303.07 412.501C303.861 412.925 305.367 413.837 305.06 414.094C304.677 414.416 304.629 419.025 305.531 420.879C306.434 422.732 305.928 424.462 304.382 421.843Z" fill="white"/>
<path d="M332.497 425.516C332.916 416.68 332.14 418.28 343.749 387C352.909 362.319 325.749 327.5 311.249 317C315.874 327.086 318.038 336.168 315.249 352.5C311.749 373 324.55 395.343 323.749 404.5C318.813 383.839 310.249 375.5 299.749 365C290.571 355.821 278.315 351.947 270.25 333C267.102 348.695 274.72 378.22 280.749 392C287.749 408 309.749 416.5 332.497 425.516Z" fill="white"/>
<path d="M358.106 383.494C356.684 379.465 349.816 374.132 345.968 372.139L344.943 371.694L345.401 374.574L346.105 374.635C348.861 375.586 350.208 376.414 354.708 381.776C357.618 385.245 359.781 388.238 358.106 383.494Z" fill="white"/>
<path d="M350.718 394.914C349.274 391.949 345.28 389.47 343.463 388.601L342.252 390.27C342.466 390.525 342.765 390.492 343.599 391.098C345.268 392.308 346.553 393.84 348.482 396.138C350.41 398.437 351.955 401.056 352.66 401.118C353.364 401.179 352.524 398.621 350.718 394.914Z" fill="white"/>
<path d="M344.25 408.5C342.613 405.637 340.388 401.671 338.75 400.5L337.75 402.5C337.917 402.789 338.533 403.759 339.25 404.5C340.683 405.982 341.488 407.338 341.75 408C342.855 410.789 345.067 412.817 345.75 413C346.433 413.183 346.25 412 344.25 408.5Z" fill="white"/>
<path d="M336.75 421C335.95 420.2 334.417 417 333.75 415.5C333.583 416 333.25 417.1 333.25 417.5C333.25 418 335.25 421 336.75 422.5C338.25 424 337.75 422 336.75 421Z" fill="white"/>
<path d="M315.47 430.252C314.234 428.156 314.039 423.62 314.096 421.614L314.158 420.91C314.949 421.334 316.454 422.246 316.148 422.504C315.765 422.825 315.717 427.434 316.619 429.288C317.522 431.141 317.015 432.872 315.47 430.252Z" fill="#99A2D9"/>
<path d="M316.47 430.252C315.234 428.156 315.039 423.62 315.096 421.614L315.158 420.91C315.949 421.334 317.454 422.246 317.148 422.504C316.765 422.825 316.717 427.434 317.619 429.288C318.522 431.141 318.015 432.872 316.47 430.252Z" fill="white"/>
<path d="M284.752 204.5C280.352 206.9 276.585 211.333 275.752 213C276.752 202 273.252 193.5 266.252 193C258.752 193 255.252 204 254.752 211.5C248.752 207.5 244.752 200 241.252 200C237.752 207.5 238.752 212.5 239.252 218.5C230.752 212.5 225.752 211 220.752 212.5C209.752 216 218.752 229.5 221.752 233.5C216.752 233 208.252 235 204.252 237C208.752 245 212.752 249.5 216.252 252C205.752 252 197.252 257 197.252 262.5C197.752 273 210.752 272.5 217.252 272.5C209.752 277 204.752 285.5 202.752 288.5C208.252 290 215.752 290.5 222.752 291C219.252 294.5 215.252 301 215.252 307.5C216.752 319.5 231.252 309 236.252 305.5C235.252 309.5 236.752 321.5 236.752 327C242.752 323.5 247.752 318 255.252 312C254.252 325.5 262.252 333 266.752 333C271.252 333 275.252 323 275.752 316C278.752 320 286.752 324 290.752 326C292.752 322.5 293.252 313.5 292.752 307.5C293.752 308 302.752 314 311.752 312C320.752 310 308.752 295.5 306.752 292.5C318.752 292 322.752 288.5 326.252 287.5C325.252 284 316.252 276.5 310.752 273.5C319.752 272.5 323.252 271.5 329.752 266.5C337.252 257 321.252 253 314.252 252C319.752 249 325.752 240.5 327.252 238C324.752 237 315.752 235 308.752 234.5C314.252 227.5 317.252 221.5 316.252 217C312.252 205 299.752 214.5 294.752 217.5C296.252 212.5 293.252 201 292.252 199C291.252 200 290.252 201.5 284.752 204.5Z" fill="#99A2D9"/>
<path d="M286.752 204.5C282.352 206.9 278.585 211.333 277.752 213C278.752 202 275.252 193.5 268.252 193C260.752 193 257.252 204 256.752 211.5C250.752 207.5 246.752 200 243.252 200C239.752 207.5 240.752 212.5 241.252 218.5C232.752 212.5 227.752 211 222.752 212.5C211.752 216 220.752 229.5 223.752 233.5C218.752 233 210.252 235 206.252 237C210.752 245 214.752 249.5 218.252 252C207.752 252 199.252 257 199.252 262.5C199.752 273 212.752 272.5 219.252 272.5C211.752 277 206.752 285.5 204.752 288.5C210.252 290 217.752 290.5 224.752 291C221.252 294.5 217.252 301 217.252 307.5C218.752 319.5 233.252 309 238.252 305.5C237.252 309.5 238.752 321.5 238.752 327C244.752 323.5 249.752 318 257.252 312C256.252 325.5 264.252 333 268.752 333C273.252 333 277.252 323 277.752 316C280.752 320 288.752 324 292.752 326C294.752 322.5 295.252 313.5 294.752 307.5C295.752 308 304.752 314 313.752 312C322.752 310 310.752 295.5 308.752 292.5C320.752 292 324.752 288.5 328.252 287.5C327.252 284 318.252 276.5 312.752 273.5C321.752 272.5 325.252 271.5 331.752 266.5C339.252 257 323.252 253 316.252 252C321.752 249 327.752 240.5 329.252 238C326.752 237 317.752 235 310.752 234.5C316.252 227.5 319.252 221.5 318.252 217C314.252 205 301.752 214.5 296.752 217.5C298.252 212.5 295.252 201 294.252 199C293.252 200 292.252 201.5 286.752 204.5Z" fill="white"/>
<path d="M283.252 217.5C279.252 219.5 272.919 231.333 270.252 237C269.252 229 269.752 215.5 265.752 207.5C262.252 212 261.752 228 261.252 237C259.252 228.5 253.752 222 249.752 216V225C249.752 231.5 249.752 233.5 250.752 240C243.752 233 237.252 226.5 229.752 225C230.752 231 241.252 243 244.752 247C241.252 244.5 228.252 244.5 222.752 244C224.252 247 238.252 256 240.252 258C229.852 258 217.419 260.833 213.252 262.5C214.085 262.667 217.352 263.5 217.752 263.5C222.752 263.5 233.252 269 240.252 269.5C233.752 272.5 225.752 279.5 221.752 283C231.252 282.5 231.752 282 242.752 279C235.152 285 229.585 296.833 227.752 302C243.752 295 247.252 288 250.752 285C249.752 288.5 247.252 303 248.252 307.5C254.752 305 260.252 289.5 260.252 289C260.252 288.5 261.752 284.5 261.752 292C261.752 299.5 263.252 310.5 265.752 316.5C268.252 314 268.252 295.5 268.252 289.5C269.852 292.7 278.252 302.5 282.252 307C281.252 295.5 277.252 289.5 277.252 287.5C277.252 287 276.252 284 278.752 286.5C281.252 289 291.252 297.5 298.752 300C296.252 295.5 287.252 283 283.252 277.5C285.752 278.5 294.252 281 305.252 283C304.052 279.8 292.752 271.667 287.252 268C293.252 268 308.252 266 312.252 264.5C308.752 261.5 304.252 260.5 287.252 256.5C290.252 254.5 301.252 248.5 308.252 243C305.452 242.6 290.419 245.5 283.252 247C285.252 245 299.252 233 301.252 226.5C296.752 226.5 287.252 233.5 278.752 241C280.752 236.5 284.752 216 283.252 217.5Z" fill="#FAA759"/>
<path d="M264.775 256.998C259.575 254.998 256.421 259.503 256.275 261.999C255.775 270.498 263.681 269.783 265.775 268.998C269.774 267.498 271.275 259.498 264.775 256.998Z" fill="#99A2D9"/>
<path d="M265.775 255.998C260.575 253.998 257.421 258.503 257.275 260.999C256.775 269.498 264.681 268.783 266.775 267.998C270.774 266.498 272.275 258.498 265.775 255.998Z" fill="white"/>
<path d="M237.252 180.5C239.252 183.5 242.252 187.5 245.752 191C240.952 189.8 233.752 194.5 230.752 197C230.597 197.128 230.252 197.5 230.252 197C230.252 196.5 229.752 195.5 229.752 194C229.752 192.5 226.752 184.5 226.252 183C225.752 181.5 225.752 180 226.252 180.5C226.652 180.9 229.419 189.333 230.752 193.5C231.252 194 231.752 193 232.752 192.5C233.646 192.052 231.123 186.036 228.752 177.5C226.252 168.5 229.252 173.5 230.252 175.5C231.252 177.5 236.752 189 237.252 189.5C237.752 190 238.252 189 239.752 188.5C237.752 186.5 234.752 178 233.752 175.5C232.752 173 235.252 177.5 237.252 180.5Z" fill="#99A2D9"/>
<path d="M237.252 179.5C239.252 182.5 242.252 186.5 245.752 190C240.952 188.8 233.752 193.5 230.752 196C230.597 196.128 230.252 196.5 230.252 196C230.252 195.5 229.752 194.5 229.752 193C229.752 191.5 226.752 183.5 226.252 182C225.752 180.5 225.752 179 226.252 179.5C226.652 179.9 229.419 188.333 230.752 192.5C231.252 193 231.752 192 232.752 191.5C233.646 191.052 231.123 185.036 228.752 176.5C226.252 167.5 229.252 172.5 230.252 174.5C231.252 176.5 236.752 188 237.252 188.5C237.752 189 238.252 188 239.752 187.5C237.752 185.5 234.752 177 233.752 174.5C232.752 172 235.252 176.5 237.252 179.5Z" fill="white"/>
<path d="M303.252 184.5C302.239 187.96 301.818 191.5 301.818 196.744C299.652 192.295 291.424 189.801 287.58 189.11C287.382 189.073 286.369 188.821 286.752 188.5C287.135 188.179 288.086 187.379 289.235 186.415C290.385 185.451 294.424 178.935 295.252 177.588C296.08 176.24 297.565 175.297 297.503 176.001C297.454 176.565 293.587 183.3 291.252 187C291.19 187.704 291.287 187.304 292.313 187.749C293.23 188.147 295.682 183.805 299.877 176C305.252 166 303.141 174.448 302.252 176.5C301.363 178.551 297.565 188.564 297.504 189.268C297.442 189.972 298.529 189.713 299.877 190.54C300.123 187.723 303.98 178.374 305.252 176.001C306.524 173.628 304.264 181.04 303.252 184.5Z" fill="#99A2D9"/>
<path d="M303.252 183.5C302.239 186.96 301.818 190.5 301.818 195.744C299.652 191.295 291.424 188.801 287.58 188.11C287.382 188.073 286.369 187.821 286.752 187.5C287.135 187.179 288.086 186.379 289.235 185.415C290.385 184.451 294.424 177.935 295.252 176.588C296.08 175.24 297.565 174.297 297.503 175.001C297.454 175.565 293.587 182.3 291.252 186C291.19 186.704 291.287 186.304 292.313 186.749C293.23 187.147 295.682 182.805 299.877 175C305.252 165 303.141 173.448 302.252 175.5C301.363 177.551 297.565 187.564 297.504 188.268C297.442 188.972 298.529 188.713 299.877 189.54C300.123 186.723 303.98 177.374 305.252 175.001C306.524 172.628 304.264 180.04 303.252 183.5Z" fill="white"/>
<path d="M343.752 237C340.752 239 338.622 239.483 335.252 243.5C336.452 238.7 332.188 231.673 329.688 228.673C329.56 228.518 328.945 227.674 329.445 227.674C329.945 227.674 328.752 227.674 330.252 227.674C331.752 227.674 343.598 224.001 345.098 223.501C346.598 223.001 350.778 223.231 350.278 223.731C349.878 224.131 338.023 228.084 333.857 229.417C333.357 229.917 333.688 229.673 334.188 230.673C334.635 231.567 338.022 230.956 346.252 227.674C356.798 223.468 351.033 227.444 349.033 228.444C347.033 229.444 337.688 234.673 337.188 235.173C336.688 235.673 337.688 236.173 338.188 237.673C340.188 235.673 348.252 233 350.752 232C353.252 231 346.752 235 343.752 237Z" fill="#99A2D9"/>
<path d="M343.752 236C340.752 238 338.622 238.483 335.252 242.5C336.452 237.7 332.188 230.673 329.688 227.673C329.56 227.518 328.945 226.674 329.445 226.674C329.945 226.674 328.752 226.674 330.252 226.674C331.752 226.674 343.598 223.001 345.098 222.501C346.598 222.001 350.778 222.231 350.278 222.731C349.878 223.131 338.023 227.084 333.857 228.417C333.357 228.917 333.688 228.673 334.188 229.673C334.635 230.567 338.022 229.956 346.252 226.674C356.798 222.468 351.033 226.444 349.033 227.444C347.033 228.444 337.688 233.673 337.188 234.173C336.688 234.673 337.688 235.173 338.188 236.673C340.188 234.673 348.252 232 350.752 231C353.252 230 346.752 234 343.752 236Z" fill="white"/>
<path d="M336.751 302.5C333.29 301.487 331.251 300.5 326.251 299.5C330.699 297.334 334.198 289.182 334.889 285.338C334.926 285.141 335.177 284.127 335.499 284.51C335.82 284.893 335.053 283.979 336.017 285.128C336.981 286.277 347.409 292.991 348.757 293.818C350.104 294.646 352.614 297.997 351.91 297.935C351.346 297.886 340.45 292.835 336.751 290.5C336.046 290.438 336.461 290.975 336.017 292C335.619 292.918 337.447 293.74 345.251 297.935C355.251 303.31 347.932 301.39 345.88 300.5C343.828 299.611 335.593 296.562 334.889 296.5C334.184 296.438 332.078 297.153 331.251 298.5C334.068 298.747 346.384 303.728 348.757 305.001C351.13 306.273 340.211 303.513 336.751 302.5Z" fill="#99A2D9"/>
<path d="M336.751 301.5C333.29 300.487 331.251 299.5 326.251 298.5C330.699 296.334 334.198 288.182 334.889 284.338C334.926 284.141 335.177 283.127 335.499 283.51C335.82 283.893 335.053 282.979 336.017 284.128C336.981 285.277 347.409 291.991 348.757 292.818C350.104 293.646 352.614 296.997 351.91 296.935C351.346 296.886 340.45 291.835 336.751 289.5C336.046 289.438 336.461 289.975 336.017 291C335.619 291.918 337.447 292.74 345.251 296.935C355.251 302.31 347.932 300.39 345.88 299.5C343.828 298.611 335.593 295.562 334.889 295.5C334.184 295.438 332.078 296.153 331.251 297.5C334.068 297.747 346.384 302.728 348.757 304.001C351.13 305.273 340.211 302.513 336.751 301.5Z" fill="white"/>
<path d="M290.753 342.499C289.022 339.336 288.543 337.196 284.919 333.21C289.596 334.823 296.547 332.229 299.753 330C299.919 329.886 301.915 328.535 301.872 329.033C301.828 329.531 301.198 330.39 301.068 331.884C300.937 333.378 304.886 342.462 305.253 344C305.621 345.537 305.708 346.542 305.253 346C304.889 345.567 300.718 338.267 299.753 334C299.253 333.21 297.753 334.5 297.127 334.812C296.232 335.258 299.57 339.756 302.123 348.241C305.393 359.113 301.575 352.58 300.753 350.5C299.931 348.421 293.708 337.542 293.253 337C292.799 336.459 290.699 335.67 289.161 336.038C290.979 338.204 295.475 345.922 296.253 348.5C297.031 351.078 293.216 347 290.753 342.499Z" fill="#99A2D9"/>
<path d="M291.753 342.499C290.022 339.336 289.543 337.196 285.919 333.21C290.596 334.823 297.547 332.229 300.753 330C300.919 329.886 302.915 328.535 302.872 329.033C302.828 329.531 302.198 330.39 302.068 331.884C301.937 333.378 305.886 342.462 306.253 344C306.621 345.537 306.708 346.542 306.253 346C305.889 345.567 301.718 338.267 300.753 334C300.253 333.21 298.753 334.5 298.127 334.812C297.232 335.258 300.57 339.756 303.123 348.241C306.393 359.113 302.575 352.58 301.753 350.5C300.931 348.421 294.708 337.542 294.253 337C293.799 336.459 291.699 335.67 290.161 336.038C291.979 338.204 296.475 345.922 297.253 348.5C298.031 351.078 294.216 347 291.753 342.499Z" fill="white"/>
<path d="M185.971 290.123C188.971 288.123 190.096 286.958 193.752 283.001C192.552 287.801 196.707 294.999 199.207 297.999C199.335 298.154 200.855 300.025 200.355 300.025C199.855 300.025 198.945 299.473 197.445 299.473C195.945 299.473 188.252 302 186.752 302.5C185.252 303 179.752 304 180.252 303.5C180.652 303.1 191.056 299.681 195.222 298.347C195.966 297.78 194.55 296.399 194.184 295.802C193.662 294.95 192.847 296.852 184.252 299.001C174.252 301.501 176.751 299.347 178.751 298.347C180.751 297.347 191.167 292.634 191.667 292.134C192.167 291.634 192.769 289.473 192.269 287.973C190.269 289.973 183.252 293.501 180.752 294.501C178.252 295.501 181.702 292.969 185.971 290.123Z" fill="#99A2D9"/>
<path d="M186.971 290.123C189.971 288.123 191.096 286.958 194.752 283.001C193.552 287.801 197.707 294.999 200.207 297.999C200.335 298.154 201.855 300.025 201.355 300.025C200.855 300.025 199.945 299.473 198.445 299.473C196.945 299.473 189.252 302 187.752 302.5C186.252 303 180.752 304 181.252 303.5C181.652 303.1 192.056 299.681 196.222 298.347C196.966 297.78 195.55 296.399 195.184 295.802C194.662 294.95 193.847 296.852 185.252 299.001C175.252 301.501 177.751 299.347 179.751 298.347C181.751 297.347 192.167 292.634 192.667 292.134C193.167 291.634 193.769 289.473 193.269 287.973C191.269 289.973 184.252 293.501 181.752 294.501C179.252 295.501 182.702 292.969 186.971 290.123Z" fill="white"/>
<path d="M191.253 225C194.788 225.707 196.358 226.61 201.741 226.396C197.499 228.942 195.606 235.611 195.253 239.5C195.234 239.7 195.606 244.354 195.253 244C194.899 243.646 192.99 241.92 191.929 240.86C190.869 239.799 184.418 235.942 183.004 235.235C181.589 234.528 176.993 231.346 177.7 231.346C178.266 231.346 188.04 236.285 191.929 238.288C192.856 238.413 192.832 236.435 192.995 235.755C193.229 234.782 191.308 235.551 183.71 230.993C174.871 225.689 175.579 224.793 177.7 225.5C179.822 226.207 193.102 231.381 193.809 231.381C194.516 231.381 196.47 230.279 197.177 228.864C194.348 228.864 182.728 225.061 180.253 224C177.779 222.94 186.222 223.994 191.253 225Z" fill="#99A2D9"/>
<path d="M192.253 225C195.788 225.707 197.358 226.61 202.741 226.396C198.499 228.942 196.606 235.611 196.253 239.5C196.234 239.7 196.606 244.354 196.253 244C195.899 243.646 193.99 241.92 192.929 240.86C191.869 239.799 185.418 235.942 184.004 235.235C182.589 234.528 177.993 231.346 178.7 231.346C179.266 231.346 189.04 236.285 192.929 238.288C193.856 238.413 193.832 236.435 193.995 235.755C194.229 234.782 192.308 235.551 184.71 230.993C175.871 225.689 176.579 224.793 178.7 225.5C180.822 226.207 194.102 231.381 194.809 231.381C195.516 231.381 197.47 230.279 198.177 228.864C195.348 228.864 183.728 225.061 181.253 224C178.779 222.94 187.222 223.994 192.253 225Z" fill="white"/>
<path d="M225.252 335.923C226.273 332.465 226.229 332.307 226.016 326.923C228.561 331.166 234.061 332.366 239.752 334C240.252 334.144 241.106 333.646 240.752 334C240.398 334.354 240.252 334.5 239.239 335.923C238.368 337.144 235.959 344.142 235.252 345.556C234.545 346.971 233.371 350.134 233.371 349.426C233.371 348.861 234.868 340.588 236.871 336.699C236.996 335.772 235.018 335.796 234.338 335.633C233.365 335.399 233.463 338.859 229.964 346.999C225.481 357.431 227.545 345.621 228.252 343.5C228.959 341.379 229.964 335.526 229.964 334.819C229.964 334.112 228.862 332.158 227.448 331.451C227.448 334.28 225.313 342.525 224.252 345C223.191 347.475 223.752 341 225.252 335.923Z" fill="#99A2D9"/>
<path d="M225.252 334.923C226.273 331.465 226.229 331.307 226.016 325.923C228.561 330.166 234.061 331.366 239.752 333C240.252 333.144 241.106 332.646 240.752 333C240.398 333.354 240.252 333.5 239.239 334.923C238.368 336.144 235.959 343.142 235.252 344.556C234.545 345.971 233.371 349.134 233.371 348.426C233.371 347.861 234.868 339.588 236.871 335.699C236.996 334.772 235.018 334.796 234.338 334.633C233.365 334.399 233.463 337.859 229.964 345.999C225.481 356.431 227.545 344.621 228.252 342.5C228.959 340.379 229.964 334.526 229.964 333.819C229.964 333.112 228.862 331.158 227.448 330.451C227.448 333.28 225.313 341.525 224.252 344C223.191 346.475 223.752 340 225.252 334.923Z" fill="white"/>
<path fill-rule="evenodd" clip-rule="evenodd" d="M244.751 96.5005C193.251 60 161.751 100 163.251 130C150.414 130 148.79 125.124 146.345 117.78L146.251 117.5C143.988 110.708 145.751 89 157.251 74C167.135 61.108 178.127 55.6028 183.243 53.0404C184.08 52.6214 184.76 52.2811 185.251 52C185.639 54.7153 184.823 55.9259 181.403 61.0015L181.403 61.0015C180.415 62.4684 179.209 64.258 177.751 66.5C171.72 75.7788 173.438 82.0442 175.314 88.8912L175.314 88.8913C175.46 89.4234 175.607 89.9591 175.751 90.5C175.812 90.4694 175.875 90.4389 175.94 90.4077C176.929 89.9277 178.251 89.2861 178.251 86C178.251 82.796 179.089 81.687 181.532 78.4539L181.533 78.4538C181.758 78.1551 181.998 77.8383 182.251 77.5C185.251 73.5 189.251 67.5 190.251 65.5C192.181 66.5526 194.049 67.1744 195.921 67.7972C199.383 68.9494 202.857 70.1053 206.751 74C212.275 79.5237 214.685 80.6887 215.702 81.18C215.974 81.3113 216.146 81.3946 216.251 81.5C216.751 82 217.751 79 214.251 71C210.766 63.0345 200.837 59.5302 192.361 56.5388L192.251 56.5C185.451 54.1 186.751 51.8333 188.251 51C255.751 51 255.251 87.5 244.751 96.5005ZM164.752 84.5C164.752 86.5 168.251 93.9997 170.251 97.4997C170.251 99.8331 168.252 101 166.752 100.5C163.252 97.4997 162.252 93 162.751 85.9997C163.251 78.9997 164.752 81.7287 164.752 84.5ZM224.253 82C224.325 77.9259 221.25 69.7292 220.253 68.0009C218.87 65.6062 214.226 56.6098 226.252 68.5004C231.309 73.5 231.938 79.5705 230.253 84C229.753 84.5 225.417 84.0162 224.253 82Z" fill="#99A2D9"/>
<path fill-rule="evenodd" clip-rule="evenodd" d="M246.751 98.5005C195.251 62 163.751 102 165.251 132C152.414 132 150.79 127.124 148.345 119.78L148.251 119.5C145.988 112.708 147.751 91 159.251 76C169.135 63.108 180.127 57.6028 185.243 55.0404C186.08 54.6214 186.76 54.2811 187.251 54C187.639 56.7153 186.823 57.9259 183.403 63.0015L183.403 63.0015C182.415 64.4684 181.209 66.258 179.751 68.5C173.72 77.7788 175.438 84.0442 177.314 90.8912L177.314 90.8913C177.46 91.4234 177.607 91.9591 177.751 92.5C177.812 92.4694 177.875 92.4389 177.94 92.4077C178.929 91.9277 180.251 91.2861 180.251 88C180.251 84.796 181.089 83.687 183.532 80.4539L183.533 80.4538C183.758 80.1551 183.998 79.8383 184.251 79.5C187.251 75.5 191.251 69.5 192.251 67.5C194.181 68.5526 196.049 69.1744 197.921 69.7972C201.383 70.9494 204.857 72.1053 208.751 76C214.275 81.5237 216.685 82.6887 217.702 83.18C217.974 83.3113 218.146 83.3946 218.251 83.5C218.751 84 219.751 81 216.251 73C212.766 65.0345 202.837 61.5302 194.361 58.5388L194.251 58.5C187.451 56.1 188.751 53.8333 190.251 53C257.751 53 257.251 89.5 246.751 98.5005ZM222.253 70.0009C223.25 71.7292 226.325 79.9259 226.253 84C227.417 86.0162 231.753 86.5 232.253 86C233.938 81.5705 233.308 75.5 228.252 70.5004C216.226 58.6098 220.87 67.6062 222.253 70.0009ZM172.252 99.4997C170.252 95.9997 166.752 88.5 166.752 86.5C166.752 83.7287 165.251 80.9997 164.752 87.9997C164.252 95 165.252 99.4997 168.752 102.5C170.252 103 172.252 101.833 172.252 99.4997Z" fill="white"/>
<path fill-rule="evenodd" clip-rule="evenodd" d="M366.252 136.5C355.753 77.4999 307.253 81.4999 281.753 98.9999C274.253 91.9999 273.846 87.352 276.752 80.0001C278.136 76.4998 285.302 63.5987 303.753 59.5C322.204 55.4014 334.753 54.9995 335.752 57.4999C333.885 60.5024 331.302 63.0842 321.753 65.9995C312.705 68.7615 310.775 76.264 309.366 81.7444L309.366 81.7444C308.998 83.1736 308.666 84.4652 308.252 85.4993C311.253 85.9995 314.503 83.181 316.753 80.4999C319.003 77.8187 322.753 75.3159 326.253 74.4995C330.173 73.585 332.609 72.4506 334.48 71.5792L334.48 71.579C334.933 71.3682 335.352 71.1727 335.752 70.9995C336.666 73.3333 337.772 75.2104 338.913 77.147C340.624 80.0509 342.414 83.0884 343.753 87.9995C345.253 93.4995 348.046 95.4995 348.753 95.4995C349.753 95.4995 351.753 91.9995 351.753 86.4995C351.753 79.8286 350.058 77.3944 344.252 70.4993C336.253 60.9995 337.568 57.1739 339.253 57.4997C394.252 90.0002 389.253 129 366.252 136.5ZM303.326 72.604C302.041 74.1362 299.901 82.1307 299.183 86.0975C297.683 87.885 295.401 87.4934 294.574 86.1462C293.821 81.5982 295.947 77.5084 300.83 72.467C305.712 67.4258 305.108 70.481 303.326 72.604ZM354.752 99.4996C357.426 96.4251 358.905 93.843 359.251 91.8778C359.732 89.1548 362.784 77.1221 364.252 91.0004C365.002 98.0825 363.252 100.934 359.252 105.5C358.548 105.562 354.347 101.792 354.752 99.4996Z" fill="#99A2D9"/>
<path d="M368.752 114.5C367.952 116.1 366.085 117.167 365.252 117.5C364.752 117.73 365.752 118.5 366.752 118.5C367.752 118.5 368.252 117.5 368.752 114.5Z" fill="#FDBD6C"/>
<path d="M285.252 88.4996C285.077 90.2457 286 92.0107 286.484 92.6749C286.759 93.0997 285.594 93.3156 284.813 92.8649C284.033 92.4143 284.143 91.323 285.252 88.4996Z" fill="#FDBD6C"/>
<path d="M304.326 70.6042C303.04 72.1364 300.9 80.131 300.183 84.0977C298.683 85.8852 296.401 85.4936 295.573 84.1464C294.821 79.5984 296.947 75.5086 301.829 70.4672C306.712 65.426 306.107 68.4812 304.326 70.6042Z" fill="white"/>
<path fill-rule="evenodd" clip-rule="evenodd" d="M282.753 96.9999C308.253 79.4999 356.753 75.4999 367.252 134.5C390.253 127 395.252 88.0002 340.253 55.4997C338.568 55.1739 337.253 58.9995 345.252 68.4993C351.058 75.3944 352.753 77.8286 352.753 84.4995C352.753 89.9995 350.753 93.4995 349.753 93.4995C349.046 93.4995 346.253 91.4995 344.753 85.9995C343.414 81.0884 341.624 78.0509 339.913 75.147C338.772 73.2104 337.666 71.3333 336.752 68.9995C336.353 69.1726 335.933 69.368 335.481 69.5787L335.48 69.579L335.48 69.5792C333.609 70.4506 331.173 71.585 327.253 72.4995C323.753 73.3159 320.003 75.8187 317.753 78.4999C315.503 81.181 312.253 83.9995 309.252 83.4993C309.666 82.4652 309.998 81.1736 310.366 79.7444L310.366 79.7444C311.775 74.264 313.705 66.7615 322.753 63.9995C332.302 61.0842 334.885 58.5024 336.752 55.4999C335.753 52.9995 323.204 53.4014 304.753 57.5C286.302 61.5987 279.136 74.4998 277.752 78.0001C274.846 85.352 275.253 89.9999 282.753 96.9999ZM355.752 97.4996C358.426 94.4251 359.905 91.843 360.251 89.8778C360.732 87.1548 363.784 75.1221 365.252 89.0004C366.002 96.0825 364.252 98.9338 360.252 103.5C359.548 103.562 355.347 99.7924 355.752 97.4996ZM369.752 112.5C368.952 114.1 367.085 115.167 366.252 115.5C365.752 115.73 366.752 116.5 367.752 116.5C368.752 116.5 369.252 115.5 369.752 112.5ZM287.484 90.6749C287 90.0107 286.077 88.2457 286.252 86.4996C285.143 89.323 285.033 90.4143 285.813 90.8649C286.594 91.3156 287.759 91.0997 287.484 90.6749Z" fill="white"/>
<path fill-rule="evenodd" clip-rule="evenodd" d="M390.144 367.196C449.144 356.697 447.753 302.5 426.754 274.5C433.706 267.051 441.297 270.052 448.603 272.941L448.753 273C452.253 274.384 465.09 285.908 467.143 304.697C469.253 324 466.254 343.698 463.753 344.697C461.79 343.476 461.075 340.367 460 335.691C459.432 333.217 458.762 330.304 457.753 327C454.884 317.6 449.274 315.884 444.59 314.451C443.59 314.145 442.633 313.852 441.753 313.5C441.439 315.385 442.479 316.625 443.684 318.063C444.398 318.915 445.17 319.836 445.753 321C447.753 325 449.436 328.501 450.253 332.001C450.77 334.218 451.046 336.063 451.278 337.61C451.555 339.46 451.768 340.883 452.253 342C449.07 343.247 446.438 343.659 443.374 344.139C440.823 344.539 437.972 344.986 434.253 346C428.753 347.5 426.753 351.293 426.753 352C426.753 353 435.253 355 440.753 355C446.617 355 449.512 352.682 451.485 351.103C451.757 350.885 452.011 350.682 452.253 350.5C462.188 343.049 463.079 346.315 462.753 348C433.253 403.5 393.753 390 390.144 367.196ZM455.253 311.501C451.421 308.579 447.793 307.294 444.465 306.114C443.885 305.909 443.315 305.707 442.754 305.5C441.254 303.712 442.242 300.115 443.712 299.534C448.322 299.582 452.261 302.193 456.097 308.07C461.614 316.52 458.335 313.93 456.009 312.091L456.008 312.091C455.739 311.878 455.482 311.675 455.253 311.501ZM431.471 360.857C431.808 360.907 432.112 360.953 432.376 360.999C432.698 361.056 433.138 361.116 433.643 361.185C437.407 361.7 444.775 362.707 433.753 366.499C427.019 368.817 421.71 366.197 417.144 362.197C417.082 361.493 420.851 357.292 423.144 357.697C425.806 360.011 429.305 360.534 431.471 360.857Z" fill="#99A2D9"/>
<path fill-rule="evenodd" clip-rule="evenodd" d="M392.144 366.199C451.144 355.7 449.753 301.503 428.754 273.503C435.706 266.054 443.297 269.055 450.603 271.944L450.753 272.003C454.254 273.387 467.09 284.911 469.144 303.7C471.254 323.003 468.254 342.701 465.753 343.7C463.79 342.479 463.075 339.37 462 334.694C461.432 332.22 460.762 329.307 459.754 326.003C456.884 316.603 451.274 314.887 446.59 313.454C445.59 313.148 444.633 312.855 443.753 312.503C443.439 314.388 444.479 315.628 445.684 317.066C446.398 317.918 447.17 318.838 447.753 320.003C449.753 324.003 451.436 327.504 452.253 331.004C452.77 333.221 453.046 335.066 453.278 336.613C453.555 338.463 453.768 339.886 454.253 341.003C451.07 342.25 448.438 342.662 445.374 343.142H445.374L445.374 343.142C442.823 343.542 439.972 343.989 436.253 345.003C430.753 346.503 428.753 350.296 428.753 351.003C428.753 352.003 437.253 354.003 442.753 354.003C448.617 354.003 451.512 351.685 453.485 350.106L453.486 350.105L453.487 350.104C453.758 349.887 454.011 349.684 454.253 349.503C464.188 342.052 465.079 345.318 464.753 347.003C435.253 402.503 395.753 389.003 392.144 366.199ZM457.253 310.504C453.421 307.582 449.793 306.297 446.465 305.117C445.885 304.912 445.315 304.71 444.754 304.503C443.254 302.715 444.242 299.118 445.712 298.537C450.322 298.585 454.261 301.196 458.097 307.073C463.614 315.523 460.335 312.933 458.009 311.094L458.009 311.094L458.008 311.093L458.007 311.093C457.738 310.88 457.482 310.678 457.253 310.504ZM433.472 359.86L433.472 359.86L433.473 359.86C433.809 359.91 434.112 359.956 434.376 360.002C434.698 360.059 435.138 360.119 435.642 360.188L435.643 360.188C439.407 360.703 446.775 361.71 435.753 365.502C429.019 367.82 423.71 365.2 419.144 361.2C419.082 360.496 422.852 356.295 425.144 356.7C427.806 359.014 431.305 359.537 433.472 359.86ZM413.143 372.697C411.543 371.897 410.476 370.031 410.143 369.197C409.912 368.697 409.143 369.697 409.143 370.697C409.143 371.697 410.143 372.197 413.143 372.697ZM443.069 287.501C443.773 287.077 447.028 286.674 448.752 287.001C446.037 285.649 442.769 284.763 442.252 285.501C441.735 286.239 442.622 287.738 443.069 287.501Z" fill="white"/>
<path fill-rule="evenodd" clip-rule="evenodd" d="M279.753 429.999C324.253 462.499 363.253 428.998 367.253 395.998C377.498 396.539 381.254 403 383.753 410.5C384.943 414.071 386.326 435.35 373.253 449.001C359.822 463.025 342.126 474.774 339.753 473.501C339.253 470.001 344.669 461.344 350.111 452.972C355.467 444.732 353.175 439.331 351.262 434.823C350.854 433.86 350.463 432.938 350.167 432.038C348.522 433.009 348.24 434.603 347.913 436.45C347.72 437.545 347.511 438.728 346.993 439.923C346.085 442.017 345.13 443.947 344.213 445.8L344.213 445.8C343.333 447.578 342.487 449.285 341.753 450.999C340.476 453.978 338.893 456.415 337.665 458.306C336.998 459.332 336.436 460.197 336.084 460.901C333.809 459.66 332.156 459.178 330.507 458.696C328.171 458.014 325.841 457.334 321.753 454.499C320.257 453.461 318.798 452.168 317.392 450.922C314.395 448.265 311.635 445.818 309.253 446.499C306.664 447.239 310.718 454.188 314.253 458.401C318.541 463.511 323.318 465.431 325.753 465.999C337.847 468.82 338.752 474.666 337.252 475.499C284.753 473.999 264.604 447.422 279.753 429.999ZM304.252 456.499C303.255 454.771 302.276 450.266 302.348 446.192C301.184 444.175 296.752 443.999 296.252 444.499C296.124 450.568 296.32 456.308 302.424 459.977C308.778 463.796 306.527 460.177 304.915 457.587C304.668 457.19 304.436 456.817 304.252 456.499ZM356.527 433.568C357.771 436.82 359.159 440.449 359.376 445.094C359.397 445.537 359.394 446.079 359.391 446.634C359.375 449.55 359.358 452.829 362.753 443.999C365.458 436.963 362.678 429.061 359.752 425.499C358.362 424.746 356.157 429.201 355.752 431.499C355.995 432.175 356.257 432.862 356.527 433.568Z" fill="#99A2D9"/>
<path fill-rule="evenodd" clip-rule="evenodd" d="M280.16 431.498C324.66 463.998 363.66 430.497 367.66 397.497C377.905 398.039 381.661 404.499 384.16 411.999C385.35 415.57 386.733 436.849 373.66 450.5C360.229 464.524 342.533 476.273 340.16 475C339.66 471.5 345.076 462.843 350.518 454.472C355.874 446.231 353.582 440.831 351.669 436.322C351.261 435.36 350.87 434.438 350.574 433.537C348.929 434.508 348.647 436.102 348.32 437.949C348.127 439.044 347.918 440.227 347.4 441.422C346.492 443.516 345.537 445.446 344.62 447.299L344.62 447.299L344.62 447.299C343.74 449.077 342.894 450.784 342.16 452.498C340.883 455.477 339.3 457.914 338.072 459.805C337.405 460.831 336.843 461.697 336.491 462.4C334.216 461.159 332.563 460.677 330.914 460.196C328.578 459.514 326.248 458.834 322.16 455.998C320.664 454.961 319.205 453.668 317.799 452.421C314.802 449.764 312.042 447.318 309.66 447.998C307.071 448.738 311.125 455.687 314.66 459.9C318.948 465.01 323.725 466.93 326.16 467.498C338.254 470.319 339.159 476.165 337.659 476.998C285.16 475.498 265.011 448.921 280.16 431.498ZM359.783 446.593C359.566 441.949 358.178 438.319 356.934 435.067L356.934 435.066L356.933 435.065C356.664 434.361 356.401 433.674 356.159 432.998C356.564 430.7 358.769 426.246 360.159 426.998C363.085 430.561 365.865 438.462 363.16 445.499C359.765 454.328 359.782 451.05 359.798 448.134L359.798 448.134C359.801 447.578 359.804 447.036 359.783 446.593ZM302.755 447.691C302.683 451.765 303.662 456.27 304.659 457.998C304.843 458.316 305.075 458.689 305.322 459.086L305.322 459.086L305.322 459.086C306.934 461.676 309.185 465.295 302.831 461.476C296.727 457.807 296.531 452.067 296.659 445.998C297.159 445.498 301.591 445.675 302.755 447.691ZM288.157 444.179C287.742 442.439 288.486 440.422 288.91 439.631C289.145 439.133 287.884 439.187 287.118 439.83C286.352 440.472 286.612 441.56 288.157 444.179ZM365.716 413.504C366.493 413.77 368.895 416.004 369.752 417.535C369.042 414.586 367.621 411.513 366.723 411.592C365.825 411.67 365.247 413.313 365.716 413.504Z" fill="white"/>
<path fill-rule="evenodd" clip-rule="evenodd" d="M160.125 397.264C173.324 450.764 224.476 452.209 248.752 429.5C255.251 439 254.176 444.5 252.328 449.176C250.944 452.677 238.326 469.867 219.537 471.92C215.455 472.367 211.924 472.787 208.884 473.149L208.884 473.149C197.548 474.499 193.04 475.036 192.252 473.064C194.119 470.061 195.706 468.416 205.255 465.501C214.489 462.682 216.308 456.293 217.728 451.308C218.062 450.135 218.374 449.04 218.755 448.087C215.754 447.587 212.752 448.176 209.252 451C205.771 453.808 202.252 456.232 198.752 458C195.861 459.46 195.059 459.705 194.294 459.937C193.879 460.064 193.475 460.187 192.752 460.5C189.752 457.144 185.485 451.686 183.252 443.5C183.005 442.592 182.793 441.753 182.598 440.976L182.598 440.976C181.608 437.046 181.027 434.74 178.252 433.501C175.793 432.403 175.751 436 175.751 441.5C175.751 448.171 180.252 455.144 181.752 457.144C189.204 467.08 191.437 473.39 189.752 473.064C137.751 449.23 137.322 400.873 160.125 397.264ZM169.444 441.498C169.499 441.187 169.559 440.743 169.633 440.203C170.022 437.336 170.776 431.779 173.026 429.192C173.43 426.899 170.148 423.915 169.444 423.977C165.445 428.543 162.383 434.98 165.251 441.499C169.447 451.035 169.402 447.607 169.358 444.235C169.344 443.187 169.33 442.144 169.444 441.498ZM224.316 450.329C223.907 453.103 223.465 456.098 221.252 459C219.572 461.204 219.807 462.499 223.708 460.34C230.304 456.689 233.253 448.849 233.302 444.239C232.721 442.769 226.752 444.999 225.252 445.999C224.757 447.341 224.542 448.802 224.316 450.329Z" fill="#99A2D9"/>
<path fill-rule="evenodd" clip-rule="evenodd" d="M161.125 395.264C174.324 448.764 225.476 450.209 249.752 427.5C256.251 437 255.176 442.5 253.328 447.176C251.944 450.677 239.326 467.867 220.537 469.92C216.455 470.367 212.924 470.787 209.884 471.149L209.884 471.149C198.548 472.499 194.04 473.036 193.252 471.064C195.119 468.061 196.706 466.416 206.255 463.501C215.489 460.682 217.308 454.293 218.728 449.308C219.062 448.135 219.374 447.04 219.755 446.087C216.754 445.587 213.752 446.176 210.252 449C206.771 451.808 203.252 454.232 199.752 456C196.861 457.46 196.059 457.705 195.294 457.937C194.879 458.064 194.475 458.187 193.752 458.5C190.752 455.144 186.485 449.686 184.252 441.5C184.005 440.592 183.793 439.753 183.598 438.976L183.598 438.976C182.608 435.046 182.027 432.74 179.252 431.501C176.793 430.403 176.751 434 176.751 439.5C176.751 446.171 181.252 453.144 182.752 455.144C190.204 465.08 192.437 471.39 190.752 471.064C138.751 447.23 138.322 398.873 161.125 395.264ZM222.252 457C224.465 454.097 224.907 451.103 225.316 448.328C225.542 446.802 225.757 445.341 226.253 443.999C227.753 442.999 233.721 440.769 234.302 442.239C234.254 446.849 231.304 454.688 224.709 458.339C220.807 460.499 220.572 459.204 222.252 457ZM170.632 438.203C170.559 438.743 170.499 439.187 170.444 439.499C170.33 440.145 170.344 441.187 170.357 442.236C170.402 445.607 170.446 449.035 166.251 439.499C163.383 432.981 166.445 426.544 170.444 421.977C171.148 421.916 174.43 424.899 174.026 427.192C171.775 429.78 171.021 435.336 170.632 438.203Z" fill="white"/>
<path fill-rule="evenodd" clip-rule="evenodd" d="M99.7396 278C67.2396 322.5 101.24 368.001 134.24 372C134.24 384 125.51 386.911 120.74 388.5C117.169 389.69 101.239 392.499 87.2402 380.5C72.4972 367.863 66.4669 354.372 67.74 352C69.9358 351.686 71.5029 352.511 74.6259 354.154C76.4809 355.13 78.8848 356.395 82.2955 357.882C89.3018 360.937 92.6972 359.074 96.0721 357.222C97.2466 356.577 98.4187 355.934 99.7396 355.5C98.1938 352.879 98.1522 352.866 93.7396 352C90.1825 351.301 87.5327 350.122 84.7369 348.877L84.7368 348.877C84.0835 348.587 83.4222 348.292 82.7396 348C80.9985 347.254 80.2681 346.7 79.5705 346.171C79.0663 345.789 78.5793 345.419 77.7402 345C78.3824 340.545 79.4141 336.981 82.2955 329C82.7512 327.737 83.2694 326.554 83.7473 325.463C84.7838 323.096 85.6307 321.163 85.2396 319.794C84.4999 317.205 83.219 316.464 79.0057 320C73.8956 324.288 71.7398 331.5 71.7398 334.5C71.7398 346.919 66.2667 350.5 65.4333 349C45.74 292 82.3169 262.851 99.7396 278ZM70.7402 312.5C71.0915 312.297 71.454 312.049 71.8429 311.782C73.367 310.738 75.2961 309.417 78.542 309.474C80.5583 308.31 80.7403 303 80.2404 302.5C74.1716 302.372 71.694 303.402 68.544 309.789C65.1845 316.601 66.9577 315.262 69.0357 313.694C69.615 313.257 70.2181 312.801 70.7402 312.5ZM98.4039 364.108C96.676 365.248 95.0488 366.322 91.2393 366.5C88.471 366.629 85.2895 368.722 89.74 369C97.7393 369.501 100.678 368.926 104.24 366C104.993 364.609 102.97 363.007 101.239 362.5C100.099 362.989 99.2394 363.556 98.4039 364.108Z" fill="#99A2D9"/>
<path d="M120.252 373C120.652 371.8 119.085 372.5 118.252 373C117.585 374.167 116.052 376.8 115.252 378C114.252 379.5 119.752 374.5 120.252 373Z" fill="#F7974B"/>
<path d="M89.752 291C90.14 289.448 86.252 290.001 84.252 291.001C84.752 291.5 86.152 292.5 87.752 292.5C89.752 292.5 89.252 293 89.752 291Z" fill="#F7974B"/>
<path fill-rule="evenodd" clip-rule="evenodd" d="M100.729 276C68.2286 320.5 102.229 366.001 135.229 370C135.229 382 126.499 384.911 121.729 386.5C118.158 387.69 102.228 390.499 88.2292 378.5C73.4861 365.863 67.4558 352.372 68.7289 350C70.9247 349.686 72.4918 350.511 75.6148 352.154C77.4698 353.13 79.8737 354.395 83.2844 355.882C90.2907 358.937 93.6861 357.074 97.061 355.222C98.2355 354.577 99.4076 353.934 100.729 353.5C99.1827 350.879 99.1411 350.866 94.7285 350C91.1714 349.301 88.5217 348.122 85.7259 346.877L85.7257 346.877L85.7255 346.877L85.7253 346.877C85.0722 346.587 84.411 346.292 83.7285 346C81.9874 345.254 81.257 344.7 80.5594 344.171L80.5594 344.171C80.0552 343.789 79.5682 343.419 78.7292 343C79.3713 338.545 80.403 334.981 83.2844 327C83.7401 325.737 84.2583 324.554 84.7362 323.463C85.7727 321.096 86.6196 319.163 86.2285 317.794C85.4888 315.205 84.2079 314.464 79.9946 318C74.8845 322.288 72.7287 329.5 72.7287 332.5C72.7287 344.919 67.2556 348.5 66.4223 347C46.7289 290 83.3058 260.851 100.729 276ZM76.7292 310.5C77.0804 310.297 77.4429 310.049 77.8318 309.782C79.356 308.738 81.285 307.417 84.5309 307.474C86.5472 306.31 86.7293 301 86.2293 300.5C80.1605 300.372 77.6829 301.402 74.5329 307.789C71.1734 314.601 72.9466 313.262 75.0246 311.694C75.604 311.257 76.207 310.801 76.7292 310.5ZM104.393 362.108C102.665 363.248 101.038 364.322 97.2282 364.5C94.4599 364.629 91.2784 366.722 95.7289 367C103.728 367.501 106.667 366.926 110.229 364C110.982 362.609 108.959 361.007 107.228 360.5C106.087 360.989 105.228 361.556 104.393 362.108ZM122.255 373C122.655 371.8 121.088 372.5 120.255 373C119.588 374.167 118.055 376.8 117.255 378C116.255 379.5 121.755 374.5 122.255 373ZM83.5204 285.073C85.7418 284.817 89.5844 285.628 88.6888 286.954C88.1188 287.798 87.9868 288.152 87.7725 288.212C87.553 288.273 87.2472 288.026 86.2963 287.68C84.7928 287.132 83.8192 285.714 83.5204 285.073Z" fill="white"/>
<path fill-rule="evenodd" clip-rule="evenodd" d="M138.751 153.499C90.7503 157 73.2503 213 101.25 245C93.7506 252.123 90.6764 251.508 85.7502 250.5C82.0627 249.745 69.7469 244.835 63.6228 227.444C56.952 208.5 61.0906 177.524 63.6228 179.5C66.2085 181.517 67.1263 185.433 68.1615 189.85C69.179 194.192 70.31 199.018 73.2503 203C79.3709 211.288 82.7508 211 85.7502 210C85.7315 208.01 85.3142 207.349 84.4651 206.005C84.0159 205.294 83.446 204.391 82.7503 203C81.2236 199.946 80.7698 197.888 80.3341 195.913C80.0565 194.654 79.7861 193.429 79.2503 192C78.5802 190.213 78.1012 188.3 77.6663 186.563L77.6663 186.563C77.1277 184.412 76.657 182.531 75.9753 181.499C76.8765 181.224 77.7947 180.987 78.8086 180.725C81.4794 180.035 84.8141 179.173 90.2503 176.999C94.1988 175.42 98.2457 172.949 98.7508 170.932C99.4047 168.32 93.6667 167.545 88.2503 168.5C81.6808 169.658 79.3716 170.878 77.2503 173C73.7503 176.5 63.5948 176.715 63.6231 175C77.2498 133 132.751 116.499 138.751 153.499ZM74.749 213.999C79.7757 216.596 82.5028 217.1 86.2838 217.552C87.5291 218.855 87.6319 222.671 86.2847 223.499C81.7368 224.252 73.2978 225.499 70.7498 213.999C70.0392 210.792 71.2097 211.62 72.8597 212.787C73.4496 213.204 74.1007 213.664 74.749 213.999ZM107.249 163C103.757 160.901 93.8966 159.842 91.901 159.842C91.5184 159.842 91.0871 159.862 90.6492 159.882C87.9226 160.01 84.9426 160.149 91.9013 155.5C97.8229 151.543 108.558 154.355 113.749 157.5C113.932 158.183 109.577 163 107.249 163Z" fill="#99A2D9"/>
<path d="M91.3799 235.492C92.3188 234.964 90.1849 234.356 89.0006 234.118C87.7575 234.439 84.9175 235.146 83.5028 235.398C81.7344 235.713 90.2064 236.15 91.3799 235.492Z" fill="#FAA95B"/>
<path d="M125.102 152.959C126.119 152.594 123.438 149.961 121.701 148.906C121.76 149.485 122.126 150.936 123.115 152.115C124.352 153.589 123.793 153.43 125.102 152.959Z" fill="#FAA95B"/>
<path fill-rule="evenodd" clip-rule="evenodd" d="M140.752 153.5C92.7511 157 75.2511 213 103.251 245C95.7514 252.123 92.6771 251.509 87.751 250.5C84.0635 249.745 71.7477 244.835 65.6236 227.444C58.9528 208.5 63.0914 177.525 65.6236 179.5C68.2093 181.517 69.1271 185.434 70.1622 189.851C71.1798 194.193 72.3108 199.019 75.2511 203C81.3717 211.289 84.7516 211 87.751 210C87.7323 208.011 87.3149 207.35 86.4659 206.005C86.0167 205.294 85.4467 204.392 84.7511 203C83.2244 199.946 82.7706 197.889 82.3349 195.913C82.0572 194.655 81.7869 193.429 81.2511 192C80.581 190.213 80.102 188.3 79.6671 186.563L79.6671 186.563L79.6671 186.563C79.1285 184.412 78.6578 182.532 77.9761 181.499C78.8772 181.224 79.7955 180.987 80.8094 180.725C83.4801 180.035 86.8149 179.174 92.2511 176.999C96.1996 175.42 100.246 172.95 100.752 170.932C101.405 168.32 95.6675 167.545 90.2511 168.5C83.6816 169.659 81.3724 170.879 79.2511 173C75.7511 176.5 65.5956 176.716 65.6239 175C79.2505 133 134.752 116.5 140.752 153.5ZM92.9018 159.842C94.8974 159.842 104.758 160.901 108.25 163.001C110.578 163.001 114.933 158.183 114.75 157.501C109.559 154.355 98.8237 151.544 92.9021 155.5C85.9434 160.149 88.9234 160.01 91.65 159.883C92.0879 159.862 92.5192 159.842 92.9018 159.842ZM87.2846 217.552C83.5036 217.101 80.7765 216.596 75.7498 213.999C75.1014 213.664 74.4503 213.204 73.8605 212.787C72.2105 211.62 71.0399 210.792 71.7505 213.999C74.2985 225.499 82.7375 224.252 87.2855 223.499C88.6327 222.672 88.5299 218.856 87.2846 217.552ZM90.3807 235.492C91.3196 234.965 89.1857 234.357 88.0014 234.118C86.7582 234.44 83.9183 235.146 82.5036 235.398C80.7352 235.714 89.2072 236.151 90.3807 235.492ZM122.701 145.906C124.438 146.961 127.119 149.594 126.102 149.959C125.509 150.173 125.299 150.322 125.132 150.284C124.931 150.238 124.791 149.92 124.115 149.115C123.126 147.936 122.76 146.485 122.701 145.906Z" fill="white"/>
<path fill-rule="evenodd" clip-rule="evenodd" d="M427.966 249C456.753 210 433.271 160.516 391.253 154C392.419 143.723 399.831 139.394 404.252 137C407.562 135.208 421.883 133.615 437.753 143.001C455.04 153.225 465.462 178.886 462.253 179.001C458.98 179.117 456.34 177.118 453.287 174.806C450.275 172.525 446.862 169.94 442.043 168.778C432.026 166.363 429.623 168.757 427.968 171.451C428.591 172.18 428.986 172.873 429.365 173.536L429.365 173.536C430.186 174.976 430.927 176.275 433.751 177.5C438.88 179.724 440.986 180.439 444.251 181.5C448.314 182.821 451.61 183.862 453.753 184.5C453.539 185.356 453.339 186.321 453.12 187.378C452.316 191.264 451.252 196.404 448.251 202C448.053 202.37 447.841 202.761 447.621 203.166C445.612 206.87 442.931 211.814 443.751 213.5C444.929 215.921 449.216 211.713 452.751 207.5C457.039 202.39 457.991 199.489 458.253 196.5C458.684 191.569 462.751 178 465.251 180C476.25 221.5 453.777 269.001 427.966 249ZM431.294 162.802L431.294 162.802C428.076 163.41 425.803 163.839 423.47 165.366C421.678 165.168 415.753 162 416.253 160.5C419.253 157 430.908 152.328 440.252 159.5C442.787 161.445 440.509 161.574 438.019 161.715C437.035 161.77 436.018 161.828 435.252 162C433.774 162.333 432.471 162.579 431.294 162.802ZM444.289 220.656C447.441 220.023 454.018 216.036 455.253 215C455.573 214.731 455.933 214.376 456.289 214.025C457.834 212.497 459.321 211.028 457.328 216.904C455.531 222.205 447.253 226.5 442.253 226.499C441.817 226.21 442.848 221.865 444.289 220.656Z" fill="#99A2D9"/>
<path d="M403.253 154.733C402.872 155.74 405.692 156.579 406.753 156C407.498 154.955 409.253 150.802 410.141 149.74C411.293 148.362 403.728 153.474 403.253 154.733Z" fill="#FBAD5E"/>
<path d="M437.253 237C436.249 239.144 444.753 237.999 448.253 235C447.599 234.137 443.556 234.543 441.054 234.102C437.927 233.55 438.546 234.238 437.253 237Z" fill="#FBAD5E"/>
<path fill-rule="evenodd" clip-rule="evenodd" d="M429.966 249C458.753 210 435.271 160.516 393.253 154C394.419 143.723 401.831 139.394 406.253 137C409.563 135.208 423.883 133.614 439.753 143C457.04 153.224 467.463 178.886 464.253 179C460.981 179.117 458.341 177.118 455.287 174.805C452.276 172.525 448.862 169.94 444.043 168.778C434.027 166.363 431.623 168.757 429.968 171.451C430.592 172.18 430.987 172.873 431.365 173.536L431.365 173.536C432.186 174.976 432.927 176.275 435.752 177.5C440.88 179.723 442.986 180.438 446.252 181.5C450.314 182.82 453.61 183.862 455.753 184.5C455.539 185.356 455.339 186.32 455.12 187.378C454.316 191.264 453.252 196.404 450.252 202C450.053 202.37 449.841 202.761 449.621 203.166C447.613 206.87 444.931 211.814 445.752 213.5C446.93 215.921 451.216 211.713 454.752 207.5C459.039 202.39 459.992 199.488 460.253 196.5C460.685 191.569 464.751 177.999 467.252 180C478.25 221.499 455.777 269 429.966 249ZM433.294 162.801L433.294 162.801C430.077 163.409 427.803 163.839 425.47 165.366C423.678 165.167 417.753 162 418.253 160.5C421.253 157 432.909 152.328 442.252 159.499C444.788 161.445 442.509 161.574 440.02 161.715C439.035 161.77 438.018 161.828 437.252 162C435.774 162.333 434.471 162.579 433.294 162.801ZM446.289 220.656C449.441 220.023 456.018 216.036 457.253 215C457.574 214.731 457.933 214.376 458.289 214.024C459.834 212.497 461.321 211.028 459.329 216.904C457.531 222.205 449.253 226.499 444.253 226.499C443.817 226.21 444.848 221.865 446.289 220.656ZM439.253 237C438.249 239.144 446.753 237.999 450.253 235C449.856 234.477 448.215 234.42 446.426 234.358L446.426 234.358C445.264 234.318 444.04 234.275 443.054 234.101C440.581 233.665 440.451 234.004 439.865 235.531C439.71 235.935 439.524 236.422 439.253 237ZM408.753 156C407.692 156.579 404.872 155.74 405.253 154.733C405.728 153.474 413.293 148.362 412.141 149.74C411.646 150.331 410.883 151.882 410.175 153.32C409.611 154.464 409.083 155.537 408.753 156Z" fill="white"/>
<path d="M385.251 138.001C384.751 136 381.75 136 381.75 138.5C381.52 138.619 381.669 140.5 383.25 140.5C384.749 140.5 385.634 139.535 385.251 138.001Z" fill="#99A2D9"/>
<path d="M417.75 121.5C409.233 120.419 397.285 126.401 391.25 129.5C391.055 127.939 392.507 117.695 392.375 111.13C392.214 103.082 390.909 98.5057 389.75 94.6422C392.186 90.2439 404.576 83.8706 409.75 82C414.924 80.1294 423.227 77.1868 427.537 74.711C426.68 77.7736 426.458 84.649 426.75 93C427.057 101.76 423.199 113.718 417.75 121.5Z" fill="#99A2D9"/>
<path d="M387.251 138.001C386.751 136 383.75 136 383.75 138.5C383.52 138.619 383.669 140.5 385.25 140.5C386.749 140.5 387.634 139.535 387.251 138.001Z" fill="white"/>
<path d="M419.75 121.5C411.233 120.419 399.285 126.401 393.25 129.5C393.055 127.939 394.507 117.695 394.375 111.13C394.214 103.082 392.909 98.5057 391.75 94.6422C394.186 90.2439 406.576 83.8706 411.75 82C416.924 80.1294 425.227 77.1868 429.537 74.711C428.68 77.7736 428.458 84.649 428.75 93C429.057 101.76 425.199 113.718 419.75 121.5Z" fill="white"/>
<path d="M441.252 262C440.252 259.5 437.753 260.16 437.752 262C437.752 262.499 437.752 262.5 438.248 263.492L438.252 263.5C438.699 264.395 441.903 263.627 441.252 262Z" fill="#99A2D9"/>
<path d="M471.252 281.5C467.252 273.903 454.252 264.918 448.252 261.752C449.418 260.697 454.024 258.558 458.752 254C463.252 249.662 465.252 247.165 467.752 244C476.252 242 492.252 248.334 496.752 251.5C501.252 254.665 505.252 259.642 509.752 261.753C506.752 262.808 503.425 267.971 496.752 273C489.752 278.276 480.752 281.5 471.252 281.5Z" fill="#99A2D9"/>
<path d="M442.252 263C441.252 260.5 438.753 261.16 438.752 263C438.752 263.499 438.752 263.5 439.248 264.492L439.252 264.5C439.699 265.395 442.903 264.627 442.252 263Z" fill="white"/>
<path d="M472.252 282.5C468.252 274.903 455.252 265.918 449.252 262.752C450.418 261.697 455.024 259.558 459.752 255C464.252 250.662 466.252 248.165 468.752 245C477.252 243 493.252 249.334 497.752 252.5C502.252 255.665 506.252 260.642 510.752 262.753C507.752 263.808 504.425 268.971 497.752 274C490.752 279.276 481.752 282.5 472.252 282.5Z" fill="white"/>
<path d="M397.753 431.5C397.753 422.5 396.812 403.788 395.38 397.157C396.938 397.373 401.253 399.5 409.253 401.5C415.317 403.016 421.221 404.119 425.253 404C430.753 413 432.285 420.019 432.753 425.501C433.22 430.983 433.134 445.197 434.41 450.001C431.673 448.381 423.895 444.879 415.753 443C407.212 441.029 402.253 436.5 397.753 431.5Z" fill="#99A2D9"/>
<path d="M390.252 391.5C389.052 389.1 387.585 391 387.252 392C387.085 392.333 386.852 393.2 387.252 394C387.752 395 391.752 394.5 390.252 391.5Z" fill="#99A2D9"/>
<path d="M399.753 431.5C399.753 422.5 398.812 403.788 397.38 397.157C398.938 397.373 403.253 399.5 411.253 401.5C417.317 403.016 423.221 404.119 427.253 404C432.753 413 434.285 420.019 434.753 425.501C435.22 430.983 435.134 445.197 436.41 450.001C433.673 448.381 425.895 444.879 417.753 443C409.212 441.029 404.253 436.5 399.753 431.5Z" fill="white"/>
<path d="M392.252 391.5C391.052 389.1 389.585 391 389.252 392C389.085 392.333 388.852 393.2 389.252 394C389.752 395 393.752 394.5 392.252 391.5Z" fill="white"/>
<path d="M247.252 475.5C254.252 469 261.587 458.5 264.752 452.5C265.807 453.667 267.409 457.826 272.252 464.5C275.923 469.559 278.587 471 281.752 473.5C280.18 483.93 279.659 485.787 275.252 495.5C272.979 500.51 266.863 508.5 264.752 513C263.697 510 258.678 503.386 253.649 496.713C248.373 489.713 247.486 482.223 247.252 475.5Z" fill="#99A2D9"/>
<path d="M265.473 441.663C264.273 439.263 262.806 441.163 262.473 442.163C262.306 442.496 262.073 443.363 262.473 444.163C262.973 445.163 266.973 444.663 265.473 441.663Z" fill="#99A2D9"/>
<path d="M249.252 475.5C256.252 469 263.587 458.5 266.752 452.5C267.807 453.667 269.409 457.826 274.252 464.5C277.923 469.559 280.587 471 283.752 473.5C282.18 483.93 281.659 485.787 277.252 495.5C274.979 500.51 268.863 508.5 266.752 513C265.697 510 260.678 503.386 255.649 496.713C250.373 489.713 249.486 482.223 249.252 475.5Z" fill="white"/>
<path d="M267.473 441.663C266.273 439.263 264.806 441.163 264.473 442.163C264.306 442.496 264.073 443.363 264.473 444.163C264.973 445.163 268.973 444.663 267.473 441.663Z" fill="white"/>
<path d="M105.252 404.5C114.792 404.02 128.971 400.562 135.252 398C135.31 399.572 133.752 405.754 133.752 414.001C133.752 420.001 133.843 424 135.252 432C127.344 438.979 123.296 440.913 113.252 444.5C100.752 448.964 101.252 450 97.2518 453C98.2112 448.5 97.7744 436.815 98.2112 428.47C98.6693 419.717 101.252 410.5 105.252 404.5Z" fill="#99A2D9"/>
<path d="M143.473 391.663C142.273 389.263 140.806 391.163 140.473 392.163C140.306 392.496 140.073 393.363 140.473 394.163C140.973 395.163 144.973 394.663 143.473 391.663Z" fill="#99A2D9"/>
<path d="M103.252 403.5C112.792 403.02 126.971 399.562 133.252 397C133.31 398.572 131.752 404.754 131.752 413.001C131.752 419.001 131.843 423 133.252 431C125.344 437.979 121.296 439.913 111.252 443.5C98.752 447.964 99.252 449 95.2518 452C96.2112 447.5 95.7744 435.815 96.2112 427.47C96.6693 418.717 99.252 409.5 103.252 403.5Z" fill="white"/>
<path d="M141.473 390.663C140.273 388.263 138.806 390.163 138.473 391.163C138.306 391.496 138.073 392.363 138.473 393.163C138.973 394.163 142.973 393.663 141.473 390.663Z" fill="white"/>
<path d="M55.752 242C61.6171 249.54 74.0504 259.324 79.7517 263C78.4975 263.95 75.5069 266.27 68.752 271C63.252 274.851 60.752 277.5 56.752 283.5C46.499 281.025 42.4516 279.17 33.7518 273C22.9251 265.321 22.7517 263 18.7517 260C23.7517 257 26.6657 254.429 33.7518 250C41.1849 245.355 48.5427 242.165 55.752 242Z" fill="#99A2D9"/>
<path d="M89.4727 262.663C88.2727 260.263 86.806 262.163 86.4727 263.163C86.306 263.496 86.0729 264.363 86.4729 265.163C86.9729 266.163 90.9727 265.663 89.4727 262.663Z" fill="#99A2D9"/>
<path d="M55.752 240C61.6171 247.54 74.0504 257.324 79.7517 261C78.4975 261.95 75.5069 264.27 68.752 269C63.252 272.851 60.752 275.5 56.752 281.5C46.499 279.025 42.4516 277.17 33.7518 271C22.9251 263.321 22.7517 261 18.7517 258C23.7517 255 26.6657 252.429 33.7518 248C41.1849 243.355 48.5427 240.165 55.752 240Z" fill="white"/>
<path d="M89.4727 260.663C88.2727 258.263 86.806 260.163 86.4727 261.163C86.306 261.496 86.0729 262.363 86.4729 263.163C86.9729 264.163 90.9727 263.663 89.4727 260.663Z" fill="white"/>
<path d="M137.252 91.4995C135.246 100.839 137.544 119.768 138.393 126.498C136.859 126.148 132.217 123.634 124.252 121.5C117.766 119.762 115.418 119.707 108.251 120.5C103.557 111.055 101.481 105.665 101.481 94.9995C101.481 81.9995 101.754 79.9607 101.481 74.968C106.993 76.8699 110.836 77.4493 118.783 80.0309C127.12 82.739 132.491 86.0829 137.252 91.4995Z" fill="#99A2D9"/>
<path d="M146.471 136.663C145.271 134.263 143.804 136.163 143.471 137.163C143.304 137.496 143.071 138.363 143.471 139.163C143.971 140.163 147.971 139.663 146.471 136.663Z" fill="#99A2D9"/>
<path d="M139.252 90.4995C137.246 99.8391 139.544 118.768 140.393 125.498C138.859 125.148 134.217 122.634 126.252 120.5C119.766 118.762 117.418 118.707 110.251 119.5C105.557 110.055 103.481 104.665 103.481 93.9995C103.481 80.9995 103.754 78.9607 103.481 73.968C108.993 75.8699 112.836 76.4493 120.783 79.0309C129.12 81.739 134.491 85.0829 139.252 90.4995Z" fill="white"/>
<path d="M148.471 135.663C147.271 133.263 145.804 135.163 145.471 136.163C145.304 136.496 145.071 137.363 145.471 138.163C145.971 139.163 149.971 138.663 148.471 135.663Z" fill="white"/>
<path d="M282.253 54.5C275.053 58.5 267.253 71.5 264.253 77.5C263.253 76.3333 260.424 71.303 256.753 66C252.253 59.5 248.752 56.5 245.752 54C245.252 49 252.753 36 255.753 31.5C258.753 27 262.253 20.5 264.253 16C265.253 19 268.986 26.3269 273.753 33C278.753 40 282.253 45 282.253 54.5Z" fill="#99A2D9"/>
<path d="M265.475 86.6629C264.275 84.2629 262.808 86.1631 262.475 87.1631C262.308 87.4964 262.075 88.3627 262.475 89.1627C262.975 90.1627 266.975 89.6629 265.475 86.6629Z" fill="#99A2D9"/>
<path d="M284.253 54.5C277.053 58.5 269.253 71.5 266.253 77.5C265.253 76.3333 262.424 71.303 258.753 66C254.253 59.5 250.752 56.5 247.752 54C247.252 49 254.753 36 257.753 31.5C260.753 27 264.253 20.5 266.253 16C267.253 19 270.986 26.3269 275.753 33C280.753 40 284.253 45 284.253 54.5Z" fill="white"/>
<path d="M267.475 86.6629C266.275 84.2629 264.808 86.1631 264.475 87.1631C264.308 87.4964 264.075 88.3627 264.475 89.1627C264.975 90.1627 268.975 89.6629 267.475 86.6629Z" fill="white"/>
</svg>
