<svg width="135" height="141" viewBox="0 0 135 141" fill="none" xmlns="http://www.w3.org/2000/svg">
<path d="M87.4997 12C83.0997 14.4 79.3333 18.8333 78.5 20.5C79.5 9.5 76 1 69 0.5C61.5 0.5 58 11.5 57.5 19C51.5 15 47.5 7.5 44 7.5C40.5 15 41.5 20 42 26C33.5 20 28.5 18.5 23.5 20C12.5 23.5 21.5 37 24.5 41C19.5 40.5 11 42.5 7 44.5C11.5 52.5 15.5 57 19 59.5C8.5 59.5 0 64.5 0 70C0.5 80.5 13.5 80 20 80C12.5 84.5 7.5 93 5.5 96C11 97.5 18.5 98 25.5 98.5C22 102 18 108.5 18 115C19.5 127 34 116.5 39 113C38 117 39.5 129 39.5 134.5C45.5 131 50.5 125.5 57.9997 119.5C56.9997 133 64.9997 140.5 69.4997 140.5C73.9997 140.5 77.9997 130.5 78.4997 123.5C81.4997 127.5 89.4997 131.5 93.4997 133.5C95.4997 130 95.9997 121 95.4997 115C96.4997 115.5 105.5 121.5 114.5 119.5C123.5 117.5 111.5 103 109.5 100C121.5 99.5 125.5 96 129 95C128 91.5 119 84 113.5 81C122.5 80 126 79 132.5 74C140 64.5 124 60.5 117 59.5C122.5 56.5 128.5 48 130 45.5C127.5 44.5 118.5 42.5 111.5 42C117 35 120 29 119 24.5C115 12.5 102.5 22 97.4997 25C98.9997 20 95.9997 8.5 94.9997 6.5C93.9997 7.5 92.9997 9 87.4997 12Z" fill="white"/>
<path d="M86.0003 25.0002C82.0003 27.0002 75.6669 38.8335 73.0003 44.5002C72.0002 36.5001 72.5 23 68.5 15C65 19.5 64.5003 35.5 64 44.5C62 36 56.5 29.5 52.5 23.5V32.5C52.5 39 52.5 41 53.5003 47.5C46.5005 40.5 40 34 32.5 32.5C33.5 38.5 44 50.5 47.5 54.5C43.9997 52 31 52 25.5 51.5C27 54.5 41 63.5 43 65.5C32.6 65.5 20.1667 68.3333 16 70C16.8333 70.1667 20.1 71 20.5 71C25.5 71 36 76.5 43 77C36.5 80 28.5 87 24.5 90.5C34 90 34.5 89.5 45.5 86.5C37.9 92.5 32.3333 104.333 30.5 109.5C46.5 102.5 50 95.5 53.5003 92.5C52.5003 96 50.0003 110.5 51.0003 115C57.5003 112.5 63.0003 97 63.0003 96.5C63.0003 96 64.5003 92 64.5003 99.5C64.5003 107 66.0003 118 68.5003 124C71.0003 121.5 71.0003 103 71.0003 97C72.6003 100.2 81.0003 110 85.0003 114.5C84.0003 103 80.0003 97 80.0003 95C80.0003 94.5 79.0003 91.5 81.5003 94C84.0003 96.5 94.0003 105 101.5 107.5C99.0003 103 90.0003 90.5 86.0003 85C88.5003 86 97.0003 88.5 108 90.5C106.8 87.3 95.5003 79.1667 90.0003 75.5C96.0003 75.5 111 73.5 115 72C111.5 69 107 68 90.0003 64C93.0003 62 104 56 111 50.5C108.2 50.1 93.1669 53 86.0003 54.5C88.0003 52.5 102 40.5 104 34C99.5003 34 90.0003 41 81.5003 48.5002C83.5003 44.0002 87.5003 23.5002 86.0003 25.0002Z" fill="#FAA759"/>
<path d="M68.5227 62.498C63.3227 60.498 60.1695 65.003 60.0227 67.4987C59.5227 75.998 67.429 75.2833 69.5228 74.498C73.5225 72.998 75.0227 64.998 68.5227 62.498Z" fill="white"/>
</svg>
