<svg width="462" height="464" viewBox="0 0 462 464" fill="none" xmlns="http://www.w3.org/2000/svg">
<path d="M251.203 169.5C246.818 171.9 243.065 176.333 242.234 178C243.231 167 239.743 158.5 232.766 158C225.292 158 221.804 169 221.305 176.5C215.326 172.5 211.339 165 207.851 165C204.363 172.5 205.359 177.5 205.858 183.5C197.387 177.5 192.403 176 187.42 177.5C176.458 181 185.427 194.5 188.417 198.5C183.434 198 174.963 200 170.976 202C175.461 210 179.448 214.5 182.936 217C172.471 217 164 222 164 227.5C164.498 238 177.454 237.5 183.932 237.5C176.458 242 171.475 250.5 169.481 253.5C174.963 255 182.437 255.5 189.414 256C185.925 259.5 181.939 266 181.939 272.5C183.434 284.5 197.885 274 202.868 270.5C201.871 274.5 203.366 286.5 203.366 292C209.346 288.5 214.329 283 221.803 277C220.807 290.5 228.78 298 233.264 298C237.749 298 241.736 288 242.234 281C245.224 285 253.197 289 257.183 291C259.176 287.5 259.675 278.5 259.176 272.5C260.173 273 269.142 279 278.112 277C287.081 275 275.122 260.5 273.129 257.5C285.088 257 289.075 253.5 292.563 252.5C291.566 249 282.597 241.5 277.115 238.5C286.085 237.5 289.573 236.5 296.051 231.5C303.526 222 287.58 218 280.603 217C286.085 214 292.064 205.5 293.559 203C291.068 202 282.098 200 275.122 199.5C280.603 192.5 283.593 186.5 282.597 182C278.61 170 266.153 179.5 261.169 182.5C262.664 177.5 259.675 166 258.678 164C257.681 165 256.685 166.5 251.203 169.5Z" fill="white"/>
<path d="M249.709 182.5C245.723 184.5 239.411 196.333 236.753 202C235.756 194 236.254 180.5 232.268 172.5C228.78 177 228.282 193 227.783 202C225.79 193.5 220.309 187 216.322 181V190C216.322 196.5 216.322 198.5 217.319 205C210.343 198 203.865 191.5 196.39 190C197.387 196 207.851 208 211.339 212C207.851 209.5 194.895 209.5 189.414 209C190.909 212 204.861 221 206.854 223C196.49 223 184.098 225.833 179.946 227.5C180.776 227.667 184.032 228.5 184.431 228.5C189.414 228.5 199.878 234 206.854 234.5C200.376 237.5 192.403 244.5 188.417 248C197.885 247.5 198.383 247 209.346 244C201.772 250 196.224 261.833 194.397 267C210.343 260 213.831 253 217.319 250C216.322 253.5 213.831 268 214.828 272.5C221.306 270 226.787 254.5 226.787 254C226.787 253.5 228.282 249.5 228.282 257C228.282 264.5 229.777 275.5 232.268 281.5C234.76 279 234.76 260.5 234.76 254.5C236.354 257.7 244.726 267.5 248.712 272C247.716 260.5 243.729 254.5 243.729 252.5C243.729 252 242.733 249 245.224 251.5C247.716 254 257.682 262.5 265.156 265C262.665 260.5 253.695 248 249.709 242.5C252.201 243.5 260.672 246 271.634 248C270.439 244.8 259.177 236.667 253.695 233C259.675 233 274.624 231 278.611 229.5C275.123 226.5 270.638 225.5 253.695 221.5C256.685 219.5 267.648 213.5 274.624 208C271.834 207.6 256.851 210.5 249.709 212C251.702 210 265.655 198 267.648 191.5C263.163 191.5 253.695 198.5 245.224 206C247.217 201.5 251.204 181 249.709 182.5Z" fill="#FAA759"/>
<path d="M232.291 219.998C227.108 217.998 223.966 222.503 223.819 224.999C223.321 233.498 231.201 232.783 233.287 231.998C237.274 230.498 238.769 222.498 232.291 219.998Z" fill="white"/>
<path d="M347 325C342 322.5 339.167 316.333 338.5 313.5C339.167 313.5 341 314.1 341 314.5C341 315 342.263 317.851 343.5 319.5C345 321.5 347 323 348.5 324.5C350 326 351.817 327.408 347 325Z" fill="white"/>
<path d="M362 322.5C359.172 321.369 355.667 317 354.5 315C355.167 314.667 356.5 314.5 356.5 314.5C356.5 314.5 361.5 320 363.5 321.5C365.5 323 364.5 323.5 362 322.5Z" fill="white"/>
<path d="M376 316C373.6 315.6 370 312.833 368.5 311.5L368 311C368.833 310.667 370.5 310.1 370.5 310.5C370.5 311 374 314 376 314.5C378 315 379 316.5 376 316Z" fill="white"/>
<path d="M387 309.5C385.8 309.1 383.5 307 382.5 306L384.5 305C384.5 305.5 384.8 306.7 386 307.5C387.5 308.5 388.5 310 387 309.5Z" fill="white"/>
<path d="M394.5 302C388 296 390.5 291.5 374 262.5C360.982 239.619 324.971 236.64 308 238C318.699 240.941 325.5 254 335.5 267C345.5 280 367.5 287 374 293.5C355 284 340 279 327.5 282.5C315 286 308.199 288.5 288.5 282.5C298.5 295 327.5 310.5 342 314.5C356.5 318.5 372 308 394.5 302Z" fill="white"/>
<path d="M379.5 247.5C375.5 246 367 247.833 363 249.5L362 250L364.5 251.5L365 251C367.5 249.5 369 249 376 249C380.528 249 384.211 249.267 379.5 247.5Z" fill="white"/>
<path d="M383.5 260.5C380.3 259.7 375.833 261.166 374 262L374.5 264C374.833 264 375 263.75 376 263.5C378 263 380 263 383 263C386 263 389 263.5 389.5 263C390 262.5 387.5 261.5 383.5 260.5Z" fill="white"/>
<path d="M391 274.499C387.987 273.156 382.298 273.202 380.348 273.704L381 275.499C381.328 275.557 381.029 275.602 382.057 275.529C384.113 275.384 386.046 275.479 389 276C391.954 276.521 394.859 277.787 395.439 277.381C396.018 276.975 394.766 276.179 391 274.499Z" fill="white"/>
<path d="M394.5 289C391.487 287.656 388.95 286.998 387 287.5L387.5 289.5C387.828 289.558 387.028 289.602 388.057 289.53C390.113 289.384 389.545 289.479 392.5 290C395.454 290.521 396.5 291.5 397.5 291.5C398.207 291.5 398.265 290.679 394.5 289Z" fill="white"/>
<path d="M321.882 115.681C319.382 120.681 313.215 123.514 310.382 124.181C310.382 123.514 310.982 121.681 311.382 121.681C311.882 121.681 314.733 120.418 316.382 119.181C318.382 117.681 319.882 115.681 321.382 114.181C322.882 112.681 324.29 110.864 321.882 115.681Z" fill="white"/>
<path d="M319.382 100.681C318.251 103.509 313.882 107.014 311.882 108.181C311.549 107.514 311.382 106.181 311.382 106.181C311.382 106.181 316.882 101.181 318.382 99.1807C319.882 97.1807 320.382 98.1807 319.382 100.681Z" fill="white"/>
<path d="M312.882 86.6807C312.482 89.0807 309.715 92.6807 308.382 94.1807L307.882 94.6807C307.549 93.8473 306.982 92.1807 307.382 92.1807C307.882 92.1807 310.882 88.6807 311.382 86.6807C311.882 84.6807 313.382 83.6807 312.882 86.6807Z" fill="white"/>
<path d="M306.382 75.6807C305.982 76.8807 303.882 79.1807 302.882 80.1807L301.882 78.1807C302.382 78.1807 303.582 77.8807 304.382 76.6807C305.382 75.1807 306.882 74.1807 306.382 75.6807Z" fill="white"/>
<path d="M259.305 88.5357C288.2 72.007 292.684 74.5113 298.662 68C304.64 90.5392 315.102 106.066 311.117 120.591C307.131 135.117 295.291 158.977 278.353 172C285.327 151.965 284.829 146.956 281.342 134.435C277.854 121.913 282.836 105.384 292.302 86.3512C285.826 92.8625 278.353 116.904 263.789 127.103C250.379 136.493 241.926 143.251 238.996 153.969C238.875 152.449 238.756 150.783 238.655 148.999C237.63 130.821 238.544 100.411 259.305 88.5357Z" fill="white"/>
<path d="M244.382 83.1807C242.882 87.1807 244.715 95.6807 246.382 99.6807L246.882 100.681L248.382 98.1807L247.882 97.6807C246.382 95.1807 245.882 93.6807 245.882 86.6807C245.882 82.153 246.149 78.4701 244.382 83.1807Z" fill="white"/>
<path d="M257.382 79.1807C256.582 82.3807 258.049 86.8473 258.882 88.6807L260.882 88.1807C260.882 87.8473 260.632 87.6807 260.382 86.6807C259.882 84.6807 259.882 82.6807 259.882 79.6807C259.882 76.6807 260.382 73.6807 259.882 73.1807C259.382 72.6807 258.382 75.1807 257.382 79.1807Z" fill="white"/>
<path d="M271.381 71.6807C270.038 74.6932 270.084 80.3827 270.586 82.3329L272.382 81.6807C272.439 81.3525 272.484 81.652 272.411 80.6238C272.266 78.5674 272.361 76.6351 272.882 73.6807C273.403 70.7262 274.669 67.8213 274.263 67.2421C273.857 66.6629 273.061 67.9151 271.381 71.6807Z" fill="white"/>
<path d="M285.882 68.1808C284.539 71.1933 283.88 73.7305 284.382 75.6807L286.382 75.1808C286.44 74.8525 286.484 75.6523 286.412 74.6241C286.267 72.5676 286.362 73.1353 286.883 70.1809C287.403 67.2265 288.382 66.1807 288.382 65.1808C288.382 64.4737 287.561 64.4153 285.882 68.1808Z" fill="white"/>
<path d="M214.835 85.1037C217.058 90.2328 215.265 96.778 213.954 99.377C213.443 98.9484 212.425 97.3104 212.682 97.0039C213.003 96.6209 213.868 93.6252 213.981 91.5667C214.117 89.0705 213.549 86.6358 213.364 84.5226C213.179 82.4093 212.693 80.1628 214.835 85.1037Z" fill="white"/>
<path d="M203.737 79.3769C205.176 82.0617 205.053 87.6612 204.661 89.9432C203.936 89.7701 202.808 89.0406 202.808 89.0406C202.808 89.0406 202.513 81.6135 201.945 79.1789C201.377 76.7442 202.464 77.0039 203.737 79.3769Z" fill="white"/>
<path d="M185.87 66.5C187.451 68.3491 189.395 79.64 189.687 81.6255L189.749 82.3299C188.896 82.0496 187.255 81.4124 187.512 81.106C187.834 80.723 187.081 73.1686 185.87 71.5C184.659 69.8314 183.893 64.1886 185.87 66.5Z" fill="white"/>
<path d="M172.975 66.9781C174.361 68.7869 175.876 73.8609 176.501 76.0003L173.001 74.5005C173.399 74.0264 173.871 72.2537 172.804 70.0657C171.47 67.3306 171.244 64.7171 172.975 66.9781Z" fill="white"/>
<path d="M162.663 70.1901C163.786 78.9644 154.974 80.3204 152.977 113.626C151.448 139.142 172.948 158.142 184.446 169.643C178.141 160.514 181.947 146.643 183.446 129.644C184.887 113.306 173.705 99.0361 172.904 89.8787C181.352 109.369 189.036 120.202 201.447 128.642C213.947 137.142 214.214 135.383 225.447 152.641C225.822 136.638 222.484 111.526 213.947 99.1416C205.411 86.757 183.756 80.0565 162.663 70.1901Z" fill="white"/>
<path d="M144.414 114.052C146.351 116.722 150.716 118.47 152.656 119.01L153.558 117.156C153.303 116.942 153.015 117.026 152.088 116.575C150.235 115.672 148.702 114.387 146.404 112.458C144.106 110.53 142.129 108.219 141.425 108.28C140.721 108.342 141.993 110.715 144.414 114.052Z" fill="white"/>
<path d="M145.667 98.507C147.111 101.473 151.499 105.094 153.316 105.963L153.97 104.169C153.756 103.913 154.014 104.072 153.18 103.467C151.511 102.256 150.092 100.941 148.164 98.643C146.235 96.3449 144.824 93.5081 144.119 93.4465C143.415 93.3849 143.862 94.8 145.667 98.507Z" fill="white"/>
<path d="M152.501 82.9995C152.501 84.9987 154.501 88.667 156.001 90.5003C156.334 90.3337 156.901 89.8003 156.501 89.0003L156.497 88.9923C155.998 87.995 155.499 86.9955 154.501 85.5003C153.001 83.0003 152.501 80.938 152.501 82.9995Z" fill="white"/>
<path d="M158.501 73.5004C158.501 75.9003 159.501 77.8337 160.001 78.5004L160.5 79.5005C161.167 78.6671 162.3 77.0004 161.5 77.0004C160.5 77.0004 158.502 70.5006 158.501 73.5004Z" fill="white"/>
<path d="M378.142 215.338C372.839 217.106 366.475 214.749 364 213.217C364.471 212.745 366.192 211.873 366.475 212.156C366.828 212.51 369.737 213.632 371.778 213.924C374.253 214.277 376.728 213.924 378.849 213.924C380.971 213.924 383.251 213.635 378.142 215.338Z" fill="white"/>
<path d="M386.416 202.926C383.41 203.92 377.048 202.514 374.444 201.561C374.619 200.793 375.414 199.702 375.414 199.702C375.414 199.702 383.84 201.057 386.588 200.976C389.336 200.895 389.073 202.047 386.416 202.926Z" fill="white"/>
<path d="M393.5 188C391.446 189.34 386.216 188.897 383.967 188.769L381.001 188.769C381.293 187.883 381.643 185.643 382 186C382.445 186.445 389.64 187.968 391.5 187C393.36 186.032 396.067 186.324 393.5 188Z" fill="white"/>
<path d="M396 173.799C394.142 174.849 388.222 175.798 386 176L387.5 172.5C388.005 173.005 390.505 173.637 392.768 172.99C395.596 172.183 398.323 172.486 396 173.799Z" fill="white"/>
<path d="M393 159C384.161 159.354 387.173 157.839 355 149C329.615 142.026 300.102 167.463 289.063 180.424C300.5 174.5 316.737 175.379 333 177.5C349.264 179.621 361.308 169.5 370.5 169.5C354.5 177.5 342.5 186.5 335 195.5C326.69 205.472 324.913 215.993 306.741 225.68C322.651 227.447 349.5 226.5 367.199 210.477C378.349 200.382 382.5 182 393 159Z" fill="white"/>
<path d="M352.5 134.501C348.611 136.268 341.65 141.994 340 146L338.5 148.5L343 148L343 147C343.707 144.172 345.051 142.95 350 138C353.202 134.799 357.08 132.419 352.5 134.501Z" fill="white"/>
<path d="M364 141C361.171 142.697 357.207 147.487 356.5 149.372L359 150C359.236 149.765 358.647 150.257 359.178 149.373C360.238 147.605 360.879 145.621 363 143.5C365.121 141.379 370.01 139.232 370.01 138.525C370.01 137.818 367.535 138.878 364 141Z" fill="white"/>
<path d="M385 148.5C385.5 146.501 376.166 151.334 373.5 154L372.999 154.5L375.499 155L376.499 153.5C377.499 152 384.5 150.5 385 148.5Z" fill="white"/>
<path d="M80.001 249.5C86.3328 247.34 96.6318 249.261 100.128 251.198C99.6373 251.783 97.6515 252.857 97.2272 252.501C96.6968 252.056 92.6608 250.883 90.001 250.5C86.7755 250.036 84.6961 250.519 82.001 250.5C79.3059 250.481 73.9014 251.581 80.001 249.5Z" fill="white"/>
<path d="M70.001 262.491C72.6857 261.052 87.4122 262.099 89.6942 262.491C89.521 263.216 88.7916 264.345 88.7916 264.345C88.7916 264.345 80.9356 263.432 78.501 264C76.0663 264.568 67.628 263.764 70.001 262.491Z" fill="white"/>
<path d="M68.001 276.5C69.8501 274.919 80.391 273.757 82.3765 273.465L84.0008 273C83.7205 273.852 82.6832 276.072 82.3768 275.815C81.9937 275.493 74.1696 275.289 72.501 276.5C70.8324 277.711 65.6896 278.477 68.001 276.5Z" fill="white"/>
<path d="M64.9786 291.59C66.7874 290.205 75.3613 288.624 77.5007 288L76.001 291C75.5007 290.5 70.2541 290.694 68.0661 291.761C65.331 293.096 62.7176 293.322 64.9786 291.59Z" fill="white"/>
<path d="M70.9413 302.489C79.7157 301.366 81.0717 310.179 114.377 312.175C139.893 313.704 162 293.998 173.502 282.499C164.372 288.805 146.392 285.498 129.393 283.999C113.055 282.558 96.6584 291.699 87.501 292.5C106.991 284.052 120.954 276.116 129.393 263.705C137.893 251.205 137.743 248.733 155.001 237.5C138.998 237.125 112.277 242.668 99.8929 251.205C87.5083 259.741 80.8078 281.396 70.9413 302.489Z" fill="white"/>
<path d="M114.803 321.738C117.473 319.801 119.961 314.534 120.501 312.594L117.907 312.594C117.693 312.849 117.777 313.138 117.326 314.064C116.423 315.918 115.138 317.45 113.209 319.748C111.281 322.046 108.97 324.023 109.031 324.727C109.093 325.432 111.466 324.16 114.803 321.738Z" fill="white"/>
<path d="M100.258 320.485C103.223 319.041 107.633 313.817 108.501 312L106.001 311.5C105.746 311.714 105.823 312.138 105.218 312.972C104.007 314.641 102.692 316.06 100.394 317.989C98.0958 319.917 95.259 321.329 95.1974 322.033C95.1358 322.738 96.5509 322.29 100.258 320.485Z" fill="white"/>
<path d="M79.7512 315.65C81.7504 315.65 88.1679 310.5 90.0012 309C90.0016 307.5 88.0517 307.6 87.2517 308C86.2517 308.5 83.0002 311.5 81.501 312.5C79.001 314 77.6897 315.651 79.7512 315.65Z" fill="white"/>
<path d="M70.7919 306.274C73.1918 306.275 75.1252 305.275 75.7919 304.774L77.501 303.5C76.6676 302.833 74.2919 302.475 74.2919 303.275C74.2919 304.275 67.7921 306.274 70.7919 306.274Z" fill="white"/>
<path d="M142 350C145.249 344.152 148.981 343.347 152.823 342.244C152.89 343.005 152.245 345.168 151.693 345.216L151.686 345.217C150.994 345.278 149.644 345.396 147.5 347C144.891 348.952 144.419 350.108 142.5 352C140.581 353.892 139.5 354.5 142 350Z" fill="white"/>
<path d="M144.5 370.5C144.931 367.484 151.11 361.337 153 360C153.391 360.635 153.5 362.5 153.5 362.5C153.5 362.5 151.82 363.377 150.5 365.5C149.18 367.623 144 374 144.5 370.5Z" fill="white"/>
<path d="M150.5 382.5C150.69 380.074 154.803 375.11 156 373.5C156.405 374.301 156.899 375.465 156.5 375.5C156.002 375.543 153.824 377.464 153.5 379.5C153.177 381.536 150.264 385.532 150.5 382.5Z" fill="white"/>
<path d="M155.531 391.659C155.83 389.4 157.929 385.954 159 384L159.5 386.499C158.793 386.5 158.293 387.198 157.5 389.5C156.509 392.377 155.157 394.482 155.531 391.659Z" fill="white"/>
<path d="M162.5 395C167.911 388.002 180.538 394.639 205.5 372.5C224.624 355.539 225.498 319.263 225.5 303C223.503 313.914 210.08 324.04 197 335C184.429 345.534 177.909 367.458 172 374.5C177.4 353.123 185.169 339.137 182.361 324.394C179.532 309.545 177.678 307.903 181.939 287.756C170.358 298.808 155.383 321.621 152.662 336.415C149.941 351.208 154 371.5 162.5 395Z" fill="white"/>
<path d="M214.5 374.5C214.5 371.5 213.536 365.754 212.546 364L211.437 366C211.466 366.332 211.664 366.526 212.001 367.5C212.673 369.449 212.739 370.011 213.001 373C213.262 375.988 213.458 377.546 214 378C214.541 378.455 214.5 378.623 214.5 374.5Z" fill="white"/>
<path d="M203 387.5C204.076 384.382 204.171 376.399 203.5 374.5L201.616 375.731C201.587 376.063 201.942 376.308 202.103 377.326C202.427 379.362 202.501 381.295 202.239 384.284C201.978 387.272 201.425 390.818 201.425 390.818C201.425 390.818 201.656 391.398 203 387.5Z" fill="white"/>
<path d="M186 397.5C188.135 395.365 189.299 386.633 189.535 384.276C189 384.5 188.283 384.39 188 385.239C187.646 386.3 187.49 390.739 186.5 392.5C183.97 397 184.542 398.958 186 397.5Z" fill="white"/>
<path d="M173.024 395.932C174.721 394.235 175.381 392.161 175.499 391.336L175.806 389.226C174.746 389.344 172.813 390.771 173.378 391.336C174.085 392.044 170.903 398.053 173.024 395.932Z" fill="white"/>
<path d="M107.5 140C109.9 141.6 115.5 146.333 118 148.5H116C115.167 147.5 112.7 145 109.5 143C105.5 140.5 101 136.5 99 134C97 131.5 100 133.5 100.5 134C101 134.5 104.5 138 107.5 140Z" fill="white"/>
<path d="M86.9629 141.897C89.3629 142.297 98.1094 149.697 99.6094 151.03L100.109 151.53C99.276 151.864 97.6094 152.43 97.6094 152.03C97.6094 151.53 92.1768 146.227 90.1768 145.727C88.1768 145.227 83.9629 141.397 86.9629 141.897Z" fill="white"/>
<path d="M76.3919 149.553C78.6159 150.048 83.0383 152.961 84.8916 154.198L81.2469 155.299C81.2469 154.68 80.4692 153.018 78.2452 152.028C75.4652 150.791 73.6119 148.934 76.3919 149.553Z" fill="white"/>
<path d="M69 159C75.5 165 70.1784 173.345 90.0575 200.141C105.287 220.671 140.299 225.08 156.5 226.5C148 222 140.278 209.986 130.5 196C121.102 182.558 95 174 88.5 167.5C107.5 177 119.568 180.513 134.5 179C149.539 177.477 155.301 173 175 179C165 166.5 141.953 153.855 127.453 149.855C112.953 145.855 91.5 153 69 159Z" fill="white"/>
<path d="M80 203.5C83.2 204.3 89.6667 202.833 91.5 202L89.7715 200.472C89.4382 200.472 89.2715 200.722 88.2715 200.972C86.2715 201.472 84.2715 201.472 81.2715 201.472C78.2715 201.472 75.2715 200.972 74.7715 201.472C74.2715 201.972 76 202.5 80 203.5Z" fill="white"/>
<path d="M73.7393 186.258C76.7518 187.602 82.4413 187.556 84.3915 187.053L83.7393 185.258C83.4111 185.2 83.7106 185.156 82.6824 185.229C80.626 185.374 78.6937 185.279 75.7393 184.758C72.7848 184.237 69.8799 182.971 69.3007 183.377C68.7215 183.782 69.9737 184.579 73.7393 186.258Z" fill="white"/>
<path d="M65.9996 170.5C67.875 172.735 72.0904 173.863 73.1544 174.028L75.5001 174.5C75.5723 173.117 74.4773 170.537 73.609 171.266C72.5236 172.177 63.6553 167.705 65.9996 170.5Z" fill="white"/>
<path d="M256.156 383.797C255.205 380.903 256.298 375.41 257.08 373.23C257.764 373.527 258.749 374.441 258.749 374.441C258.749 374.441 257.75 381.807 257.886 384.303C258.023 386.799 256.997 386.355 256.156 383.797Z" fill="white"/>
<path d="M271.134 391.343C269.897 389.247 269.703 384.711 269.76 382.705L269.822 382.001C270.613 382.425 272.118 383.337 271.812 383.594C271.429 383.916 271.38 388.525 272.283 390.379C273.185 392.232 272.679 393.962 271.134 391.343Z" fill="white"/>
<path d="M299.25 395.016C299.668 386.18 298.892 387.78 310.502 356.5C319.661 331.819 292.501 297 278.002 286.5C282.626 296.586 284.79 305.668 282.002 322C278.501 342.5 291.303 364.843 290.501 374C285.566 353.339 277.001 345 266.502 334.5C257.323 325.321 245.068 321.447 237.002 302.5C233.854 318.195 241.473 347.72 247.502 361.5C254.502 377.5 276.502 386 299.25 395.016Z" fill="white"/>
<path d="M324.858 352.994C323.436 348.965 316.568 343.632 312.72 341.639L311.694 341.194L312.152 344.074L312.856 344.135C315.612 345.086 316.96 345.914 321.459 351.276C324.37 354.745 326.532 357.738 324.858 352.994Z" fill="white"/>
<path d="M317.471 364.414C316.027 361.449 312.032 358.97 310.215 358.101L309.004 359.77C309.219 360.025 309.517 359.992 310.352 360.598C312.02 361.808 313.306 363.34 315.234 365.638C317.163 367.937 318.708 370.556 319.412 370.618C320.117 370.679 319.276 368.121 317.471 364.414Z" fill="white"/>
<path d="M311.002 378C309.365 375.137 307.14 371.171 305.502 370L304.502 372C304.669 372.289 305.285 373.259 306.002 374C307.435 375.482 308.24 376.838 308.502 377.5C309.607 380.289 311.818 382.317 312.501 382.5C313.184 382.683 313.002 381.5 311.002 378Z" fill="white"/>
<path d="M303.501 390.5C302.701 389.7 301.168 386.5 300.501 385C300.335 385.5 300.001 386.6 300.001 387C300.001 387.5 302.001 390.5 303.501 392C305.001 393.5 304.501 391.5 303.501 390.5Z" fill="white"/>
<path d="M284.22 396.752C282.984 394.656 282.789 390.12 282.846 388.114L282.908 387.41C283.699 387.834 285.204 388.746 284.898 389.004C284.515 389.325 284.466 393.934 285.369 395.788C286.272 397.641 285.765 399.372 284.22 396.752Z" fill="white"/>
<path d="M204 147C206 150 209 154 212.5 157.5C207.7 156.3 200.5 161 197.5 163.5C197.345 163.628 197 164 197 163.5C197 163 196.5 162 196.5 160.5C196.5 159 193.5 151 193 149.5C192.5 148 192.5 146.5 193 147C193.4 147.4 196.167 155.833 197.5 160C198 160.5 198.5 159.5 199.5 159C200.394 158.552 197.871 152.536 195.5 144C193 135 196 140 197 142C198 144 203.5 155.5 204 156C204.5 156.5 205 155.5 206.5 155C204.5 153 201.5 144.5 200.5 142C199.5 139.5 202 144 204 147Z" fill="white"/>
<path d="M270 151C268.987 154.46 268.566 158 268.566 163.244C266.4 158.795 258.172 156.301 254.328 155.61C254.131 155.573 253.117 155.321 253.5 155C253.883 154.679 254.834 153.879 255.984 152.915C257.133 151.951 261.172 145.435 262 144.088C262.828 142.74 264.313 141.797 264.251 142.501C264.202 143.065 260.335 149.8 258 153.5C257.938 154.204 258.035 153.804 259.061 154.249C259.978 154.647 262.43 150.305 266.625 142.5C272 132.5 269.889 140.948 269 143C268.111 145.051 264.313 155.064 264.252 155.768C264.19 156.472 265.277 156.213 266.625 157.04C266.871 154.223 270.728 144.874 272 142.501C273.272 140.128 271.013 147.54 270 151Z" fill="white"/>
<path d="M303.499 269C300.038 267.987 297.999 267 292.999 266C297.447 263.834 300.946 255.682 301.637 251.838C301.674 251.641 301.925 250.627 302.247 251.01C302.568 251.393 301.801 250.479 302.765 251.628C303.729 252.777 314.157 259.491 315.505 260.318C316.852 261.146 319.362 264.497 318.658 264.435C318.094 264.386 307.198 259.335 303.499 257C302.794 256.938 303.21 257.475 302.765 258.5C302.367 259.418 304.195 260.24 311.999 264.435C321.999 269.81 314.68 267.89 312.628 267C310.577 266.111 302.341 263.062 301.637 263C300.932 262.938 298.826 263.653 297.999 265C300.816 265.247 313.132 270.228 315.505 271.501C317.878 272.773 306.959 270.013 303.499 269Z" fill="white"/>
<path d="M257.501 308.999C255.77 305.836 255.291 303.696 251.667 299.71C256.344 301.323 263.295 298.729 266.501 296.5C266.667 296.386 268.663 295.035 268.62 295.533C268.576 296.031 267.946 296.89 267.816 298.384C267.685 299.878 271.634 308.962 272.001 310.5C272.369 312.037 272.456 313.042 272.001 312.5C271.637 312.067 267.466 304.767 266.501 300.5C266.001 299.71 264.501 301 263.875 301.312C262.98 301.758 266.319 306.256 268.871 314.741C272.141 325.613 268.323 319.08 267.501 317C266.68 314.921 260.456 304.042 260.001 303.5C259.547 302.959 257.447 302.17 255.909 302.538C257.727 304.704 262.223 312.422 263.001 315C263.779 317.578 259.964 313.5 257.501 308.999Z" fill="white"/>
<path d="M152.719 257.623C155.719 255.623 156.844 254.458 160.5 250.501C159.3 255.301 163.455 262.499 165.955 265.499C166.083 265.654 167.603 267.525 167.103 267.525C166.603 267.525 165.693 266.973 164.193 266.973C162.693 266.973 155 269.5 153.5 270C152 270.5 146.5 271.5 147 271C147.4 270.6 157.804 267.181 161.97 265.847C162.714 265.28 161.298 263.899 160.932 263.302C160.41 262.45 159.595 264.352 151 266.501C141 269.001 143.499 266.847 145.499 265.847C147.499 264.847 157.915 260.134 158.415 259.634C158.915 259.134 159.517 256.973 159.017 255.473C157.017 257.473 150 261.001 147.5 262.001C145 263.001 148.45 260.469 152.719 257.623Z" fill="white"/>
<path d="M158.001 191.5C161.536 192.207 163.106 193.11 168.49 192.896C164.247 195.442 162.355 202.111 162.001 206C161.982 206.2 162.355 210.854 162.001 210.5C161.647 210.146 159.738 208.42 158.677 207.36C157.617 206.299 151.166 202.442 149.752 201.735C148.337 201.028 143.741 197.846 144.448 197.846C145.014 197.846 154.788 202.785 158.677 204.788C159.604 204.913 159.58 202.935 159.743 202.255C159.977 201.282 158.056 202.051 150.458 197.493C141.62 192.189 142.327 191.293 144.448 192C146.57 192.707 159.85 197.881 160.557 197.881C161.264 197.881 163.218 196.779 163.925 195.364C161.096 195.364 149.476 191.561 147.001 190.5C144.527 189.44 152.97 190.494 158.001 191.5Z" fill="white"/>
<path d="M192 302.423C193.022 298.965 192.977 298.807 192.764 293.423C195.309 297.666 200.809 298.866 206.5 300.5C207 300.644 207.854 300.146 207.5 300.5C207.146 300.854 207 301 205.987 302.423C205.116 303.644 202.707 310.642 202 312.056C201.293 313.471 200.119 316.634 200.119 315.926C200.119 315.361 201.616 307.088 203.619 303.199C203.744 302.272 201.766 302.296 201.086 302.133C200.113 301.899 200.211 305.359 196.712 313.499C192.229 323.931 194.293 312.121 195 310C195.707 307.879 196.712 302.026 196.712 301.319C196.712 300.612 195.61 298.658 194.196 297.951C194.196 300.78 192.061 309.025 191 311.5C189.939 313.975 190.5 307.5 192 302.423Z" fill="white"/>
<path d="M211.5 68.0005C159.999 31.5 128.499 71.5 129.999 101.5C117 101.5 115.499 96.5 113 89C110.736 82.2083 112.5 60.5 124 45.5C135.5 30.5 148.5 25.5 152 23.5C152.5 27 151 28 144.5 38C138 48 140.5 54.5 142.5 62C143.5 61.5 145 61 145 57.5C145 54 146 53 149 49C152 45 156 39 157 37C162.499 40 167.5 39.5 173.5 45.5C180.499 52.5 182.5 52.5 183 53C183.5 53.5 184.5 50.5 181 42.5C177.515 34.5345 167.586 31.0302 159.109 28.0388L159 28C152.2 25.6 153.5 23.3333 155 22.5C222.5 22.5 222 59 211.5 68.0005Z" fill="white"/>
<path d="M131.5 56C131.5 58 135 65.4997 137 68.9997C137 71.3331 135 72.4999 133.5 71.9999C130 68.9997 129 64.5 129.5 57.4997C129.999 50.4997 131.5 53.2287 131.5 56Z" fill="#FEC16F"/>
<path d="M187.001 39.5009C187.998 41.2292 191.073 49.4259 191.001 53.5C192.165 55.5162 196.501 56 197.001 55.5C198.686 51.0705 198.057 45 193 40.0004C180.974 28.1098 185.618 37.1062 187.001 39.5009Z" fill="#FEC16F"/>
<path d="M331 103C320.5 43.9999 272 47.9999 246.5 65.4999C239 58.4999 238.593 53.852 241.5 46.5001C242.883 42.9998 250.049 30.0987 268.5 26C286.952 21.9014 299.5 21.4995 300.499 23.9999C298.633 27.0024 296.05 29.5842 286.5 32.4995C275.093 35.9818 275 46.9993 272.999 51.9993C276 52.4995 279.25 49.681 281.5 46.9999C283.75 44.3187 287.5 41.8159 291 40.9995C295.87 39.8636 298.448 38.3888 300.499 37.4995C302.784 43.3328 306.268 46.3132 308.5 54.4995C310 59.9995 312.793 61.9995 313.5 61.9995C314.5 61.9995 316.5 58.4995 316.5 52.9995C316.5 46.3286 314.805 43.8944 308.999 36.9993C301 27.4995 302.315 23.6739 304 23.9997C359 56.5002 354 95.5002 331 103Z" fill="white"/>
<path d="M268.074 39.104C266.788 40.6362 264.648 48.6307 263.931 52.5975C262.431 54.385 260.149 53.9934 259.321 52.6462C258.568 48.0982 260.695 44.0084 265.577 38.967C270.459 33.9258 269.855 36.981 268.074 39.104Z" fill="#FEC06F"/>
<path d="M323.999 58.3778C323.652 60.343 322.173 62.9251 319.499 65.9996C319.095 68.2924 323.295 72.0618 324 72.0002C327.999 67.4338 329.749 64.5825 329 57.5004C327.531 43.6221 324.479 55.6548 323.999 58.3778Z" fill="#FEC06F"/>
<path d="M333.499 81C332.699 82.6 330.833 83.6667 329.999 84C329.499 84.2304 330.499 85 331.499 85C332.499 85 332.999 84 333.499 81Z" fill="#FDBD6C"/>
<path d="M250 54.9996C249.824 56.7457 250.748 58.5107 251.231 59.1749C251.506 59.5997 250.341 59.8156 249.561 59.3649C248.78 58.9143 248.89 57.823 250 54.9996Z" fill="#FDBD6C"/>
<path d="M355.892 339.696C414.892 329.196 413.501 275 392.502 246.999C399.454 239.55 407.045 242.552 414.351 245.44L414.501 245.5C418.001 246.883 430.838 258.407 432.892 277.197C435.002 296.499 432.002 316.197 429.501 317.197C426.499 315.33 426.417 309.049 423.502 299.499C420.019 288.092 412.501 288.001 407.501 286C407.001 289.001 409.936 290.369 411.501 293.5C413.501 297.5 415.184 301.001 416.001 304.501C417.137 309.37 417.112 312.448 418.001 314.5C412.167 316.785 408.187 316.267 400.001 318.5C394.501 320 392.501 323.793 392.501 324.5C392.501 325.5 401.001 327.5 406.501 327.5C413.172 327.5 416.001 324.5 418.001 323C427.936 315.549 428.827 318.815 428.501 320.499C399.001 376 359.501 362.5 355.892 339.696Z" fill="white"/>
<path d="M421.001 284C416.501 280.57 412.283 279.395 408.501 278C407.001 276.212 407.989 272.614 409.46 272.033C414.069 272.082 418.008 274.693 421.845 280.57C428.001 289.999 423.204 285.68 421.001 284Z" fill="#F7994D"/>
<path d="M398.124 333.499C396.159 333.153 391.966 332.871 388.892 330.197C386.599 329.792 382.83 333.993 382.891 334.697C387.458 338.697 392.767 341.317 399.501 338.999C412.001 334.698 400.847 333.98 398.124 333.499Z" fill="#F7994D"/>
<path d="M244.501 396.5C289.001 429 328.001 395.499 332.001 362.499C342.246 363.04 346.002 369.501 348.501 377.001C349.691 380.572 351.074 401.851 338.001 415.502C324.57 429.526 306.874 441.275 304.501 440.002C304.001 436.502 309.417 427.845 314.859 419.473C321.359 409.473 316.596 403.655 314.915 398.539C312.295 400.085 313.133 403.213 311.741 406.424C309.962 410.527 308.001 414 306.501 417.5C304.531 422.096 301.832 425.402 300.832 427.402C295.332 424.402 293.473 425.836 286.501 421C281.817 417.751 277.501 412 274.001 413C271.412 413.74 275.466 420.689 279.001 424.902C283.289 430.012 288.066 431.932 290.501 432.5C302.595 435.321 303.5 441.167 302 442C249.501 440.5 229.352 413.923 244.501 396.5Z" fill="white"/>
<path d="M324.125 411.595C323.861 405.943 321.863 401.794 320.501 398C320.906 395.702 323.111 391.247 324.501 392C327.427 395.562 330.207 403.464 327.501 410.5C323.46 421.011 324.255 414.363 324.125 411.595Z" fill="#F4863D"/>
<path d="M269.001 423.001C268.003 421.272 267.025 416.767 267.097 412.693C265.933 410.677 261.501 410.5 261.001 411C260.872 417.069 261.069 422.809 267.173 426.478C274.501 430.883 270.383 425.395 269.001 423.001Z" fill="#F4863D"/>
<path d="M124.873 363.764C138.072 417.264 189.224 418.709 213.5 396.001C219.999 405.5 218.924 411 217.076 415.677C215.692 419.177 203.074 436.367 184.284 438.421C164.982 440.531 157.999 442.064 157 439.564C158.867 436.562 160.453 434.916 170.003 432.001C181.41 428.519 181.502 419.587 183.503 414.587C180.502 414.087 177.5 414.677 174 417.5C170.519 420.308 167 422.732 163.5 424.5C159.037 426.754 159.552 426.111 157.5 427C154.5 423.645 150.233 418.186 148 410C146.5 404.5 146.324 401.485 143 400.001C140.541 398.903 140.499 402.5 140.499 408C140.499 414.671 145 421.645 146.5 423.645C153.951 433.58 156.185 439.89 154.5 439.564C102.499 415.73 102.07 367.373 124.873 363.764Z" fill="white"/>
<path d="M186 425.5C189.43 421.001 188.605 416.281 190 412.5C191.5 411.5 197.469 409.269 198.05 410.74C198.001 415.349 195.052 423.189 188.456 426.84C184.555 429 184.32 427.704 186 425.5Z" fill="#F4893F"/>
<path d="M134.193 407.999C134.539 406.034 135.1 398.767 137.774 395.693C138.179 393.4 134.897 390.416 134.192 390.478C130.193 395.044 127.131 401.481 129.999 408C135.5 420.5 133.712 410.722 134.193 407.999Z" fill="#F4893F"/>
<path d="M64.5001 245.5C32.0001 290 66.0001 335.501 99.0001 339.5C99.0001 351.5 90.2705 354.411 85.5001 356C81.9292 357.19 65.9998 359.999 52.0007 348C37.2577 335.363 31.2274 321.872 32.5005 319.5C36.0005 319 37.9033 321.392 47.056 325.382C56.5007 329.5 59.3838 324.681 64.5001 323C62.9543 320.379 62.9127 320.366 58.5001 319.5C54.1117 318.638 51.1044 317.044 47.5001 315.5C44.5007 314.214 44.5007 313.5 42.5007 312.5C43.1429 308.045 44.1746 304.481 47.056 296.5C48.5001 292.5 50.5715 289.294 50.0001 287.294C49.2604 284.705 47.9795 283.964 43.7662 287.5C38.6561 291.788 36.5003 299 36.5003 302C36.5003 314.419 31.0272 318 30.1938 316.5C10.5005 259.5 47.0774 230.351 64.5001 245.5Z" fill="white"/>
<path d="M61.0005 334C66.6522 333.736 67.5005 331.5 71.0006 330C72.7308 330.507 74.754 332.109 74.0012 333.5C70.4388 336.426 67.5005 337.001 59.5012 336.5C55.0507 336.222 58.2322 334.129 61.0005 334Z" fill="#F7974B"/>
<path d="M40.501 280C42.2292 279.002 44.2287 276.902 48.3028 276.974C50.319 275.81 50.5011 270.5 50.0011 270C43.9323 269.872 41.4548 270.902 38.3047 277.289C34.0086 286 38.1063 281.382 40.501 280Z" fill="#F7974B"/>
<path d="M85.0009 339.5C85.4009 338.3 83.8342 339 83.0009 339.5C82.3342 340.667 80.8009 343.3 80.0009 344.5C79.0009 346 84.5009 341 85.0009 339.5Z" fill="#F7974B"/>
<path d="M54.5007 257.5C54.8888 255.948 51.0007 256.501 49.0007 257.501C49.5007 258 50.9007 259 52.5007 259C54.5007 259 54.0007 259.5 54.5007 257.5Z" fill="#F7974B"/>
<path d="M104.5 120C56.499 123.5 38.9991 179.5 66.9991 211.5C59.4994 218.623 56.4251 218.009 51.499 217C47.8115 216.245 35.4957 211.335 29.3716 193.944C22.7007 175 26.8394 144.025 29.3716 146C34.499 150 33.0678 161.468 38.999 169.5C45.1196 177.789 48.4996 177.5 51.499 176.5C51.4704 173.458 50.5098 173.523 48.499 169.5C45.9996 164.5 46.3759 162.172 44.999 158.5C43.499 154.5 42.9561 149.865 41.724 147.999C44.999 147 48.499 146.499 55.999 143.499C59.9476 141.92 63.9944 139.45 64.4996 137.432C65.1534 134.82 59.4155 134.045 53.999 135C47.4296 136.159 45.1204 137.379 42.999 139.5C39.499 143 29.3435 143.216 29.3719 141.5C42.9985 99.5005 98.5 82.9998 104.5 120Z" fill="white"/>
<path d="M39.4985 180.5C44.5252 183.097 47.2523 183.601 51.0333 184.053C52.2786 185.356 52.3814 189.172 51.0342 190C46.4863 190.753 38.0472 192 35.4993 180.5C34.5346 176.146 37.0364 179.228 39.4985 180.5Z" fill="#FAA95B"/>
<path d="M56.6508 126.342C58.6463 126.342 68.5069 127.401 71.9991 129.501C74.3272 129.501 78.6821 124.684 78.4991 124.001C73.3076 120.855 62.5726 118.044 56.6511 122C48.5749 127.396 53.8857 126.342 56.6508 126.342Z" fill="#FAA95B"/>
<path d="M56.1275 201.992C57.0663 201.464 54.9325 200.856 53.7482 200.618C52.505 200.939 49.665 201.646 48.2504 201.898C46.482 202.213 54.954 202.65 56.1275 201.992Z" fill="#FAA95B"/>
<path d="M89.8495 119.459C90.8657 119.094 88.1852 116.461 86.4484 115.406C86.5075 115.985 86.8732 117.436 87.8625 118.615C89.0992 120.089 88.5402 119.93 89.8495 119.459Z" fill="#FAA95B"/>
<path d="M392.714 215.5C421.501 176.5 398.019 127.016 356.001 120.5C357.168 110.223 364.579 105.894 369.001 103.5C372.311 101.708 386.631 100.115 402.501 109.501C419.788 119.725 430.211 145.386 427.001 145.501C420.502 145.732 416.498 137.619 406.791 135.278C396.775 132.863 394.371 135.257 392.716 137.951C394.693 140.263 394.374 142.211 398.5 144C403.628 146.224 405.734 146.939 409 148C413.062 149.321 416.358 150.362 418.501 151C417.5 155 416.817 161.381 413 168.5C410.99 172.248 407.59 178.13 408.5 180C409.678 182.421 413.964 178.213 417.5 174C421.788 168.89 422.74 165.989 423.001 163C423.433 158.069 427.499 144.5 430 146.5C440.998 188 418.525 235.501 392.714 215.5Z" fill="white"/>
<path d="M400.001 128.501C394.481 129.742 391.405 129.782 388.218 131.866C386.426 131.668 380.502 128.5 381.002 127C384.002 123.501 395.657 118.829 405.001 126C408.538 128.715 402.705 127.892 400.001 128.501Z" fill="#FBAD5E"/>
<path d="M420.001 181.5C418.766 182.537 412.189 186.524 409.037 187.157C407.596 188.366 406.566 192.711 407.001 193C412.001 193 420.279 188.706 422.077 183.405C424.529 176.175 421.713 180.065 420.001 181.5Z" fill="#FBAD5E"/>
<path d="M368.001 121.233C367.62 122.24 370.441 123.079 371.501 122.5C372.247 121.455 374.001 117.302 374.889 116.24C376.041 114.862 368.476 119.974 368.001 121.233Z" fill="#FBAD5E"/>
<path d="M402.001 203.5C400.997 205.644 409.501 204.499 413.001 201.5C412.347 200.637 408.305 201.043 405.803 200.602C402.675 200.05 403.294 200.738 402.001 203.5Z" fill="#FBAD5E"/>
</svg>
