<svg width="528" height="528" viewBox="0 0 528 528" fill="none" xmlns="http://www.w3.org/2000/svg">
<path d="M266.775 256.998C261.575 254.998 258.421 259.503 258.275 261.999C257.775 270.498 265.681 269.783 267.775 268.998C271.774 267.498 273.275 259.498 266.775 256.998Z" stroke="black" stroke-width="0.5"/>
<path d="M284.752 204.5C280.352 206.9 276.585 211.333 275.752 213C276.752 202 273.252 193.5 266.252 193C258.752 193 255.252 204 254.752 211.5C248.752 207.5 244.752 200 241.252 200C237.752 207.5 238.752 212.5 239.252 218.5C230.752 212.5 225.752 211 220.752 212.5C209.752 216 218.752 229.5 221.752 233.5C216.752 233 208.252 235 204.252 237C208.752 245 212.752 249.5 216.252 252C205.752 252 197.252 257 197.252 262.5C197.752 273 210.752 272.5 217.252 272.5C209.752 277 204.752 285.5 202.752 288.5C208.252 290 215.752 290.5 222.752 291C219.252 294.5 215.252 301 215.252 307.5C216.752 319.5 231.252 309 236.252 305.5C235.252 309.5 236.752 321.5 236.752 327C242.752 323.5 247.752 318 255.252 312C254.252 325.5 262.252 333 266.752 333C271.252 333 275.252 323 275.752 316C278.752 320 286.752 324 290.752 326C292.752 322.5 293.252 313.5 292.752 307.5C293.752 308 302.752 314 311.752 312C320.752 310 308.752 295.5 306.752 292.5C318.752 292 322.752 288.5 326.252 287.5C325.252 284 316.252 276.5 310.752 273.5C319.752 272.5 323.252 271.5 329.752 266.5C337.252 257 321.252 253 314.252 252C319.752 249 325.752 240.5 327.252 238C324.752 237 315.752 235 308.752 234.5C314.252 227.5 317.252 221.5 316.252 217C312.252 205 299.752 214.5 294.752 217.5C296.252 212.5 293.252 201 292.252 199C291.252 200 290.252 201.5 284.752 204.5Z" fill="#99A2D9"/>
<path d="M286.752 204.5C282.352 206.9 278.585 211.333 277.752 213C278.752 202 275.252 193.5 268.252 193C260.752 193 257.252 204 256.752 211.5C250.752 207.5 246.752 200 243.252 200C239.752 207.5 240.752 212.5 241.252 218.5C232.752 212.5 227.752 211 222.752 212.5C211.752 216 220.752 229.5 223.752 233.5C218.752 233 210.252 235 206.252 237C210.752 245 214.752 249.5 218.252 252C207.752 252 199.252 257 199.252 262.5C199.752 273 212.752 272.5 219.252 272.5C211.752 277 206.752 285.5 204.752 288.5C210.252 290 217.752 290.5 224.752 291C221.252 294.5 217.252 301 217.252 307.5C218.752 319.5 233.252 309 238.252 305.5C237.252 309.5 238.752 321.5 238.752 327C244.752 323.5 249.752 318 257.252 312C256.252 325.5 264.252 333 268.752 333C273.252 333 277.252 323 277.752 316C280.752 320 288.752 324 292.752 326C294.752 322.5 295.252 313.5 294.752 307.5C295.752 308 304.752 314 313.752 312C322.752 310 310.752 295.5 308.752 292.5C320.752 292 324.752 288.5 328.252 287.5C327.252 284 318.252 276.5 312.752 273.5C321.752 272.5 325.252 271.5 331.752 266.5C339.252 257 323.252 253 316.252 252C321.752 249 327.752 240.5 329.252 238C326.752 237 317.752 235 310.752 234.5C316.252 227.5 319.252 221.5 318.252 217C314.252 205 301.752 214.5 296.752 217.5C298.252 212.5 295.252 201 294.252 199C293.252 200 292.252 201.5 286.752 204.5Z" fill="white"/>
<path d="M283.252 217.5C279.252 219.5 272.919 231.333 270.252 237C269.252 229 269.752 215.5 265.752 207.5C262.252 212 261.752 228 261.252 237C259.252 228.5 253.752 222 249.752 216V225C249.752 231.5 249.752 233.5 250.752 240C243.752 233 237.252 226.5 229.752 225C230.752 231 241.252 243 244.752 247C241.252 244.5 228.252 244.5 222.752 244C224.252 247 238.252 256 240.252 258C229.852 258 217.419 260.833 213.252 262.5C214.085 262.667 217.352 263.5 217.752 263.5C222.752 263.5 233.252 269 240.252 269.5C233.752 272.5 225.752 279.5 221.752 283C231.252 282.5 231.752 282 242.752 279C235.152 285 229.585 296.833 227.752 302C243.752 295 247.252 288 250.752 285C249.752 288.5 247.252 303 248.252 307.5C254.752 305 260.252 289.5 260.252 289C260.252 288.5 261.752 284.5 261.752 292C261.752 299.5 263.252 310.5 265.752 316.5C268.252 314 268.252 295.5 268.252 289.5C269.852 292.7 278.252 302.5 282.252 307C281.252 295.5 277.252 289.5 277.252 287.5C277.252 287 276.252 284 278.752 286.5C281.252 289 291.252 297.5 298.752 300C296.252 295.5 287.252 283 283.252 277.5C285.752 278.5 294.252 281 305.252 283C304.052 279.8 292.752 271.667 287.252 268C293.252 268 308.252 266 312.252 264.5C308.752 261.5 304.252 260.5 287.252 256.5C290.252 254.5 301.252 248.5 308.252 243C305.452 242.6 290.419 245.5 283.252 247C285.252 245 299.252 233 301.252 226.5C296.752 226.5 287.252 233.5 278.752 241C280.752 236.5 284.752 216 283.252 217.5Z" fill="#FAA759"/>
<path d="M264.775 256.998C259.575 254.998 256.421 259.503 256.275 261.999C255.775 270.498 263.681 269.783 265.775 268.998C269.774 267.498 271.275 259.498 264.775 256.998Z" fill="#99A2D9"/>
<path d="M265.775 255.998C260.575 253.998 257.421 258.503 257.275 260.999C256.775 269.498 264.681 268.783 266.775 267.998C270.774 266.498 272.275 258.498 265.775 255.998Z" fill="white"/>
</svg>
