<svg width="372" height="363" viewBox="0 0 372 363" fill="none" xmlns="http://www.w3.org/2000/svg">
<path d="M302 274C297 271.5 294.167 265.333 293.5 262.5C294.167 262.5 296 263.1 296 263.5C296 264 297.263 266.851 298.5 268.5C300 270.5 302 272 303.5 273.5C305 275 306.817 276.408 302 274Z" fill="white"/>
<path d="M317 271.5C314.172 270.369 310.667 266 309.5 264C310.167 263.667 311.5 263.5 311.5 263.5C311.5 263.5 316.5 269 318.5 270.5C320.5 272 319.5 272.5 317 271.5Z" fill="white"/>
<path d="M331 265C328.6 264.6 325 261.833 323.5 260.5L323 260C323.833 259.667 325.5 259.1 325.5 259.5C325.5 260 329 263 331 263.5C333 264 334 265.5 331 265Z" fill="white"/>
<path d="M342 258.5C340.8 258.1 338.5 256 337.5 255L339.5 254C339.5 254.5 339.8 255.7 341 256.5C342.5 257.5 343.5 259 342 258.5Z" fill="white"/>
<path d="M349.5 251C343 245 345.5 240.5 329 211.5C315.982 188.619 279.971 185.64 263 187C273.699 189.941 280.5 203 290.5 216C300.5 229 322.5 236 329 242.5C310 233 295 228 282.5 231.5C270 235 263.199 237.5 243.5 231.5C253.5 244 282.5 259.5 297 263.5C311.5 267.5 327 257 349.5 251Z" fill="white"/>
<path d="M334.5 196.5C330.5 195 322 196.833 318 198.5L317 199L319.5 200.5L320 200C322.5 198.5 324 198 331 198C335.528 198 339.211 198.267 334.5 196.5Z" fill="white"/>
<path d="M338.5 209.5C335.3 208.7 330.833 210.166 329 211L329.5 213C329.833 213 330 212.75 331 212.5C333 212 335 212 338 212C341 212 344 212.5 344.5 212C345 211.5 342.5 210.5 338.5 209.5Z" fill="white"/>
<path d="M345.999 223.499C342.986 222.156 337.297 222.202 335.347 222.704L335.999 224.499C336.327 224.557 336.028 224.602 337.056 224.529C339.112 224.384 341.045 224.479 343.999 225C346.953 225.521 349.858 226.787 350.438 226.381C351.017 225.975 349.765 225.179 345.999 223.499Z" fill="white"/>
<path d="M349.501 238C346.488 236.656 343.951 235.998 342.001 236.5L342.501 238.5C342.829 238.558 342.029 238.602 343.058 238.53C345.114 238.384 344.546 238.479 347.501 239C350.455 239.521 351.501 240.5 352.501 240.5C353.208 240.5 353.266 239.679 349.501 238Z" fill="white"/>
<path d="M276.883 64.6807C274.383 69.6807 268.216 72.514 265.383 73.1807C265.383 72.514 265.983 70.6807 266.383 70.6807C266.883 70.6807 269.734 69.4176 271.383 68.1807C273.383 66.6807 274.883 64.6807 276.383 63.1807C277.883 61.6807 279.291 59.864 276.883 64.6807Z" fill="white"/>
<path d="M274.383 49.6807C273.251 52.5091 268.883 56.014 266.883 57.1807C266.549 56.514 266.383 55.1807 266.383 55.1807C266.383 55.1807 271.883 50.1807 273.383 48.1807C274.883 46.1807 275.383 47.1807 274.383 49.6807Z" fill="white"/>
<path d="M267.882 35.6807C267.482 38.0807 264.715 41.6807 263.382 43.1807L262.882 43.6807C262.548 42.8473 261.982 41.1807 262.382 41.1807C262.882 41.1807 265.882 37.6807 266.382 35.6807C266.882 33.6807 268.382 32.6807 267.882 35.6807Z" fill="white"/>
<path d="M261.383 24.6807C260.983 25.8807 258.883 28.1807 257.883 29.1807L256.883 27.1807C257.383 27.1807 258.583 26.8807 259.383 25.6807C260.383 24.1807 261.883 23.1807 261.383 24.6807Z" fill="white"/>
<path d="M214.305 37.5357C243.2 21.007 247.684 23.5113 253.662 17C259.64 39.5392 270.102 55.0661 266.117 69.5914C262.131 84.1166 250.291 107.977 233.353 121C240.327 100.965 239.829 95.9565 236.342 83.4347C232.854 70.913 237.836 54.3843 247.302 35.3512C240.826 41.8625 233.353 65.9043 218.789 76.1027C205.379 85.4928 196.926 92.2513 193.996 102.969C193.875 101.449 193.756 99.7833 193.655 97.9994C192.63 79.8212 193.544 49.4114 214.305 37.5357Z" fill="white"/>
<path d="M199.382 32.1807C197.882 36.1807 199.715 44.6807 201.382 48.6807L201.882 49.6807L203.382 47.1807L202.882 46.6807C201.382 44.1807 200.882 42.6807 200.882 35.6807C200.882 31.153 201.149 27.4701 199.382 32.1807Z" fill="white"/>
<path d="M212.382 28.1807C211.582 31.3807 213.048 35.8473 213.882 37.6807L215.882 37.1807C215.882 36.8473 215.632 36.6807 215.382 35.6807C214.882 33.6807 214.882 31.6807 214.882 28.6807C214.882 25.6807 215.382 22.6807 214.882 22.1807C214.382 21.6807 213.382 24.1807 212.382 28.1807Z" fill="white"/>
<path d="M226.381 20.6807C225.038 23.6932 225.084 29.3827 225.586 31.3329L227.381 30.6807C227.439 30.3525 227.484 30.652 227.411 29.6238C227.266 27.5674 227.361 25.6351 227.882 22.6807C228.403 19.7262 229.668 16.8213 229.263 16.2421C228.857 15.6629 228.061 16.9151 226.381 20.6807Z" fill="white"/>
<path d="M240.883 17.1808C239.539 20.1933 238.88 22.7305 239.383 24.6807L241.383 24.1808C241.441 23.8525 241.485 24.6523 241.412 23.6241C241.267 21.5676 241.362 22.1353 241.883 19.1809C242.404 16.2265 243.383 15.1807 243.383 14.1808C243.383 13.4737 242.562 13.4153 240.883 17.1808Z" fill="white"/>
<path d="M169.834 34.1037C172.057 39.2328 170.264 45.778 168.953 48.377C168.442 47.9484 167.424 46.3104 167.681 46.0039C168.002 45.6209 168.867 42.6252 168.98 40.5667C169.116 38.0705 168.548 35.6358 168.363 33.5226C168.178 31.4093 167.692 29.1628 169.834 34.1037Z" fill="white"/>
<path d="M158.737 28.3769C160.176 31.0617 160.053 36.6612 159.661 38.9432C158.936 38.7701 157.808 38.0406 157.808 38.0406C157.808 38.0406 157.513 30.6135 156.945 28.1789C156.377 25.7442 157.464 26.0039 158.737 28.3769Z" fill="white"/>
<path d="M140.869 15.5C142.451 17.3491 144.394 28.64 144.686 30.6255L144.748 31.3299C143.895 31.0496 142.254 30.4124 142.511 30.106C142.833 29.723 142.08 22.1686 140.869 20.5C139.658 18.8314 138.892 13.1886 140.869 15.5Z" fill="white"/>
<path d="M127.975 15.9786C129.361 17.7874 130.876 22.8614 131.5 25.0008L128.001 23.501C128.399 23.0269 128.871 21.2542 127.804 19.0661C126.47 16.3311 126.243 13.7176 127.975 15.9786Z" fill="white"/>
<path d="M117.663 19.1901C118.786 27.9644 109.974 29.3204 107.977 62.626C106.448 88.1419 127.948 107.142 139.446 118.643C133.141 109.514 136.947 95.6426 138.446 78.6436C139.887 62.3058 128.705 48.0361 127.904 38.8787C136.352 58.3691 144.036 69.2023 156.447 77.6416C168.947 86.1416 169.214 84.3831 180.447 101.641C180.822 85.6381 177.484 60.5262 168.947 48.1416C160.411 35.757 138.756 29.0565 117.663 19.1901Z" fill="white"/>
<path d="M99.4142 63.0523C101.351 65.7221 105.716 67.4697 107.656 68.0097L108.558 66.1561C108.303 65.9418 108.015 66.0262 107.088 65.5749C105.235 64.6724 103.702 63.3868 101.404 61.4584C99.1062 59.5301 97.1294 57.2187 96.425 57.2803C95.7206 57.342 96.9928 59.7151 99.4142 63.0523Z" fill="white"/>
<path d="M100.666 47.507C102.11 50.4726 106.498 54.0943 108.315 54.9631L108.969 53.1688C108.755 52.9134 109.013 53.072 108.179 52.4667C106.51 51.256 105.091 49.9411 103.163 47.643C101.234 45.3449 99.8226 42.5081 99.1182 42.4465C98.4138 42.3849 98.8611 43.8 100.666 47.507Z" fill="white"/>
<path d="M107.502 32C107.502 33.9992 109.502 37.6675 111.002 39.5008C111.335 39.3342 111.902 38.8008 111.502 38.0008L111.498 37.9928C110.999 36.9954 110.499 35.996 109.502 34.5008C108.002 32.0008 107.502 29.9384 107.502 32Z" fill="white"/>
<path d="M113.502 22.4999C113.502 24.8998 114.502 26.8332 115.002 27.4999L115.501 28.5C116.168 27.6666 117.301 25.9999 116.501 25.9999C115.501 25.9999 113.502 19.5001 113.502 22.4999Z" fill="white"/>
<path d="M333.142 164.338C327.839 166.106 321.475 163.749 319 162.217C319.471 161.745 321.192 160.873 321.475 161.156C321.828 161.51 324.737 162.632 326.778 162.924C329.253 163.277 331.728 162.924 333.849 162.924C335.971 162.924 338.251 162.635 333.142 164.338Z" fill="white"/>
<path d="M341.416 151.926C338.41 152.92 332.048 151.514 329.444 150.561C329.619 149.793 330.414 148.702 330.414 148.702C330.414 148.702 338.84 150.057 341.588 149.976C344.336 149.895 344.073 151.047 341.416 151.926Z" fill="white"/>
<path d="M348.501 137C346.447 138.34 341.217 137.897 338.968 137.769L336.002 137.769C336.294 136.883 336.644 134.643 337.001 135C337.446 135.445 344.641 136.968 346.501 136C348.361 135.032 351.068 135.324 348.501 137Z" fill="white"/>
<path d="M351 122.799C349.142 123.849 343.222 124.798 341 125L342.5 121.5C343.005 122.005 345.505 122.637 347.768 121.99C350.596 121.183 353.323 121.486 351 122.799Z" fill="white"/>
<path d="M348 108C339.161 108.354 342.173 106.839 310 98C284.615 91.0262 255.102 116.463 244.063 129.424C255.5 123.5 271.737 124.379 288 126.5C304.264 128.621 316.308 118.5 325.5 118.5C309.5 126.5 297.5 135.5 290 144.5C281.69 154.472 279.913 164.993 261.741 174.68C277.651 176.447 304.5 175.5 322.199 159.477C333.349 149.382 337.5 131 348 108Z" fill="white"/>
<path d="M307.501 83.5001C303.612 85.2678 296.651 90.993 295.001 95L293.5 97.4993L298.001 97L298.001 96C298.708 93.1716 300.051 91.9498 305.001 87C308.203 83.7984 312.081 81.4184 307.501 83.5001Z" fill="white"/>
<path d="M319 89.9992C316.172 91.6962 312.208 96.4862 311.501 98.3718L314.001 98.9999C314.237 98.7642 313.648 99.2562 314.178 98.3723C315.239 96.6045 315.879 94.6209 318.001 92.4996C320.122 90.3782 325.011 88.2315 325.011 87.5244C325.011 86.8173 322.536 87.8778 319 89.9992Z" fill="white"/>
<path d="M340 97.5009C340.5 95.5018 331.167 100.334 328.5 103.001L328 103.5L330.5 104L331.5 102.5C332.5 101 339.5 99.5 340 97.5009Z" fill="white"/>
<path d="M35 198.5C41.3318 196.34 51.6308 198.261 55.127 200.198C54.6363 200.783 52.6505 201.857 52.2262 201.501C51.6959 201.056 47.6598 199.883 45 199.5C41.7745 199.036 39.6951 199.519 37 199.5C34.3049 199.481 28.9004 200.581 35 198.5Z" fill="white"/>
<path d="M25.002 211.491C27.6867 210.052 42.4132 211.099 44.6952 211.491C44.522 212.216 43.7925 213.345 43.7925 213.345C43.7925 213.345 35.9366 212.432 33.502 213C31.0673 213.568 22.6289 212.764 25.002 211.491Z" fill="white"/>
<path d="M23 225.5C24.8491 223.918 35.39 222.757 37.3756 222.465L38.9998 221.999C38.7195 222.852 37.6822 225.071 37.3758 224.814C36.9928 224.493 29.1686 224.289 27.5 225.5C25.8314 226.71 20.6887 227.476 23 225.5Z" fill="white"/>
<path d="M19.9786 240.59C21.7874 239.205 30.3613 237.624 32.5007 237L31.001 240C30.5007 239.5 25.2541 239.694 23.0661 240.761C20.331 242.096 17.7176 242.322 19.9786 240.59Z" fill="white"/>
<path d="M25.9413 251.489C34.7157 250.366 36.0717 259.179 69.3773 261.175C94.8931 262.704 117 242.998 128.502 231.499C119.372 237.805 101.392 234.498 84.3929 232.999C68.0551 231.558 51.6584 240.699 42.501 241.5C61.9914 233.052 75.9535 225.116 84.3929 212.705C92.8929 200.205 92.7428 197.733 110.001 186.5C93.9978 186.125 67.2775 191.668 54.8929 200.205C42.5083 208.741 35.8078 230.396 25.9413 251.489Z" fill="white"/>
<path d="M69.8031 270.738C72.4728 268.801 74.9609 263.534 75.501 261.594L72.9068 261.593C72.6926 261.849 72.777 262.137 72.3257 263.064C71.4231 264.917 70.1376 266.45 68.2092 268.748C66.2808 271.046 63.9694 273.023 64.0311 273.727C64.0927 274.431 66.4659 273.159 69.8031 270.738Z" fill="white"/>
<path d="M55.2577 269.486C58.2232 268.042 62.6324 262.818 63.5011 261.001L61.0007 260.5C60.7453 260.715 60.8227 261.139 60.2174 261.973C59.0067 263.642 57.6918 265.061 55.3937 266.989C53.0955 268.917 50.2588 270.329 50.1972 271.034C50.1355 271.738 51.5507 271.291 55.2577 269.486Z" fill="white"/>
<path d="M34.7512 264.65C36.7504 264.65 43.1679 259.499 45.0012 257.999C45.0016 256.5 43.0517 256.599 42.2517 256.999C41.2517 257.499 38.0002 260.5 36.501 261.5C34.001 263 32.6897 264.65 34.7512 264.65Z" fill="white"/>
<path d="M25.7929 255.274C28.1928 255.275 30.1262 254.275 30.7929 253.774L32.502 252.5C31.6686 251.833 29.2929 251.475 29.2929 252.275C29.2929 253.275 22.7931 255.274 25.7929 255.274Z" fill="white"/>
<path d="M96.999 299C100.248 293.152 103.98 292.347 107.822 291.244C107.889 292.005 107.244 294.168 106.692 294.216L106.685 294.217C105.993 294.278 104.643 294.396 102.499 296C99.8898 297.952 99.4185 299.108 97.499 301C95.5795 302.892 94.499 303.5 96.999 299Z" fill="white"/>
<path d="M99.499 319.5C99.9298 316.484 106.109 310.337 107.999 309C108.39 309.635 108.499 311.5 108.499 311.5C108.499 311.5 106.819 312.377 105.499 314.5C104.179 316.623 98.999 323 99.499 319.5Z" fill="white"/>
<path d="M105.501 331.5C105.69 329.074 109.803 324.11 111.001 322.5C111.406 323.301 111.899 324.465 111.501 324.5C111.003 324.544 108.825 326.464 108.501 328.5C108.177 330.536 105.264 334.532 105.501 331.5Z" fill="white"/>
<path d="M110.531 340.66C110.83 338.401 112.929 334.954 114 333L114.5 335.5C113.793 335.5 113.293 336.198 112.5 338.5C111.509 341.377 110.157 343.483 110.531 340.66Z" fill="white"/>
<path d="M117.5 344C122.911 337.002 135.538 343.639 160.5 321.5C179.624 304.539 180.498 268.263 180.5 252C178.503 262.914 165.08 273.04 152 284C139.429 294.534 132.909 316.458 127 323.5C132.4 302.123 140.169 288.137 137.361 273.394C134.532 258.545 132.678 256.903 136.939 236.756C125.358 247.808 110.383 270.621 107.662 285.415C104.941 300.208 109 320.5 117.5 344Z" fill="white"/>
<path d="M169.5 323.499C169.5 320.5 168.536 314.753 167.546 313L166.437 314.999C166.466 315.332 166.664 315.525 167 316.499C167.673 318.448 167.739 319.011 168 321.999C168.262 324.988 168.458 326.545 168.999 327C169.541 327.454 169.5 327.622 169.5 323.499Z" fill="white"/>
<path d="M158.001 336.5C159.076 333.382 159.171 325.399 158.501 323.5L156.616 324.73C156.587 325.062 156.942 325.307 157.104 326.325C157.427 328.361 157.501 330.295 157.24 333.283C156.978 336.272 156.425 339.818 156.425 339.818C156.425 339.818 156.656 340.398 158.001 336.5Z" fill="white"/>
<path d="M141 346.5C143.135 344.365 144.299 335.632 144.535 333.275C144 333.5 143.283 333.39 143 334.238C142.646 335.299 142.49 339.739 141.5 341.5C138.971 346 139.542 347.958 141 346.5Z" fill="white"/>
<path d="M128.024 344.932C129.721 343.235 130.381 341.161 130.499 340.336L130.806 338.226C129.746 338.344 127.813 339.771 128.378 340.336C129.085 341.044 125.903 347.053 128.024 344.932Z" fill="white"/>
<path d="M62.5 89C64.9 90.6 70.5 95.3333 73 97.5H71C70.1667 96.5 67.7 94 64.5 92C60.5 89.5 56 85.5 54 83C52 80.5 55 82.5 55.5 83C56 83.5 59.5 87 62.5 89Z" fill="white"/>
<path d="M41.9629 90.8971C44.3629 91.2971 53.1094 98.6971 54.6094 100.03L55.1094 100.53C54.276 100.864 52.6094 101.43 52.6094 101.03C52.6094 100.53 47.1768 95.2273 45.1768 94.7273C43.1768 94.2273 38.9629 90.3971 41.9629 90.8971Z" fill="white"/>
<path d="M31.3909 98.5529C33.6149 99.048 38.0373 101.961 39.8906 103.198L36.2459 104.299C36.2459 103.68 35.4682 102.018 33.2442 101.028C30.4642 99.7906 28.6109 97.9341 31.3909 98.5529Z" fill="white"/>
<path d="M24 108C30.5 114 25.1784 122.345 45.0575 149.141C60.2872 169.671 95.2988 174.08 111.5 175.5C103 171 95.2784 158.986 85.5 145C76.102 131.558 50 123 43.5 116.5C62.5 126 74.5681 129.513 89.5 128C104.539 126.477 110.301 122 130 128C120 115.5 96.9529 102.855 82.4529 98.8548C67.9529 94.8548 46.5 102 24 108Z" fill="white"/>
<path d="M35 152.5C38.2 153.3 44.6667 151.833 46.5 151L44.7715 149.472C44.4382 149.472 44.2715 149.722 43.2715 149.972C41.2715 150.472 39.2715 150.472 36.2715 150.472C33.2715 150.472 30.2715 149.972 29.7715 150.472C29.2715 150.972 31 151.5 35 152.5Z" fill="white"/>
<path d="M28.7393 135.258C31.7518 136.602 37.4413 136.556 39.3915 136.053L38.7393 134.258C38.4111 134.2 38.7106 134.156 37.6824 134.229C35.626 134.374 33.6937 134.279 30.7393 133.758C27.7848 133.237 24.8799 131.971 24.3007 132.377C23.7215 132.782 24.9737 133.579 28.7393 135.258Z" fill="white"/>
<path d="M20.9986 119.499C22.8741 121.735 27.0895 122.862 28.1534 123.028L30.4991 123.5C30.5713 122.116 29.4763 119.537 28.608 120.265C27.5226 121.176 18.6543 116.705 20.9986 119.499Z" fill="white"/>
<path d="M211.155 332.797C210.204 329.903 211.298 324.41 212.08 322.23C212.764 322.527 213.748 323.441 213.748 323.441C213.748 323.441 212.749 330.807 212.886 333.303C213.022 335.799 211.996 335.355 211.155 332.797Z" fill="white"/>
<path d="M226.134 340.343C224.898 338.247 224.703 333.711 224.761 331.705L224.822 331.001C225.613 331.425 227.119 332.337 226.812 332.594C226.429 332.916 226.381 337.525 227.283 339.379C228.186 341.232 227.68 342.962 226.134 340.343Z" fill="white"/>
<path d="M254.249 344.016C254.668 335.18 253.892 336.78 265.501 305.5C274.661 280.819 247.501 246 233.001 235.5C237.626 245.586 239.79 254.668 237.001 271C233.501 291.5 246.302 313.843 245.501 323C240.565 302.339 232.001 294 221.501 283.5C212.323 274.321 200.067 270.447 192.001 251.5C188.854 267.195 196.472 296.72 202.501 310.5C209.501 326.5 231.501 335 254.249 344.016Z" fill="white"/>
<path d="M279.858 301.994C278.436 297.965 271.568 292.632 267.72 290.639L266.695 290.194L267.152 293.074L267.857 293.135C270.613 294.086 271.96 294.914 276.46 300.276C279.37 303.745 281.533 306.738 279.858 301.994Z" fill="white"/>
<path d="M272.47 313.414C271.026 310.449 267.032 307.97 265.215 307.101L264.004 308.77C264.218 309.025 264.517 308.992 265.351 309.598C267.02 310.808 268.305 312.34 270.234 314.638C272.162 316.937 273.707 319.556 274.412 319.618C275.116 319.679 274.275 317.121 272.47 313.414Z" fill="white"/>
<path d="M266.002 327C264.365 324.137 262.14 320.171 260.502 319L259.502 321C259.669 321.289 260.285 322.259 261.002 323C262.435 324.482 263.24 325.838 263.502 326.5C264.607 329.289 266.818 331.317 267.501 331.5C268.184 331.683 268.002 330.5 266.002 327Z" fill="white"/>
<path d="M258.502 339.5C257.702 338.7 256.169 335.5 255.502 334C255.335 334.5 255.002 335.6 255.002 336C255.002 336.5 257.002 339.5 258.502 341C260.002 342.5 259.502 340.5 258.502 339.5Z" fill="white"/>
<path d="M239.22 345.752C237.984 343.656 237.789 339.12 237.846 337.114L237.908 336.41C238.699 336.834 240.204 337.746 239.898 338.004C239.515 338.325 239.467 342.934 240.369 344.788C241.272 346.641 240.765 348.372 239.22 345.752Z" fill="white"/>
</svg>
