<?xml version="1.0" standalone="no"?>
<!DOCTYPE svg PUBLIC "-//W3C//DTD SVG 20010904//EN"
 "http://www.w3.org/TR/2001/REC-SVG-20010904/DTD/svg10.dtd">
<svg version="1.0" xmlns="http://www.w3.org/2000/svg"
 width="158.000000pt" height="158.000000pt" viewBox="0 0 158.000000 158.000000"
 preserveAspectRatio="xMidYMid meet">
<metadata>
Created by potrace 1.14, written by Peter Selinger 2001-2017
</metadata>
<g transform="translate(0.000000,158.000000) scale(0.100000,-0.100000)"
fill="#000000" stroke="none">
<path d="M54 1569 c-11 -6 -28 -23 -37 -39 -15 -26 -17 -93 -17 -739 0 -489 3
-717 11 -734 6 -13 23 -31 39 -40 25 -15 94 -17 739 -17 489 0 717 3 734 11
13 6 31 23 40 39 15 25 17 94 17 739 0 489 -3 717 -11 734 -6 13 -23 31 -39
40 -26 15 -93 17 -742 16 -458 0 -720 -4 -734 -10z"/>
</g>
</svg>
